<svg xmlns="http://www.w3.org/2000/svg" viewBox="0 0 1194.629 1005.939">
  <g>
    <path d="M1215.648,523.036c0,38.491,0,75.378,0,112.266,0,17.81-.461,35.64.318,53.415.2,4.6,4.575,8.911,6.525,13.568,2.7,6.451,6.937,13.075,7.027,19.673.62,45.167.327,90.347.328,135.523,0,4.686,0,9.373,0,15.712h14.961c66.9,0,133.794.412,200.683-.208,25.858-.24,43.487,11.352,42.553,42.615-1.4,46.819-.364,93.711-.364,142.221-73.668-41-149.011-48.428-225.885-15.571-76.832,32.838-122.777,92.506-142.72,173.767-42.376,0-84.454.194-126.519-.452-2.707-.042-7.229-6.346-7.683-10.124-8.157-67.978-34.029-127.838-80.324-178.621-106.74-117.087-277.687-138.228-411.2-50.8-3.964,2.6-7.934,5.184-11.7,7.644-21.091-14.749-24.83-28.072-10.33-48.155,13.886-19.233,30.616-36.392,45.539-54.911,4.02-4.989,7.886-11.375,8.659-17.517,10.122-80.479,19.676-161.03,29.519-242.774,5-.242,9.626-.658,14.247-.659q215.02-.052,430.039-.249c10.464-.024,14.9,2.136,16.82,13.478,13.142,77.415,27.285,154.659,40.776,232.015,1.177,6.752,3.127,9.839,10.467,9.774,34.748-.3,69.5-.16,104.25-.243,1.668,0,3.334-.648,6.4-1.284q0-15.519,0-30.991c0-39.094-.478-78.2.413-117.274.175-7.664,5.613-15.22,8.693-22.8.911-2.243,2.959-4.386,2.967-6.58.173-49.012.132-98.025.132-148.659h-33.486v-23.8ZM907.317,663.224q-24.1,0-48.2.017a34.263,34.263,0,0,0-3.886.371c-18.825,2.2-30.083,13.993-30.139,32.718-.18,60.357.041,120.715-.147,181.071-.039,12.375,4.766,21.453,14.689,28.721,16.105,11.8,31.784,24.173,47.649,36.3,44.194,33.773,44.2,33.771,99.038,32.857.868-.014,1.738.007,2.605-.026,22.462-.856,36.677-17.961,33.446-40.18q-17.511-120.411-34.983-240.827c-3.012-20.782-12.4-30.027-33.185-30.877C938.6,662.728,922.948,663.24,907.317,663.224ZM591.494,766.044l-.055,0c-1.38,24.682-2.684,49.369-4.1,74.049-1.065,18.519,6.789,27.606,25.719,27.723q72.874.452,145.753,0c17.116-.1,25.885-8.848,25.96-25.669q.344-76.779-.013-153.561c-.075-15.73-8.186-24.9-23.734-25.085q-70.261-.845-140.538-.04c-15.679.172-23.461,9.022-24.411,24.655C594.493,714.089,593.014,740.068,591.494,766.044Z" transform="translate(-394.371 -506.248)" fill="#5232c2"/>
    <path d="M777.3,975.045c18.1,10.5,33.618,19.851,49.494,28.541,7.624,4.173,9.2,9.787,6.03,17.036-3.347,7.652-1.175,12.626,5.272,17.654,7.49,5.843,14.838,12.314,20.64,19.764,7.883,10.121,15.453,17.092,29.058,9.737,1.758-.951,7.279,1.8,8.825,4.252,8.789,13.912,16.72,28.362,25.321,42.4,3.993,6.516,2.767,11.44-3.113,15.525-8.246,5.73-8.426,12.616-4.807,21.371a100.917,100.917,0,0,1,7.033,24.972c1.59,12.031,4.284,21.588,18.928,22.875,2.512.221,6.224,5.757,6.5,9.078,1.079,12.943,1.213,25.982,1.286,38.988.066,11.751-.834,22.8-17.095,23.338-2.531.084-6.053,5.327-7.1,8.794-4.016,13.253-6.593,26.961-10.962,40.081-2.275,6.833-.592,10.536,4.762,14.1,3.2,2.132,6.041,4.815,10.682,8.58-10.069,16.807-19.586,33.745-30.409,49.8-1.994,2.959-9.624,3.967-14.05,3.029-7.661-1.624-12.641-.753-17.834,5.819-6.682,8.456-14.2,16.754-22.879,23-10.127,7.283-12.037,14.559-5.776,24.881,1.519,2.5,2.048,5.609,3.823,10.712-17.349,9.722-34.474,19.673-52.044,28.762-2.49,1.288-8.73-.422-10.528-2.795-6.993-9.231-14.31-9.615-24.556-5.358a105.678,105.678,0,0,1-30.229,7.332c-9.8.927-14,5.6-14.746,14.376-.719,8.458-5.423,10.612-13.111,10.437-14.707-.334-29.436-.349-44.141.052-8.188.223-13.253-2.071-13.972-11.069-.662-8.289-4.661-12.6-13.853-13.624-10.684-1.188-21.708-3.4-31.468-7.7-10.72-4.726-17.8-2.823-24.173,6.156-1.216,1.715-3.124,2.939-6.2,5.746-16.478-9.689-33.505-19.054-49.645-29.758-3.091-2.05-4.677-9.942-3.475-14.142,2.435-8.509.457-13.6-6.383-18.824a113.908,113.908,0,0,1-19.664-18.92c-7.793-9.721-15.209-17.274-29.111-10.941-2.047.932-7.856-2.8-9.756-5.76-8.416-13.124-15.895-26.844-24.014-40.164-4-6.559-3.989-11.93,2.691-16.564,8.006-5.554,8.64-12.084,4.987-21.2-4.157-10.368-6.642-21.577-8.475-32.649-1.32-7.972-4-12.949-12.549-13.527-8.1-.549-12.272-4.454-12.076-13.164q.51-22.7-.063-45.416c-.228-8.7,4.015-12.679,11.989-13.314,8.491-.676,11.732-5.237,12.588-13.439a120.447,120.447,0,0,1,5.079-24.143c3.918-12.211,5.888-23.182-6.954-31.913-1.89-1.285-2.023-8.071-.478-11,7.486-14.165,15.946-27.812,23.8-41.788,3.59-6.388,8.613-8.521,15.1-5.568,8.8,4.008,14.09.512,19.824-6.3a210.526,210.526,0,0,1,24.936-24.7c6.051-5.134,9.245-9.939,5.661-17.694-3.891-8.42-.35-13.774,7.207-17.907,12.544-6.862,25.049-13.835,37.212-21.341,7.112-4.389,12.642-4.317,17.548,2.791s10.518,8.145,18.823,4.617c8.667-3.682,18.266-5.549,27.643-7.078,11.272-1.838,21.066-3.965,22.106-18.4.17-2.357,6.2-5.956,9.663-6.128,16.016-.8,32.082-.572,48.13-.743,7.323-.078,11.268,3.359,11.81,10.787.714,9.787,6.533,13.683,15.9,14.851,8.558,1.068,17.458,2.441,25.261,5.848C760.863,994.045,771.322,993.736,777.3,975.045Zm-241.93,258.147a135.229,135.229,0,0,0,134.6,135.4c74.564.428,136.35-60.854,136.394-135.281.044-74.212-62.418-136.371-136.276-135.613C595.445,1098.461,535.421,1158.831,535.373,1233.192Z" transform="translate(-394.371 -506.248)" fill="#5232c2"/>
    <path d="M1281.118,1072.723c6.572,15.1,16.2,13.633,27.338,9.087,6.744-2.753,14.394-3.21,21.354-5.544,3.273-1.1,7.722-3.7,8.458-6.464,2.75-10.341,9.681-11.917,18.729-11.492a205.739,205.739,0,0,0,23.434-.2c10.152-.684,17.174.926,18.92,13.355,1.175,8.364,43.9,17.993,49.318,11.311,5.636-6.95,10.759-7.014,17.657-2.719,7.355,4.58,15.019,8.669,22.59,12.9,8.055,4.5,14.776,9.513,8.82,20.131a3.52,3.52,0,0,0-.32,1.258c-1.035,8.1,30.378,37.062,37.865,34.01,8.679-3.538,12.862.094,16.745,6.794,4.13,7.126,8.744,13.975,12.786,21.147,4.5,7.989,9.878,16.344-2.409,22.676a2.972,2.972,0,0,0-.956.876c-4.65,6.269,8.887,47.085,16.65,48.339,7.8,1.259,10.029,5.285,10.054,12.308.032,9.112.349,18.229.782,27.332.471,9.9-1.272,17.84-12.828,20.655-2.89.7-5.992,4.833-7.036,8.028-3.358,10.276-6.512,20.738-8.223,31.373-.632,3.928,3.252,8.452,4.544,12.859,1.245,4.247,3.671,9.44,2.29,12.907-3.337,8.381-8.532,16.033-13.091,23.914-4.936,8.531-10.029,16.892-22.045,10.037a4.688,4.688,0,0,0-2.554-.371c-4.917.394-32.807,31.879-33.909,36.692-1.024,4.472-2.8,10.17-6.189,12.449-11.79,7.935-24.421,14.62-38,22.516-6.884-15.539-17.477-13.61-29.306-8.7-5.936,2.465-12.773,2.721-18.8,5.035-3.451,1.326-8.5,4.62-8.669,7.294-.72,11.236-7.774,11.761-16.116,11.667-12.961-.146-25.924-.039-40.43-.039,1.982-19.194-11.818-19.835-24.082-22.3-11.654-2.342-24.141-12.677-34.03,3.694-.577.955-5.683.1-8.055-1.12-8.854-4.57-17.4-9.735-26.151-14.506-8.224-4.483-14-9.276-9.045-20.259,2.774-6.144-28.453-38.752-34.385-35.894-12.165,5.86-17.235-1.11-22.247-9.8-3.684-6.384-7.226-12.861-11.191-19.067-4.993-7.814-6.8-14.9,2.849-20.573a5.985,5.985,0,0,0,1.854-1.813c4.392-6.6-9.779-46.43-17.638-47.981-6.912-1.364-9.382-4.688-9.378-11.342.005-9.978-.289-19.966-.812-29.932-.494-9.41,2.04-15.977,12.787-16.989,2.155-.2,5.412-2.068,5.959-3.845,3.95-12.829,7.466-25.8,10.721-38.824.381-1.523-1.171-4.5-2.662-5.366-12.067-7.031-7.226-15.357-2.185-23.8,3.557-5.957,7.443-11.745,10.606-17.9,4.731-9.211,10.323-13.806,21.492-9.055,7.066,3.006,38.653-28.724,35.621-35.745-4.375-10.131-.3-15.25,7.919-19.7C1257.546,1086.07,1268.418,1079.832,1281.118,1072.723Zm200.2,204.9c.358-62.718-50.723-114.151-113.987-114.772-62.116-.61-114.057,50.456-114.556,112.627-.515,64.154,49.916,115.522,113.86,115.976C1429.726,1391.9,1480.952,1341.05,1481.315,1277.618Z" transform="translate(-394.371 -506.248)" fill="#5232c2"/>
    <path d="M1013.494,585.911H554.618c0-18.351-1.563-36.53.531-54.277,1.478-12.525,10.787-21.568,24.391-23.781a105.484,105.484,0,0,1,16.779-1.537q188.087-.128,376.175-.065c13.275,0,26.986.556,34.722,13.142,3.936,6.4,5.513,14.922,6.014,22.624C1014.154,556.192,1013.494,570.47,1013.494,585.911Z" transform="translate(-394.371 -506.248)" fill="#5232c2"/>
    <path d="M1481.315,1277.618c-.362,63.432-51.589,114.278-114.682,113.83-63.945-.454-114.376-51.822-113.86-115.976.5-62.17,52.44-113.236,114.556-112.627C1430.592,1163.467,1481.673,1214.9,1481.315,1277.618Zm-168.725-.534c-.011,30.043,24.746,54.749,54.638,54.525,29.2-.218,54-24.745,54.4-53.8.407-29.6-24.517-54.892-54.323-55.127A54.575,54.575,0,0,0,1312.59,1277.084Z" transform="translate(-394.371 -506.248)" fill="#5232c2"/>
    <path d="M608.406,1232.825c.145-33.909,28.173-61.919,62.1-62.056,34.09-.138,63.1,28.941,62.829,62.975-.271,33.893-28.409,61.734-62.458,61.8A62.045,62.045,0,0,1,608.406,1232.825Z" transform="translate(-394.371 -506.248)" fill="#5232c2"/>
  </g>
</svg>
