<svg xmlns="http://www.w3.org/2000/svg" viewBox="0 0 948.542 1084.008">
  <g>
    <path d="M946.607,859.565V843.8c0-118.887.163-237.775-.27-356.661-.04-10.979,3.33-16.238,13.34-20.639,73.7-32.4,148.879-32.547,225.132-11.408,48.048,13.32,95.674,28.263,144,40.45,73.171,18.452,144.834,13.448,213.792-18.94,1.2-.564,2.6-.7,5.655-1.472.307,4.758.82,9.022.821,13.286.043,119.813-.142,239.626.322,359.437.044,11.348-4.275,16.043-13.959,20.259-72.76,31.674-147.068,32.5-222.473,11.94-52.106-14.209-103.67-30.6-156.159-43.164-69.594-16.659-137.726-9.91-203.024,20.508C952.228,858.124,950.471,858.416,946.607,859.565Z" transform="translate(-600.857 -432.695)" fill="#5232c2"/>
    <path d="M835.384,432.7h69.588v917.416H835.384Z" transform="translate(-600.857 -432.695)" fill="#5232c2"/>
    <path d="M951.532,1193.2c17.142,4.489,32.826,7.8,47.985,12.722,39.156,12.723,74.919,31.424,103.8,61.638,48.746,50.989,48.078,119.74-1.945,169.721-38.711,38.679-87.136,58.731-139.485,69.475-84.808,17.406-168.319,12.844-249.011-20.629-36.465-15.127-68.633-36.853-90.96-70.167-31.243-46.615-27.447-99.566,9.5-141.939,36.819-42.222,85.451-63.406,138.558-76.233,4.484-1.083,9.02-1.96,13.552-2.827.863-.165,1.822.17,4.9.521,0,14.715.485,29.782-.443,44.76-.169,2.725-5.757,5.981-9.455,7.479-23.042,9.327-47.253,16.343-69.078,27.9-15.495,8.2-29.556,20.844-41.236,34.155-22.249,25.356-22.149,53.964-2.112,81.2,18.186,24.721,43.665,40.1,71.586,50.512,87.891,32.773,176.563,33.42,264.179-.148,21.916-8.4,43.078-22.058,60.693-37.688,35.309-31.331,34.514-70.714,1.147-104.019-27.8-27.749-62.862-41.713-99.995-50.988-9.471-2.366-13.123-5.759-12.4-15.65C952.217,1220.64,951.532,1208.168,951.532,1193.2Z" transform="translate(-600.857 -432.695)" fill="#5232c2"/>
  </g>
</svg>
