<svg xmlns="http://www.w3.org/2000/svg" viewBox="0 0 1238.638 1031.561">
  <g>
    <path d="M655.05,542.973c-4.61,56.078,8.253,105.616,45.875,147.2,33.8,37.359,76.414,57.382,126.415,58.309,60.252,1.117,120.662,1.676,180.808-1.37,77.673-3.933,143.39-64.6,157.641-141.127,3.717-19.958,3.419-40.664,5.115-63.009h12.313q131.346,0,262.692.015c67.955.046,111.118,43.387,111.121,111.495q.017,380.636-.025,761.272c-.013,52.172-31.411,92.767-81.051,104.241-9.866,2.281-20.371,2.485-30.581,2.488-338.194.121-676.39-.483-1014.581.589-68.182.216-112.679-50.966-112.384-112.465,1.207-251.964.5-503.938.508-755.908,0-68.249,43.057-111.648,110.905-111.711q105.881-.1,211.762-.015Zm24.629,773.392c47.787,0,95.577.333,143.36-.106,37.878-.347,60.086-24.824,58.622-62.515-.967-24.9-10.738-46-30.651-59.794-21.828-15.117-45.956-26.937-69.22-39.946-11.259-6.3-23.525-11.008-34.128-18.213-23.5-15.968-27.535-37.205-12.547-61.445a77.452,77.452,0,0,1,13.329-16.67c31.524-28.6,41.553-64.64,36.665-105.582C772.683,848.015,669,832.515,613.475,872.342c-34.237,24.556-52.7,80.864-41.517,126.681,6.059,24.829,20.47,43.838,37.734,61.963,30.9,32.445,24.113,65.364-16.183,84.335-21.766,10.247-44.551,18.82-64.971,31.273-15.65,9.544-30.554,22.239-41.774,36.658-16.163,20.771-17.854,45.174-5.355,69.354,12.345,23.882,32.129,34.262,58.929,33.929C586.779,1315.958,633.232,1316.374,679.679,1316.364Zm541.886-386.882q-97.094,0-194.189.014a106.745,106.745,0,0,0-13.37.378c-16.617,2.111-24.3,10.694-24.627,27.621-.239,12.495-.05,25-.05,37.5,0,30.955,6.918,38.044,37.408,38.049q194.858.031,389.717-.027a93.616,93.616,0,0,0,14.652-.877c15.135-2.413,21.927-9.934,22.293-25.115.344-14.277.1-28.569.088-42.854-.014-27.334-7.335-34.651-35.055-34.671Q1320,929.427,1221.565,929.483Zm-26.293,309.824q85.051,0,170.1-.06a113.757,113.757,0,0,0,17.289-1.386c11.819-1.846,18.466-9.723,18.962-20.958.866-19.6.837-39.3,0-58.907-.456-10.654-6.761-18.349-17.906-20.486a85.321,85.321,0,0,0-15.9-1.623q-172.111-.135-344.223-.058a78.967,78.967,0,0,0-9.362.285c-16.588,1.988-24.525,10.615-24.851,27.44-.259,13.389-.059,26.787-.055,40.181.008,27.976,7.515,35.518,35.841,35.551Q1110.221,1239.386,1195.272,1239.306Z" transform="translate(-318.407 -491.511)" fill="#5232c2"/>
    <path d="M913.831,491.758c26.347-.02,52.709-.614,79.036.115,42.9,1.188,73.6,33.092,73.914,75.757.317,43.31-29.154,76.505-71.84,77.48q-83.005,1.9-166.083-.041c-42.559-1.012-71.77-34.511-71.121-78.033.631-42.355,30.834-73.907,73.041-75.11C858.441,491.139,886.145,491.778,913.831,491.758Z" transform="translate(-318.407 -491.511)" fill="#5232c2"/>
  </g>
</svg>
