<svg xmlns="http://www.w3.org/2000/svg" viewBox="0 0 1021.438 1132.589">
  <g>
    <path d="M1017.917,843l107.762,103.022c5.526-6.391,10.86-11.983,15.531-18.082,10.374-13.544,24.383-18.906,40.873-18.928,52.507-.072,105.029-.848,157.515.195,31.154.619,52.653,23.568,52.032,52.014-.6,27.352-23.347,48.651-53.74,49.055-39.051.519-78.116-.057-117.167.459a26.446,26.446,0,0,0-12.339,3.861c17.607,20.322,34.975,40.862,53.094,60.716,2.517,2.758,8.72,2.869,13.243,2.963,37.283.779,74.617.357,111.845,2.159,24.987,1.21,41.148,18.76,41.85,41.437.757,24.455-13.506,41.052-39.246,45.017a177.021,177.021,0,0,1-25.862,2.147c-39.49.22-78.983-.028-118.474.144-18.5.081-34.382-4.49-48.3-18.15-20.4-20.033-42.454-38.39-64.265-57.875l-35.524,36.482c-14.3-39.659-39.116-64.509-84.108-73.46l41.646-32.85L943.328,924.049l-26.841,29.14c-12.046-40.313-35.623-66.378-76.921-76.709L862.547,851.8c-21.252-19.051-41.542-38.609-63.3-56.362-21.511-17.548-30.975-38.069-30.1-66.542,1.824-59.4,1.694-118.924.041-178.333-.761-27.359,24.7-60.619,63.469-60.724,34.352-.093,61.787,27.174,61.8,60.444.015,54.681-.23,109.364.332,164.039.062,6.008,3.285,13.278,7.444,17.706,12.448,13.252,26.089,25.384,39.926,38.585,3.349-3.089,6.879-5.522,9.35-8.762,14.024-18.384,33.171-23.154,55.2-22.945,52.94.5,105.89-.045,158.832.364,8.8.068,13.965-2.768,19.059-9.914q67.6-94.838,136-189.107c23.377-32.225,67.195-32.627,90.926-1.35,14.405,18.985,13.6,43.871-2.81,66.36-25.573,35.039-51.485,69.831-77.258,104.724-25.258,34.2-51.084,67.99-75.565,102.732-14.162,20.1-32.562,28.409-56.488,28.247-54.244-.366-108.493-.156-162.74-.041C1031.831,840.934,1027.009,841.956,1017.917,843Z" transform="translate(-407.008 -489.844)" fill="#5232c2"/>
    <path d="M982.815,1251.154l-73.839,66.885c18.984,21.627,34.7,41.361,52.388,59.14,15.929,16.014,24.7,33.242,24.164,56.423-1.034,44.673,0,89.389-.381,134.083-.328,38.346-33.391,63.447-67.6,51.936-20.488-6.895-34.084-27.079-34.224-51.776-.206-36.451-.261-72.905.124-109.353.089-8.485-2.252-14.428-8.777-20.2-25.343-22.429-50.227-45.381-75.072-68.366-31.357-29.009-32.186-59.933-2.588-90.244q50.024-51.228,100.1-102.409c2.665-2.742,4.174-6.608,7.494-9.085,12.213,40.4,35.616,66.941,75.3,77.924Z" transform="translate(-407.008 -489.844)" fill="#5232c2"/>
    <path d="M806.694,875.6c-46.519,10.651-70.578,38.268-82.014,79.725-4.655-4.425-8.4-7.947-12.1-11.515-44.665-43.021-89.167-86.215-134.217-128.829a31.2,31.2,0,0,0-19.041-7.693c-32.073-.8-64.185.1-96.263-.569-27.643-.576-49.371-19.086-54.921-45.155-5.224-24.538,8.168-52.294,31.788-62.274,9.266-3.915,20.126-5.421,30.3-5.586,38.587-.625,77.191-.087,115.787-.321,20.151-.123,36.588,6.766,51.183,21.084,51.389,50.412,103.416,100.173,155.282,150.1C795.869,867.831,799.944,870.4,806.694,875.6Z" transform="translate(-407.008 -489.844)" fill="#5232c2"/>
    <path d="M1098.581,1161.017c2.5,1.921,3.936,2.818,5.129,3.968,61.823,59.6,123.906,118.942,185.311,178.974,30.332,29.653,23.294,75.572-13.667,91.931-21.516,9.523-43.389,7.794-60.7-8.637-62.287-59.112-123.771-119.069-185.532-178.735-.572-.553-.773-1.491-1.6-3.169C1067.831,1232.083,1090.93,1203.887,1098.581,1161.017Z" transform="translate(-407.008 -489.844)" fill="#5232c2"/>
    <path d="M726.005,992.092c12.337,39.417,37.109,64.641,78.129,73.852-2.23,2.968-3.723,5.477-5.7,7.514-42.93,44.17-85.752,88.448-128.961,132.343-19.365,19.673-46.265,22.625-69.042,8.69-21.112-12.917-31.793-40.424-23.374-63.322a67.04,67.04,0,0,1,14.01-23.08c42.865-44.231,86.28-87.929,129.552-131.765A57.94,57.94,0,0,1,726.005,992.092Z" transform="translate(-407.008 -489.844)" fill="#5232c2"/>
    <path d="M820.412,1028.7a57.508,57.508,0,0,1,.206-115.015c32.068-.075,58.139,25.8,58.089,57.645C878.657,1003.223,852.637,1028.829,820.412,1028.7Z" transform="translate(-407.008 -489.844)" fill="#5232c2"/>
    <path d="M1059.732,1152.286c.069,31.677-26.382,58.105-57.962,57.914-31.072-.188-57.388-26.2-57.678-57.02a57.822,57.822,0,1,1,115.639-.894Z" transform="translate(-407.008 -489.844)" fill="#5232c2"/>
    <path d="M981.7,1057.877c-34.384,6.1-60.8,31.28-74.5,72.777l-59.795-66.845c34.487-9.077,59.05-35.948,69.277-78.013Z" transform="translate(-407.008 -489.844)" fill="#5232c2"/>
  </g>
</svg>
