<svg xmlns="http://www.w3.org/2000/svg" viewBox="0 0 1210.015 941.746">
  <g>
    <path d="M960.378,1425.291q-257.184,0-514.367.054c-32.644.022-61.295-9.009-77.459-39.173-7.329-13.676-12.5-30.429-12.544-45.8q-1.128-384.382-.541-768.769c0-52.656,32.17-86,84.81-87.787,2.777-.094,5.56-.032,8.341-.032q512.282,0,1024.564-.134c35.5-.023,65.19,10.227,82.313,43.216,5.549,10.691,9.506,23.635,9.53,35.557q.8,392.031.34,784.064c-.025,45.365-36.354,78.4-86.449,78.718-57.922.369-115.848.089-173.772.089ZM961.5,551.3q-250.228,0-500.456.011c-30.549,0-38.306,7.919-38.307,38.832q-.008,365.611.006,731.222c0,27.628,8.807,36.557,36.612,36.56q501.151.065,1002.3,0c28.286,0,36.638-8.416,36.639-36.251q.01-273.166,0-546.331,0-96.616-.036-193.232c-.028-20.162-9.327-29.749-29.359-30.722-4.624-.225-9.266-.091-13.9-.091Q1208.248,551.3,961.5,551.3Z" transform="translate(-355.444 -483.646)" fill="#5232c2"/>
    <path d="M1376.8,753.764v79.024H545.182V753.764Z" transform="translate(-355.444 -483.646)" fill="#5232c2"/>
    <path d="M544.923,968.665h657.184v78.856H544.923Z" transform="translate(-355.444 -483.646)" fill="#5232c2"/>
  </g>
</svg>
