<svg xmlns="http://www.w3.org/2000/svg" viewBox="0 0 1271.56 1265.56">
  <g>
    <path d="M1476.578,675.526c0,111.025.147,218.909-.508,326.788-.028,4.574-6.6,11.251-11.626,13.322-50.97,21.014-79.406,79.024-62.891,129.778,17.825,54.778,73.052,86.105,127.7,72.438,40.845-10.215,76.161-49.976,79.49-89.5,4.138-49.122-20.363-91.9-64.334-110.794-9.25-3.976-15.133-7.32-15.076-19.328q.77-162.743.035-325.492c-.044-10.946,4.229-15.178,13.789-18.131,16.586-5.123,32.921-11.122,49.168-17.264,12.406-4.689,18.316-14.129,16.138-27.374-2.369-14.406-14.256-18.252-26.043-22.348Q1286.193,484.675,989.861,382.036c-10.932-3.762-25.337-3.255-36.467.363-55.067,17.9-109.577,37.517-164.282,56.532Q573.3,513.944,357.459,588.85c-10.732,3.717-19.218,8.927-19.788,21.168-.582,12.5,6.03,20.706,17.607,25.051,4.334,1.627,8.628,3.37,13,4.891q295.383,102.747,590.9,205.094a46.152,46.152,0,0,0,27.955.149c105.206-35.995,210.127-72.823,315.151-109.35C1359.638,715.906,1417.045,696.126,1476.578,675.526ZM1344.142,779.263c-8.248,2.6-13.733,4.184-19.12,6.051C1219.982,821.7,1114.851,857.835,1010,894.757c-24.705,8.7-48.023,8.889-72.79.134-94.981-33.574-190.275-66.263-285.47-99.231-15.725-5.446-31.538-10.637-49.513-16.687V799.8c0,109.628.506,219.26-.426,328.881-.187,22.016,8.143,33.727,27.648,42.389,86.572,38.441,176.636,62.625,271.126,70.409,146.262,12.049,286.458-10.686,420.087-72.111,16.484-7.577,23.946-18.908,23.825-38.005-.7-111.364-.344-222.734-.344-334.1C1344.142,792.094,1344.142,786.93,1344.142,779.263Zm79.809,474.339c0,119.563-.2,236.121.18,352.677.071,21.709,16.83,37.527,39.358,38.242,23.757.755,47.553.429,71.331.279,33.537-.211,48.258-15.246,48.277-49.289q.087-161.819-.019-323.638c0-5.4-.614-10.795-1.056-18.078C1528.743,1280.667,1477.38,1280.236,1423.951,1253.6Z" transform="translate(-337.636 -379.44)" fill="#5232c2"/>
    <path d="M1476.578,675.526c-59.533,20.6-116.94,40.381-174.29,60.327-105.024,36.527-209.945,73.355-315.151,109.35a46.152,46.152,0,0,1-27.955-.149Q663.546,743.037,368.277,639.96c-4.371-1.52-8.664-3.264-13-4.891-11.577-4.345-18.189-12.547-17.607-25.051.57-12.241,9.056-17.451,19.788-21.168q215.893-74.767,431.652-149.919c54.7-19.015,109.215-38.63,164.282-56.532,11.131-3.618,25.535-4.125,36.467-.363Q1286.4,484.078,1582.419,587.624c11.787,4.1,23.675,7.943,26.043,22.348,2.178,13.246-3.732,22.685-16.138,27.374-16.247,6.141-32.582,12.141-49.168,17.264-9.559,2.952-13.833,7.185-13.789,18.131q.657,162.745-.035,325.492c-.057,12.008,5.826,15.352,15.076,19.328,43.972,18.9,68.473,61.672,64.334,110.794-3.329,39.52-38.645,79.281-79.49,89.5-54.649,13.668-109.877-17.66-127.7-72.438-16.515-50.753,11.921-108.764,62.891-129.778,5.021-2.07,11.6-8.747,11.626-13.322C1476.725,894.435,1476.578,786.551,1476.578,675.526Z" transform="translate(-337.636 -379.44)" fill="#5232c2"/>
    <path d="M1344.142,779.263c0,7.667,0,12.831,0,17.994,0,111.368-.358,222.739.344,334.1.12,19.1-7.341,30.428-23.825,38.005-133.629,61.425-273.826,84.16-420.087,72.111-94.49-7.784-184.553-31.968-271.126-70.409-19.506-8.661-27.836-20.373-27.648-42.389.932-109.62.426-219.253.426-328.881V778.973c17.975,6.05,33.788,11.241,49.513,16.687,95.195,32.968,190.489,65.656,285.47,99.231,24.767,8.755,48.085,8.565,72.79-.134,104.853-36.921,209.984-73.053,315.024-109.443C1330.409,783.448,1335.894,781.864,1344.142,779.263Z" transform="translate(-337.636 -379.44)" fill="#5232c2"/>
    <path d="M1423.951,1253.6c53.429,26.634,104.792,27.065,158.071.193.442,7.283,1.053,12.681,1.056,18.078q.083,161.819.019,323.638c-.018,34.043-14.74,49.078-48.277,49.289-23.777.15-47.574.475-71.331-.279-22.528-.716-39.287-16.534-39.358-38.242C1423.75,1489.723,1423.951,1373.165,1423.951,1253.6Z" transform="translate(-337.636 -379.44)" fill="#5232c2"/>
  </g>
</svg>
