<svg xmlns="http://www.w3.org/2000/svg" viewBox="0 0 1051.117 1051.207">
  <g>
    <path d="M872.317,346.333c291.391.175,525.534,234.878,525.373,526.63-.16,290.412-235.164,524.892-525.746,524.576-292.386-.319-525.76-234.829-525.37-527.93C346.957,580.514,582.417,346.159,872.317,346.333Zm1.619,207.6c-3.228,2.772-4.525,3.518-5.324,4.623C798.171,656.115,731.5,756.1,683.045,866.709c-13.179,30.08-25.166,62.727-27.813,95.007-9.427,114.972,77.273,213.84,195.319,227.765,119.759,14.127,234.482-83.944,239.843-204.282,2.022-45.38-13.737-85.932-31.93-125.71C1009.5,752.44,945.013,654.7,876.472,559.461,875.335,557.881,874.8,555.865,873.935,553.934Z" transform="translate(-346.572 -346.333)" fill="#5232c2"/>
    <path d="M907.7,927.584c22.471,0,45.322-1.05,68.016.383,14.264.9,24.873,14.1,26.52,28.123,1.545,13.152-7.325,28.654-20.478,33.1-6.846,2.314-14.6,2.488-21.958,2.633-17.759.35-35.531.113-54.848.113,0,21.326.108,41.049-.029,60.771-.15,21.526-13.775,36.511-32.873,36.454s-32.575-15.017-32.72-36.61c-.129-19.339-.027-38.679-.027-60.614-18.285,0-35.906.255-53.513-.116-7.852-.166-16.116-.285-23.419-2.733-13.215-4.429-21.954-20-20.328-33.15,1.729-13.987,12.394-27.11,26.651-28,22.7-1.414,45.546-.378,70.607-.378,0-21.275-.046-40.427.012-59.577.069-23.185,12.6-38.144,32.15-38.518,20.234-.387,33.379,14.792,33.492,38.677.084,17.874.15,35.749.3,53.622C905.261,922.647,905.961,923.526,907.7,927.584Z" transform="translate(-346.572 -346.333)" fill="#5232c2"/>
  </g>
</svg>
