<svg xmlns="http://www.w3.org/2000/svg" viewBox="0 0 1182.394 1018.519">
  <path d="M1471.9,1390.778H1366.112V1328.6H669.675v61.721h-105.9v-62.593c-17.7,0-33.665.042-49.629-.008-58.852-.184-86.823-28.022-86.821-86.288q.015-328.032.005-656.063c0-51.96,30.062-82.489,81.9-83.042,17.3-.185,34.608-.029,53.383-.029v-40.6H667.954v39.093h97.1c6.746-29.99,13.661-60.953,20.686-91.89,6-26.407,18.189-36.544,44.881-36.565q187.571-.146,375.143-.01c27.217.017,39.42,9.621,45.471,35.814,7.058,30.55,13.729,61.19,20.823,92.933h96.457V461.49h105.382v43.64c20.765,0,39.794-.2,58.817.039,47.1.592,76.987,30.982,76.991,78.144q.024,333.266,0,666.533c0,44.029-25.2,73-68.965,76.746-22.317,1.909-44.932.334-68.836.334ZM593.862,505.862v822.3h47.094v-822.3Zm804.831-.029v822.373H1445.6V505.833ZM1183.794,450H853.267l-11.536,54.091h353.8Z" transform="translate(-427.322 -372.259)" fill="#5232c2"/>
</svg>
