<svg xmlns="http://www.w3.org/2000/svg" viewBox="0 0 1033.868 1034.953">
  <g>
    <path d="M998.041,1461.028q-135.99,0-271.981-.018c-32.3-.019-37.9-7.248-34.505-38.908,12.456-116.1,24.347-232.251,36.47-348.382Q748.4,878.584,768.8,683.451q12.032-115.179,24.066-230.359c2.166-20.662,8.231-26.432,29.338-26.454q178.128-.187,356.256.007c20.96.024,26.945,5.9,29.011,26.782q32.791,331.457,65.549,662.916,15.351,155.252,30.705,310.5c2.649,26.836-3.937,34.1-31.786,34.137Q1134.989,1461.157,998.041,1461.028Zm53.772-387.021c0-17.824.111-35.648-.033-53.47-.13-16.17-8.557-24.974-24.623-25.4-17.811-.468-35.65-.388-53.466-.035-15.969.316-24.989,8.629-25.092,24.91-.222,35.009-.113,70.021-.074,105.031.018,16.352,8.812,24.875,24.649,25.412,17.8.6,35.654.576,53.461.052,16.908-.5,25.408-9.7,25.237-26.851C1051.706,1107.11,1051.835,1090.558,1051.813,1074.007Zm.027-516.977c0-17.187.318-34.382-.083-51.559-.465-19.929-7.948-27.239-28.151-27.689-15.906-.354-31.835-.4-47.738.023-19.12.508-26.988,7.871-27.238,26.612-.458,34.368-.157,68.746-.11,103.121.023,17.44,9.664,25.5,26.293,25.812,17.181.322,34.383.438,51.556-.045,16.845-.474,25.606-9.409,25.488-26.621C1051.742,590.131,1051.831,573.58,1051.84,557.03Zm-.055,257.409c0-17.826.27-35.658-.083-53.478-.3-15.116-7.917-23.814-23.618-23.936-18.462-.144-36.926-.1-55.388-.04-15.564.054-23.869,8.294-24.026,23.522q-.553,53.473-.011,106.956c.147,14.988,7.825,23.875,23.584,23.984,18.462.127,36.926.07,55.389.032,15.642-.032,23.6-8.464,24.022-23.565C1052.151,850.1,1051.77,832.265,1051.784,814.438Zm.013,517.819c0-17.825.185-35.653-.055-53.475-.218-16.231-8.565-24.62-25.01-24.6-17.825.025-35.651-.009-53.476.015-15.337.02-24.35,7.579-24.531,23.011-.425,36.281-.542,72.577.044,108.854.246,15.244,9.42,22.844,24.824,22.755,17.188-.1,34.382.236,51.565-.083,19.186-.356,26.083-7.237,26.6-26.826C1052.192,1365.37,1051.847,1348.809,1051.8,1332.257Z" transform="translate(-483.132 -426.284)" fill="#5232c2"/>
    <path d="M636.719,426.7c45.185-1.072,56.946-4.209,50.08,53.878-16.925,143.2-30.577,286.787-45.479,430.226q-19.979,192.312-39.828,384.638c-5,48.237-10.278,96.448-15.049,144.708-1.2,12.116-7.082,19.49-18.942,19.949-21.022.813-42.167,1.578-63.115.178-16.06-1.073-22.717-11.9-20.989-28.167q14.063-132.3,27.782-264.637,18.268-174.2,36.548-348.407,19.365-185.638,38.434-371.306c1.407-13.748,7.7-21.118,21.827-21.066C617.565,426.727,627.142,426.7,636.719,426.7Z" transform="translate(-483.132 -426.284)" fill="#5232c2"/>
    <path d="M1363.919,426.568c58.326-.971,47.948,1.594,52.9,48.128,24.163,227.052,47.176,454.226,70.755,681.34,9.484,91.352,19.4,182.659,29.065,273.991,2.192,20.714-5.484,30.083-26.2,30.843-16.571.608-33.186.34-49.775.049-16.471-.289-25.357-7.968-27.137-25.4q-24.491-239.842-49.762-479.605-25.889-247.391-52.068-494.752c-2.858-26.987,3.453-34.382,31.165-34.586C1349.878,426.526,1356.9,426.57,1363.919,426.568Z" transform="translate(-483.132 -426.284)" fill="#5232c2"/>
  </g>
</svg>
