<svg xmlns="http://www.w3.org/2000/svg" viewBox="0 0 1190.149 1027.235">
  <g>
    <path d="M929.325,1337c0,34.844.065,69.688-.023,104.531-.06,23.722-8.767,32.736-32.307,32.8q-83.624.244-167.249-.015c-22.566-.082-31.171-9.214-31.457-32.084a7.681,7.681,0,0,1,.01-1.491c9.026-45.866-11.619-77.056-44.4-107.975-77.462-73.054-151.175-150.075-226.794-225.1-15.064-14.945-22.32-31.4-22.249-52.975.514-155.8.308-311.6.23-467.4-.011-21.178,7.954-38.019,26.815-48.1,17.622-9.424,35.666-8.618,52.191,3,13.692,9.626,22,22.882,22.019,40.207.07,63.714-.038,127.429.144,191.142.02,7.124-1.366,11.17-8.922,14.574-53.355,24.036-65.864,85.246-26.257,128.376,16.147,17.583,33.617,33.952,50.506,50.851q50.143,50.17,100.309,100.316c2.112,2.112,4.143,4.31,6.334,6.336,7.21,6.666,15.237,8.268,22.391.849,6.858-7.114,4.329-14.615-2.073-21.035q-30.577-30.665-61.219-61.266c-30.621-30.623-61.362-61.126-91.835-91.9-24.049-24.282-25.339-53.448-3.765-75.408,20.167-20.528,52.491-18.651,75.726,4.582Q730.6,992.949,893.7,1156.129c24.023,24.013,37.147,51.963,35.788,86.8-1.221,31.312-.257,62.709-.257,94.068Z" transform="translate(-404.851 -447.287)" fill="#5232c2"/>
    <path d="M1594.665,824.451c0,76.652-.523,153.31.33,229.952.247,22.2-7.38,38.865-22.829,54.2-86.9,86.263-173.221,173.1-260.052,259.431-7.673,7.629-11.449,15.093-10.871,26.046.89,16.876.4,33.836.187,50.756-.241,19.519-8.743,29.238-27.73,29.375q-87.349.628-174.7-.014c-18.829-.138-28.082-10.276-28.116-29.3q-.193-107.511.1-215.023c.1-27.439,12.383-50.248,31.093-69.051q166.937-167.77,334.616-334.8c20.09-20.034,52.413-19.972,71.336-1.038,21.051,21.064,21.185,50.557-1.129,73.2-48.207,48.927-97.023,97.255-145.581,145.836-3.87,3.872-9.358,7.188-11.08,11.871-2.081,5.66-3.483,15.948-.627,18.051,4.64,3.417,13.044,2.547,19.725,1.96,2.682-.236,5.031-4.489,7.495-6.951q72.338-72.315,144.658-144.649c48.561-48.632,39.891-104.689-20.847-137.545-3.3-1.787-6.343-7.493-6.366-11.393-.379-64.7-.609-129.413-.074-194.115.223-27.041,23.805-48.463,50.872-48.111,27.99.365,49.356,21.713,49.487,50.9.331,73.664.107,147.33.105,221Q1594.663,814.745,1594.665,824.451Z" transform="translate(-404.851 -447.287)" fill="#5232c2"/>
    <path d="M1124.4,848.091q-94.09,0-188.179-.025c-25.178-.03-31.114-6.856-26.8-31.783a246.263,246.263,0,0,1,8.1-31.735c14.386-45.717,43.686-64.639,96.426-70.523,5.9-.658,12,.459,17.9-.214,10.245-1.169,17.329,2.708,24.807,9.874,33.243,31.855,94.714,36.289,128.9,5.428,19.917-17.979,40.371-17.238,61.736-13.929,57.866,8.963,94.486,53.536,94.914,112.487.09,12.348-6.985,19.857-20.666,20.213-19.9.519-39.823.2-59.736.2Q1193.1,848.106,1124.4,848.091Z" transform="translate(-404.851 -447.287)" fill="#5232c2"/>
    <path d="M1026.664,685.55c2-55.275,1.978-108.951,6.544-162.234,3.112-36.32,25.52-60.917,61.8-70.264,38.28-9.862,74.231-4.363,101.543,25.4,10.667,11.624,18.378,29.672,19.731,45.455,4.532,52.858,5.586,106.014,8,159.577-5.931,1.059-8.731,2.123-11.453,1.952-15.647-.981-27.129,1.593-39.025,15.977-25.043,30.283-82.129,24.29-105.312-7.344-3.112-4.247-9.706-7.122-15.163-8.178C1046.156,684.5,1038.514,685.55,1026.664,685.55Z" transform="translate(-404.851 -447.287)" fill="#5232c2"/>
    <path d="M803.454,559.1c1.519-10.3,3.3-27.6,6.721-44.578,11.129-55.21,61.842-69.751,97.26-66.9,51.956,4.189,76.947,29.025,86.844,80.024,12.065,62.179-6.011,117.285-39.392,168.146-21.556,32.843-84.806,33.672-107.367,1.139C820.536,658.025,803.649,614.675,803.454,559.1Z" transform="translate(-404.851 -447.287)" fill="#5232c2"/>
    <path d="M881.015,848.092c-20.378,0-39.705,0-59.033,0-38.822-.008-77.645.225-116.464-.137-18.077-.169-25.056-9.179-21.895-26.927q2.352-13.2,5.535-26.25c10.108-41.34,34.442-68.627,77.125-77.718,6.312-1.344,12.6-2.883,18.785-4.725,18.355-5.471,33.736-8.993,48.746,11.247,14.69,19.809,40.292,23.985,65.816,25.691C888.6,780.965,875.143,811.651,881.015,848.092Z" transform="translate(-404.851 -447.287)" fill="#5232c2"/>
  </g>
</svg>
