<svg xmlns="http://www.w3.org/2000/svg" viewBox="0 0 1397.444 1397.906">
  <g>
    <path d="M602.513,1131.8H511.926V921.861c23.5,0,47.4-.862,71.187.311,15.227.751,22.94-3.442,27.77-18.7,7.385-23.335,18.21-45.62,29.4-72.781l-63.018-55.625L730.684,623.585c15.072,15.631,31.982,34.7,50.819,51.7,5.139,4.639,16.717,5.623,24.2,3.793,12.352-3.021,23.626-10.073,35.622-14.764,38.09-14.894,38.137-14.776,38.138-56.385V561.158h214.1c0,21.256,1.074,42.511-.319,63.608-1.257,19.046,2.5,31.97,24.6,35.228,10.14,1.495,19.827,6.64,29.444,10.75,35.485,15.167,35.578,15.394,63.392-12.723,11.74-11.868,22.773-24.411,32.677-35.084l153.711,151.107c-14.2,13.486-29.652,29.558-46.646,43.862-13.669,11.5-18.607,22.149-7.209,38.136,5.9,8.273,8.849,18.648,12.7,28.241,15.084,37.554,15.02,37.579,57.386,37.579h47.521v210.4c-25.124,0-49.949.543-74.733-.228-12.441-.387-18.349,3.282-22.286,15.714-6.209,19.605-16.742,37.879-23.118,57.448-2.259,6.932-.516,18.5,4.232,23.649,16.788,18.2,35.667,34.536,51.971,49.9L1244.163,1429l-55.148-62.957c-32.863,12.916-58.647,22.13-83.421,33.472-5.771,2.642-11.111,12.358-11.489,19.1-1.368,24.39-.539,48.9-.539,74.746H880.759v-88.355l-89.9-36.676-58.18,63.393-155.422-152.9,64.219-54.218ZM986.008,768.712c-146.68.465-262.849,115.583-262.324,259.95.519,142.721,119.391,257.278,266.214,256.551,144.081-.713,260.364-117.318,259.709-260.43C1248.955,882.063,1131.8,768.25,986.008,768.712Z" transform="translate(-301.401 -301)" fill="#fff"/>
    <path d="M434.279,1352.765C469.6,1360.2,501.9,1367.2,534.3,1373.749c19.6,3.959,37.063,9.876,34.123,34.533-2.149,18.027-16.28,24.212-43.655,20.37-3.114-.437-6.3-.372-13.16-.736,4.908,6.756,7.687,11.786,11.579,15.765,142.673,145.829,315.976,213.971,522.06,196.5,164.8-13.97,300.912-85.049,412.011-204.225,16.56-17.764,32.885-20.987,45.817-7.736,14.88,15.247,9.793,30.247-3.07,44.225-118.287,128.537-264.541,205.39-440.237,222.587-234.341,22.936-429.9-56.444-591.263-226.31-2.125,5.1-4.031,9.646-5.918,14.2-6.19,14.947-18.118,20.539-33.187,16.6-16.57-4.329-22.753-16.755-20.388-33.071,1.137-7.843,3.143-15.57,4.883-23.321C420.491,1413.776,427.134,1384.428,434.279,1352.765Z" transform="translate(-301.401 -301)" fill="#fff"/>
    <path d="M1636.093,1246.333c10.274-3.551,17.388-6.748,24.856-8.437,15.969-3.612,29.334.207,35.618,16.449,6.35,16.41-1.077,28.571-16.069,34.932-35.544,15.082-71.624,28.947-110.154,44.371-14.991-36.5-31.144-71.806-43.259-108.4-2.74-8.275,5.633-25.351,14.009-30.85,18.2-11.949,31.169,1.519,47.55,17.271,7.744-39.7,18.395-79.089,22.767-119.142,32.439-297.179-157.044-574.61-448.457-658.081-20.116-5.762-40.828-9.514-61.261-14.207-23.709-5.446-35.328-18.139-30.648-34.9,6.192-22.178,23.443-23.826,42.537-20.035,156.636,31.1,290.081,103.054,392.6,224.1,157.869,186.406,201.888,398,136.218,631.694C1640.331,1228.442,1638.685,1235.9,1636.093,1246.333Z" transform="translate(-301.401 -301)" fill="#fff"/>
    <path d="M872.018,363.31c-24.071-29.926-26.218-43.188-10.926-55.853,14.545-12.047,29.173-7.526,53.412,15.986,22.429,21.756,45.108,43.262,67.7,64.9-29.028,29.872-55.612,59.395-85.111,85.773-5.953,5.323-26.171,2.608-33.841-3.564-6.369-5.125-5.3-20.835-4.849-31.75.214-5.17,6.68-10.091,10.313-15.124l-3.186-7.261c-50.4,18.042-102.949,31.791-150.85,54.852C477.8,585.31,343.742,813.57,360.668,1072.723c2.77,42.415,14.271,84.382,23.172,126.262,3.989,18.768,5.957,35.395-16.041,43.4-18.3,6.662-30.989-3.141-38.776-28.258-85.2-274.8,32.123-590.347,277.272-746.774C687.246,415.7,774.431,379.669,872.018,363.31Z" transform="translate(-301.401 -301)" fill="#fff"/>
  </g>
</svg>
