<svg xmlns="http://www.w3.org/2000/svg" viewBox="0 0 1306.041 1309.839">
  <g>
    <path d="M782.73,1194.544H728.316v188.443H645.36V1270.844H592.223v111.963h-54.94V1194.9h-55.27v188.342H346.7V1059.326H1652.744v324.237H1519.236V1195.52h-55.164v188.273h-54.184v-112.76h-54.745V1382.9h-80.937v-187.9h-55.288V1383.05h-82.065v-111.61h-53.928v111.428h-54.957v-188H973.514v188.494H919.358v-112.21h-55.6v112.361H782.73Z" transform="translate(-346.704 -293)" fill="#fff"/>
    <path d="M1108.544,1001.659H892.27c-.37-7.84-1.027-15.3-1.03-22.757q-.089-240.241-.031-480.482c.007-33.182,7.815-41.213,41.11-41.379,46.648-.233,93.3-.391,139.945.081,27.745.281,37.253,9.509,37.283,36.185q.28,247.238.034,494.476C1109.579,991.556,1109.034,995.328,1108.544,1001.659Z" transform="translate(-346.704 -293)" fill="#fff"/>
    <path d="M836.079,538.937c0,75.691.179,149.539-.414,223.38-.038,4.771-4.938,11.383-9.408,13.961-84.922,48.984-140.936,120.513-169.575,214.106-1.515,4.952-9,11.471-13.773,11.523-69.152.747-138.314.512-207.67.512C458.8,787.663,637.007,589.868,836.079,538.937Z" transform="translate(-346.704 -293)" fill="#fff"/>
    <path d="M1161.465,539.284c186.928,48.253,372.8,234.339,401.781,463.175-49.069,0-97.861.046-146.654-.02-22.531-.03-49.6,7.28-66.224-2.7-14.56-8.746-16.815-37.284-25.5-56.633-30.8-68.627-77.5-123.649-143.546-160.332-16.317-9.062-20.453-19.235-20.226-36.529C1161.994,677.938,1161.465,609.617,1161.465,539.284Z" transform="translate(-346.704 -293)" fill="#fff"/>
    <path d="M891.239,1439.275c70.372,0,137.943-.273,205.5.633,4.353.058,12.176,9.116,12.3,14.141,1,39.658.88,79.359.351,119.036-.25,18.711-11.574,29.035-29.644,29.253q-79.352.954-158.72.011c-17.665-.229-29.621-9.534-29.72-28.879C891.087,1530,891.239,1486.519,891.239,1439.275Z" transform="translate(-346.704 -293)" fill="#fff"/>
    <path d="M929.725,401.964c16.736-34.312,30.86-65.9,47.409-96.157,9.05-16.547,36.075-17.259,45.181-.97,17.177,30.728,31.577,63.009,48.352,97.127Z" transform="translate(-346.704 -293)" fill="#fff"/>
  </g>
</svg>
