<svg xmlns="http://www.w3.org/2000/svg" viewBox="0 0 1194.173 1192.69">
  <g>
    <path d="M912,379.456c0,25.3-.175,50.61.127,75.91.074,6.241-1.26,8.663-8.17,8.812-100.606,2.165-189.668,35.945-266.185,100.879Q522.31,663.041,492.927,812.52c-7.375,37.528-8.986,75.354-6.288,113.117a415.946,415.946,0,0,0,50.271,170.9c4.267,7.829,2.9,10.788-4.661,15.028-42.764,23.986-84.75,49.338-127.713,73-6.5,3.579-8.993,2.777-12.508-3.673a612.319,612.319,0,0,1-65.116-185.676,559.707,559.707,0,0,1-8.152-132.362c7.468-127.7,49.986-242.662,130.171-342.807C536.978,410.084,650.95,341.134,787.737,309.5c39.189-9.062,79.14-13.015,119.4-13.723,6.356-.112,4.789,3.773,4.8,6.881C912.041,328.259,912,353.858,912,379.456Z" transform="translate(-317.827 -295.778)" fill="#30bcc5"/>
    <path d="M918.951,1488.3c-104.489,2.514-197.574-23.311-285.427-69.526-41.172-21.659-78.9-48.465-113.846-79.339-43.7-38.609-80.53-82.86-111.786-131.919-7.853-12.326-7.867-12.45,4.865-19.828,41.655-24.137,83.464-48.012,124.918-72.488,6.167-3.641,8.485-2,11.563,3.03,20.668,33.8,46.142,63.663,75.061,90.641,39.11,36.485,84.018,63.719,133.548,83.578a410.727,410.727,0,0,0,111.289,27.544,444.6,444.6,0,0,0,75.562,1.09,431.71,431.71,0,0,0,113.95-23.544c69.926-24.478,129.236-65.1,178.543-120.206a411.244,411.244,0,0,0,45.525-61.446c2.52-4.168,4.438-6.045,9.5-3.092q65.019,37.963,130.347,75.394c6.857,3.918,7.307,7.179,3.248,13.764a613.187,613.187,0,0,1-116.82,139.081c-60.5,53.381-129.165,92.414-205.444,118.068-37.475,12.6-75.987,20.9-115.3,25.964C963.647,1488.238,939.093,1488.128,918.951,1488.3Z" transform="translate(-317.827 -295.778)" fill="#30bcc5"/>
    <path d="M1512,891.921c-.535,102.087-24.64,198.166-73.3,288.048-2.857,5.276-4.85,7.431-11.086,3.8q-64.284-37.4-129.06-73.949c-7.292-4.1-7.481-7.859-4.119-14.419,18.66-36.409,33.1-74.311,41.385-114.552,8.72-42.346,10.714-84.923,6.926-127.889-7.087-80.369-34.757-153.045-83.412-217.218q-100.2-132.162-263.429-164.61c-23.389-4.633-47.041-6.289-70.7-8.029-5.466-.4-6.709-2.329-6.693-7.473.153-50.307.235-100.616-.142-150.921-.057-7.578,2.958-8.539,9.263-8.467,66.826.765,131.448,13.41,194.024,36.431a585.506,585.506,0,0,1,195.016,118.765q133.929,122.628,178.1,298.678a563.456,563.456,0,0,1,15.695,101.273C1511.346,864.908,1511.7,878.379,1512,891.921Z" transform="translate(-317.827 -295.778)" fill="#30bcc5"/>
    <path d="M706.257,881.516c8.868.3,16.168,3.13,23.126,7.113,23.951,13.708,48.366,26.672,71.747,41.29,18.076,11.3,44.979,6.221,58.828-8.23,66.965-69.875,134.548-139.158,201.98-208.586,8.81-9.071,17.8-17.991,27.079-26.575,10.7-9.9,27.306-10.935,38.751-1.706A397.068,397.068,0,0,1,1178.012,733c12.574,14.435,11.352,28.524-3.189,43.836q-51.653,54.395-103.858,108.266Q967.246,992.284,863.4,1099.34c-5.1,5.277-8.8,6.308-15.514,2.438-59.292-34.2-118.821-67.979-178.251-101.934a117.222,117.222,0,0,1-11.827-7.631c-12.981-9.656-17.479-24.35-10.281-38.617a546.407,546.407,0,0,1,34.511-59.435C687.693,885.774,696.823,881.647,706.257,881.516Z" transform="translate(-317.827 -295.778)" fill="#5232c2"/>
  </g>
</svg>
