<svg xmlns="http://www.w3.org/2000/svg" viewBox="0 0 1085.862 991.652">
  <g>
    <path d="M1422.456,1462.111q-82.124,0-164.248-.016c-23.815-.024-30.039-6.431-30.042-30.535q-.009-69.934.01-139.867c.014-19.2,7.573-27.16,27.118-27.321,35.5-.293,71-.091,106.5-.091q111,0,221.991,0c28.023.005,34.2,6.07,34.2,33.454q0,67.367-.005,134.735c-.01,22.724-6.891,29.592-30,29.617Q1505.221,1462.18,1422.456,1462.111Z" transform="translate(-532.138 -470.48)" fill="#5232c2"/>
    <path d="M1179.331,967.792q78.915-.007,157.83,0c32.12.007,36.678,4.492,36.678,35.973q0,66.725-.015,133.45c-.022,20.172-7.433,28.612-27.452,28.659q-167.453.388-334.907.011c-20.142-.043-27.344-8.211-27.356-28.45q-.041-70.574,0-141.149c.012-21.34,6.674-28.336,28.411-28.417C1068.123,967.658,1123.727,967.8,1179.331,967.792Z" transform="translate(-532.138 -470.48)" fill="#5232c2"/>
    <path d="M933.72,1462.107q-82.088.007-164.177-.017c-23.152-.028-29.4-6.452-29.406-29.82q-.022-70.545.015-141.089c.023-18.643,7.482-26.8,26.2-26.836q168.665-.289,337.331.024c18.009.036,25.593,8.284,25.634,26.177q.165,72.468.006,144.937c-.036,18.888-7.448,26.515-26.293,26.565C1046.592,1462.2,990.156,1462.1,933.72,1462.107Z" transform="translate(-532.138 -470.48)" fill="#5232c2"/>
    <path d="M982.207,771.921c-11.039-29.236-30.061-43.854-59.274-37.427a114.286,114.286,0,0,0-40.37,17.895c-14.069,9.941-25.519,23.588-39.269,36.744l-105.6-74.173c9.049-12.974,17.962-25.762,26.886-38.542,1.712-2.452,3.339-4.98,5.222-7.3,44.069-54.212,20.99-110.432-32.263-140.277-33-18.493-68.293-19.74-104.557-15.442-9.352,1.108-21.3,6.119-24.557-7.833-3.189-13.68,8.561-16.551,18.51-19.76,87.1-28.091,170.659-16.19,250.716,24.379,28.442,14.413,54.608,33.332,81.7,50.382a22.2,22.2,0,0,1,6.943,7.24c32.4,54.553,44.125,62.94,106.527,74.73Z" transform="translate(-532.138 -470.48)" fill="#5232c2"/>
    <path d="M736.575,746.975l82.176,57.615c-2.54,4-4.411,7.23-6.543,10.272-64.472,92-129.136,183.875-193.2,276.16-6.376,9.184-12.46,10.792-22.234,7.956-26.546-7.7-47.682-22.814-62.624-45.877-2.468-3.809-2.77-12.029-.3-15.592q99.345-143.2,199.59-285.768C734.412,750.35,735.308,748.905,736.575,746.975Z" transform="translate(-532.138 -470.48)" fill="#5232c2"/>
    <path d="M995.063,795.511l106.378-154.067c9.119,6.407,17.849,11.759,25.66,18.22,10.434,8.63,12.763,20.894,5.1,32.151q-39.263,57.71-79.706,114.612c-7.666,10.789-21.64,12.658-33.3,5.63C1011.209,807.237,1003.756,801.518,995.063,795.511Z" transform="translate(-532.138 -470.48)" fill="#5232c2"/>
  </g>
</svg>
