<svg xmlns="http://www.w3.org/2000/svg" viewBox="0 0 1124.98 1244.62">
  <g>
    <path d="M1014.631,1255.706c.086-163,139.545-295.987,308.738-294.413,171.784,1.6,307.219,132.43,306.668,296.249-.545,162.237-137.466,292.8-307.359,293.078C1152.269,1550.9,1014.545,1419.05,1014.631,1255.706Zm501.231-59.9c-43.992-3.856-80.513-8.448-117.158-9.68-18.173-.611-25.23-8.06-31.216-22.678-13.579-33.164-28.878-65.684-45.105-102.121-16.513,37.228-31.974,70.676-46.1,104.634-5.448,13.1-12.443,19.15-28.181,19.924-37.884,1.865-75.635,6.181-118.906,9.989,31.42,26.134,58.293,49.677,86.6,71.518,13.781,10.633,18.62,20.278,13.47,37.671-10.031,33.876-16.793,68.638-26.062,107.919,37.845-21.744,70.988-39.971,103.139-59.678,12.124-7.431,20.947-6.767,32.694.362,32.143,19.505,65.111,37.765,102.834,59.437-9.718-40.142-17.558-75.032-26.814-109.575-3.92-14.631-1.261-24.441,11.55-34.317C1455.567,1246.9,1483.128,1222.924,1515.863,1195.808Z" transform="translate(-505.059 -306)" fill="#f2f2f2"/>
    <path d="M1500.563,918.69c-21.854-7.748-40.233-12.364-56.352-20.889-6.711-3.549-12.077-15.4-12.156-23.525-.857-87.488-.537-174.987-.537-262.482,0-58.591.107-117.182-.033-175.773-.114-47.6-22.861-69.439-74.05-69.578-125.788-.342-251.578-.119-377.367-.12-108.636,0-217.288,1.055-325.9-.447-53.538-.74-80.283,24.439-80.007,76.306,1.516,284.354.713,568.719.732,853.08,0,48.825,21.45,70.274,72.417,70.535,89.847.46,179.706.76,269.541-.323,20.769-.25,33.973,3.231,38.421,24.715,2.288,11.054,8.5,21.366,14.4,35.517H942.722c-110.27,0-220.584-1.808-330.793.664-67.371,1.511-107.28-43.1-106.867-102.823q3.179-459.333.057-918.694c-.3-49.933,34.824-99.233,103.489-98.851,263,1.462,526.024.438,789.038.692,67.314.065,102.9,34.685,102.91,98.46q.043,242.566.007,485.133C1500.563,898.711,1500.563,907.134,1500.563,918.69Z" transform="translate(-505.059 -306)" fill="#f2f2f2"/>
    <path d="M659.341,825.257V755.3h689.034v69.954Z" transform="translate(-505.059 -306)" fill="#f2f2f2"/>
    <path d="M658.942,523.351V455.144h689.016v68.207Z" transform="translate(-505.059 -306)" fill="#f2f2f2"/>
    <path d="M658.953,673.957V605.485h689.014v68.472Z" transform="translate(-505.059 -306)" fill="#f2f2f2"/>
    <path d="M985.886,906.343v69.751H659.473V906.343Z" transform="translate(-505.059 -306)" fill="#f2f2f2"/>
  </g>
</svg>
