<svg id="e25bf204-4211-4f7e-8636-af6dfbff5836" data-name="Layer 1" xmlns="http://www.w3.org/2000/svg" viewBox="0 0 1205.173 1128.161">
  <title>Untitled-2</title>
  <g>
    <path d="M889.372,1545c-42.487-6.616-83.3-13.136-124.189-19.181-7.1-1.05-9.807-3.717-9.972-10.953-.663-29.027-1.626-58.052-3.07-87.049-.184-3.688-3.072-9.4-6.04-10.466-42.234-15.181-81.556-35.889-118.893-61.393l-86.134,57.73-95.848-96.2c16.663-24.749,33.45-50.5,51.208-75.572,5.524-7.8,5.5-12.948.16-20.837-22.239-32.826-40.623-67.773-53.683-105.31-2.229-6.405-5.4-9.023-12.307-9.227-31.53-.933-63.044-2.386-95.926-3.707l-21-133.562,216.11-36.756c.022,117.889,41.745,217.033,127.988,296.191,65.39,60.018,143.459,92.649,231.741,98.693,190.24,13.025,353.332-111.5,400.118-285.86,49.75-185.41-48.069-397.116-247.017-464.907l38.219-110.607c4.732,1.575,8.787,2.795,12.749,4.263a478.839,478.839,0,0,1,105.021,54.323c5.457,3.747,9.013,3.582,14.3-.074,25.943-17.943,52.182-35.459,77.342-52.467l96.311,96.357c-16.646,24.823-34.024,51.126-51.9,77.089-4.04,5.869-4.494,9.856-.21,16.064,23.164,33.563,42.042,69.47,55.555,107.993,2.411,6.874,5.893,8.668,12.512,8.825,28.664.68,57.314,1.912,85.977,2.629,6.161.154,9.917,1.128,10.994,8.423,6.14,41.594,12.746,83.119,19.357,125.72-5.577,2.193-11.161,4.519-16.835,6.6-24.5,8.972-48.975,18-73.571,26.694-5.406,1.91-8.144,4.27-8.318,10.581-1.16,42.262-8.134,83.638-19.266,124.41-.858,3.141,1.857,8.847,4.7,11.156,21.126,17.15,42.712,33.733,64.134,50.52,3.665,2.872,7.232,5.87,11.312,9.19-19.81,39.012-39.191,77.489-59.146,115.667-1.131,2.163-7.354,3.348-10.536,2.492q-41.983-11.293-83.664-23.7c-6-1.782-9.613-1.534-13.756,3.956-24.639,32.646-54.126,60.592-86.086,85.9-6.211,4.919-7.158,9.115-4.963,16.417,8.957,29.8,17.219,59.808,26.025,90.749l-120.493,61.727c-19.308-24.579-38.5-48.215-56.681-72.609-6-8.055-11.221-9.387-20.705-6.64a435.582,435.582,0,0,1-113.6,17.659c-8.926.161-13.091,3.525-16.042,12.015C911.273,1486.983,900.235,1515.675,889.372,1545Z" transform="translate(-313.681 -416.839)" fill="#8e8e8e"/>
    <path d="M704.766,731.456l9.129-6.909q25.621,23.192,51.321,46.46,55.2,50.064,110.292,100.243c5.219,4.78,9.509,6.488,17.067,4.473,23.342-6.222,44.888-1.5,61.928,16.247,18.443,19.2,23.581,42,13.84,67.188-2.2,5.689-1.537,9.113,2.933,13.054,8.953,7.894,17.45,16.305,26.734,25.068l-23.671,23.04-27.52-31.83c-23.07,12.263-44.586,15.13-66.435,3.72-31.341-16.367-43.368-53.547-26.689-84.6,3.895-7.251,2.837-11.059-2.291-16.6q-69.125-74.621-137.779-149.677C711.19,738.687,708.817,735.978,704.766,731.456Z" transform="translate(-313.681 -416.839)" fill="#8e8e8e"/>
    <path d="M543.473,747.979c.151,22.312-17.214,34.124-33.033,25.418-33.02-18.172-65.64-37.083-98.163-56.139-11.87-6.955-13.742-17.68-6.614-29.92,6.627-11.38,17.243-15.2,28.614-8.839,33.212,18.574,66.293,37.4,98.987,56.866C538.478,738.468,541.436,745.361,543.473,747.979Z" transform="translate(-313.681 -416.839)" fill="#8e8e8e"/>
    <path d="M674.916,624.241c-2.718-2.157-9.827-5.363-13.173-10.86-19.378-31.84-38.014-64.137-56.586-96.461-7.154-12.451-3.7-23,8.928-30.17,11.621-6.6,22.624-3.921,29.618,7.889q28.215,47.651,55.939,95.591C708.988,606.489,697.947,624.454,674.916,624.241Z" transform="translate(-313.681 -416.839)" fill="#8e8e8e"/>
    <path d="M871.655,493.165c0-18.105-.116-36.211.036-54.315.122-14.551,7.748-21.964,22.174-22.011,14.335-.047,21.982,7.4,22.156,22q.645,54.312,1.029,108.627c.1,15.62-8.4,24.283-22.946,23.957-14.165-.317-21.745-8.542-21.819-23.946-.087-18.1-.02-36.211-.02-54.316Z" transform="translate(-313.681 -416.839)" fill="#8e8e8e"/>
  </g>
</svg>
