<svg xmlns="http://www.w3.org/2000/svg" viewBox="0 0 1077.538 1152.5">
  <g>
    <path d="M1540.629,1554.388H465.409c-1.045-2.921-2.373-4.847-2.317-6.737,2.335-78.982-3.652-158.462,15.254-236.474,12.778-52.727,43.366-93.113,96.151-115.986,78.746-34.122,158.119-66.963,238.406-100.847l113.835,336.5c15.512-41.371,29.316-76.614,41.522-112.342,1.952-5.713-2.308-13.984-5.319-20.4-10.567-22.5-24.252-43.981-32.231-67.223-9.58-27.908,4.758-52.637,35.058-58.3a178.944,178.944,0,0,1,68.549.89c30.341,6.53,44.032,31.461,34.01,59.1-8.4,23.153-21.995,44.618-32.962,66.973-2.54,5.178-6.659,11.838-5.1,16.285,12.714,36.395,26.6,72.427,42.184,114.053l115.042-339.018c5,1.819,8.936,2.977,12.62,4.633,64.522,29,127.632,61.308,193.878,86.238,74.194,27.921,121.767,73.917,130.193,148.916C1532.446,1404.253,1535.269,1478.4,1540.629,1554.388Z" transform="translate(-463.09 -401.889)" fill="#f2f2f2"/>
    <path d="M777.57,470.221c16.329,9.951,30.769,16.675,42.455,26.346,18.806,15.562,34.544,15.019,59.5,7.876,40.364-11.552,54.8-32.239,56.654-69.257,1.4-27.865,10.814-33.048,41.437-33.175,16.82-.069,33.65-.3,50.457.144,17.427.461,31.134,7.725,31,25.333-.338,45.142,21.288,70.885,68.846,80.631,13.268,2.719,22.143,5.338,32.971-3.517,11-8.993,23.363-16.513,35.228-24.551,15.16-10.27,29.332-10.45,42.924,3.05,13.072,12.984,26.819,25.365,40.259,38.022,11.93,11.235,14.385,23.264,4.24,36.934-12.512,16.859-32.685,33.228-34.606,51.221-1.913,17.922,13.8,38.009,23.605,56.278,3.574,6.657,11.579,13.532,19.018,15.546,16.027,4.339,33.005,5.553,49.581,8.118,17.921,2.773,26.773,13.16,27.088,29.857.351,18.577.294,37.166.02,55.745-.233,15.783-8.165,28.716-25.316,28.247-51.077-1.4-76.708,23.489-88.763,67.485-2.783,10.158-5.228,17.029,2.264,25.757,10.087,11.75,18.742,24.581,28.221,36.8,10.716,13.817,9.848,26.762-2.9,38.887-14.4,13.7-28.958,27.253-43.4,40.918-13.364,12.648-29.048,15.569-42.733,3.041-31.029-28.406-61.92-34.3-101.981-13.58-17.236,8.915-24.755,16.493-27.181,33.508-8.535,59.854-8.955,59.8-72.258,59.8-7.313,0-14.627.062-21.939-.035-19.285-.257-33.513-7.294-33.727-27.253-.44-40.95-18.631-65.315-63.165-76.058-18.519-4.467-29.8-4.737-44.493,5.425-60.885,42.11-53.683,34.357-99.672-8.285-32.4-30.046-33.84-32.1-4.5-66.438,19.488-22.809,21.7-40.551,9.1-68.949-13.03-29.362-29.651-40.251-60.968-43.27-43.484-4.192-44.644-7.324-44.665-47.4-.006-11.7-.142-23.4.041-35.1.389-24.922,5.613-34.07,32.262-35,40.763-1.425,63.317-16.634,75.362-54.631,6.35-20.032,7.321-32.6-5.958-49.409-37.682-47.709-39.546-44.306,8.218-89.222C751.017,489.8,763.688,481.188,777.57,470.221Zm306.846,163.114L956,758.711l-44.2-51.187-51.247,50.109L961.26,852.255,1136.8,687.32Z" transform="translate(-463.09 -401.889)" fill="#f2f2f2"/>
  </g>
</svg>
