<svg xmlns="http://www.w3.org/2000/svg" viewBox="0 0 1326.498 929.199">
  <g>
    <path d="M446.76,749.547c-26.769,0-53.492.307-80.2-.081-30.569-.443-54.482-18.226-63.425-46.366-13.543-42.614,16.842-84.676,63.486-85.832,44.786-1.11,89.628-.762,134.431-.07,33.451.516,56.947,20.552,65.068,53.4q90.4,365.6,180.635,731.24c2.1,8.506,5.307,11.518,14.567,11.5q270.385-.494,540.772-.05c8.839.013,12.374-2.606,15.21-11.172q89.243-269.485,179.232-538.722c11.763-35.287,45.912-54.407,80.645-45.318,33.985,8.893,53.712,42.178,48.336,78.259-5.634,37.806-21.069,72.466-32.849,108.229-53.989,163.909-108.95,327.5-163.559,491.2-11.114,33.316-34.022,49.972-69.043,49.975q-328.577.029-657.154-.008c-39.645-.005-63.36-18.728-72.75-56.732q-90.331-365.617-180.791-731.2C448.73,755.234,447.78,752.751,446.76,749.547Z" transform="translate(-299.889 -616.554)" fill="#5232c2"/>
    <path d="M1100.281,988.149c9.763-10.973,19.059-22.408,29.39-32.817q27.9-28.118,56.846-55.2c25.544-23.972,66.07-23.76,90.994-.013,25.728,24.512,28.186,63.162,5.693,90.713a130,130,0,0,1-8.836,9.572Q1179.71,1095.122,1085,1189.79c-32.047,32.026-71.348,32.191-103.611.48Q884.1,1094.645,786.781,999.046c-18.1-17.722-26.312-38.716-21.217-63.574,5.261-25.669,21.128-43.167,46.359-50.387,24.577-7.033,47.158-1.777,65.626,16.443,25.7,25.359,50.954,51.181,76.418,76.784,2.5,2.518,5.151,4.895,9.373,8.892,0-5.507,0-9.021,0-12.536q0-144.944.054-289.888c.041-28.922,13.353-50.409,39.776-61.8,26.708-11.518,51.774-6.636,73.112,13.5,13.886,13.1,19.644,29.777,19.633,48.723q-.079,144.443-.023,288.887,0,5.389,0,10.778Z" transform="translate(-299.889 -616.554)" fill="#5232c2"/>
  </g>
</svg>
