<svg xmlns="http://www.w3.org/2000/svg" viewBox="0 0 1298.217 1298.087">
  <g>
    <path d="M1039,311.21c356.848.241,649.135,291.715,648.927,647.123-.209,357.619-291.417,650.455-647.342,650.962-361.15.515-651.423-290.8-650.874-653.219C390.248,601.351,682.621,310.969,1039,311.21Zm.6,1152.827c280.072-1.081,505.066-228.675,504.076-509.9-.966-274.588-229.569-499.893-505.966-498.667-281.042,1.247-504.748,227.393-503.7,509.189C535.04,1239.1,763.85,1465.1,1039.6,1464.036Z" transform="translate(-389.71 -311.21)" fill="#5232c2"/>
    <path d="M1038.615,1318.708c-199.714-.451-359.909-162.119-359.321-362.626.577-196.685,162.923-357.835,359.795-357.144,200.132.7,359.96,161.988,359.283,362.559C1397.707,1158.278,1235.686,1319.153,1038.615,1318.708Zm.82-574.1c-119.044-.792-215.67,95.07-216.336,214.624-.665,119.373,93.839,214.839,214.354,216.536,118.527,1.669,215.931-94.132,217.308-213.732C1256.136,842.635,1159.847,745.406,1039.435,744.605Z" transform="translate(-389.71 -311.21)" fill="#5232c2"/>
  </g>
</svg>
