<svg xmlns="http://www.w3.org/2000/svg" viewBox="0 0 1369.164 1514.773">
  <g>
    <path d="M936.049,1350.846c.1-198.377,169.834-360.232,375.751-358.317,209.071,1.944,373.9,161.175,373.232,360.551-.663,197.452-167.3,356.35-374.073,356.693C1103.561,1710.116,935.944,1549.645,936.049,1350.846Zm610.027-72.9c-53.54-4.693-97.989-10.282-142.588-11.781-22.117-.743-30.707-9.809-37.991-27.6-16.527-40.363-35.146-79.942-54.9-124.287-20.1,45.308-38.914,86.017-56.1,127.346-6.631,15.944-15.144,23.306-34.3,24.249-46.107,2.269-92.052,7.523-144.716,12.158,38.24,31.806,70.946,60.46,105.4,87.042,16.772,12.94,22.662,24.68,16.394,45.848-12.209,41.229-20.438,83.537-31.719,131.344,46.059-26.464,86.4-48.647,125.526-72.632,14.755-9.044,25.494-8.236,39.791.44,39.119,23.739,79.244,45.962,125.155,72.338-11.828-48.855-21.37-91.318-32.634-133.359-4.771-17.807-1.535-29.747,14.057-41.765C1472.692,1340.123,1506.235,1310.948,1546.075,1277.946Z" transform="translate(-315.871 -195)" fill="#30bcc5"/>
    <path d="M1527.455,940.678c-26.6-9.43-48.966-15.048-68.584-25.423-8.167-4.319-14.7-18.74-14.8-28.631-1.043-106.478-.653-212.969-.654-319.456,0-71.308.13-142.617-.04-213.925-.139-57.935-27.823-84.511-90.122-84.68-153.091-.417-306.185-.144-459.277-.146-132.216,0-264.452,1.284-396.641-.544-65.159-.9-97.709,29.744-97.372,92.869,1.845,346.075.868,692.163.891,1038.247,0,59.423,26.106,85.527,88.136,85.844,109.349.559,218.713.925,328.047-.393,25.277-.3,41.347,3.932,46.76,30.079,2.785,13.454,10.345,26,17.525,43.226h-32.8c-134.2,0-268.463-2.2-402.594.809-81.995,1.839-130.566-52.454-130.063-125.142q3.869-559.033.07-1118.1C315.578,254.538,358.327,194.538,441.9,195c320.092,1.78,640.2.533,960.3.842,81.925.079,125.233,42.214,125.247,119.832q.052,295.217.009,590.434C1527.455,916.362,1527.455,926.614,1527.455,940.678Z" transform="translate(-315.871 -195)" fill="#30bcc5"/>
    <path d="M503.64,826.965V741.828h838.593v85.138Z" transform="translate(-315.871 -195)" fill="#30bcc5"/>
    <path d="M503.155,459.528V376.517h838.572v83.011Z" transform="translate(-315.871 -195)" fill="#30bcc5"/>
    <path d="M503.168,642.825V559.491h838.568v83.334Z" transform="translate(-315.871 -195)" fill="#30bcc5"/>
    <path d="M901.064,925.651v84.891H503.8V925.651Z" transform="translate(-315.871 -195)" fill="#30bcc5"/>
  </g>
</svg>
