    <svg xmlns="http://www.w3.org/2000/svg" viewBox="0 0 1226.726 1357.187">
  <g>
    <path d="M889.86,1403.413c.093-177.739,152.166-322.756,336.661-321.041,187.321,1.742,335,144.408,334.4,323.042-.594,176.91-149.9,319.278-335.157,319.585C1039.946,1725.307,889.767,1581.531,889.86,1403.413Zm546.564-65.316c-47.97-4.2-87.795-9.212-127.754-10.555-19.816-.666-27.512-8.789-34.039-24.729-14.807-36.164-31.49-71.625-49.185-111.357-18.006,40.594-34.866,77.069-50.266,114.1-5.941,14.285-13.569,20.882-30.729,21.726-41.31,2.033-82.476,6.74-129.66,10.893,34.262,28.5,63.565,54.17,94.434,77.987,15.027,11.594,20.3,22.112,14.688,41.078-10.939,36.94-18.312,74.846-28.419,117.68,41.267-23.711,77.408-43.586,112.467-65.076,13.22-8.1,22.842-7.379,35.651.394,35.05,21.269,71,41.18,112.134,64.813-10.6-43.772-19.147-81.818-29.239-119.485-4.275-15.954-1.375-26.652,12.594-37.42C1370.675,1393.806,1400.729,1367.666,1436.424,1338.1Z" transform="translate(-334.201 -367.813)" fill="#5232c2"/>
    <path d="M1419.741,1035.916c-23.83-8.449-43.872-13.483-61.449-22.778-7.318-3.87-13.169-16.79-13.256-25.652-.935-95.4-.585-190.813-.586-286.222,0-63.89.117-127.78-.036-191.67-.124-51.908-24.928-75.719-80.747-75.871-137.165-.373-274.332-.129-411.5-.131-118.461,0-236.94,1.151-355.377-.487-58.38-.807-87.544,26.649-87.243,83.208,1.653,310.072.777,620.155.8,930.235,0,53.241,23.391,76.629,78.967,76.914,97.973.5,195.959.828,293.92-.352,22.647-.273,37.046,3.523,41.9,26.95,2.5,12.054,9.269,23.3,15.7,38.729H811.448c-120.243,0-240.534-1.971-360.711.724-73.464,1.648-116.983-47-116.532-112.123q3.467-500.876.062-1001.783c-.328-54.449,37.974-108.208,112.848-107.791,286.792,1.594,573.6.478,860.4.754,73.4.071,112.2,37.822,112.217,107.365q.047,264.5.008,529.009C1419.741,1014.13,1419.741,1023.315,1419.741,1035.916Z" transform="translate(-334.201 -367.813)" fill="#5232c2"/>
    <path d="M502.436,934.033v-76.28h751.352v76.28Z" transform="translate(-334.201 -367.813)" fill="#5232c2"/>
    <path d="M502,604.822V530.446h751.333v74.375Z" transform="translate(-334.201 -367.813)" fill="#5232c2"/>
    <path d="M502.014,769.049V694.385h751.33v74.665Z" transform="translate(-334.201 -367.813)" fill="#5232c2"/>
    <path d="M858.515,1022.452v76.06H502.58v-76.06Z" transform="translate(-334.201 -367.813)" fill="#5232c2"/>
  </g>
</svg>

