<?xml version="1.0" encoding="utf-8"?>
<!-- Generator: Adobe Illustrator 16.0.0, SVG Export Plug-In . SVG Version: 6.00 Build 0)  -->
<!DOCTYPE svg PUBLIC "-//W3C//DTD SVG 1.1//EN" "http://www.w3.org/Graphics/SVG/1.1/DTD/svg11.dtd">
<svg version="1.1" id="Capa_1" xmlns="http://www.w3.org/2000/svg" xmlns:xlink="http://www.w3.org/1999/xlink" x="0px" y="0px"
	 width="141.73px" height="161.57px" viewBox="0 0 141.73 161.57" enable-background="new 0 0 141.73 161.57" xml:space="preserve">
<g>
	<path fill="#38B9C1" d="M141.73,156.58H0.305c-0.137-0.384-0.312-0.638-0.305-0.886c0.307-10.389-0.48-20.843,2.007-31.104
		c1.681-6.935,5.704-12.247,12.646-15.256c10.358-4.487,20.798-8.808,31.358-13.264l14.973,44.26
		c2.04-5.441,3.856-10.077,5.461-14.776c0.257-0.752-0.304-1.84-0.7-2.684c-1.39-2.96-3.19-5.785-4.239-8.842
		c-1.26-3.671,0.625-6.924,4.611-7.669c2.985-0.542,6.046-0.502,9.017,0.117c3.99,0.859,5.791,4.139,4.473,7.773
		c-1.104,3.046-2.893,5.869-4.335,8.81c-0.335,0.681-0.876,1.557-0.672,2.142c1.673,4.787,3.499,9.526,5.549,15.002l15.132-44.592
		c0.656,0.239,1.175,0.392,1.66,0.609c8.486,3.814,16.787,8.064,25.5,11.344c9.76,3.672,16.017,9.722,17.125,19.587
		C140.654,136.833,141.025,146.585,141.73,156.58z"/>
	<path fill="#38B9C1" d="M41.364,13.977c2.147,1.31,4.047,2.193,5.584,3.466c2.474,2.047,4.543,1.976,7.827,1.036
		c5.309-1.52,7.208-4.241,7.452-9.11c0.184-3.665,1.422-4.347,5.451-4.363c2.212-0.009,4.426-0.039,6.637,0.02
		c2.291,0.061,4.094,1.016,4.077,3.332c-0.044,5.938,2.8,9.323,9.056,10.605c1.744,0.357,2.912,0.702,4.336-0.463
		c1.447-1.183,3.074-2.172,4.635-3.229c1.993-1.352,3.857-1.375,5.645,0.401c1.721,1.708,3.528,3.336,5.296,5.001
		c1.569,1.478,1.892,3.06,0.558,4.857c-1.646,2.218-4.299,4.371-4.552,6.737c-0.251,2.357,1.815,5,3.104,7.402
		c0.471,0.876,1.523,1.78,2.502,2.045c2.108,0.57,4.342,0.729,6.521,1.067c2.357,0.365,3.521,1.731,3.563,3.927
		c0.047,2.444,0.039,4.889,0.004,7.333c-0.031,2.075-1.074,3.776-3.33,3.715c-6.719-0.184-10.09,3.09-11.676,8.877
		c-0.365,1.336-0.688,2.239,0.298,3.388c1.327,1.545,2.466,3.233,3.712,4.841c1.41,1.817,1.295,3.52-0.381,5.114
		c-1.895,1.803-3.809,3.585-5.709,5.383c-1.758,1.663-3.82,2.048-5.62,0.399c-4.081-3.736-8.145-4.512-13.413-1.786
		c-2.268,1.173-3.257,2.17-3.576,4.408c-1.122,7.872-1.178,7.865-9.504,7.865c-0.962,0-1.924,0.008-2.886-0.005
		c-2.537-0.034-4.408-0.959-4.436-3.585c-0.058-5.386-2.45-8.591-8.308-10.004c-2.436-0.587-3.919-0.623-5.852,0.714
		c-8.008,5.539-7.061,4.519-13.11-1.09c-4.263-3.952-4.451-4.223-0.593-8.738c2.563-3.001,2.854-5.334,1.197-9.069
		c-1.713-3.862-3.9-5.294-8.019-5.691c-5.72-0.552-5.872-0.964-5.875-6.234c-0.001-1.539-0.018-3.078,0.005-4.617
		c0.051-3.277,0.738-4.481,4.244-4.604c5.361-0.188,8.328-2.188,9.912-7.186c0.835-2.635,0.963-4.288-0.784-6.499
		c-4.956-6.275-5.202-5.827,1.081-11.735C37.872,16.552,39.538,15.42,41.364,13.977z M81.725,35.432L64.833,51.924L59.02,45.19
		l-6.741,6.591l13.246,12.446l23.088-21.694L81.725,35.432z"/>
</g>
</svg>
