<svg xmlns="http://www.w3.org/2000/svg" viewBox="0 0 1030.806 1030.923">
  <path d="M1103.692,1116.44v394.5c-14.045,1.439-26.319,3.77-38.6,3.79q-211.4.343-422.805-.065c-69.816-.249-81.106-11.581-81.151-79.919q-.289-430.013.015-860.027c.04-58.371,32.174-90.284,92.13-90.358q422.806-.517,845.612-.01c56.446.068,92.559,36.206,92.628,92.8q.528,430.013-.046,860.026c-.1,62.727-13.989,76.744-74.807,77.429-75.261.849-150.541.17-225.812-.049-6.335-.018-12.665-1.549-23.165-2.922v-391.67h136.531l7.246-146.567c-38.02,0-72.453,1.222-106.719-.633-12.759-.691-31.477-4.869-36.677-13.768-43.643-74.693,9.177-167.738,94.056-168.411,18.958-.15,37.918-.022,62.763-.022,0-40.232,1.809-76.577-1.174-112.524-.826-9.951-15.061-25.828-24.558-26.942-107.924-12.666-206.954,11.541-269.2,104.736-23.932,35.833-19.568,92.094-23.465,139.429-6.266,76.123-4.642,76.23-82.943,78.288-7.978.21-15.978.682-23.892,1.655-2.886.355-5.549,2.525-11.147,5.242V1116.44Z" transform="translate(-561 -484.104)" fill="#fff"/>
</svg>
