<svg xmlns="http://www.w3.org/2000/svg" viewBox="0 0 1303.961 1307.708">
  <path d="M989.043,1651.139c-97.246,0-195.029,6.394-291.6-1.706-107.6-9.027-205.664-47.7-271.654-141.4-45.719-64.917-77.9-134.465-77.491-216.74.884-176.273-.591-352.557-.251-528.834.2-103.505,34.372-198.686,94.569-279.493,27.861-37.4,78.844-64.169,124.775-79.993,71.518-24.639,147.02-45.546,222-50.538,123.061-8.193,247.579-9.352,370.487-.161,93.142,6.965,190.885,20.424,275.379,56.922,94.875,40.982,153.218,118.8,185.766,230.941,54.663,188.343,14.091,375.44,29.814,562.076,7.835,93.007-26.761,178.572-61.822,260.685-18.013,42.186-59.895,75.317-94.35,109.117-80.3,78.771-183.569,80.869-286.794,80.958q-109.415.095-218.831.012Q989.044,1652.063,989.043,1651.139Zm3.55-124.083q0-.3,0-.594c97.205,0,194.576,3.293,291.536-1.585,40-2.013,81.568-16.5,118.167-34.143,94.393-45.5,112.463-148.858,115.878-228.094C1527.2,1053.3,1555,840.509,1490.1,633.28c-22.1-70.565-73.311-117.969-137.58-132.534-85.646-19.41-176.19-23.918-264.534-23.181C944.83,478.758,801.094,483.548,659,499.37,611.315,504.68,548.26,537.51,526.785,576.7c-39.631,72.314-70.9,152.891-67.522,242.216,4.584,121.34-3.442,243.218,2.768,364.413,3.8,74.221,23.679,147.683,37.7,221.227,1.583,8.307,11.715,15.2,18.376,22.289C572.77,1485,633.621,1529.249,719.2,1527.48,810.3,1525.6,901.46,1527.056,992.593,1527.056Z" transform="translate(-348 -345.828)" fill="#fff"/>
  <path d="M660.607,1024.838c-.229-205.707,143.2-338.177,333.077-351.952,167.058-12.119,340.359,162.052,334.847,337.612-2.928,93.232-37.348,164.3-90.161,231.137-62.717,79.376-161.852,99.669-250.374,108.018-62.752,5.919-139.781-30.4-194.188-70.124C707.1,1216.225,641.253,1130.866,660.607,1024.838Zm538.428-15.182c.153-114.04-89.9-207.4-200.653-208.021-111.6-.629-204.2,95.3-213.113,203.26C777.026,1104.752,894.4,1222.6,994.353,1217.7,1094.739,1212.778,1218.294,1118.6,1199.036,1009.656Z" transform="translate(-348 -345.828)" fill="#fff"/>
  <path d="M1341.143,740.249c-58.372,5.806-76.158-33.123-79.6-75.92-3.87-48.051,25.569-72.669,74.485-73.05,49.347-.383,75.726,22.858,73.1,72.684C1406.825,707.472,1393.778,744.06,1341.143,740.249Z" transform="translate(-348 -345.828)" fill="#fff"/>
</svg>
