<svg xmlns="http://www.w3.org/2000/svg" viewBox="0 0 1272.697 1356.152">
  <g>
    <path d="M1636.67,1556.564v118.588H378.069V1556.564Z" transform="translate(-363.973 -319)" fill="#30bcc5"/>
    <path d="M1626.4,523.715H365.121l-.53-3.059c5.983-2.39,11.891-5.149,17.96-7.117q296.757-96.228,593.626-191.9a55.312,55.312,0,0,1,32.738-.305q303.715,97.346,607.149,196.079C1617.872,517.994,1619.5,519.459,1626.4,523.715Z" transform="translate(-363.973 -319)" fill="#30bcc5"/>
    <path d="M1622.908,543.745V645.522H363.973V543.745Z" transform="translate(-363.973 -319)" fill="#30bcc5"/>
    <path d="M931.783,1429.821V665.854H1068.1v763.967Z" transform="translate(-363.973 -319)" fill="#30bcc5"/>
    <path d="M489.16,663.912c42.827,0,84.506-.339,126.167.6,3.573.081,7.7,8.15,10.27,13.5,1.478,3.084.365,8.164.365,12.346q.007,357.574,0,715.148c0,7.478,0,14.955,0,24.373H489.16Z" transform="translate(-363.973 -319)" fill="#30bcc5"/>
    <path d="M1154.137,665.166H1289.47v764.681H1154.137Z" transform="translate(-363.973 -319)" fill="#30bcc5"/>
    <path d="M1497.409,1430.625H1362.024V665.913h135.385Z" transform="translate(-363.973 -319)" fill="#30bcc5"/>
    <path d="M710.275,663.961c38.9,0,76.568-.3,114.214.541,3.232.073,7.354,7.179,9.22,12.121,1.552,4.112.432,9.847.433,14.864q.009,356.232.005,712.465v26.2H710.275Z" transform="translate(-363.973 -319)" fill="#30bcc5"/>
    <path d="M1595.293,1451.816v65.761H417.892v-65.761Z" transform="translate(-363.973 -319)" fill="#30bcc5"/>
  </g>
</svg>
