<svg xmlns="http://www.w3.org/2000/svg" viewBox="0 0 1345.795 1168.358">
  <g>
    <path d="M389.909,483.7c455.459-83.354,770.964,171.616,774.913,595.57.812,87.23.33,174.474.052,261.71-.191,59.915,8.761,122.52-84.231,124.341-90.174,1.765-91.276-54.5-90.562-118.352,1.024-91.521.261-183.061.261-286.347C793.084,1039.569,621.128,965.969,516.394,797,458.915,704.267,432.447,592.313,389.909,483.7Z" transform="translate(-389.909 -297)" fill="#fff"/>
    <path d="M1735.537,303.788c6.976,299.916-206.175,535.221-508.861,570.43-45.346-77.877-98.013-153.309-132.966-236.21-12.863-30.507,4.59-87.711,27.858-117.284C1276.21,324.172,1487.46,277.269,1735.537,303.788Z" transform="translate(-389.909 -297)" fill="#fff"/>
  </g>
</svg>
