<svg xmlns="http://www.w3.org/2000/svg" viewBox="0 0 1310.353 1310.786">
  <g>
    <path d="M653.052,1040H568V843.145c22.061,0,44.49-.808,66.822.291,14.293.7,21.533-3.227,26.067-17.539,6.932-21.881,17.093-42.777,27.6-68.245l-59.153-52.158,144.01-142.037c14.148,14.656,30.021,32.533,47.7,48.478,4.824,4.35,15.692,5.273,22.717,3.556,11.595-2.833,22.177-9.446,33.438-13.844,35.754-13.966,35.8-13.855,35.8-52.871V505h200.709c0,19.918,1.007,39.835-.3,59.6-1.179,17.847,2.341,29.958,23.064,33.011,9.506,1.4,18.587,6.222,27.6,10.073,33.266,14.212,33.353,14.425,59.427-11.922,11.006-11.121,21.348-22.874,30.633-32.876l144.1,141.6c-13.312,12.637-27.8,27.7-43.729,41.1-12.814,10.78-17.444,20.755-6.758,35.736,5.529,7.752,8.3,17.475,11.907,26.463,14.14,35.19,14.081,35.214,53.8,35.214H1458v197.431c-23.562,0-46.844.509-70.087-.214-11.668-.363-17.208,3.078-20.9,14.734-5.823,18.382-15.7,35.515-21.681,53.863-2.118,6.5-.484,17.346,3.969,22.173,15.744,17.064,33.45,32.381,48.74,46.785l-143.23,140.883-51.719-59.028c-30.82,12.11-55,20.749-78.235,31.384-5.412,2.477-10.42,11.587-10.774,17.908-1.283,22.868-.505,45.847-.505,70.082H914v-82.842l-84.313-34.387-54.563,59.438L629.365,1177.854l60.227-50.835Zm359.409-340.164c-137.538.436-246.468,108.38-245.975,243.749.487,133.826,111.95,241.244,249.623,240.562,135.1-.669,244.137-110.007,243.524-244.2C1259.021,806.123,1149.163,699.4,1012.461,699.836Z" transform="translate(-370.52 -261.272)" fill="#30bcc5"/>
    <path d="M495.117,1247.49c33.12,6.973,63.41,13.54,93.791,19.676,18.381,3.713,34.753,9.26,32,32.381-2.015,16.9-15.265,22.7-40.934,19.1-2.92-.41-5.909-.348-12.34-.69,4.6,6.335,7.208,11.052,10.858,14.782,133.781,136.741,296.284,200.636,489.525,184.254,154.533-13.1,282.158-79.748,386.334-191.5,15.528-16.657,30.836-19.679,42.962-7.254,13.952,14.3,9.183,28.362-2.879,41.469-110.915,120.526-248.054,192.59-412.8,208.715-219.736,21.507-403.1-52.927-554.415-212.206-1.992,4.779-3.78,9.044-5.549,13.317-5.8,14.016-16.989,19.259-31.119,15.567-15.537-4.059-21.335-15.711-19.117-31.01,1.066-7.354,2.947-14.6,4.579-21.868C482.188,1304.7,488.417,1277.179,495.117,1247.49Z" transform="translate(-370.52 -261.272)" fill="#30bcc5"/>
    <path d="M1622.032,1147.691c9.634-3.329,16.3-6.328,23.307-7.912,14.974-3.387,27.505.194,33.4,15.423,5.954,15.388-1.009,26.79-15.068,32.755-33.329,14.142-67.16,27.143-103.289,41.606-14.056-34.226-29.2-67.331-40.563-101.646-2.569-7.759,5.282-23.772,13.136-28.927,17.069-11.2,29.226,1.424,44.586,16.195,7.261-37.224,17.248-74.16,21.348-111.717C1629.3,724.81,1451.63,464.669,1178.379,386.4c-18.862-5.4-38.283-8.921-57.443-13.322-22.232-5.107-33.126-17.009-28.738-32.727,5.806-20.8,21.982-22.341,39.886-18.787,146.875,29.158,272,96.631,368.129,210.133,148.03,174.789,189.306,373.2,127.729,592.326C1626.006,1130.914,1624.462,1137.911,1622.032,1147.691Z" transform="translate(-370.52 -261.272)" fill="#30bcc5"/>
    <path d="M905.575,319.7C883,291.638,880.991,279.2,895.33,267.327c13.639-11.3,27.355-7.057,50.083,14.989,21.031,20.4,42.3,40.566,63.483,60.858-27.219,28.01-52.147,55.693-79.807,80.428-5.582,4.991-24.54,2.445-31.732-3.342-5.972-4.806-4.969-19.537-4.547-29.771.2-4.848,6.263-9.462,9.67-14.182l-2.987-6.808c-47.263,16.918-96.533,29.81-141.449,51.433C535.928,527.864,410.222,741.9,426.093,984.9c2.6,39.772,13.382,79.123,21.728,118.393,3.74,17.6,5.586,33.189-15.042,40.7-17.164,6.247-29.057-2.945-36.359-26.5-79.89-257.677,30.121-553.555,259.992-700.234C732.319,368.823,814.07,335.038,905.575,319.7Z" transform="translate(-370.52 -261.272)" fill="#30bcc5"/>
  </g>
</svg>
