<svg xmlns="http://www.w3.org/2000/svg" viewBox="0 0 1369.536 1373.519">
  <g>
    <path d="M802.165,1212.374h-57.06v197.6H658.117v-117.6H602.4v117.406H544.785V1212.744H486.828v197.5H344.94v-339.66H1714.476v340h-140V1213.4h-57.846v197.426h-56.818V1292.581h-57.406v117.3h-84.872v-197.04h-57.976v197.2H1173.5V1293.009h-56.55v116.845h-57.629V1212.718h-57.1v197.658H945.436V1292.711h-58.3v117.824H802.165Z" transform="translate(-344.94 -267)" fill="#30bcc5"/>
    <path d="M1143.819,1010.112H917.031c-.388-8.221-1.077-16.042-1.08-23.863q-.093-251.921-.033-503.841c.007-34.8,8.2-43.217,43.108-43.391,48.915-.244,97.836-.41,146.748.085,29.094.294,39.064,9.972,39.1,37.945q.293,259.258.036,518.516C1144.9,999.517,1144.332,1003.473,1143.819,1010.112Z" transform="translate(-344.94 -267)" fill="#30bcc5"/>
    <path d="M858.108,524.893c0,79.371.188,156.809-.434,234.24-.04,5-5.178,11.936-9.866,14.64-89.05,51.365-147.787,126.372-177.819,224.515-1.589,5.193-9.442,12.029-14.443,12.083-72.514.783-145.039.537-217.766.537C462.488,785.712,649.358,578.3,858.108,524.893Z" transform="translate(-344.94 -267)" fill="#30bcc5"/>
    <path d="M1199.313,525.257c196.016,50.6,390.928,245.732,421.315,485.693-51.454,0-102.619.048-153.784-.021-23.626-.032-52.013,7.634-69.444-2.836-15.268-9.171-17.632-39.1-26.739-59.386-32.3-71.964-81.266-129.661-150.525-168.126-17.11-9.5-21.447-20.17-21.209-38.3C1199.868,670.652,1199.313,599.01,1199.313,525.257Z" transform="translate(-344.94 -267)" fill="#30bcc5"/>
    <path d="M915.949,1469c73.793,0,144.65-.286,215.49.664,4.565.061,12.768,9.559,12.9,14.828,1.052,41.586.923,83.217.368,124.823-.262,19.621-12.137,30.447-31.086,30.675q-83.21,1-166.437.011c-18.524-.24-31.062-10-31.165-30.283C915.79,1564.134,915.949,1518.544,915.949,1469Z" transform="translate(-344.94 -267)" fill="#30bcc5"/>
    <path d="M956.307,381.261c17.549-35.981,32.36-69.1,49.714-100.832,9.49-17.352,37.829-18.1,47.377-1.018,18.013,32.222,33.113,66.073,50.7,101.849Z" transform="translate(-344.94 -267)" fill="#30bcc5"/>
  </g>
</svg>
