<svg xmlns="http://www.w3.org/2000/svg" viewBox="0 0 1451.036 1189.294">
  <path d="M704.335,1565.446c5.781-97.5,13.465-178.117,14.419-258.813.752-63.725,26.408-102.519,79.59-140.107,71.767-50.723,131.53-118.362,196.842-178.307,58.355-53.561,117.27-106.512,175.9-159.769,43.879-39.855,87.707-79.769,123.77-134.283-18.116,3.562-39.073,2.453-53.877,11.459q-125.919,76.606-249.257,157.436c-104.255,68.016-207.6,137.431-311.188,206.466-35.318,23.537-68.5,51.009-105.939,70.338-20.045,10.349-49.368,15.039-70.521,8.793-89.322-26.374-177.7-56.293-265.215-88.241-30.405-11.1-57.3-31.81-84.9-47.614,35.433-82.635,114.725-86.731,178.13-113.363C439,854.536,548.1,814.74,656.9,774.469c102.72-38.021,207.151-71.552,309.135-111.393,91.237-35.642,179.447-78.976,270.33-115.6,77.871-31.38,155.688-67.014,237.023-84.7,118.909-25.859,150.372,18.834,121.7,140.516-34.108,144.754-61.223,291.145-92.149,436.661-22.663,106.633-44.935,213.4-70.523,319.344-17.263,71.478-41.642,141.216-59.816,212.5-18.224,71.479-82.436,95.7-142.364,49.769-87.317-66.928-172.079-137.359-261.8-200.824-16.331-11.552-57.967-6.078-76.18,7.4-48.506,35.9-89.073,82.343-136.107,120.514C740.144,1561.65,714.266,1562.479,704.335,1565.446Z" transform="translate(-153.964 -455.706)" fill="#fff"/>
</svg>
