<svg xmlns="http://www.w3.org/2000/svg" viewBox="0 0 1280.833 1080.117">
  <path d="M783.9,1404.314c-82.529-47.6-178.121-80.937-217.205-185.927l62.083-13.29c-70.15-83.857-179.789-142.507-149-271.7l63.479,26.385,9.212-10.78C466.807,847.8,450.249,736.841,505.26,604.841c150.349,149.725,316.583,263.783,538.8,267.052,10.236-80.2,21.314-154.707,74.369-213.194,16.5-18.185,35.748-33.888,53.9-50.546,63.4-58.169,141.125-58,218.823-49.435,23.95,2.641,50.463,16.184,68.45,32.729,69.362,63.805,136.764,19.263,205.31,2.022,9.015,31.109,9.015,31.109-57.009,124.336l103.455-32.489L1724,704.246c-29.657,30.248-60.942,59.111-88.337,91.287-15.408,18.1-35.2,42.032-34.5,62.7,4.222,123.106-37.135,237.649-84.757,343.827-46.406,103.466-116.359,203.146-214.6,267.917-112,73.843-228.228,143.7-372.09,140.144-35.075-.866-72.264,28.758-105.644,24.088-127.722-17.87-255.238-40.869-370.014-105.533-5.8-3.266-12.473-15.239-10.564-19.452,2.7-5.945,12.706-11.044,20.146-11.955,38.778-4.751,78.867-3.509,116.376-12.866,67.72-16.894,133.934-39.823,200.777-60.232Q782.351,1414.244,783.9,1404.314Z" transform="translate(-443.167 -554.593)" fill="#fff"/>
</svg>
