<svg xmlns="http://www.w3.org/2000/svg" viewBox="0 0 1580 1106.663">
  <path d="M997.249,1552.5c-124.478,0-249.058-3.11-373.4.966-102.94,3.375-197.2-27.448-290.987-61.418-18.755-6.794-32.769-29.683-46.359-47.178-43.494-55.992-60.07-118.767-60.317-190.852-.369-107.67-16.424-215.316-16.183-322.95.21-93.605,11.092-187.5,22.193-280.677,10.34-86.782,114.1-180.53,201.305-183.362,252.281-8.193,504.6-17.75,756.961-19.9,125.809-1.073,251.958,10.35,377.555,20.875,84.973,7.121,165.061,104.954,186.973,192.714,43.483,174.15,39.723,349.348,24.648,522.065-8.387,96.088-2.862,210.789-93.168,286.141-17.514,14.613-33.667,35.842-53.882,41.3-62.321,16.831-125.971,36.382-189.712,38.787-148.353,5.6-297.062,1.785-445.627,1.785ZM849.334,786.628v434.193l380.173-220.049Z" transform="translate(-210 -447.06)" fill="#fff"/>
</svg>
