<svg xmlns="http://www.w3.org/2000/svg" viewBox="0 0 615.687 695.826">
  <g>
    <path d="M1207.709,1142.378c8.453,0,15.84-.128,23.222.025,19.287.4,33.066,13.753,32.779,31.625-.283,17.657-13.965,30.7-32.915,30.751-55.086.133-110.174.053-165.26.053q-191.127,0-382.255.083c-14.49.016-25.89-4.68-32.219-18.191a30.828,30.828,0,0,1,26.59-44.137c8.323-.415,16.684-.067,25.8-.067.216-3.444.538-6.192.539-8.941q.035-185.02.01-370.04c0-19.044,6.392-28.527,24.175-35.454q107.6-41.916,215.187-83.874c8.23-3.221,15.848-3.56,24.263-.266q109.531,42.885,219.237,85.324c13.482,5.242,20.847,16.578,20.848,32.033q.009,152.686,0,305.373C1207.708,1091.561,1207.709,1116.448,1207.709,1142.378ZM930.39,981.868V928.479L754.269,960.732v44.179ZM753.977,1093.11l176.455-4.573v-53.406l-176.455,13.86Zm-.049-176.573c2.681-.477,4.579-.721,6.431-1.159q74.323-17.565,148.632-35.194c7.149-1.7,16.933-1.649,20.547-6.275,3.661-4.686,1.286-14.169,1.364-21.553.1-9.922.026-19.845.026-30.535l-177,50.845ZM930.912,716.468c-16.127,6.285-31,12.085-45.87,17.875Q822.2,758.806,759.406,783.373c-2.223.874-5.393,3.285-5.457,5.076-.467,13.062-.252,26.148-.252,40.1,3.4-1.086,5.876-1.832,8.321-2.663q24.451-8.3,48.891-16.639c38.029-12.943,76.079-25.825,114.039-38.968,2.35-.814,5.642-3.622,5.7-5.587C931.121,749.164,930.912,733.615,930.912,716.468Z" transform="translate(-648.027 -641.628)" fill="#5232c2"/>
    <path d="M787.809,1329.905c1.051-6.428,1.851-13.595,3.5-20.562,1.045-4.424-.282-7.135-3.443-9.937a154.9,154.9,0,0,1-13.3-13.1c-1.867-2.108-4.284-6.043-3.474-7.656,1.166-2.323,4.879-4.013,7.8-4.675,6.281-1.423,12.838-1.647,19.1-3.133a11.863,11.863,0,0,0,6.7-5.006c3.428-5.728,5.876-12.037,9.189-17.843,1.288-2.257,4.092-5.486,5.769-5.244,2.4.346,4.965,3.116,6.454,5.483a61.362,61.362,0,0,1,6.662,13.475c2.446,7.55,7.681,9.947,14.94,10.415a109.417,109.417,0,0,1,16.319,2.394c6.406,1.4,7.588,5.446,3.058,10.273-4.75,5.061-9.67,9.99-14.829,14.629-3.227,2.9-4.219,5.861-3.255,10.11a179.738,179.738,0,0,1,3.4,19.791c.256,2.292-.462,5.757-2.032,6.889s-5.084.727-7.187-.23c-6.521-2.969-12.657-6.792-19.2-9.695a10.535,10.535,0,0,0-7.707-.024c-6.75,3.035-13.088,6.974-19.781,10.151C790.937,1339.043,787.621,1336.62,787.809,1329.905Z" transform="translate(-648.027 -641.628)" fill="#5232c2"/>
    <path d="M923.242,1330.954c1.065-6.459,1.679-13.434,3.479-20.089,1.482-5.483-.021-8.99-4.07-12.471a117.958,117.958,0,0,1-12.192-12.148c-1.854-2.138-4.4-6.106-3.592-7.568,1.3-2.347,4.95-4.039,7.9-4.7,6.515-1.45,13.268-1.817,19.8-3.2a9.6,9.6,0,0,0,5.71-4.166c3.64-6.438,6.548-13.286,10.058-19.8,3.277-6.084,7.748-6.088,11.08-.056,2.77,5.014,5.753,10.045,7.536,15.435,2.328,7.038,7.1,9.339,13.82,9.814a86.741,86.741,0,0,1,14.892,2.095c2.689.672,6.092,2.393,7.1,4.591.74,1.612-1.381,5.231-3.118,7.151-4.647,5.138-10.006,9.638-14.58,14.833a10.717,10.717,0,0,0-2.282,7.372c.741,7.358,2.474,14.614,3.293,21.968.726,6.519-2.83,9.007-8.746,6.248a149.594,149.594,0,0,1-17.1-9.036c-4.685-2.978-8.512-2.6-13.051.207a166.265,166.265,0,0,1-17.111,9.021C926.849,1338.892,923.381,1336.7,923.242,1330.954Z" transform="translate(-648.027 -641.628)" fill="#5232c2"/>
    <path d="M1058.929,1330.937c1.18-6.788,2.26-13.881,3.691-20.9.887-4.353.236-7.648-3.391-10.751a192.71,192.71,0,0,1-14.31-14.089c-5-5.277-3.6-9.614,3.609-10.968,6.806-1.278,13.79-1.71,20.51-3.3a12.793,12.793,0,0,0,7.291-5.237c3.578-5.9,6.082-12.444,9.481-18.467,1.146-2.032,3.66-4.492,5.6-4.536,1.9-.043,4.141,2.5,5.723,4.35a14.462,14.462,0,0,1,2.889,5.722c3.852,15.33,14.4,21.009,29.271,20.768a24.039,24.039,0,0,1,5.672.78c7.267,1.666,8.442,5.585,3.177,11.024a184.8,184.8,0,0,1-13.895,13.49c-4.073,3.407-4.822,7.123-3.733,12a165.433,165.433,0,0,1,3.146,18.356c.245,2.291-.4,5.737-1.94,6.865-1.574,1.15-5.081.816-7.174-.126-6.307-2.84-12.185-6.654-18.55-9.329a12.692,12.692,0,0,0-8.948-.043c-6.577,2.787-12.678,6.675-19.151,9.737C1062.749,1338.717,1059,1336.4,1058.929,1330.937Z" transform="translate(-648.027 -641.628)" fill="#5232c2"/>
  </g>
</svg>
