<svg xmlns="http://www.w3.org/2000/svg" viewBox="0 0 778.694 792.88">
  <g>
    <path d="M1230.751,1047.882q0-120.162,0-240.323c0-25.156,11.545-36.85,36.727-36.993,20.445-.116,40.894-.2,61.337.027,23.141.258,35.282,12.636,35.284,35.546q.013,242.837,0,485.674c0,22.469-12,35.088-34.364,35.436-21.446.334-42.9.294-64.352.014-22.686-.3-34.612-12.514-34.621-35.035Q1230.711,1170.054,1230.751,1047.882Z" transform="translate(-610.653 -534.651)" fill="#5232c2"/>
    <path d="M1246.887,599.463c-2.267-8.027-4.434-15.4-6.426-22.812-7.118-26.5,13.473-48.081,39.758-40.444,30.2,8.774,60.1,18.673,89.776,29.09,18.234,6.4,25.443,30.513,13.468,46.186-19.532,25.564-39.754,50.668-60.883,74.921-15.912,18.264-44.771,11.512-52.878-11.448-3.535-10.01-6.263-20.305-9.533-31.049-3.971,1.073-7.178,1.793-10.292,2.8q-229.312,74.236-458.648,148.4c-6.139,1.981-8.643,4.482-9.559,11.4-5.833,44.082-39.334,74.42-82.7,75.85-41.686,1.375-77.348-26.711-86.391-68.038-8.54-39.029,11.94-78.836,49.309-95.844,36.109-16.434,80.186-4.745,104.151,28.061,3.634,4.975,6.2,6.974,12.793,4.836q231.176-74.991,462.512-149.485C1242.913,601.383,1244.384,600.57,1246.887,599.463Z" transform="translate(-610.653 -534.651)" fill="#5232c2"/>
    <path d="M1040.365,1093.626q0-98.039.006-196.079c.006-23.691,12.035-36.194,35.518-36.466q31.167-.36,62.342-.01c23.863.229,35.845,12.36,35.849,36.077q.039,197.084,0,394.168c0,23.256-11.913,35.649-34.949,35.949-21.448.28-42.906.321-64.352-.021-22.225-.354-34.392-13.142-34.4-35.53Q1040.329,1192.671,1040.365,1093.626Z" transform="translate(-610.653 -534.651)" fill="#5232c2"/>
    <path d="M983.866,1139.773q0,76.42-.01,152.84c-.013,21.4-11.842,34.144-33.05,34.575q-33.671.684-67.365,0c-20.785-.424-32.791-13.076-32.8-33.755q-.069-153.846,0-307.691c.008-20.817,11.782-33.565,32.487-34.056q34.168-.81,68.368.022c20.634.521,32.347,13.383,32.362,34.218Q983.91,1062.85,983.866,1139.773Z" transform="translate(-610.653 -534.651)" fill="#5232c2"/>
    <path d="M797.183,1184.718q0,53.8-.014,107.591c-.033,22.082-11.821,34.551-33.712,34.92-22.115.372-44.248.415-66.361-.03-21.188-.427-33.276-13.264-33.286-34.463q-.051-108.094,0-216.188c.01-20.748,11.742-33.736,32.358-34.335,22.772-.662,45.59-.638,68.365-.056,20.86.533,32.569,13.157,32.622,33.965C797.249,1112.32,797.182,1148.519,797.183,1184.718Z" transform="translate(-610.653 -534.651)" fill="#5232c2"/>
  </g>
</svg>
