<svg xmlns="http://www.w3.org/2000/svg" viewBox="0 0 532.782 702.802">
  <g>
    <path d="M1087.782,1266.277h-7.86c-90.188,0-180.377.1-270.564-.207-6.311-.021-13.772-1.432-18.581-5.029-4.509-3.372-6.433-10.4-9.012-16.039-.842-1.841-.185-4.376-.185-6.593q0-311.963-.246-623.925C781.3,596.08,791.5,585.61,810.2,585.642q237.668.4,475.336.162c20.06,0,28.577,8.673,28.577,28.91q0,311.593,0,623.186c0,19.919-8.326,28.31-28.211,28.369-12.321.037-24.646-.172-36.96.1-4.727.1-6.809-1.013-7.567-6.214-3.051-20.942-6.834-41.778-9.944-62.713a13.722,13.722,0,0,1,2.267-9.211c26.834-36.525,24.8-81.551-6.945-113.849-25.066-25.5-56.273-32.3-89.8-20.971-32.762,11.076-52.219,35.185-57.684,69.562-3.833,24.107,2.7,45.8,17.39,65.219,1.6,2.113,3.029,5.367,2.654,7.8C1095.766,1219.1,1091.805,1242.138,1087.782,1266.277Zm-187.216-526h294.272v-38.6H900.566Zm294.287,22.105H900.823v38.475h294.03Zm.067,60.691H900.861v38.411h294.058Zm.01,60.643H900.592V922.1H1194.93ZM900.575,986.741h294.346V948.46H900.575Zm.046,114.473h62.243c23.386,0,46.772.092,70.155-.147,2.3-.023,6.524-1.989,6.576-3.194.5-11.711.3-23.452.3-35.4H900.621Zm-.1,39.021h86.5v-18.524h-86.5Z" transform="translate(-781.335 -585.642)" fill="#5232c2"/>
    <path d="M1165.117,1068.8a66.6,66.6,0,0,1,.074,133.191,66.6,66.6,0,1,1-.074-133.191Zm-.887,110.323c23.594.67,44.336-18.49,45.032-41.6.749-24.892-18.152-45.28-42.782-46.146-23.986-.844-44.949,18.881-45.475,42.79A44.1,44.1,0,0,0,1164.23,1179.119Z" transform="translate(-781.335 -585.642)" fill="#5232c2"/>
    <path d="M1118.659,1203.319c31.455,18.726,62.014,18.537,92.993.061l13.945,85.064c-3.129-1.652-5.354-2.742-7.5-3.972-16.006-9.178-32.065-18.268-47.939-27.668-3.651-2.162-6.371-2.118-9.991.018-15.888,9.377-31.946,18.468-47.959,27.634-2.07,1.185-4.238,2.2-7.47,3.867Z" transform="translate(-781.335 -585.642)" fill="#5232c2"/>
  </g>
</svg>
