<svg xmlns="http://www.w3.org/2000/svg" viewBox="0 0 1209.562 1213.08">
  <g>
    <path d="M831.82,1228.406H781.426v174.523H704.6V1299.069H655.386v103.692H604.5V1228.733H553.318v174.429H428V1103.177H1637.566v300.285H1513.92V1229.31h-51.089v174.365H1412.65v-104.43h-50.7v103.6h-74.958V1228.821h-51.2v174.166h-76V1299.622h-49.944v103.2h-50.9V1228.71h-50.431v174.57H958.356V1299.359H906.864v104.061H831.82Z" transform="translate(-428.004 -393.46)" fill="#5232c2"/>
    <path d="M1133.566,1049.77h-200.3c-.343-7.261-.951-14.168-.954-21.075q-.082-222.494-.029-444.988c.006-30.731,7.238-38.169,38.073-38.323,43.2-.216,86.408-.362,129.607.075,25.7.26,34.5,8.807,34.529,33.512q.259,228.974.032,457.949C1134.525,1040.413,1134.019,1043.906,1133.566,1049.77Z" transform="translate(-428.004 -393.46)" fill="#5232c2"/>
    <path d="M881.228,621.229c0,70.1.166,138.492-.384,206.879-.036,4.419-4.573,10.542-8.713,12.93C793.483,886.4,741.607,952.649,715.083,1039.327c-1.4,4.586-8.339,10.624-12.756,10.672-64.044.692-128.1.474-192.329.474C531.82,851.582,696.862,668.4,881.228,621.229Z" transform="translate(-428.004 -393.46)" fill="#5232c2"/>
    <path d="M1182.578,621.55c173.12,44.689,345.264,217.028,372.1,428.959-45.444,0-90.632.042-135.82-.019-20.866-.028-45.937,6.743-61.332-2.5-13.485-8.1-15.573-34.53-23.615-52.449-28.527-63.558-71.773-114.515-132.942-148.488-15.112-8.393-18.942-17.814-18.732-33.831C1183.068,749.962,1182.578,686.688,1182.578,621.55Z" transform="translate(-428.004 -393.46)" fill="#5232c2"/>
    <path d="M932.313,1455.059c65.173,0,127.753-.252,190.319.586,4.032.054,11.277,8.442,11.394,13.1.929,36.729.815,73.5.325,110.243-.231,17.329-10.719,26.89-27.454,27.092q-73.49.884-147,.01c-16.361-.212-27.433-8.83-27.524-26.745C932.173,1539.077,932.313,1498.813,932.313,1455.059Z" transform="translate(-428.004 -393.46)" fill="#5232c2"/>
    <path d="M967.957,494.375c15.5-31.778,28.58-61.03,43.907-89.054,8.381-15.325,33.41-15.984,41.843-.9,15.909,28.458,29.245,58.355,44.78,89.953Z" transform="translate(-428.004 -393.46)" fill="#5232c2"/>
  </g>
</svg>
