<svg xmlns="http://www.w3.org/2000/svg" viewBox="0 0 1011.453 1010.64">
  <path d="M905.522,1016.93l40.408-40.413c-1.827-2.322-4.032-5.192-6.307-8.006-68.051-84.164-64.387-205.242,9.668-284.178q46.852-49.941,96.8-96.954c82.832-77.918,218.317-75.2,298.838,5.087q30.187,30.1,60.26,60.316c87.2,88.025,87.218,222.54.009,310.45-27.4,27.622-55,55.05-82.512,82.562-78.424,78.425-203.855,85.191-290.331,15.661-2.876-2.312-5.74-4.639-8.305-6.712l-40.336,40.365c2.106,2.686,4.522,5.821,6.995,8.912,67.983,85,63.4,206.039-11.588,284.89q-46.152,48.528-94.677,94.784c-82.31,78.235-218.087,76.278-298.863-3.646q-31.024-30.7-61.692-61.755c-86.562-87.853-86.289-222.277.605-309.733q40.778-41.041,81.8-81.841c79.653-79.711,205.127-86.21,292.649-15.149C901.265,1013.454,903.578,1015.346,905.522,1016.93Zm194.317-40.011c4.649,3.257,7.535,5.489,10.615,7.405,41.436,25.782,93.914,22.491,129.808-10.632,32.288-29.8,63.634-60.775,93.514-92.979,39.258-42.312,37.379-106.05-2.824-147.961q-30.9-32.217-63.122-63.168c-40.328-38.861-105.591-40.761-146.6-2.757-32.477,30.1-63.76,61.614-93.959,94-35.74,38.333-36.561,102.081-2.188,140.124,2.3-3.091,4.2-6.422,6.807-9.044q54.786-55.005,109.8-109.784c16.437-16.278,36.312-20.694,57.945-12.8,21.36,7.8,33.07,24.069,35.18,46.594,1.691,18.047-5.719,32.771-18.435,45.335C1177.889,899.283,1139.562,937.471,1099.838,976.919ZM828.87,1095.969c-39.265-35.482-104.762-32.461-143.859,5.7q-43.219,42.185-85.411,85.417c-43,44.105-42.567,110.108.669,154.08q29.891,30.4,60.287,60.3c39.538,38.917,103.541,43.131,144.87,6.28a1259.3,1259.3,0,0,0,100.3-100.531c33.309-37.251,31.641-101.025-1.705-135.868-2.241,3.053-4.108,6.41-6.716,9.03Q842.508,1235.4,787.5,1290.21c-15.858,15.753-35.138,20.183-56.091,13.307-21.1-6.925-33.408-22.347-36.567-44.43-2.761-19.3,4.74-34.925,18.26-48.295C751.581,1172.74,789.957,1134.579,828.87,1095.969Z" transform="translate(-459.148 -530.559)" fill="#5232c2"/>
</svg>
