<svg xmlns="http://www.w3.org/2000/svg" viewBox="0 0 802.2 802.432">
  <path d="M978.694,1110.455c0,3.556,0,6.311,0,9.066,0,26.793.144,53.588-.181,80.377a16.23,16.23,0,0,1-4.045,9.989c-7.9,8.436-15.163,19.229-25.089,23.511-9.361,4.038-21.78,1.029-32.854,1.046-20.3.032-40.6.009-61.848.009,0,6.176,0,11.756,0,17.335,0,23.959.184,47.921-.2,71.874a16.928,16.928,0,0,1-4.38,10.6q-38.183,38.868-77.008,77.1c-2.314,2.286-6.02,4.468-9.092,4.486-47.659.277-95.32.192-142.98.166-1.258,0-2.516-.272-4.956-.554,1.468-13.911,2.854-27.614,4.369-41.3,4.388-39.661,8.959-79.3,13.129-118.987.76-7.23,2.868-12.848,8.241-18.2Q802.719,1076.54,963.354,915.831c4.267-4.259,5.618-7.825,4.014-13.974-34.362-131.756,50.66-263.722,184.871-285.212,133.043-21.3,247.281,72.417,263.94,195.16,16.517,121.686-67.045,236.6-187.378,256.889-33.953,5.724-67.757,4.457-101.066-4.583-4.446-1.207-7.017-.377-10.048,2.722-12.788,13.076-25.62,26.124-38.881,38.713a18.324,18.324,0,0,1-11.271,4.7c-26.529.4-53.067.212-79.6.212Zm143.448-268.009a66.8,66.8,0,0,0,66.461,67.225c36.722.422,66.941-29.445,67.237-66.455.294-36.842-29.3-66.754-66.468-67.175C1152.654,775.625,1122.277,805.63,1122.142,842.446Z" transform="translate(-616.062 -613.615)" fill="#fff"/>
</svg>
