<svg xmlns="http://www.w3.org/2000/svg" viewBox="0 0 916.504 913.355">
  <g>
    <path d="M1352.109,985.443q0-187.544,0-375.087c0-20.048-.778-20.793-21.118-20.851-5.249-.015-10.676.829-15.7-.24s-11.276-2.919-13.822-6.611c-1.474-2.137,2.226-9.638,5.438-12.926,25.676-26.281,51.793-52.133,77.775-78.116,31.664-31.664,31.666-31.666,62.891-.436,25.643,25.647,51.455,51.13,76.735,77.13,3.832,3.942,5.181,10.3,7.678,15.539-5.4,1.885-10.792,5.386-16.194,5.4-38.576.079-34.141-.72-34.147,34.071q-.068,366.5-.025,732.995c0,24.658,0,24.662-25.368,24.665q-40.8.006-81.6,0c-22.523-.015-22.535-.031-22.536-21.871Q1352.1,1172.271,1352.109,985.443Z" transform="translate(-615.48 -467.807)" fill="#fff"/>
    <path d="M1235.236,1034.965q0,163.2-.01,326.41c0,18.994-.509,19.539-18.972,19.579-31.018.067-62.043-.342-93.052.19-12.54.215-17.73-3.475-17.709-17.095q.521-328.556.04-657.114c-.017-12.87,3.888-18.021,17.182-17.749,31.482.645,62.987.157,94.483.225,17.3.037,18.022.819,18.026,19.143Q1235.261,871.76,1235.236,1034.965Z" transform="translate(-615.48 -467.807)" fill="#fff"/>
    <path d="M990.656,1106.412q0,125.926,0,251.851c0,22.685-.017,22.7-23.324,22.708-30.05.012-60.108-.389-90.148.184-12.4.236-16.777-4.392-16.759-16.72q.36-257.574-.027-515.149c-.022-13.215,4.863-17.462,17.748-17.188,31.467.668,62.972.759,94.433-.031,13.822-.347,18.365,4.517,18.3,18.2C990.442,935.648,990.655,1021.03,990.656,1106.412Z" transform="translate(-615.48 -467.807)" fill="#fff"/>
    <path d="M615.728,1213.231c0-49.616.362-99.236-.243-148.845-.161-13.207,4.319-17.64,17.38-17.37,32.427.669,64.881.488,97.317.078,11.044-.139,15.141,3.9,15.11,15.1q-.417,150.993.013,301.988c.038,12.426-4.675,17.064-16.853,16.917q-48.655-.591-97.32.02c-11.878.165-15.7-4.543-15.6-16.179C615.983,1314.373,615.728,1263.8,615.728,1213.231Z" transform="translate(-615.48 -467.807)" fill="#fff"/>
  </g>
</svg>
