<svg xmlns="http://www.w3.org/2000/svg" viewBox="0 0 1080.118 1089.234">
  <g>
    <path d="M1110.2,1314.764c-8.855,64.04,13.295,107.049,67.8,135,20.848,10.692,41.931,20.957,62.469,32.214,18.139,9.943,24.912,23.581,20.248,38.954-5.258,17.331-18,23.7-35.369,23.682q-225.762-.169-451.524-.061c-17.238,0-30.027-6.4-34.979-24.072-4.407-15.725,1.086-27.556,19.184-37.674,19.441-10.869,39.471-20.691,59.321-30.82,59.773-30.5,79.687-67.369,72.475-137.226H870.057q-170.824,0-341.647-.122c-10.227-.017-20.845-.262-30.6-2.916-22.964-6.251-37.763-28.262-37.776-55.237q-.17-371.692.019-743.384c.022-33,18.965-53.267,51.75-57.105a103.342,103.342,0,0,1,11.987-.537q474.7-.035,949.4-.079c23.605-.006,45.071,5,56.936,27.414,5.393,10.187,9.478,22.514,9.5,33.881q.8,369.974.369,739.95c-.01,33.117-20.322,54.932-53.162,57.643-6.259.516-12.575.473-18.864.475q-168.249.039-336.5.019Zm316.614-748.079H571.158v554.658h855.654ZM1036.2,1216.975a37.833,37.833,0,0,0-37.184-37.011c-20.268-.145-38.523,18.186-38.11,38.268.408,19.825,17.587,36.6,37.635,36.741A37.378,37.378,0,0,0,1036.2,1216.975Z" transform="translate(-459.941 -455.383)" fill="#fff"/>
    <path d="M1217.373,839.5c-35.325-35.06-67.116-66.379-98.6-98-10.022-10.064-17.1-21.638-12.428-36.911,4.188-13.688,12.748-24.864,27.094-25.09,10.985-.173,25.137,2.69,32.6,9.769,41.928,39.77,82.557,80.931,122.983,122.249,16.757,17.127,16.5,35.9-.5,53.24q-60.1,61.3-121.384,121.445c-15.276,15.043-37.264,15.216-50.913,1.846-15.246-14.935-15.619-34.929.792-51.948,27.409-28.425,55.615-56.085,83.695-83.857C1205.151,847.841,1210.689,844.547,1217.373,839.5Z" transform="translate(-459.941 -455.383)" fill="#fff"/>
    <path d="M782.222,837.816c29.38,29.273,57.7,57.465,85.984,85.7,5.26,5.251,10.805,10.3,15.444,16.072,12.432,15.459,11.473,34.808-1.9,48.178-12.616,12.611-34.241,13.7-48.387,1.056-13.629-12.183-26.088-25.675-39.037-38.617-27.518-27.5-55.151-54.89-82.486-82.572-20.628-20.889-20.81-38.676-.273-59.422Q769.525,749.66,828.08,691.7c17.142-17.005,38.9-18.378,53.5-4.049,15.566,15.278,14.568,36.258-3.5,54.541C846.75,773.88,815.009,805.153,782.222,837.816Z" transform="translate(-459.941 -455.383)" fill="#fff"/>
    <path d="M1058.875,714.374q-14.252,80.06-28.469,160.126c-6.122,34.266-12.186,68.545-18.664,102.745-4.312,22.762-21.954,36.269-42.358,33.213-20.438-3.061-31.306-20.542-26.969-45.458q22.456-129.025,45.654-257.919c3.848-21.377,20.422-33.131,40.672-30.287A35.034,35.034,0,0,1,1058.875,714.374Z" transform="translate(-459.941 -455.383)" fill="#fff"/>
  </g>
</svg>
