<svg xmlns="http://www.w3.org/2000/svg" viewBox="0 0 792.204 792.429">
  <path d="M1383.243,1340.588H1372.03c-126.646,0-253.292-.326-379.937.078-175.235.559-313.3-105.674-370.5-244.276-86.439-209.443,17.5-447.443,231.159-524.2,229.738-82.531,473.809,56.066,522.884,295.127a374.076,374.076,0,0,1,7.283,72.785c.7,129.992.326,259.99.325,389.986C1383.243,1333.084,1383.243,1336.078,1383.243,1340.588ZM668.928,891.533H873.153c0-26.8.077-52.882-.032-78.963-.055-13.221,6.459-22.184,17.743-28.011,14.218-7.341,31.073-4.4,44.434,7.614Q1005.184,855,1075,917.9c20.3,18.288,20.248,35-.106,53.337q-40.326,36.325-80.7,72.6-30.261,27.225-60.535,54.436c-12.2,10.909-26.331,12.928-41.118,6.859-14.833-6.088-20.171-18.056-19.584-33.887.695-18.737.157-37.519.154-56.282q0-8.82,0-17.612H668.805c18.079,134.8,143.027,272.461,320.61,270.59,181.535-1.913,323.054-146.863,321.548-327.079C1309.483,763.842,1164.847,620.6,987.147,620.9,807.883,621.208,685.711,760.8,668.928,891.533Z" transform="translate(-591.138 -548.239)" fill="#5232c2"/>
</svg>
