<svg xmlns="http://www.w3.org/2000/svg" viewBox="0 0 1094.626 941.09">
  <g>
    <path d="M1304.388,458.873c148.847.435,269.553,121.433,269.378,270.031-.175,148.784-121.1,269.469-269.884,269.345-149.341-.125-269.633-121.356-269.21-271.312C1035.088,579.33,1156.721,458.442,1304.388,458.873Zm.437,298.44c32.406,0,64.812.09,97.217-.031,22.752-.085,36.715-11.633,36.793-30.057.075-17.8-13.414-29.554-35.6-29.64q-98.667-.385-197.336.087a47.538,47.538,0,0,0-19.527,4.088c-12.291,5.8-18.075,20.044-14.841,33.046,3.3,13.25,14.6,22.188,30.274,22.354C1236.141,757.522,1270.485,757.272,1304.825,757.314Z" transform="translate(-479.14 -458.804)" fill="#fff"/>
    <path d="M1018.066,1129.832c-.044,148.971-120.564,269.439-269.523,269.405-148.9-.034-269.424-120.643-269.4-269.6.021-148.987,120.6-268.625,270.316-268.2C898.542,861.857,1018.109,981.327,1018.066,1129.832Zm-300.239-30.006c-14.561,0-27.486-.03-40.411.008-14.508.042-29.071-.616-43.509.425-16.234,1.17-28.434,14.725-28.346,29.584.085,14.418,11.424,27.052,27.111,29.043,8.583,1.089,17.354.872,26.042.926,19.183.119,38.367.037,59.052.037,0,7.2,0,12.4,0,17.6.023,21.765-.315,43.539.207,65.292.324,13.508,7.867,22.508,20.648,26.763,12.394,4.126,23.744,1.042,31.067-9.19,4.418-6.174,6.922-14.937,7.185-22.642.869-25.459.328-50.966.328-77.827,8.664,0,15.372.054,22.08-.01,20.783-.2,41.624.428,62.33-.949a29.355,29.355,0,0,0,27.76-29.8c-.369-14.973-12.656-27.713-29.061-28.968-10.582-.81-21.269-.275-31.909-.291-16.7-.025-33.4-.007-51.194-.007,0-26.763.134-51.358-.1-75.949-.054-5.7-.325-11.785-2.292-17.018-5.056-13.45-18.28-20.2-32.776-17.823-13.7,2.246-23.856,13.487-24.091,28.379C717.522,1044.36,717.827,1071.317,717.827,1099.826Z" transform="translate(-479.14 -458.804)" fill="#fff"/>
    <path d="M838.111,686.053V813.424c-60.1-15.538-118.783-15.781-179.365.209V686.055c-17.674,0-33.488-.087-49.3.026-13.827.1-26.161-2.712-32.7-16.631-6.817-14.52-.64-25.893,8.8-36.84q67.729-78.575,135.142-157.422c18.545-21.6,35.718-21.858,54.086-.674q68.435,78.927,136.805,157.91c9.526,10.947,15.523,22.408,8.969,36.868-6.349,14.007-18.727,16.882-32.578,16.787C872.092,685.968,856.213,686.053,838.111,686.053Z" transform="translate(-479.14 -458.804)" fill="#fff"/>
    <path d="M1393.8,1044.774v127.672c18.09,0,34.866.315,51.624-.1,13.889-.342,24.717,4.2,30.822,17.162,5.948,12.63,1.777,23.518-6.678,33.377q-70.878,82.648-141.876,165.193c-13.8,15.947-32.354,15.7-46.4-.435q-71.975-82.658-143.443-165.758c-7.917-9.157-10.852-19.426-6.023-30.9,5.1-12.124,15.273-17.228,27.741-17.514,17.76-.408,35.536-.1,54.871-.1V1044.73C1274.807,1060.625,1333.6,1060.564,1393.8,1044.774Z" transform="translate(-479.14 -458.804)" fill="#fff"/>
  </g>
</svg>
