<svg id="493e9a47-0433-459d-bae2-e266ecfc1cf6" data-name="Layer 1" xmlns="http://www.w3.org/2000/svg" viewBox="0 0 654.508 654.442">
  <title>Untitled-1</title>
  <g>
    <path d="M950.5,621.8c179.908.121,327.267,147.071,327.163,326.253-.105,180.3-146.92,327.933-326.363,328.189-182.077.259-328.421-146.612-328.144-329.327C623.423,768.076,770.826,621.678,950.5,621.8Zm.3,581.208c141.2-.545,254.634-115.289,254.135-257.072C1204.448,807.5,1089.2,693.91,949.847,694.528,808.157,695.156,695.374,809.17,695.9,951.24,696.422,1089.6,811.778,1203.544,950.8,1203.007Z" transform="translate(-623.152 -621.799)" fill="#5232c2"/>
    <path d="M950.3,1129.738c-100.688-.227-181.452-81.734-181.155-182.821.291-99.161,82.139-180.406,181.394-180.057,100.9.354,181.477,81.668,181.136,182.787C1131.343,1048.856,1049.659,1129.963,950.3,1129.738Zm.413-289.439c-60.017-.4-108.732,47.93-109.068,108.2-.335,60.183,47.31,108.313,108.068,109.169,59.756.841,108.863-47.458,109.558-107.755C1059.969,889.722,1011.424,840.7,950.717,840.3Z" transform="translate(-623.152 -621.799)" fill="#5232c2"/>
  </g>
</svg>
