<svg xmlns="http://www.w3.org/2000/svg" viewBox="0 0 1086.059 1083.9">
  <g>
    <path d="M1197.224,1072.622c0-6.6,0-12.417,0-18.233q0-159.307-.016-318.614c-.015-38.143-18.116-56.629-56.5-56.721q-140.7-.337-281.392.011c-38.166.1-56.024,18.709-56.036,57.18q-.052,158.562-.013,317.125c0,5.9,0,11.8,0,20.063H786.748q-134.741,0-269.482-.014c-41.177-.02-59.245-17.978-59.249-58.743q-.02-187.595,0-375.19c.005-33.709,9.047-47.04,40.57-59.652q238.034-95.238,476.023-190.588c17.72-7.124,34.025-6.92,51.7.187q237.867,95.653,476.018,190.6c31.235,12.5,40.134,25.869,40.138,59.93q.023,188.339-.005,376.679c-.009,37.841-18.743,56.707-56.74,56.754q-136.971.169-273.943.007C1207.436,1073.4,1203.092,1072.948,1197.224,1072.622Z" transform="translate(-457.206 -384)" fill="#5232c2"/>
    <path d="M1369.526,1369.749H630.463l-4.447,5.23c4.724,2.624,10.394,4.324,14.015,8.027,20.308,20.772,20.3,51.047.525,70.575-19.193,18.958-49.593,19.322-69.632-.287q-50.012-48.939-98.934-98.986c-19.414-19.9-19.82-48.457-.55-68.369q49.692-51.348,100.992-101.131c18.547-17.987,49.992-16.867,67.7.715,19.15,19.012,20.237,48.215,2.431,68.588-4.13,4.725-8.64,9.118-14.509,15.272H1372.31c-5.583-5.891-10-10.28-14.108-14.933-18.016-20.379-17.194-49.307,1.854-68.6,17.935-18.169,49.794-18.932,68.8-.364q50.585,49.415,99.9,100.121c19.817,20.462,19.177,48.916-.973,69.473q-48.463,49.439-97.9,97.916c-20.484,20.071-51.53,19.562-70.688-.162-18.972-19.531-18.782-49.134.925-69.546,3.661-3.793,9.02-5.947,13.6-8.857Z" transform="translate(-457.206 -384)" fill="#5232c2"/>
    <path d="M902.938,778.5h194.646v293.727H902.938Z" transform="translate(-457.206 -384)" fill="#5232c2"/>
  </g>
</svg>
