<svg xmlns="http://www.w3.org/2000/svg" viewBox="0 0 1089.725 1062.253">
  <g>
    <path d="M1220.966,722.869c45.035-18.669,91.09-29.007,138.936-22.191,56.965,8.115,94.27,43.758,117.048,94.474,24.364,54.248,25.673,110.893,8.529,167.338-10.963,36.094-33.472,65.758-65.967,84.619-32.237,18.712-65.631,37.445-100.914,48.566q-332.088,104.679-665.47,205.23c-30.537,9.248-63.647,15.749-95.237,14.589-67.733-2.489-110.1-43.929-133.71-104.415-44.114-113.033-.08-224.917,110.838-273.617,52.859-23.209,110.084-36.3,164.691-55.771,30-10.7,58.328-11.02,89.771-4.908,103.971,20.211,207.863,17.208,309.627-14.069,26.231-8.062,50.691-22.017,75.7-33.826,6.4-3.023,12.154-7.766,17.586-12.439C1221.488,791.417,1238.682,762.491,1220.966,722.869ZM699.6,1143.089c-1.023-47.586-8.606-87.523-28.6-124.646-31.322-58.172-98.962-75.362-154.166-38.885-77.456,51.181-99.019,166.459-46.182,246.9,37.463,57.033,100.743,73.235,160.03,39.87C680.781,1238.135,698.833,1192.116,699.6,1143.089Z" transform="translate(-407.275 -640.466)" fill="#5232c2"/>
    <path d="M919.64,640.466c81.82,2.2,149.325,8.538,211.073,40.921a172.953,172.953,0,0,1,44.089,32.859c22.645,23.68,22.257,51.192,1.415,76.488-21.441,26.022-50.978,40.24-81.938,49.846-107.052,33.215-214.752,33.325-321.665-.387-22.145-6.983-43.63-18.77-62.723-32.181-45.511-31.969-45.176-76.992-.476-110.335,36.326-27.1,78.664-40.074,122.556-47.249C865.373,644.967,899.3,642.695,919.64,640.466Zm83.149,126.172c24.329,11.17,48.53,22.429,72.9,33.306,3.471,1.549,8.689,3.011,11.532,1.523,18.976-9.934,37.993-19.966,55.918-31.624,5.021-3.265,9.112-12.158,8.972-18.364-.4-17.776-54.153-51.733-70.707-44.716-26.882,11.395-53.168,24.2-78.616,35.905ZM857.717,742.7c-24.8-11.334-50.354-23.135-76.064-34.578-2.9-1.291-7.441-1.915-9.965-.541-15.681,8.535-31.727,16.737-46.085,27.2-5.627,4.1-10.338,13.917-9.994,20.86.808,16.315,53.31,50.4,68.278,44.347,25.5-10.319,50.173-22.664,73.83-33.531Zm-20.891-54.469c76.474,45.936,110.919,45.358,188.609-.8C962.391,676.992,900.874,677.354,836.826,688.228Zm7.557,129.491c43.6,11.56,146.679,11.226,172.348.117C960.458,777.681,902.6,775.646,844.383,817.718Z" transform="translate(-407.275 -640.466)" fill="#5232c2"/>
    <path d="M566.873,1356.44c44.726,62.915,92.28,121.374,108.609,196.282,9.167,42.051.458,82.95-29.915,114.971-29.23,30.816-65.857,42.594-108.337,30.121-44.671-13.117-68.769-44.315-78.781-88.247a141.032,141.032,0,0,1,5.959-83.4C488.055,1464.573,525.51,1411.269,566.873,1356.44Z" transform="translate(-407.275 -640.466)" fill="#5232c2"/>
  </g>
</svg>
