<svg xmlns="http://www.w3.org/2000/svg" viewBox="0 0 816.954 920.984">
  <g>
    <path d="M1157.009,487.074c1.278,1.62,1.987,2.348,2.5,3.194,68.884,113.387,134.836,228.412,188.591,349.885a1092.367,1092.367,0,0,1,42.326,113.081c20.829,65.971,8.262,128.633-28.77,185.287-51.209,78.341-125.415,116.331-219.068,112.035-104.838-4.809-195.128-81.351-221.4-183.988-11.807-46.125-6.307-90.587,8.673-134.887,22.252-65.8,51.827-128.36,83.319-190.065,43.38-85,90.645-167.831,140.412-249.243C1154.528,490.84,1155.535,489.354,1157.009,487.074Z" transform="translate(-583.505 -487.074)" fill="#5232c2"/>
    <path d="M1017.925,1275.688c-28.917,58.639-73.382,99.568-135.35,120.566-132.989,45.065-276.808-43.854-297.123-182.75-5.859-40.06,2.171-77.6,15.245-114.787,23.816-67.739,54.93-132.239,89.751-194.8,37.328-67.066,76.909-132.878,115.533-199.222,1.377-2.365,3.038-4.566,5.022-7.521,1.922,2.779,3.467,4.756,4.742,6.894,26.873,45.077,53.634,90.221,80.67,135.2,3.3,5.486,3.211,9.946.853,15.774-15.032,37.154-29.262,74.687-36.352,114.283-11.489,64.163,1.486,124.465,31.824,181.323,27.1,50.787,66.086,90.289,116.143,118.8,2.469,1.406,4.928,2.833,7.361,4.3C1016.658,1274,1016.916,1274.505,1017.925,1275.688Z" transform="translate(-583.505 -487.074)" fill="#5232c2"/>
  </g>
</svg>
