<svg xmlns="http://www.w3.org/2000/svg" viewBox="0 0 1051.553 1320.479">
  <g>
    <path d="M938.448,1548H418.906V284.021H938.448ZM624.661,491.294h-107.8V592.64h107.8Zm107.424,946.648H840.1V1336.479H732.085ZM517.152,1337.393v101.782H624.332V1337.393ZM732.32,1125.864c-33.066,0-63.56-.56-93.994.545-5.142.187-14.174,7.374-14.357,11.63-1.266,29.519-.668,59.119-.668,89.944H732.32Zm2.529-112.3H842.6v-100.2H734.849Zm-113.342,1.74V913H513c0,30.727-.6,60.309.653,89.812.185,4.353,8.994,11.744,14.026,11.93C558.13,1015.866,588.638,1015.3,621.507,1015.3Zm.447-209.7h107.83V705.483H621.954Zm208.465-314.69H723.213V591H830.419Z" transform="translate(-418.906 -227.521)" fill="#5232c2"/>
    <path d="M976.466,1545.723V807.164h104.867V603.891h107.429V227.521h29.843v180.8l40,3.231v191.72h105.748v202.7h106.1v739.752Zm285.212-630.914v101.554h107.4V914.809ZM1364.7,1441.872v-101.5H1257.762v101.5Zm-174.539-.045V1340.47H1082.675v101.357ZM1084.374,1015.91H1192.3V915.251H1084.374ZM1192.75,1124.4H1084.906v99.029H1192.75Zm172.5-.384H1257.616v99.741h107.638Z" transform="translate(-418.906 -227.521)" fill="#5232c2"/>
  </g>
</svg>
