<svg xmlns="http://www.w3.org/2000/svg" viewBox="0 0 1311.457 1303.251">
  <g>
    <path d="M1194.375,656.726H417.245V261h777.131ZM630.759,398.905H555.973v119.81h74.786Zm425.826,120.049V399.132h-73.2V518.955ZM843.9,399.175h-72.9V518.419h72.9Z" transform="translate(-417.004 -261)" fill="#5232c2"/>
    <path d="M417,1110.959V715.325h776.988v395.634Zm138.4-138.392h74.931V852.38H555.407Zm288.521-.01V852.8H771V972.558ZM983.364,852.31V972.178h73.228V852.31Z" transform="translate(-417.004 -261)" fill="#5232c2"/>
    <path d="M417.045,1167.754h21.17q367.37,0,734.738-.414c17.967-.045,23.1,4.18,22.967,22.616-.883,117.671-.45,235.352-.45,353.03v21.265H417.045Zm138.7,139.2v120.457h74.89V1306.956Zm215.512-.252v120.572h72.461V1306.7Zm285.315,121.12V1307.351H983.682v120.474Z" transform="translate(-417.004 -261)" fill="#5232c2"/>
    <path d="M1538.942,1434.813v68.592l-238.2-137.359,237.287-137.195v67.422h189.327v138.539Z" transform="translate(-417.004 -261)" fill="#5232c2"/>
    <path d="M1301.982,560.2V421.581h188.177V353.05l238.3,137.4L1491.6,627.441V560.2Z" transform="translate(-417.004 -261)" fill="#5232c2"/>
  </g>
</svg>
