<svg xmlns="http://www.w3.org/2000/svg" viewBox="0 0 1112.699 1318.519">
  <path d="M1456.316,279.667c0,42.094.258,82.682-.132,123.263-.148,15.393-.557,26.759,19.885,32.627,27.2,7.809,31.4,33.056,31.34,58.763q-.4,179.161-.106,358.323c0,27.585,0,55.17,0,84.726h49.046v405.458H1456.315c0,28.215.032,53.8-.008,79.385-.053,34.257.972,68.563-.513,102.759-2.235,51.452-36.378,73.59-109.564,72.94-56.935-.506-90.425-26.829-91.605-74.362-1.217-49.043-.355-98.138-.4-147.21-.009-9.962,0-19.923,0-31.228H746.168c0,53.864.5,107.345-.311,160.805-.233,15.445-1.246,32.059-7.026,46.014-16.4,39.607-51.287,46.01-89.552,46.243-40.507.247-79.243-2.671-98.57-45.584-5.456-12.114-6.759-26.868-6.944-40.452-.747-54.6-.309-109.218-.309-167.676H443.65V939.09l49.3-2.492c0-10.9,0-20.765,0-30.631q0-204.161.028-408.322c.023-44.02,7.949-55.2,50.066-69.846V279.667ZM948.2,534.115H595.221V936.157H948.2ZM1051.763,935.91h351.608V533.918H1051.763ZM581.821,1140.572c-.052,42.246,33.262,75.578,75.588,75.629,42.249.05,76.056-33.624,75.743-75.445-.321-42.84-33.492-76.035-75.473-75.529C614.636,1065.746,581.873,1098.288,581.821,1140.572Zm836.537,1.385c.133-42.832-32.66-76.616-74.436-76.685-42.748-.071-76.895,32.531-77.6,74.086-.7,41.282,33.232,76.071,74.91,76.812C1383.382,1216.919,1418.23,1183.386,1418.358,1141.957Z" transform="translate(-443.65 -279.667)" fill="#5232c2"/>
</svg>
