<svg xmlns="http://www.w3.org/2000/svg" viewBox="0 0 982.923 1125.34">
  <g>
    <path d="M663.111,936.248c123.6,45.422,234.776,29.817,326-63.8,91.068-93.455,104.335-204.926,56.8-326.022,39.533-1.7,76.932,5.855,113.573,17.4,139.873,44.066,245.381,175.969,259.317,321.992,1.373,14.385,7.042,29.576,14.7,41.928,27.676,44.669,56.891,88.392,85.867,132.245,10.471,15.847,15.384,31.906,5.627,49.69-9.619,17.533-25.43,23.413-44.5,23.089-13.016-.221-26.04-.118-39.058-.011-19.883.163-22.7,2.892-22.726,22.413-.064,45.83.029,91.659-.032,137.489-.055,41.508-25.233,67.388-66.661,67.9-33.326.411-66.661,0-99.991.134-22.436.089-27.821,5.481-27.842,27.461-.043,45.309.038,90.618-.033,135.927-.042,26.741-14.572,40.642-41.225,38.348Q1025,1548.836,867.139,1534.632c-21.839-1.958-33.578-15.2-33.621-37.269-.131-67.7-.653-135.414.3-203.1.307-21.746-7.183-37.83-23-51.924C734.675,1174.5,687.838,1089.99,669.332,989.862,666.159,972.69,665.237,955.1,663.111,936.248Z" transform="translate(-547.337 -437.33)" fill="#5232c2"/>
    <path d="M547.337,672.27c-.132-129.184,104.9-234.524,234.244-234.939,130.036-.417,236.088,105.013,236.109,234.724.021,129.212-105.012,234.5-234.331,234.9C653.141,907.359,547.469,802.285,547.337,672.27Zm210.8,19.44c-13.616-13.982-25.924-27.312-39-39.843-11.849-11.356-27.172-11.586-37.8-1.661-11.814,11.031-12.659,25.979-.5,38.756q29.592,31.1,60.717,60.724c12.018,11.458,27.571,10.619,38.687-1.8,32.635-36.451,65.3-72.9,96.714-110.391,5.349-6.384,8-18.781,5.941-26.891-5.387-21.253-31.035-24.6-47-6.848C810.231,632.285,785.038,661.232,758.138,691.71Z" transform="translate(-547.337 -437.33)" fill="#5232c2"/>
  </g>
</svg>
