<svg xmlns="http://www.w3.org/2000/svg" viewBox="0 0 889.656 888.748">
  <g>
    <path d="M1407.759,1481.122H1186.2c0-3.883,0-7.551,0-11.219q0-215.393.053-430.786c.041-43.8,18.781-77.634,57.252-98.783,38.757-21.306,77.92-19.49,115.017,4.451,32.2,20.782,49.492,51.7,49.683,89.688.735,146.36.312,292.725.286,439.088C1408.487,1475.9,1408.049,1478.231,1407.759,1481.122Z" transform="translate(-518.976 -592.414)" fill="#5232c2"/>
    <path d="M740.9,1481.111H519.673c-.231-3.925-.6-7.281-.6-10.637q-.041-215.886.066-431.772c.161-76.46,69.941-128.855,142.921-108.006a109.7,109.7,0,0,1,79.2,105.2c.521,146.344.189,292.691.17,439.036C741.43,1476.617,741.15,1478.3,740.9,1481.111Z" transform="translate(-518.976 -592.414)" fill="#5232c2"/>
    <path d="M1074.7,1481.163H852.4c0-3.9,0-7.578,0-11.255q0-214.89.084-429.779C852.55,995.662,871.423,961,910.9,939.8c38.919-20.9,78.215-18.838,114.986,5.577,32.156,21.35,48.537,52.5,48.707,91.211.342,78.2.107,156.409.108,234.613q0,98.621,0,197.242C1074.7,1472.512,1074.7,1476.576,1074.7,1481.163Z" transform="translate(-518.976 -592.414)" fill="#5232c2"/>
    <path d="M519.075,702.137c1.017-61.388,51.7-111,112.071-109.695,62.118,1.339,111.441,51.726,110.29,112.669A110.951,110.951,0,0,1,628.167,814.55C566.847,813.539,518.062,763.269,519.075,702.137Z" transform="translate(-518.976 -592.414)" fill="#5232c2"/>
    <path d="M1186.209,703.2A110.946,110.946,0,0,1,1297.118,592.43c61.281-.095,111.55,50.28,111.39,111.622-.16,60.945-50.021,110.5-111.217,110.534C1235.234,814.621,1186.038,765.287,1186.209,703.2Z" transform="translate(-518.976 -592.414)" fill="#5232c2"/>
    <path d="M1074.686,703.946a111.141,111.141,0,0,1-222.281-.643c.124-60.832,49.975-110.6,111.066-110.887C1024.853,592.129,1074.755,642.172,1074.686,703.946Z" transform="translate(-518.976 -592.414)" fill="#5232c2"/>
  </g>
</svg>
