<svg xmlns="http://www.w3.org/2000/svg" viewBox="0 0 882.68 1279.247">
  <path d="M1495.826,707.284c-.166,77.362-20.5,149.312-58.38,215.892Q1269.477,1218.4,1099.918,1512.72c-23.908,41.681-67.686,41.873-91.5.36-112.391-195.894-225.4-391.437-336.677-587.965C522.493,661.527,671.72,334.729,968.187,273.65c244.875-50.45,488.377,121.811,521.846,369.414C1492.909,664.343,1493.939,685.872,1495.826,707.284ZM1052.654,940.672c108.788.813,198.493-86.78,199.748-195.045a198.075,198.075,0,0,0-196.065-200.464c-109.944-1.2-199.029,85.8-200.578,195.886C854.227,849.847,943,939.853,1052.654,940.672Z" transform="translate(-613.146 -264.852)" fill="#5232c2"/>
</svg>
