<svg xmlns="http://www.w3.org/2000/svg" viewBox="0 0 1186.976 1146.282">
  <g>
    <path d="M442.132,1517.863c0-4.579,0-8.395,0-12.21q0-340.045-.109-680.09c0-7.375,1.348-12.614,7.9-17.49q289.746-215.772,579.152-432c1.842-1.375,3.756-2.655,6.364-4.492,2.964,2.059,6.116,4.113,9.124,6.358Q1332.676,593,1620.6,808.325c4.14,3.1,8.06,9.685,8.069,14.651q.59,344.085.321,688.172c0,1.907-.217,3.813-.393,6.715Zm1110.719-35.33-517.285-400.442L518.2,1482.533Zm33.741-654.015-437.42,293.3,437.42,338.52Zm-1102.3,631.967,437.57-338.675L484.288,828.421Zm651.006-783.657h-31.031c-19.978,0-19.978,0-26.128,18.481-.707-.187-1.744-.135-2.081-.6-23.274-31.841-76.41-25.9-100.542-6.885-43.33,34.14-60.982,79.334-54.493,133.233,4.336,36.02,29.875,59.645,64.252,64.142,24.089,3.151,44.649-4.781,63.487-20.8,6.066,17.124,19.552,21.321,35.118,21.512,20.744.254,40.861-3.475,58.683-14.272,102.261-61.95,91.885-204.845,3.422-254.673-65.944-37.144-135.32-34.929-201.3-1.277-70.039,35.722-98.333,99.344-98.942,175.231-.671,83.641,43.6,151.661,133.715,172a326.684,326.684,0,0,0,108.91,5.7c37.656-4.2,72.8-16.013,102.261-41.135a138.007,138.007,0,0,0,35.187-45.574c-11.445,0-20.939.348-30.393-.112-7.378-.359-12.272,2.291-18.041,7.243-12.415,10.659-25.419,21.7-40.079,28.474-42.611,19.7-87.891,20.44-133.444,13.326-29.277-4.572-57.054-13.822-79.074-34.718-37.686-35.764-48.541-80.27-41.734-130.671,9.036-66.9,49.812-116.524,113.99-131.247,24.961-5.726,51.971-5.718,77.76-4,59,3.934,103.184,49.407,104.768,106.339,1.263,45.407-17.185,81.341-56.651,105.094-4.365,2.627-12.317,3.967-15.96,1.684-3.083-1.932-3.916-10.265-3.011-15.271,4.1-22.681,9.177-45.186,13.9-67.755C1123.564,732.953,1129.281,705.6,1135.295,676.827Z" transform="translate(-442.022 -371.58)" fill="#5232c2"/>
    <path d="M970.943,799.482c1.93-26.642,5.808-52.679,24.237-73.956,12.319-14.223,27.547-21.319,46.078-16.044,18.024,5.13,25.028,20.069,25.755,37.122,1.347,31.563-6.422,60.99-26.17,86.233-11.165,14.272-30.112,19.932-45.332,15-14.756-4.784-23.352-18.028-24.539-37.989C970.767,806.4,970.943,802.937,970.943,799.482Z" transform="translate(-442.022 -371.58)" fill="#5232c2"/>
  </g>
</svg>
