<svg xmlns="http://www.w3.org/2000/svg" viewBox="0 0 916.386 1049.062">
  <g>
    <path d="M659.987,780.494c28.527,34.53,56.462,69.675,85.876,103.287,11.661,13.325,15.776,26.745,15.69,44.963-.674,142.29-.373,284.585-.373,426.879v11.9h591.26V723.973h-10.473q-179.351,0-358.7.152c-6.468.011-10.746-1.956-15.048-7.323-25.361-31.631-51.108-62.895-76.716-94.291-2.517-3.085-4.977-6.225-8.423-10.542a72.529,72.529,0,0,1,7.539-.9q247.381-.051,494.761.035c42.745.042,71.5,31.738,71.507,77.984q.029,356.7,0,713.391c0,46.585-28.377,77.979-71.244,78q-328.22.193-656.44.009c-43.1-.021-71.3-30.968-71.307-77.689q-.047-306.22-.014-612.439,0-4.643,0-9.287Z" transform="translate(-540.512 -431.519)" fill="#5232c2"/>
    <path d="M633,679.434,770.04,546.168,1106.821,953.9,971.247,1087.171Z" transform="translate(-540.512 -431.519)" fill="#5232c2"/>
    <path d="M606.671,647.762c-19.446-24.132-38.985-47.193-57.221-71.416-12.732-16.912-11.885-38.911,2.7-54.169,26.72-27.958,54.281-55.01,82.283-81.448a34.372,34.372,0,0,1,48.688,1.863c20.839,22.913,40.255,47.36,60.758,71.737Z" transform="translate(-540.512 -431.519)" fill="#5232c2"/>
    <path d="M1153.467,1158.567l-155.937-38.08,135.537-134.8Z" transform="translate(-540.512 -431.519)" fill="#5232c2"/>
  </g>
</svg>
