<svg xmlns="http://www.w3.org/2000/svg" viewBox="0 0 1240.775 931.161">
  <g>
    <path d="M1030.27,1162.195c7.758,29.6-5.459,48.029-28.036,62.481-24.584,15.737-36.414,39.467-36.844,67.85-.511,33.717,1.234,67.469,2.032,102.559h-9.776q-271.954,0-543.909.057c-20.213.011-38.967-3.643-50.042-22.341-4.793-8.091-8.625-18.23-8.648-27.45q-.728-297.469-.311-594.941c.013-24.8,17.474-44.6,41.835-48.25a100.049,100.049,0,0,1,14.7-1.154q127.584-.1,255.167,0a102.617,102.617,0,0,1,14.7,1.114c24.578,3.59,41.871,23.066,42.036,47.987.252,38.05.067,76.1.068,114.153,0,4.808,0,9.615,0,15.031h72.69c0-5.334,0-10.5,0-15.656q0-171.231,0-342.461c0-37.084,19.86-57.066,57.329-57.106q151.757-.165,303.514,0c37.4.043,57.233,20.07,57.235,57.205.006,109.677-.161,219.355.244,329.03.042,11.417-2.872,18.381-12.856,25.019-65.2,43.342-129.934,87.378-194.627,131.471-37.086,25.276-50.47,61.873-36.519,101.268C980.381,1136.671,1001.466,1154.253,1030.27,1162.195Z" transform="translate(-354.661 -463.981)" fill="#5232c2"/>
    <path d="M1081.237,1114.109c-12.764,0-23.014.375-33.225-.089-14.69-.668-27.66-10.132-31.258-23.3-3.948-14.453-1.318-27.591,10.8-37.618,3.781-3.127,7.9-5.867,11.967-8.625Q1158.4,963.926,1277.3,883.423c22.413-15.176,32.734-15.225,54.9-.215q120.558,81.647,241.126,163.28c10.278,6.949,19.158,14.491,21.05,27.88,2.813,19.916-10.684,38.012-30.737,39.469-11.034.8-22.175.143-34.969.143,0,18.892,0,36.188,0,53.485,0,12.533.405,25.083-.115,37.594-.511,12.306,2.491,19.558,13.75,28.641,14.806,11.945,26.368,27.909,43.558,38.362,5.79,3.521,8.323,15.6,8.825,23.98,1.227,20.516.654,41.16.334,61.745-.332,21.334-12.044,34.126-33.136,36.753a108.727,108.727,0,0,1-13.392.525q-243.721.037-487.443-.024a105.487,105.487,0,0,1-16.021-1.08c-18.31-2.829-29.492-15.308-29.781-33.832-.341-21.927-.3-43.867-.015-65.8.229-17.712,9.66-28.584,26.622-34.048,4.463-1.438,7.9-6.555,11.4-10.36,5.916-6.432,10.311-15.634,17.541-19.129,8.489-4.1,10.717-8.377,10.606-17.007C1080.985,1181.21,1081.237,1148.621,1081.237,1114.109ZM1332.07,1260.96V1080.64h-54.283v180.32Zm-108.227-.139V1080.286h-54.3v180.535Zm162.314-.367h53.793V1080.242h-53.793Z" transform="translate(-354.661 -463.981)" fill="#5232c2"/>
  </g>
</svg>
