<svg xmlns="http://www.w3.org/2000/svg" viewBox="0 0 985.22 986.719">
  <g>
    <path d="M671.809,479.32,834.824,769.236c-7.819,7.281-15.257,14.668-23.181,21.49-17.389,14.971-21.281,32.506-13.741,54.308,13.65,39.467,36.576,73.17,62.525,105.114,45.567,56.094,100.419,102.484,156.513,147.362,41.03,32.826,81.977,65.961,128.433,91.22,23.035,12.524,33.391,11.432,52.192-6.725,9.736-9.4,18.193-20.121,27.759-29.716,2.027-2.033,7.313-3.5,9.5-2.3q141.391,77.217,282.434,155.069c.262.144.4.52,1.283,1.746-1.6,2.579-3.227,5.713-5.313,8.506-59.479,79.621-138.544,117.492-237.971,109.225-63.777-5.3-123.624-26.214-179.794-55.652-183.9-96.38-336.345-227.553-441.685-408.81C610.112,884.93,581.2,804.222,566.325,718.127,550.2,624.848,584.4,552.7,653.6,493.374c4.266-3.657,8.774-7.032,13.2-10.5C668.089,481.856,669.479,480.963,671.809,479.32Z" transform="translate(-562.385 -438.926)" fill="#5232c2"/>
    <path d="M685.09,470.769c25.1-18.907,50.573-33.375,82.395-31.713,8.941.467,15.382,3.34,20.3,11.443q61.539,101.285,123.72,202.179c10.949,17.759,11.208,35.038-3.034,50.064-16.084,16.97-33.924,32.281-51.1,48.206-2.892,2.681-6.284,4.822-10.634,8.11Z" transform="translate(-562.385 -438.926)" fill="#5232c2"/>
    <path d="M1525.593,1291.437,1238.433,1133.6c17.74-20.358,31.645-43.066,55.122-56.714,12.006-6.98,24.635-6.076,35.993.583q105.223,61.691,209.8,124.476c4.509,2.715,7.961,10.718,8.186,16.408C1548.575,1244.642,1538.306,1267.9,1525.593,1291.437Z" transform="translate(-562.385 -438.926)" fill="#5232c2"/>
  </g>
</svg>
