<svg xmlns="http://www.w3.org/2000/svg" viewBox="0 0 1552.845 1660.871">

  <g>
    <path d="M1814.831,1917.871H265.328c-1.506-4.21-3.42-6.985-3.339-9.709,3.365-113.821-5.262-228.36,21.983-340.784,18.415-75.985,62.495-134.185,138.564-167.147,113.481-49.174,227.865-96.5,343.567-145.33L930.151,1739.83c22.354-59.619,42.247-110.409,59.837-161.9,2.813-8.233-3.326-20.153-7.666-29.4-15.229-32.431-34.95-63.381-46.448-96.875-13.806-40.218,6.856-75.856,50.522-84.016a257.876,257.876,0,0,1,98.786,1.282c43.725,9.411,63.455,45.338,49.012,85.17-12.1,33.366-31.7,64.3-47.5,96.516-3.661,7.462-9.6,17.059-7.357,23.469,18.323,52.449,38.334,104.375,60.791,164.363l165.787-488.559c7.2,2.622,12.878,4.29,18.187,6.676,92.983,41.789,183.931,88.351,279.4,124.278,106.922,40.238,175.478,106.522,187.622,214.6C1803.039,1701.51,1807.106,1808.357,1814.831,1917.871Z" transform="translate(-261.987 -257)" fill="#5232c2"/>
    <path d="M715.185,355.474c23.532,14.341,44.341,24.03,61.182,37.967,27.1,22.427,49.782,21.644,85.752,11.35,58.169-16.647,78.968-46.46,81.644-99.807,2.014-40.157,15.584-47.626,59.716-47.808,24.239-.1,48.492-.433,72.714.208,25.114.664,44.867,11.133,44.677,36.507-.487,65.055,30.678,102.153,99.214,116.2,19.12,3.918,31.91,7.693,47.515-5.068,15.847-12.959,33.669-23.8,50.767-35.381,21.847-14.8,42.27-15.06,61.858,4.4,18.838,18.711,38.65,36.554,58.018,54.793,17.192,16.19,20.731,33.527,6.11,53.225-18.031,24.295-47.1,47.885-49.87,73.815-2.757,25.828,19.882,54.774,34.018,81.1,5.151,9.593,16.687,19.5,27.407,22.4,23.1,6.253,47.564,8,71.452,11.7,25.827,4,38.582,18.965,39.037,43.027.506,26.771.424,53.56.029,80.334-.336,22.745-11.767,41.382-36.483,40.707-73.608-2.011-110.545,33.85-127.917,97.253-4.011,14.638-7.534,24.541,3.263,37.118,14.537,16.933,27.009,35.424,40.669,53.038,15.443,19.912,14.192,38.567-4.178,56.04-20.754,19.742-41.732,39.274-62.539,58.967-19.259,18.228-41.862,22.436-61.582,4.383-44.716-40.936-89.233-49.431-146.966-19.569-24.839,12.848-35.674,23.768-39.171,48.289-12.3,86.256-12.9,86.181-104.132,86.176-10.539,0-21.08.09-31.617-.05-27.792-.37-48.3-10.511-48.6-39.274-.635-59.014-26.849-94.126-91.027-109.607-26.687-6.438-42.946-6.827-64.119,7.817-87.742,60.685-77.363,49.512-143.638-11.94-46.7-43.3-48.767-46.261-6.49-95.744,28.084-32.87,31.273-58.439,13.112-99.363-18.777-42.314-42.73-58.005-87.862-62.357-62.665-6.042-64.337-10.555-64.367-68.307-.009-16.861-.2-33.725.059-50.583.561-35.914,8.089-49.1,46.493-50.441,58.743-2.053,91.247-23.971,108.6-78.73,9.151-28.868,10.55-46.975-8.587-71.2-54.3-68.754-56.99-63.85,11.843-128.578C676.919,383.684,695.179,371.278,715.185,355.474Zm442.2,235.064L972.317,771.217l-63.693-73.765-73.853,72.212L979.9,906.024l252.964-237.689Z" transform="translate(-261.987 -257)" fill="#5232c2"/>
  </g>
</svg>
