<svg xmlns="http://www.w3.org/2000/svg" viewBox="0 0 1374.554 1369.621">
  <g>
    <path d="M1077.215,1685H948.642v-28.957q0-362.011.271-724.022c.025-15.392-3.688-25.441-16.719-35.549-61.117-47.411-64.926-132.294-9.966-190.185,46.524-49.005,135.464-48.69,181.718.643,54.407,58.03,49.939,143.017-11.247,190.171-12.335,9.507-15.769,19.063-15.747,33.62q.556,362.01.264,724.022Z" transform="translate(-325.345 -315.379)" fill="#5232c2"/>
    <path d="M524.592,1278.778c-261.841-251.722-269.032-699.886-1.255-961.165l90.3,90.075C510.852,513.023,455.017,644.333,455.019,797.658c0,152.8,55.224,283.653,159.768,391.267Z" transform="translate(-325.345 -315.379)" fill="#5232c2"/>
    <path d="M1408.361,404.488l89.449-89.109c251.894,230.962,285.431,687.809,2.885,964.254l-89.237-91.039c103.59-105.859,159.286-237.525,159.24-390.662C1570.653,645.409,1515.742,514.173,1408.361,404.488Z" transform="translate(-325.345 -315.379)" fill="#5232c2"/>
    <path d="M721.74,513.121l89.547,89.517c-105.209,110.863-102.473,282.422-.148,389.9l-88.468,87.828C584.536,961.99,547.494,685.508,721.74,513.121Z" transform="translate(-325.345 -315.379)" fill="#5232c2"/>
    <path d="M1301.465,1084.107l-89.158-90.226c50.374-53.812,79.192-118.543,79.259-195.015.067-76.538-27.354-141.794-78.453-195.3l89.1-89.148C1448.7,643.01,1471.2,921.042,1301.465,1084.107Z" transform="translate(-325.345 -315.379)" fill="#5232c2"/>
  </g>
</svg>
