<svg xmlns="http://www.w3.org/2000/svg" viewBox="0 0 1182.813 1192.593">
  <g>
    <path d="M1017.1,1116.9C942.266,1035.729,864.016,950.881,785.8,866,691.182,763.322,596.918,660.314,501.809,558.093c-31.478-33.831-47.989-70.972-34.6-117.176C489.5,364,579.355,326.127,644.083,366.259A97.607,97.607,0,0,1,664.1,382.887Q924.232,664.856,1184.06,947.108c1.352,1.468,2.4,3.219,5.515,7.464Z" transform="translate(-462.528 -350.037)" fill="#5232c2"/>
    <path d="M474.592,1539.739c17.253-69.337,33.842-136.17,50.526-202.979,6.98-27.95,16.27-55.52,20.72-83.857,5.714-36.388,24.032-63.1,49.815-88.488,67.387-66.364,132.619-134.917,200.6-204.533l246.12,266.941c-20.431,18.214-40.846,34.657-59.222,53.128-54.435,54.716-107.941,110.354-162.188,165.258-5.81,5.881-13.532,11.528-21.333,13.537-104.464,26.9-209.1,53.141-313.7,79.5C483.384,1538.883,480.7,1538.954,474.592,1539.739Zm212.644-113.33-98.143-99.08c-4.04,16.036-9.051,33.918-12.931,52.042-2.509,11.721,44.36,61.7,56.416,61.058a10.286,10.286,0,0,0,1.954-.454C653.275,1435.152,672.017,1430.327,687.236,1426.409Z" transform="translate(-462.528 -350.037)" fill="#5232c2"/>
    <path d="M1041.55,708.93c44.837-45.97,87.875-90.132,130.953-134.255q97.031-99.385,194.119-198.714c32.841-33.574,66.2-33.822,99.262-.809q76.207,76.1,152.3,152.311c35.67,35.747,36.248,65.131,1.463,100.8q-161.634,165.724-323.568,331.155c-3.685,3.769-7.739,7.176-12.76,11.8Zm539.6-130.192L1418,415.417,1295.936,536.4l163.54,163.9Z" transform="translate(-462.528 -350.037)" fill="#5232c2"/>
    <path d="M1062.335,1165.955l171.45-168.1c3.4,4.492,7.679,11.093,12.889,16.85,21.156,23.377,43.523,45.723,63.7,69.9,26.163,31.346,53.023,50.5,99.047,54,105.894,8.064,175.241,94.133,178.914,200.533,1.675,48.518,9.8,97.135,19.077,144.916,3.946,20.323,18.343,38.617,28.174,58.2h-15.184c-76.479,0-152.992-1.449-229.431.31-140.1,3.225-221.883-116.755-210.77-230.2.879-8.971-3.385-20.849-9.426-27.7C1135.773,1244.974,1099.516,1206.383,1062.335,1165.955Zm476.938,316.47c-4.173-51.638-7.845-101.026-12.611-150.309-.509-5.263-6.972-13.735-11.406-14.236-36.59-4.138-73.359-6.679-110.062-9.849-13.9-1.2-17.87,5.419-19.28,18.725-5.635,53.166-33.5,90.754-82.591,112.394-4.681,2.064-9.191,4.518-15.845,7.814,26.823,20.661,54.061,34.2,86.123,34.885,37.579.806,75.184.458,112.778.567C1504.954,1482.469,1523.528,1482.424,1539.273,1482.424Z" transform="translate(-462.528 -350.037)" fill="#5232c2"/>
  </g>
</svg>
