<?xml version="1.0" encoding="utf-8"?>
<!-- Generator: Adobe Illustrator 16.0.0, SVG Export Plug-In . SVG Version: 6.00 Build 0)  -->
<!DOCTYPE svg PUBLIC "-//W3C//DTD SVG 1.1//EN" "http://www.w3.org/Graphics/SVG/1.1/DTD/svg11.dtd">
<svg version="1.1" id="Capa_1" xmlns="http://www.w3.org/2000/svg" xmlns:xlink="http://www.w3.org/1999/xlink" x="0px" y="0px"
	 width="941.73px" height="361.57px" viewBox="0 0 941.73 361.57" enable-background="new 0 0 941.73 361.57" xml:space="preserve">
<g>
	<path fill="#38B9C1" d="M470.93,0C571.155,0.06,651.69,80.788,651.635,181.138c-0.055,99.889-80.886,180.54-180.834,180.431
		c-100.568-0.109-180.838-80.771-180.704-181.585C290.229,80.548,371.216-0.06,470.93,0z M471.486,71.405
		c-1.11,0.954-1.557,1.21-1.831,1.59c-24.229,33.556-47.161,67.947-63.827,105.991c-4.533,10.346-8.656,21.576-9.566,32.678
		c-3.243,39.546,26.578,73.552,67.182,78.341c41.191,4.859,80.651-28.873,82.495-70.264c0.695-15.608-4.725-29.557-10.982-43.239
		c-16.842-36.82-39.022-70.438-62.598-103.197C471.968,72.763,471.783,72.07,471.486,71.405L471.486,71.405z"/>
	<path fill="#38B9C1" d="M483.1,199.926c7.729,0,15.589-0.361,23.395,0.131c4.906,0.311,8.556,4.85,9.122,9.674
		c0.531,4.523-2.52,9.855-7.044,11.385c-2.354,0.796-5.021,0.855-7.553,0.905c-6.108,0.12-12.221,0.039-18.865,0.039
		c0,7.335,0.037,14.119-0.01,20.902c-0.052,7.404-4.738,12.559-11.307,12.539c-6.569-0.021-11.205-5.165-11.255-12.593
		c-0.044-6.651-0.009-13.304-0.009-20.848c-6.289,0-12.351,0.087-18.406-0.041c-2.701-0.057-5.543-0.098-8.056-0.939
		c-4.545-1.523-7.551-6.879-6.991-11.402c0.595-4.811,4.263-9.324,9.166-9.631c7.809-0.486,15.666-0.13,24.286-0.13
		c0-7.317-0.016-13.905,0.004-20.492c0.024-7.975,4.334-13.12,11.059-13.248c6.96-0.133,11.48,5.087,11.52,13.303
		c0.029,6.147,0.052,12.296,0.104,18.444C482.261,198.227,482.502,198.529,483.1,199.926z"/>
</g>
</svg>
