<svg id="SvgjsSvg1015" width="288" height="288" xmlns="http://www.w3.org/2000/svg" version="1.1" xmlns:xlink="http://www.w3.org/1999/xlink" xmlns:svgjs="http://svgjs.com/svgjs"><defs id="SvgjsDefs1016"></defs><g id="SvgjsG1017"><svg xmlns="http://www.w3.org/2000/svg" viewBox="0 0 38.99 38.96" width="288" height="288"><path fill="#ededed" d="M5.84 24.33L1.09 25.88a19.48 19.48 0 0018 13.1V34A14.51 14.51 0 015.84 24.33zM38.09 25.38v0zM34 19.5a14.44 14.44 0 01-.6 4.12l4.76 1.55A19.45 19.45 0 0031.25 4L28.31 8A14.47 14.47 0 0134 19.5zM.91 25.38v0zM19.88 34v5a19.48 19.48 0 0018-13.1l-4.76-1.55A14.51 14.51 0 0119.88 34zM5 19.5A14.47 14.47 0 0110.69 8L7.75 4A19.45 19.45 0 00.84 25.17L5.6 23.62A14.43 14.43 0 015 19.5zM19.5 5a14.41 14.41 0 018.21 2.56l2.94-4a19.44 19.44 0 00-22.3 0l2.94 4A14.41 14.41 0 0119.5 5zM19.88 39zM19.13 39h0zM37.93 25.88l.16-.5c0 .17-.12.33-.18.5zM38.16 25.17h0v0zM31.27 3.94l-.61-.44h0c.21.14.4.3.6.45zM8.34 3.5l-.61.44V4l.6-.45zM.84 25.17v0zM1.07 25.88h0a4.83 4.83 0 00-.16-.5z" transform="translate(0 -.04)" class="colorededed svgShape"></path><path fill="#f4a89c" d="M26.63,26.6H22.19l-2.77-4.44L16.69,26.6H12.35l4.71-7.26L12.63,12.4h4.25l2.56,4.39,2.47-4.39h4.38L21.8,19.64Z" transform="translate(0 -.04)" class="color5232c2 svgShape"></path></svg></g></svg>