<?xml version="1.0" encoding="utf-8"?>
<!-- Generator: Adobe Illustrator 16.0.0, SVG Export Plug-In . SVG Version: 6.00 Build 0)  -->
<!DOCTYPE svg PUBLIC "-//W3C//DTD SVG 1.1//EN" "http://www.w3.org/Graphics/SVG/1.1/DTD/svg11.dtd">
<svg version="1.1" id="Layer_1" xmlns="http://www.w3.org/2000/svg" xmlns:xlink="http://www.w3.org/1999/xlink" x="0px" y="0px"
	 width="200.246px" height="200px" viewBox="649.878 0 200.246 200" enable-background="new 649.878 0 200.246 200"
	 xml:space="preserve">
<g>
	<path fill="#DB4B36" d="M749.512,14.032c0,4.243-0.028,8.487,0.021,12.729c0.012,1.046-0.212,1.453-1.37,1.479
		c-16.871,0.363-31.806,6.027-44.637,16.916c-12.907,10.954-21.005,24.786-24.288,41.497c-1.237,6.293-1.508,12.636-1.056,18.969
		c0.707,10.05,3.583,19.826,8.431,28.656c0.716,1.313,0.485,1.811-0.781,2.521c-7.172,4.021-14.212,8.273-21.416,12.241
		c-1.09,0.601-1.508,0.466-2.098-0.615c-5.295-9.723-8.981-20.237-10.92-31.137c-1.334-7.318-1.793-14.769-1.366-22.195
		c1.252-21.414,8.382-40.691,21.828-57.484c14.765-18.439,33.876-30.002,56.813-35.307c6.572-1.52,13.271-2.182,20.022-2.301
		c1.064-0.019,0.803,0.632,0.805,1.154C749.519,5.447,749.512,9.739,749.512,14.032z"/>
	<path fill="#DB4B36" d="M750.677,199.973c-17.521,0.422-33.131-3.91-47.861-11.66c-6.904-3.631-13.23-8.127-19.092-13.304
		c-7.327-6.474-13.504-13.895-18.745-22.12c-1.315-2.068-1.318-2.089,0.815-3.326c6.985-4.047,13.996-8.051,20.947-12.154
		c1.034-0.61,1.423-0.335,1.938,0.509c3.467,5.668,7.737,10.675,12.587,15.199c6.56,6.116,14.09,10.685,22.396,14.015
		c5.974,2.404,12.256,3.96,18.661,4.618c4.211,0.421,8.45,0.481,12.671,0.185c6.519-0.447,12.946-1.775,19.107-3.949
		c11.727-4.104,21.672-10.916,29.939-20.156c2.859-3.189,5.415-6.639,7.634-10.305c0.423-0.697,0.744-1.014,1.595-0.519
		c7.269,4.244,14.555,8.459,21.856,12.644c1.149,0.656,1.226,1.203,0.545,2.309c-5.336,8.703-11.938,16.563-19.59,23.322
		c-10.146,8.951-21.659,15.496-34.45,19.799c-6.284,2.111-12.742,3.504-19.335,4.354
		C758.172,199.961,754.055,199.943,750.677,199.973z"/>
	<path fill="#DB4B36" d="M850.124,99.966c-0.089,17.119-4.132,33.229-12.291,48.302c-0.479,0.885-0.813,1.246-1.859,0.639
		c-7.187-4.182-14.399-8.314-21.642-12.4c-1.223-0.688-1.255-1.318-0.69-2.418c3.13-6.105,5.551-12.461,6.939-19.209
		c1.462-7.102,1.797-14.24,1.161-21.446c-1.188-13.477-5.828-25.664-13.987-36.425c-11.201-14.774-25.926-23.976-44.174-27.603
		c-3.922-0.777-7.888-1.055-11.855-1.346c-0.916-0.067-1.125-0.391-1.122-1.253c0.025-8.436,0.039-16.872-0.022-25.308
		c-0.01-1.271,0.496-1.432,1.553-1.42c11.206,0.128,22.042,2.249,32.535,6.109c12.103,4.428,23.215,11.195,32.702,19.916
		c14.973,13.708,24.928,30.404,29.865,50.084c1.392,5.569,2.271,11.253,2.632,16.982C850.015,95.437,850.074,97.695,850.124,99.966z
		"/>
	<path fill="#C63823" d="M715.011,98.221c1.487,0.05,2.711,0.525,3.878,1.193c4.018,2.299,8.11,4.473,12.031,6.924
		c3.031,1.895,7.542,1.043,9.865-1.38c11.229-11.717,22.562-23.335,33.869-34.978c1.478-1.521,2.983-3.017,4.541-4.457
		c1.794-1.66,4.579-1.833,6.498-0.286c3.039,2.441,5.857,5.144,8.425,8.079c2.107,2.42,1.903,4.783-0.534,7.351
		c-5.774,6.081-11.58,12.132-17.416,18.155c-11.595,11.983-23.197,23.958-34.807,35.925c-0.854,0.885-1.477,1.058-2.603,0.407
		c-9.941-5.733-19.924-11.397-29.89-17.092c-0.688-0.387-1.35-0.813-1.983-1.28c-2.177-1.619-2.932-4.082-1.725-6.476
		c1.719-3.439,3.651-6.77,5.787-9.967C711.896,98.936,713.429,98.243,715.011,98.221z"/>
</g>
</svg>
