<?xml version="1.0" encoding="utf-8"?>
<!-- Generator: Adobe Illustrator 16.0.0, SVG Export Plug-In . SVG Version: 6.00 Build 0)  -->
<!DOCTYPE svg PUBLIC "-//W3C//DTD SVG 1.0//EN" "http://www.w3.org/TR/2001/REC-SVG-20010904/DTD/svg10.dtd">
<svg version="1.0" id="Layer_1" xmlns="http://www.w3.org/2000/svg" xmlns:xlink="http://www.w3.org/1999/xlink" x="0px" y="0px"
	 width="200px" height="200px" viewBox="-210.5 0.25 200 200" enable-background="new -210.5 0.25 200 200" xml:space="preserve">
<path fill="#FFFFFF" d="M-110.5,0.25c-55.229,0-100,44.771-100,100s44.771,100,100,100s100-44.771,100-100S-55.271,0.25-110.5,0.25z
	 M-110.5,186.347c-47.55,0-86.097-38.547-86.097-86.097s38.547-86.097,86.097-86.097S-24.403,52.7-24.403,100.25
	S-62.95,186.347-110.5,186.347z"/>
<g>
	<path fill-rule="evenodd" clip-rule="evenodd" fill="#FFFFFF" d="M-64.54,158.266c0,2.878,0,5.515,0,8.258
		c-30.602,0-61.16,0-91.817,0c0-2.693,0-5.397,0-8.258c2.896,0,5.759-0.043,8.622,0.025c0.93,0.021,1.368-0.289,1.774-1.113
		c10.248-20.736,20.529-41.455,30.78-62.19c0.313-0.635,0.488-1.402,0.5-2.112c0.051-3.341,0.003-6.684,0.036-10.026
		c0.008-0.779-0.181-1.2-0.967-1.557c-5.711-2.589-8.596-8.7-6.989-14.637c1.594-5.889,7.368-9.852,13.408-9.204
		c6.146,0.659,10.867,5.664,11.233,11.906c0.288,4.927-2.555,9.644-7.255,11.853c-0.863,0.406-1.159,0.859-1.097,1.77
		c0.078,1.109,0.125,2.239,0,3.339c-0.602,5.307,0.956,9.969,3.362,14.7c9.434,18.551,18.581,37.247,27.79,55.912
		c0.507,1.026,1.059,1.396,2.189,1.36C-70.199,158.209-67.424,158.266-64.54,158.266z M-114.66,158.202
		c0-3.366,0.032-6.566-0.036-9.766c-0.009-0.45-0.406-1.006-0.786-1.315c-3.526-2.872-7.086-5.704-10.644-8.539
		c-0.266-0.214-0.577-0.368-0.91-0.577c-3.381,6.771-6.708,13.431-10.089,20.197C-129.55,158.202-122.187,158.202-114.66,158.202z
		 M-83.841,158.231c-3.45-6.894-6.792-13.571-10.171-20.322c-3.39,2.707-6.521,5.412-9.874,7.808
		c-1.919,1.372-2.701,2.878-2.447,5.198c0.2,1.834,0.041,3.706,0.041,5.562c0,0.577,0,1.154,0,1.754
		C-98.74,158.231-91.418,158.231-83.841,158.231z M-114.736,113.446c-0.079-0.028-0.16-0.058-0.24-0.086
		c-2.719,5.618-5.438,11.237-8.168,16.879c2.841,2.271,5.533,4.424,8.408,6.723C-114.736,128.934-114.736,121.19-114.736,113.446z
		 M-106.256,136.985c2.961-2.37,5.685-4.549,8.422-6.74c-2.773-5.723-5.479-11.3-8.182-16.877c-0.08,0.034-0.16,0.067-0.24,0.1
		C-106.256,121.195-106.256,128.922-106.256,136.985z"/>
	<path fill-rule="evenodd" clip-rule="evenodd" fill="#FFFFFF" d="M-137.228,96.483c-1.955,1.948-3.857,3.845-5.762,5.742
		c-14.538-13.366-19.747-40.731-3.231-61.212c16.742-20.762,47.916-22.847,67.188-4.606c19.666,18.614,18.562,48.751,1.274,65.715
		c-1.922-1.908-3.846-3.817-5.846-5.804c8.523-9.106,12.187-20.095,10.132-32.744c-1.527-9.403-6.181-17.12-13.628-23.072
		c-14.931-11.935-36.711-10.589-50.126,2.954C-151.193,57.557-152.176,81.202-137.228,96.483z"/>
	<path fill-rule="evenodd" clip-rule="evenodd" fill="#FFFFFF" d="M-89.745,90.417c-1.97-1.973-3.864-3.87-5.76-5.769
		c9.188-9.837,6.68-23.418-0.994-30.235c-7.713-6.85-20.263-6.853-28.078,0.086c-7.608,6.755-10.084,20.341-0.954,30.122
		c-1.933,1.919-3.864,3.835-5.799,5.755c-10.647-10.2-11.802-29.021-0.015-40.952c11.456-11.593,31.547-11.224,42.46,0.791
		C-77.508,62.739-79.706,80.968-89.745,90.417z"/>
</g>
</svg>
