<svg id="SvgjsSvg1139" width="288" height="288" xmlns="http://www.w3.org/2000/svg" version="1.1" xmlns:xlink="http://www.w3.org/1999/xlink" xmlns:svgjs="http://svgjs.com/svgjs"><defs id="SvgjsDefs1140"></defs><g id="SvgjsG1141"><svg xmlns="http://www.w3.org/2000/svg" viewBox="0 0 1326.371 1328.206" width="288" height="288"><path fill="#ffffff" d="M1008.1,1603.911c-97.276-.769-190.158-20.821-278.461-61.867-62.417-29.014-118.738-66.8-169.8-112.989-46.7-42.243-85.076-91.039-119.114-143.645-4.7-7.271-3.584-11.185,3.687-15.386q71.289-41.185,142.251-82.934c6.949-4.094,10.56-3.025,14.793,3.778a468.747,468.747,0,0,0,72.35,89.895q103.059,99.546,243.836,127.451c42.116,8.291,84.511,9.744,126.8,7.007,77.865-5.038,150.034-29.387,216.418-70.61a477.246,477.246,0,0,0,99.447-82.214,503.474,503.474,0,0,0,56.286-73.982c3.626-5.778,6.254-7.3,12.991-3.359q72.351,42.3,145.334,83.514c6.781,3.839,6.5,6.649,2.857,12.694a664.99,664.99,0,0,1-120.618,147.53c-64.3,58.921-137.34,103.778-219.536,133.594a698.465,698.465,0,0,1-130.293,33.636c-24.087,3.774-48.409,6.853-72.943,6.415A206.948,206.948,0,0,0,1008.1,1603.911Z" transform="translate(-345.629 -275.706)" class="color30bcc5 svgShape"></path><path fill="#ffffff" d="M1003.9 368.03c0 27.831-.235 55.665.159 83.491.1 7.394-2.17 9.671-9.492 9.386-31.153-1.213-61.436 4.72-91.858 10.739-36.664 7.254-70.561 21.345-104.394 36.5-17.339 7.764-33.387 17.6-49.817 26.766a195.654 195.654 0 00-35.3 25.426c-18.174 16.378-37.7 31.342-54.043 49.706-24.958 28.044-47.615 57.662-67.117 89.939-12.21 20.209-22.183 41.546-30.873 62.979a412.6 412.6 0 00-24.94 88.953c-4.847 29.946-8.22 60.06-7.6 90.343.66 32.183 4.395 64.124 10.179 95.908 5.027 27.626 14.6 53.784 23.586 80.059 5.869 17.156 15.507 33.047 23.778 49.342 2.572 5.067 3.162 7.98-2.6 11.808-14.153 9.4-29.088 17.374-43.721 25.9-22.179 12.917-44.807 25.1-66.554 38.7-11.861 7.418-25.793 11.022-36.339 20.769-3.637 3.361-6.109.572-8.29-3.061-14.123-23.53-24.855-48.721-35.327-73.93-13.827-33.283-25.128-67.535-32.364-102.912-6.365-31.121-11.779-62.333-13.8-94.232-1.411-22.239-1-44.391-1.458-66.577-.932-45.208 5.482-89.662 16.306-133.345 6.794-27.415 13.325-55 24.158-81.347 8.769-21.327 17.066-42.845 27.175-63.583 19.719-40.452 43-78.821 71.145-113.9 17.48-21.787 33.986-44.728 55.08-63.26 27.608-24.256 54.228-49.551 84.889-70.452 27.26-18.582 54.728-36.687 84.376-50.792 36.636-17.431 74.05-33 113.293-44.49 29.359-8.6 59.26-13.747 88.966-20.108 14.84-3.178 30.332-3.467 45.561-4.631 12.99-.993 26.04-1.18 39.038-2.093 6.591-.463 8.373 2.226 8.314 8.511C1003.754 312.366 1003.9 340.2 1003.9 368.03zM1672 915.627c-1.311 64.192-4.48 119.78-17.991 174.074-8.075 32.448-16.892 64.764-30.608 95.527-9.9 22.2-19.468 44.547-30.433 66.252-7.371 14.591-8.937 14.59-22.155 5.375-9.567-6.67-20.734-10.661-30.4-17.472-8.172-5.761-17.98-9.174-26.274-14.791-17.563-11.9-37.068-20.347-54.829-31.949-7.977-5.211-16-10.972-25.429-14.1-5.914-1.964-8.582-4.64-3.585-12.108 10.3-15.388 16.389-33.108 23.536-50.184 16.442-39.282 26.295-80.454 30.823-122.483 3.02-28.031 2.492-56.47 1.487-84.946-1.444-40.926-10.857-80.02-21.313-118.8-6.442-23.894-16.777-47.167-29.316-68.965-10.248-17.814-20.222-35.841-31.536-52.968-8.023-12.144-15.7-24.843-26.445-34.918-11.923-11.179-19.624-25.875-32.169-36.6-23.271-19.9-46.874-39.291-71.784-57.163-15.468-11.1-33.09-18.068-49.053-28.124-21.5-13.544-45.955-20.139-69.6-28.575-20.8-7.423-42.349-12.133-64.055-15.858-22.784-3.91-45.765-6.836-68.948-5.9-8.374.34-10.393-2.558-10.334-10.563.347-46.823.2-93.65.163-140.475-.006-9.146 2.547-18.026 2.213-27.269-.227-6.29 5.451-6.157 10.061-6.562 14.749-1.3 29.41 1.091 43.924 2.429a634.212 634.212 0 0182.374 12.771c40.82 9.28 80.878 21.164 119.236 38.109a707.166 707.166 0 01113.66 62.968c32.515 22.214 61.853 47.717 90.184 74.817 14.629 13.994 27.8 29.006 40.975 44.315a609.18 609.18 0 0151.782 69.14c21.2 33.17 40.081 67.83 54.726 104.506 7.824 19.595 15.361 39.4 21.385 59.6 11.151 37.385 20.146 75.316 23.873 114.312C1668.226 880.717 1670.622 902.36 1672 915.627z" transform="translate(-345.629 -275.706)" class="colorededed svgShape"></path><path fill="#ffffff" d="M886.481,1006.365c3.083.316,4.827-1.957,6.93-3.267a113.869,113.869,0,0,1,61.41-17.574q145.349.014,290.7.045c56.049.089,102.429,38.785,113.882,93.617,15.811,75.695-51.718,136.581-109.552,136.119-99.839-.8-199.689,0-299.533-.372-32.946-.122-60.01-14.443-81.821-38.639-4.659-5.169-6.657-6.689-12.163-.443-22.819,25.886-51.648,39.415-86.493,39.346-29.789-.059-59.58.163-89.367-.1-22.251-.195-32.067-15.919-21.367-35.579,17.342-31.863,35.681-63.186,53.739-94.657q62.716-109.3,125.618-218.493c10.249-17.763,16.677-21.439,29.362-18.508,11.83,2.733,15.623,9.269,16.7,29.221,2.129,39.585.6,79.206,1.118,118.807C885.683,999.347,884.765,1002.952,886.481,1006.365Zm67.978,25.268a68.852,68.852,0,1,0,.084,137.7c38.466-.085,68.8-30.775,68.609-69.412A68.152,68.152,0,0,0,954.459,1031.633Zm291.053,0a68.857,68.857,0,1,0,.81,137.711c38.011-.308,68.682-31.057,68.633-68.806A68.76,68.76,0,0,0,1245.512,1031.634Z" transform="translate(-345.629 -275.706)" class="color5232c2 svgShape"></path><path fill="#ffffff" d="M1313.595,954.3c-28.428-13.633-57.855-15.531-87.884-15.452-93.952.248-187.905-.124-281.858-.271-13.384-.021-13.471-.076-11.275-13.67,4.128-25.556,17.18-45.8,37.972-60.749,5.627-4.045,7.423-8.1,7.183-14.532a260.349,260.349,0,0,1,.335-27.479c.862-12.552,10.44-21.324,22.459-21.382,12.273-.058,21.362,8.455,22.49,21.287.343,3.9.228,7.851.246,11.778.061,13.188.048,12.872,13.439,12.875,5.777,0,7.793-2.192,9.112-7.557,12.349-50.209,25.011-100.34,37.519-150.51,5.5-22.076,9.483-25.7,32.223-25.778q68.252-.223,136.505.331c29.921.277,61.563,29.282,61.929,59.216.934,76.261.346,152.541.346,228.814A19.1,19.1,0,0,1,1313.595,954.3ZM1148.814,846.56c16.672,0,33.348.222,50.015-.066,14.974-.259,23.586-9.02,23.678-24.11q.276-45.111-.014-90.225c-.114-14.757-9.231-23.652-24.111-23.8-21.9-.214-43.807.118-65.706-.184-5.661-.078-7.789,1.788-9.114,7.323q-14.837,61.951-30.449,123.716c-1.461,5.8-.257,7.53,5.685,7.437C1115.467,846.39,1132.142,846.561,1148.814,846.56Z" transform="translate(-345.629 -275.706)" class="color5232c2 svgShape"></path><path fill="#ffffff" d="M954.41 1077.594a23 23 0 11-23 23.014A23.17 23.17 0 01954.41 1077.594zM1268.949 1099.777a23.225 23.225 0 01-22.3 23.809c-12.406.446-23.481-9.84-23.979-22.269-.5-12.385 9.835-23.306 22.443-23.725A22.986 22.986 0 011268.949 1099.777z" transform="translate(-345.629 -275.706)" class="color414141 svgShape"></path></svg></g></svg>