<?xml version="1.0" encoding="utf-8"?>
<!-- Generator: Adobe Illustrator 16.0.0, SVG Export Plug-In . SVG Version: 6.00 Build 0)  -->
<!DOCTYPE svg PUBLIC "-//W3C//DTD SVG 1.1//EN" "http://www.w3.org/Graphics/SVG/1.1/DTD/svg11.dtd">
<svg version="1.1" id="Layer_1" xmlns="http://www.w3.org/2000/svg" xmlns:xlink="http://www.w3.org/1999/xlink" x="0px" y="0px"
	 width="199.724px" height="200px" viewBox="650.138 0 199.724 200" enable-background="new 650.138 0 199.724 200"
	 xml:space="preserve">
<path fill="#DB4B36" d="M749.893,200c-14.646-0.115-28.634-3.135-41.931-9.316c-9.397-4.369-17.88-10.059-25.567-17.014
	c-7.032-6.361-12.812-13.709-17.937-21.63c-0.708-1.095-0.54-1.685,0.555-2.315c7.156-4.136,14.298-8.299,21.42-12.488
	c1.048-0.616,1.592-0.456,2.229,0.568c3.061,4.943,6.72,9.49,10.895,13.535c10.347,9.994,22.585,16.391,36.718,19.192
	c6.342,1.248,12.726,1.467,19.094,1.055c11.725-0.759,22.592-4.425,32.588-10.632c5.528-3.43,10.566-7.596,14.975-12.38
	c3.162-3.444,6-7.173,8.477-11.14c0.546-0.871,0.94-1.101,1.956-0.506c7.263,4.245,14.558,8.438,21.884,12.573
	c1.021,0.578,0.979,1.002,0.431,1.912c-4.957,8.237-11.072,15.721-18.163,22.215c-9.682,8.873-20.681,15.627-33.058,20.117
	c-6.361,2.313-12.932,4.012-19.619,5.063c-3.627,0.568-7.289,1.031-10.982,0.967C752.527,199.768,751.206,199.842,749.893,200z"/>
<path fill="#EDEDED" d="M749.26,13.902c0,4.191-0.035,8.382,0.024,12.572c0.015,1.113-0.327,1.456-1.431,1.413
	c-4.689-0.183-9.25,0.711-13.831,1.617c-5.521,1.092-10.625,3.214-15.721,5.496c-2.609,1.169-5.026,2.65-7.501,4.031
	c-1.908,1.074-3.69,2.358-5.314,3.828c-2.736,2.466-5.678,4.72-8.139,7.485c-3.758,4.223-7.17,8.683-10.105,13.543
	c-1.839,3.043-3.34,6.256-4.648,9.483c-1.75,4.31-3.01,8.803-3.756,13.395c-0.729,4.509-1.236,9.043-1.145,13.604
	c0.1,4.846,0.662,9.656,1.533,14.441c0.757,4.16,2.197,8.1,3.551,12.056c0.885,2.584,2.336,4.977,3.581,7.43
	c0.388,0.765,0.476,1.202-0.393,1.779c-2.131,1.415-4.38,2.614-6.584,3.899c-3.339,1.943-6.746,3.778-10.021,5.826
	c-1.785,1.117-3.884,1.66-5.473,3.127c-0.548,0.508-0.92,0.088-1.248-0.461c-2.127-3.543-3.742-7.336-5.318-11.132
	c-2.082-5.012-3.784-10.169-4.874-15.496c-0.958-4.687-1.773-9.386-2.077-14.188c-0.213-3.35-0.151-6.686-0.22-10.025
	c-0.142-6.808,0.825-13.501,2.455-20.079c1.022-4.128,2.007-8.282,3.638-12.249c1.32-3.211,2.57-6.452,4.092-9.575
	c2.97-6.091,6.476-11.869,10.713-17.151c2.633-3.28,5.118-6.735,8.294-9.525c4.157-3.652,8.166-7.461,12.782-10.609
	c4.105-2.798,8.241-5.524,12.706-7.648c5.517-2.625,11.15-4.969,17.06-6.699c4.422-1.295,8.924-2.07,13.396-3.028
	c2.234-0.479,4.566-0.522,6.86-0.697c1.956-0.15,3.921-0.178,5.878-0.315c0.992-0.07,1.261,0.335,1.252,1.282
	C749.238,5.52,749.26,9.711,749.26,13.902z"/>
<path fill="#EDEDED" d="M849.861,96.359c-0.197,9.667-0.674,18.036-2.709,26.211c-1.217,4.887-2.543,9.752-4.608,14.385
	c-1.491,3.343-2.932,6.708-4.583,9.977c-1.109,2.197-1.346,2.196-3.336,0.81c-1.439-1.005-3.122-1.604-4.577-2.632
	c-1.229-0.866-2.708-1.381-3.956-2.227c-2.646-1.793-5.582-3.064-8.257-4.813c-1.201-0.783-2.409-1.65-3.829-2.122
	c-0.891-0.296-1.292-0.698-0.539-1.823c1.551-2.316,2.469-4.984,3.544-7.557c2.477-5.916,3.959-12.115,4.642-18.443
	c0.455-4.221,0.376-8.503,0.224-12.791c-0.217-6.163-1.635-12.049-3.209-17.889c-0.97-3.598-2.526-7.103-4.414-10.385
	c-1.543-2.683-3.045-5.397-4.749-7.976c-1.208-1.829-2.364-3.741-3.98-5.258c-1.797-1.683-2.955-3.896-4.845-5.511
	c-3.505-2.997-7.059-5.916-10.81-8.607c-2.329-1.671-4.982-2.721-7.387-4.235c-3.237-2.04-6.92-3.033-10.48-4.303
	c-3.132-1.118-6.376-1.827-9.646-2.388c-3.432-0.588-6.892-1.029-10.383-0.888c-1.261,0.051-1.563-0.385-1.556-1.59
	c0.052-7.051,0.03-14.102,0.024-21.153c-0.001-1.377,0.384-2.714,0.333-4.106c-0.034-0.947,0.82-0.927,1.516-0.988
	c2.221-0.196,4.428,0.164,6.613,0.366c4.173,0.368,8.315,1.011,12.403,1.923c6.146,1.397,12.18,3.187,17.954,5.739
	c5.984,2.628,11.713,5.802,17.115,9.481c4.896,3.345,9.313,7.185,13.579,11.266c2.203,2.107,4.187,4.368,6.17,6.673
	c2.843,3.281,5.448,6.76,7.798,10.411c3.192,4.995,6.035,10.213,8.24,15.736c1.179,2.951,2.313,5.933,3.221,8.975
	c1.679,5.629,3.033,11.341,3.595,17.213C849.294,91.102,849.654,94.361,849.861,96.359z"/>
<path fill="#C63823" d="M731.579,110.021c0.464,0.047,0.727-0.295,1.044-0.492c2.767-1.746,5.975-2.664,9.247-2.646
	c14.591,0.001,29.182,0.004,43.771,0.008c8.44,0.014,15.425,5.84,17.148,14.096c2.381,11.397-7.787,20.566-16.496,20.498
	c-15.033-0.121-30.068,0-45.104-0.058c-4.962-0.018-9.036-2.175-12.32-5.817c-0.701-0.777-1.002-1.008-1.831-0.066
	c-3.438,3.898-7.777,5.936-13.024,5.925c-4.484-0.009-8.972,0.024-13.457-0.015c-3.351-0.029-4.827-2.396-3.217-5.357
	c2.611-4.799,5.372-9.516,8.092-14.254c6.297-10.973,12.602-21.939,18.915-32.9c1.544-2.675,2.513-3.229,4.422-2.787
	c1.781,0.412,2.354,1.396,2.516,4.4c0.32,5.96,0.09,11.927,0.168,17.89C731.459,108.965,731.32,109.508,731.579,110.021z
	 M741.815,113.826c-5.727-0.039-10.4,4.568-10.44,10.295s4.568,10.4,10.295,10.439c0.053,0.002,0.105,0.002,0.158,0
	c5.792-0.013,10.359-4.634,10.331-10.451c0.011-5.668-4.574-10.271-10.241-10.283C741.884,113.826,741.85,113.826,741.815,113.826z
	 M785.642,113.826c-5.727,0.018-10.354,4.674-10.337,10.4c0.018,5.726,4.675,10.354,10.399,10.336c0.021,0,0.04,0,0.06,0
	c5.725-0.047,10.343-4.677,10.335-10.359c0.013-5.719-4.612-10.364-10.331-10.377C785.725,113.826,785.684,113.826,785.642,113.826
	L785.642,113.826z"/>
<path fill="#C63823" d="M795.894,102.182c-4.279-2.052-8.712-2.338-13.232-2.326c-14.147,0.037-28.295-0.019-42.442-0.041
	c-2.015-0.003-2.027-0.011-1.697-2.059c0.621-3.848,2.588-6.896,5.719-9.147c0.848-0.609,1.117-1.22,1.082-2.188
	c-0.058-1.379-0.04-2.76,0.05-4.138c0.13-1.89,1.572-3.211,3.382-3.22c1.848-0.009,3.217,1.273,3.387,3.205
	c0.053,0.587,0.034,1.183,0.037,1.774c0.009,1.986,0.007,1.938,2.023,1.938c0.87,0,1.174-0.33,1.372-1.138
	c1.858-7.561,3.767-15.109,5.648-22.664c0.828-3.324,1.429-3.87,4.854-3.881c6.852-0.022,13.703-0.006,20.555,0.05
	c4.505,0.042,9.271,4.409,9.325,8.917c0.141,11.483,0.052,22.97,0.052,34.455C795.98,101.876,795.943,102.031,795.894,102.182z
	 M771.081,85.958c2.511,0,5.021,0.034,7.531-0.01c2.255-0.039,3.552-1.358,3.564-3.63c0.027-4.529,0.027-9.057-0.002-13.586
	c-0.018-2.222-1.391-3.562-3.631-3.584c-3.298-0.032-6.597,0.018-9.894-0.028c-0.854-0.012-1.174,0.27-1.373,1.103
	c-1.489,6.219-3.019,12.429-4.585,18.629c-0.221,0.874-0.038,1.134,0.855,1.12C766.06,85.933,768.57,85.959,771.081,85.958z"/>
<path fill="#C63823" d="M741.808,120.748c1.913,0,3.464,1.551,3.464,3.463s-1.551,3.463-3.464,3.463
	c-1.911,0-3.462-1.549-3.463-3.461C738.357,122.305,739.9,120.762,741.808,120.748z"/>
<path fill="#C63823" d="M789.171,124.088c0.05,1.912-1.446,3.51-3.357,3.585c-1.867,0.067-3.535-1.481-3.61-3.353
	c-0.075-1.865,1.48-3.51,3.38-3.573c1.91-0.071,3.517,1.419,3.588,3.329C789.171,124.08,789.171,124.084,789.171,124.088z"/>
</svg>
