<svg id="SvgjsSvg1399" width="288" height="288" xmlns="http://www.w3.org/2000/svg" version="1.1" xmlns:xlink="http://www.w3.org/1999/xlink" xmlns:svgjs="http://svgjs.com/svgjs"><defs id="SvgjsDefs1400"></defs><g id="SvgjsG1401"><svg xmlns="http://www.w3.org/2000/svg" width="288" height="288" enable-background="new 633.5 0 232 200" viewBox="633.5 0 232 200"><path fill="#f4a89c" d="M820.062 199.996c-11.042 0-22.084-.002-33.126-.004-4.804-.004-6.059-1.297-6.06-6.158-.001-9.402 0-18.806.002-28.209.003-3.872 1.527-5.478 5.47-5.51 7.159-.059 14.319-.019 21.479-.019 14.924 0 29.848 0 44.771 0 5.652.001 6.897 1.224 6.897 6.747 0 9.059 0 18.115-.001 27.174-.002 4.583-1.39 5.969-6.051 5.973C842.318 200.004 831.19 200.005 820.062 199.996zM771.028 100.3c10.61-.001 21.221-.001 31.831 0 6.479.001 7.397.905 7.397 7.255 0 8.972-.001 17.943-.003 26.915-.004 4.068-1.499 5.771-5.536 5.78-22.516.052-45.03.053-67.546.002-4.062-.009-5.515-1.656-5.518-5.738-.005-9.488-.005-18.979 0-28.467.003-4.305 1.347-5.715 5.73-5.731C748.6 100.272 759.813 100.301 771.028 100.3zM721.492 199.995c-11.037.001-22.074-.001-33.111-.003-4.67-.006-5.93-1.302-5.932-6.015-.002-9.485-.002-18.971.004-28.456.004-3.76 1.509-5.404 5.283-5.412 22.679-.039 45.356-.037 68.035.005 3.632.007 5.161 1.671 5.17 5.28.021 9.743.022 19.486.001 29.23-.008 3.81-1.503 5.348-5.303 5.357C744.257 200.014 732.874 199.994 721.492 199.995zM731.271 60.796c-2.227-5.896-6.062-8.845-11.955-7.549-2.923.663-5.688 1.889-8.142 3.609-2.838 2.005-5.146 4.757-7.92 7.411l-21.298-14.959c1.825-2.617 3.623-5.196 5.422-7.773.346-.494.674-1.004 1.054-1.472 8.888-10.934 4.233-22.272-6.507-28.292-6.655-3.73-13.773-3.981-21.088-3.114-1.886.223-4.296 1.234-4.952-1.58-.644-2.759 1.727-3.338 3.733-3.985 17.566-5.665 34.419-3.265 50.564 4.917 5.736 2.907 11.014 6.723 16.479 10.161.571.374 1.051.873 1.399 1.46 6.535 11.002 8.899 12.694 21.485 15.072L731.271 60.796zM681.731 55.765l16.573 11.62c-.512.807-.89 1.458-1.319 2.071-13.003 18.555-26.045 37.085-38.966 55.697-1.285 1.853-2.513 2.177-4.483 1.604-5.354-1.553-9.617-4.602-12.631-9.252-.497-.77-.559-2.427-.061-3.146 13.357-19.254 26.775-38.465 40.254-57.635C681.295 56.445 681.476 56.154 681.731 55.765zM733.864 65.553l21.454-31.073c1.84 1.292 3.601 2.372 5.176 3.675 2.104 1.741 2.574 4.214 1.028 6.484-5.279 7.759-10.638 15.464-16.075 23.115-1.546 2.176-4.364 2.553-6.716 1.136C737.12 67.918 735.617 66.765 733.864 65.553z" class="colorC63823 svgShape"></path></svg></g></svg>