<?xml version="1.0" encoding="utf-8"?>
<!-- Generator: Adobe Illustrator 16.0.0, SVG Export Plug-In . SVG Version: 6.00 Build 0)  -->
<!DOCTYPE svg PUBLIC "-//W3C//DTD SVG 1.1//EN" "http://www.w3.org/Graphics/SVG/1.1/DTD/svg11.dtd">
<svg version="1.1" id="Layer_1" xmlns="http://www.w3.org/2000/svg" xmlns:xlink="http://www.w3.org/1999/xlink" x="0px" y="0px"
	 width="180.773px" height="200px" viewBox="659.613 0 180.773 200" enable-background="new 659.613 0 180.773 200"
	 xml:space="preserve">
<g>
	<path fill="#C63823" d="M741.496,152.609c0.014-26.191,22.424-47.563,49.612-47.311c27.604,0.258,49.365,21.28,49.277,47.604
		c-0.088,26.07-22.09,47.052-49.391,47.097C763.613,200.045,741.482,178.857,741.496,152.609z M822.04,142.984
		c-7.069-0.619-12.938-1.357-18.826-1.555c-2.92-0.1-4.054-1.297-5.017-3.646c-2.183-5.33-4.641-10.556-7.248-16.41
		c-2.653,5.981-5.139,11.356-7.407,16.813c-0.875,2.105-1.999,3.078-4.528,3.201c-6.087,0.301-12.152,0.993-19.105,1.605
		c5.049,4.199,9.366,7.982,13.916,11.492c2.214,1.709,2.991,3.259,2.164,6.054c-1.612,5.442-2.698,11.028-4.188,17.342
		c6.081-3.493,11.407-6.423,16.573-9.59c1.948-1.194,3.366-1.087,5.254,0.058c5.165,3.135,10.463,6.068,16.524,9.551
		c-1.563-6.448-2.821-12.057-4.31-17.606c-0.63-2.351-0.203-3.928,1.855-5.515C812.352,151.193,816.78,147.342,822.04,142.984
		L822.04,142.984z"/>
	<path fill="#C63823" d="M819.582,98.454c-3.512-1.245-6.466-1.987-9.056-3.356c-1.078-0.57-1.94-2.475-1.953-3.78
		c-0.139-14.059-0.087-28.119-0.087-42.179c0-9.415,0.018-18.83-0.005-28.245c-0.02-7.649-3.675-11.158-11.899-11.181
		c-20.213-0.055-40.427-0.019-60.641-0.02c-17.456,0-34.916,0.17-52.369-0.072c-8.604-0.119-12.9,3.927-12.856,12.262
		c0.243,45.693,0.114,91.389,0.118,137.083c0,7.847,3.447,11.292,11.637,11.334c14.438,0.074,28.877,0.122,43.313-0.053
		c3.338-0.039,5.46,0.521,6.175,3.974c0.368,1.774,1.366,3.434,2.313,5.706h-4.33c-17.721,0-35.446-0.291-53.155,0.106
		c-10.826,0.242-17.239-6.928-17.173-16.522c0.341-49.206,0.344-98.417,0.009-147.627C659.574,7.861,665.219-0.061,676.252,0
		c42.263,0.235,84.527,0.07,126.792,0.111c10.816,0.011,16.534,5.574,16.536,15.822c0.005,25.985,0.006,51.971,0.002,77.957
		C819.582,95.244,819.582,96.597,819.582,98.454z"/>
	<path fill="#C63823" d="M684.404,83.44V72.199h110.722V83.44H684.404z"/>
	<path fill="#C63823" d="M684.34,34.927v-10.96h110.721v10.96H684.34z"/>
	<path fill="#C63823" d="M684.342,59.127V48.125h110.719v11.003L684.342,59.127z"/>
	<path fill="#C63823" d="M736.877,96.47v11.208h-52.451V96.47H736.877z"/>
</g>
</svg>
