<?xml version="1.0" encoding="utf-8"?>
<!-- Generator: Adobe Illustrator 16.0.0, SVG Export Plug-In . SVG Version: 6.00 Build 0)  -->
<!DOCTYPE svg PUBLIC "-//W3C//DTD SVG 1.1//EN" "http://www.w3.org/Graphics/SVG/1.1/DTD/svg11.dtd">
<svg version="1.1" id="Layer_1" xmlns="http://www.w3.org/2000/svg" xmlns:xlink="http://www.w3.org/1999/xlink" x="0px" y="0px"
	 width="186.993px" height="200px" viewBox="656.503 0 186.993 200" enable-background="new 656.503 0 186.993 200"
	 xml:space="preserve">
<g>
	<path fill="#C63823" d="M843.496,200h-186.59c-0.183-0.507-0.412-0.842-0.402-1.169c0.405-13.706-0.633-27.499,2.647-41.037
		c2.218-9.149,7.524-16.158,16.686-20.128c13.665-5.921,27.439-11.62,41.372-17.5l19.755,58.395
		c2.691-7.18,5.087-13.295,7.205-19.496c0.339-0.99-0.4-2.426-0.923-3.539c-1.834-3.905-4.209-7.633-5.594-11.666
		c-1.662-4.844,0.826-9.135,6.084-10.116c3.938-0.718,7.978-0.664,11.896,0.153c5.267,1.133,7.643,5.459,5.902,10.256
		c-1.457,4.019-3.817,7.742-5.72,11.623c-0.441,0.897-1.156,2.054-0.887,2.826c2.206,6.314,4.616,12.568,7.32,19.791l19.964-58.83
		c0.867,0.314,1.551,0.517,2.189,0.804c11.196,5.032,22.148,10.639,33.646,14.965c12.875,4.846,21.131,12.828,22.593,25.842
		C842.076,173.945,842.565,186.813,843.496,200z"/>
	<path fill="#C63823" d="M711.078,11.858c2.833,1.727,5.339,2.894,7.367,4.572c3.264,2.701,5.994,2.606,10.326,1.367
		c7.004-2.005,9.509-5.595,9.83-12.019c0.243-4.836,1.877-5.735,7.191-5.757c2.919-0.012,5.839-0.052,8.756,0.025
		c3.024,0.08,5.403,1.34,5.38,4.396c-0.059,7.834,3.694,12.301,11.947,13.993c2.303,0.472,3.843,0.926,5.722-0.61
		c1.908-1.561,4.056-2.866,6.113-4.26c2.631-1.782,5.09-1.814,7.449,0.53c2.269,2.253,4.653,4.401,6.985,6.598
		c2.07,1.949,2.496,4.037,0.735,6.409c-2.171,2.925-5.672,5.766-6.005,8.889c-0.332,3.11,2.394,6.596,4.097,9.766
		c0.62,1.155,2.009,2.349,3.3,2.698c2.782,0.753,5.729,0.963,8.604,1.409c3.109,0.482,4.646,2.284,4.7,5.181
		c0.062,3.224,0.052,6.45,0.004,9.674c-0.04,2.739-1.417,4.983-4.395,4.902c-8.862-0.242-13.312,4.076-15.402,11.711
		c-0.483,1.763-0.907,2.956,0.393,4.47c1.751,2.039,3.253,4.266,4.897,6.387c1.858,2.397,1.709,4.644-0.503,6.748
		c-2.499,2.377-5.025,4.729-7.531,7.1c-2.319,2.195-5.041,2.702-7.415,0.527c-5.385-4.929-10.746-5.951-17.697-2.355
		c-2.991,1.547-4.296,2.861-4.718,5.814c-1.48,10.387-1.553,10.379-12.539,10.377c-1.269,0-2.538,0.012-3.808-0.006
		c-3.348-0.045-5.816-1.267-5.853-4.729c-0.077-7.106-3.232-11.335-10.962-13.199c-3.214-0.774-5.171-0.821-7.721,0.941
		c-10.566,7.308-9.316,5.963-17.297-1.438c-5.624-5.214-5.872-5.571-0.781-11.529c3.382-3.958,3.766-7.037,1.578-11.965
		c-2.261-5.095-5.146-6.985-10.58-7.509c-7.546-0.728-7.747-1.271-7.751-8.226c-0.001-2.03-0.023-4.061,0.008-6.091
		c0.067-4.325,0.974-5.913,5.598-6.074c7.074-0.248,10.988-2.887,13.078-9.481c1.103-3.476,1.271-5.656-1.034-8.574
		c-6.538-8.279-6.861-7.688,1.427-15.483C706.47,15.255,708.669,13.761,711.078,11.858z M764.327,40.164l-22.286,21.757l-7.67-8.883
		l-8.893,8.696l17.476,16.42l30.462-28.623L764.327,40.164z"/>
</g>
</svg>
