<?xml version="1.0" encoding="utf-8"?>
<!-- Generator: Adobe Illustrator 16.0.0, SVG Export Plug-In . SVG Version: 6.00 Build 0)  -->
<!DOCTYPE svg PUBLIC "-//W3C//DTD SVG 1.0//EN" "http://www.w3.org/TR/2001/REC-SVG-20010904/DTD/svg10.dtd">
<svg version="1.0" id="Layer_1" xmlns="http://www.w3.org/2000/svg" xmlns:xlink="http://www.w3.org/1999/xlink" x="0px" y="0px"
	 width="200px" height="200px" viewBox="-210.5 0.25 200 200" enable-background="new -210.5 0.25 200 200" xml:space="preserve">
<path fill="#FFFFFF" d="M-110.5,0.25c-55.229,0-100,44.771-100,100s44.771,100,100,100s100-44.771,100-100S-55.271,0.25-110.5,0.25z
	 M-110.5,186.347c-47.55,0-86.097-38.547-86.097-86.097s38.547-86.097,86.097-86.097S-24.403,52.7-24.403,100.25
	S-62.95,186.347-110.5,186.347z"/>
<g>
	<path fill-rule="evenodd" clip-rule="evenodd" fill="#FFFFFF" d="M-172.504,70.052c0-5.123-0.002-10.246,0-15.369
		c0.001-2.438,0.668-3.425,2.924-4.3c15.66-6.08,31.826-8.27,48.538-6.365c8.82,1.005,17.341,3.169,25.604,6.388
		c2.087,0.813,2.821,1.895,2.822,4.14c0.003,8.592,0.034,17.184-0.006,25.776c-0.117,24.996-14.653,46.822-37.559,56.528
		c-1.643,0.696-3.096,0.728-4.739-0.006c-19.867-8.865-32.079-23.909-36.537-45.201c-1.123-5.36-1.119-10.817-1.051-16.268
		C-172.486,73.602-172.504,71.826-172.504,70.052z M-132.619,107.497c6.453-0.115,12.105-2.284,16.819-6.775
		c1.711-1.632,1.849-3.827,0.389-5.371c-1.465-1.548-3.613-1.506-5.384,0.107c-6.993,6.37-16.558,6.384-23.495,0.035
		c-1.817-1.664-4.006-1.7-5.467-0.09c-1.429,1.576-1.247,3.725,0.488,5.365C-144.606,105.175-139.034,107.343-132.619,107.497z
		 M-147.116,79.673c2.34,0,4.679,0.013,7.019-0.004c2.282-0.017,3.881-1.502,3.899-3.584c0.018-2.066-1.605-3.65-3.837-3.66
		c-4.719-0.023-9.438-0.026-14.158,0.001c-2.158,0.013-3.76,1.582-3.777,3.597c-0.018,2.083,1.585,3.625,3.836,3.646
		C-151.795,79.688-149.456,79.672-147.116,79.673z M-118.039,79.672c2.34,0,4.68,0.015,7.02-0.004
		c2.27-0.018,3.87-1.527,3.871-3.612c0-2.066-1.623-3.624-3.866-3.634c-4.679-0.02-9.358-0.019-14.038,0
		c-2.242,0.01-3.868,1.567-3.87,3.628c-0.002,2.081,1.603,3.599,3.865,3.617C-122.718,79.688-120.378,79.672-118.039,79.672z"/>
	<path fill-rule="evenodd" clip-rule="evenodd" fill="#FFFFFF" d="M-119.955,140.947c25.312-15.495,36.553-38.213,35.017-67.709
		c2.207,0.144,4.245,0.215,6.271,0.419c9.311,0.937,18.351,3.027,27.071,6.454c2.405,0.945,3.039,1.875,3.039,4.471
		c0.001,8.512,0.229,17.032-0.042,25.536c-0.847,26.425-13.367,45.229-37.326,56.43c-1.745,0.815-3.311,0.787-5.079,0.016
		c-12.09-5.274-21.582-13.511-28.477-24.747C-119.668,141.516-119.821,141.194-119.955,140.947z M-88.498,124.197
		c-6.413,0.135-12.128,2.144-16.862,6.657c-1.039,0.991-1.53,2.177-1.181,3.603c0.674,2.758,3.77,3.625,6.041,1.818
		c1.533-1.221,3.09-2.564,4.866-3.302c6.86-2.843,13.243-1.947,18.887,3.055c1.028,0.911,2.14,1.46,3.521,1.142
		c1.409-0.326,2.352-1.197,2.734-2.615c0.397-1.479-0.096-2.699-1.164-3.716C-76.36,126.362-82.037,124.352-88.498,124.197z
		 M-73.955,109.447c2.3,0,4.599,0.008,6.898-0.003c2.357-0.011,3.98-1.51,3.965-3.636c-0.015-2.059-1.639-3.6-3.893-3.609
		c-4.679-0.021-9.358-0.023-14.038,0.002c-2.23,0.012-3.856,1.6-3.843,3.656c0.013,2.078,1.621,3.573,3.892,3.586
		C-78.633,109.458-76.293,109.447-73.955,109.447z"/>
</g>
</svg>
