<?xml version="1.0" encoding="utf-8"?>
<!-- Generator: Adobe Illustrator 16.0.0, SVG Export Plug-In . SVG Version: 6.00 Build 0)  -->
<!DOCTYPE svg PUBLIC "-//W3C//DTD SVG 1.0//EN" "http://www.w3.org/TR/2001/REC-SVG-20010904/DTD/svg10.dtd">
<svg version="1.0" id="Layer_1" xmlns="http://www.w3.org/2000/svg" xmlns:xlink="http://www.w3.org/1999/xlink" x="0px" y="0px"
	 width="200px" height="200px" viewBox="-210.5 0.25 200 200" enable-background="new -210.5 0.25 200 200" xml:space="preserve">
<path fill="#C63823" d="M-110.5,0.25c-55.229,0-100,44.771-100,100s44.771,100,100,100s100-44.771,100-100S-55.271,0.25-110.5,0.25z
	 M-110.5,186.347c-47.55,0-86.097-38.547-86.097-86.097s38.547-86.097,86.097-86.097S-24.403,52.7-24.403,100.25
	S-62.95,186.347-110.5,186.347z"/>
<g>
	<g>
		<g>
			<path fill="#C63823" d="M-144.699,52.75h-19.253c-2.104,0-3.801,1.698-3.801,3.796c0,2.104,1.697,3.803,3.801,3.803h19.253
				c2.101,0,3.799-1.699,3.799-3.803C-140.9,54.448-142.599,52.75-144.699,52.75z"/>
		</g>
	</g>
	<g>
		<g>
			<path fill="#C63823" d="M-144.699,83.149h-19.253c-2.104,0-3.801,1.698-3.801,3.799s1.697,3.799,3.801,3.799h19.253
				c2.101,0,3.799-1.698,3.799-3.799S-142.599,83.149-144.699,83.149z"/>
		</g>
	</g>
	<g>
		<g>
			<path fill="#C63823" d="M-152.301,67.946h-19.255c-2.099,0-3.799,1.706-3.799,3.803c0,2.101,1.7,3.803,3.799,3.803h19.255
				c2.101,0,3.803-1.702,3.803-3.803C-148.498,69.652-150.2,67.946-152.301,67.946z"/>
		</g>
	</g>
	<g>
		<g>
			<path fill="#C63823" d="M-53.244,86.948h-23.053V71.749c0-6.674-8.165-10.19-12.976-5.37l-30.399,30.399
				c-2.969,2.965-2.969,7.774,0,10.743l17.429,17.428l-21.229,21.23c-2.969,2.969-2.969,7.778,0,10.747
				c2.969,2.965,7.778,2.965,10.747,0l26.603-26.601c2.969-2.972,2.969-7.778,0-10.75l-17.428-17.428l12.054-12.055v4.456
				c0,4.194,3.405,7.599,7.599,7.599h30.654c4.201,0,7.599-3.404,7.599-7.599C-45.646,90.353-49.043,86.948-53.244,86.948z"/>
		</g>
	</g>
	<g>
		<g>
			<path fill="#C63823" d="M-104.386,48.324c-3.021-2.007-7.024-1.608-9.588,0.946l-20.899,20.904
				c-2.967,2.972-2.967,7.778,0,10.746c2.969,2.973,7.78,2.973,10.749,0l16.492-16.492l5.562,4.006l7.425-7.429
				c1.24-1.24,2.705-2.206,4.307-2.961L-104.386,48.324z"/>
		</g>
	</g>
	<g>
		<g>
			<path fill="#C63823" d="M-125.047,112.895c-1.926-1.928-3.211-4.291-3.888-6.857l-40.139,40.143
				c-2.973,2.969-2.973,7.778,0,10.747c2.969,2.965,7.778,2.965,10.747,0l38.654-38.654L-125.047,112.895z"/>
		</g>
	</g>
	<g>
		<g>
			<path fill="#C63823" d="M-72.498,41.35c6.298,0,11.4,5.103,11.4,11.4c0,6.294-5.103,11.404-11.4,11.404
				c-6.294,0-11.4-5.11-11.4-11.404C-83.898,46.452-78.792,41.35-72.498,41.35z"/>
		</g>
	</g>
</g>
</svg>
