<svg xmlns="http://www.w3.org/2000/svg" viewBox="0 0 1097.354 1097.483">
  <path d="M1000.673,426.395c118.87,0,237.741.183,356.611-.076,62.922-.137,114.91,22.208,153.855,72.525,25.164,32.511,37.27,69.721,37.31,110.482q.352,365.2,0,730.391c-.158,103.288-80.082,183.119-185.355,183.465q-363.211,1.193-726.427-.012C528.984,1522.8,451.4,1442.428,451.37,1334.3q-.111-358.592-.014-717.184c.015-111.862,78.037-190.356,190.065-190.646C761.171,426.156,880.922,426.4,1000.673,426.395ZM696.451,791.269h608.321V671.39H696.451Zm.043,242.857h608.25V914.263H696.494Zm363.534,243.917v-119.67H696.68v119.67Z" transform="translate(-451.323 -426.307)" fill="#fff"/>
</svg>