<svg id="SvgjsSvg1129" width="288" height="288" xmlns="http://www.w3.org/2000/svg" version="1.1" xmlns:xlink="http://www.w3.org/1999/xlink" xmlns:svgjs="http://svgjs.com/svgjs"><defs id="SvgjsDefs1130"></defs><g id="SvgjsG1131"><svg xmlns="http://www.w3.org/2000/svg" viewBox="0 0 1146.814 1147.959" width="288" height="288"><path fill="#fefefe" d="M1654.062,881.6c.392-43.443-2.7-86.759-12.97-129.07C1595.409,564.417,1485,429.152,1308.37,349.135c-64.181-29.076-132.253-43.253-202.521-47.08-5.57-.3-10.35-1.22-10.453,7.642-.565,48.245-1.654,96.486-2.892,144.72-.175,6.837,2.2,8.783,8.662,8.756,18.175-.077,36.182,2.607,53.9,6.062,104.179,20.309,190.126,71.439,254.2,156.27,77.19,102.2,100.641,217.048,74.38,342.128-8.086,38.516-22.617,74.731-41.693,109.107-3.5,6.3-4,10.451,3.418,14.81,38.69,22.737,76.989,46.136,115.6,69.014,13.475,7.985,13.732,7.622,21.2-6.011C1628.746,1069.551,1653.175,978.69,1654.062,881.6Zm-566.486-499.56c.482-23.576.685-47.164,1.6-70.723.3-7.748-2.445-11.3-9.778-9.741-15.7,3.334-31.639,1.324-47.474,2.821A605.925,605.925,0,0,0,911.2,327.988c-44.459,13.606-86.448,32.734-126.491,56.55-51.142,30.417-96.532,67.763-135.292,112.581-52.109,60.253-91.128,128.284-115.3,204.547-11.249,35.494-21.074,71.582-23.03,108.611-1.555,29.437-5.218,58.807-3.234,88.7,1.841,27.746,3.533,55.469,8.828,82.63,10.486,53.794,27.648,105.542,52.432,154.608,6.257,12.387,8.388,13.047,20.735,6.1,13.864-7.8,27.875-15.331,41.8-23.015,24.692-13.622,49.269-27.459,74.111-40.8,8.225-4.418,9.261-9.02,4.829-17.239-5.994-11.117-10.847-22.907-15.491-34.684-20.236-51.32-29.566-104.674-29.034-159.788.167-17.357,2.943-34.441,5.251-51.6a390.128,390.128,0,0,1,39.65-126.482c29.623-57.89,70.458-106.616,123-145.14,71.787-52.633,152.077-80.445,241.346-80.8,8.973-.035,10.994-2.868,11-11.093C1086.328,428.471,1087.1,405.257,1087.575,382.043ZM1064.865,1448.6a458.6,458.6,0,0,0,80.7-2.942,574.914,574.914,0,0,0,126.215-29.344,584.689,584.689,0,0,0,123.293-60.81,545.388,545.388,0,0,0,108.462-92.8,635.358,635.358,0,0,0,61.846-80.763c3.108-4.835,2.725-7.631-2.134-10.527q-61.046-36.391-121.943-73.03c-6.477-3.913-9.94-2.532-13.971,3.622a385.588,385.588,0,0,1-43.447,55.324c-40.972,42.895-88.264,76.708-143.188,99.772-42.7,17.932-87.093,29.4-133.169,31.093-51.383,1.894-102.54-1.518-152.105-17.9-60.376-19.95-114.2-50.611-159.854-95.1-27.569-26.866-52.508-55.924-72.158-89.182-2.833-4.795-5.365-6.089-10.272-3.3-41.479,23.6-83.467,46.3-124.154,71.285-6.133,3.767-6.505,6.247-2.852,12.49,30.037,51.335,67.728,96.193,111.689,136.152,47.9,43.542,102.033,77.139,161.392,102.268C928.542,1434.259,1001.2,1448.237,1064.865,1448.6Zm-97.15-297.662c80.517,4.671,176.143-57.02,177.943-170.5,1.636-103.144-70.688-175.787-171.053-178.152-98.018-2.31-175.578,65.5-178.456,170.7C793.021,1087.358,887.105,1152.648,967.716,1150.939ZM973.23,778.4a182.463,182.463,0,0,1,48.562,6.515c103.629,28.749,163.842,126.86,143.413,234.192-1.013,5.321.371,7.951,3.52,11.2,21.713,22.406,43.262,44.971,65.068,67.285a49.715,49.715,0,0,0,12.818,9.925c36.961,18.437,74.974,34.556,113.124,50.332,5.3,2.192,11.378,3.351,16.113-2.014,4.608-5.221,3.075-10.742.593-16.258q-23.866-53.031-47.742-106.057A65.791,65.791,0,0,0,1315.62,1015Q1161.379,854.52,1007.3,693.887q-50.881-53-101.9-105.857c-13.414-13.851-26.824-13.985-40.667-.839-14.206,13.49-28.434,26.964-42.369,40.731-14.046,13.878-14.624,25.383-1.22,39.568,34.882,36.916,70.182,73.437,105.162,110.262,3.462,3.645,6.692,4.344,11.5,3.438C949.919,778.909,962.189,777.692,973.23,778.4Zm415.18-88.664c.3-7.649-4.305-12.8-9.119-17.827q-40.251-42.07-80.53-84.114c-12.646-13.15-22.356-13.415-35.4-.915C1207.319,640.6,1151.447,694.5,1095.21,748.023c-6.376,6.068-7.068,9.367-.557,16.024q51.364,52.508,101.639,106.074c5.84,6.216,8.642,5.429,14.233,0,46.326-44.984,93.041-89.567,139.474-134.441,11.2-10.826,22.9-21.208,32.709-33.407C1385.672,698.589,1388.557,694.851,1388.41,689.74Z" transform="translate(-507.28 -301.22)" class="colorfefefe svgShape"></path><path fill="#ffffff" d="M1654.062,881.6c-.887,97.086-25.316,187.947-71.89,272.949-7.47,13.633-7.727,14-21.2,6.011-38.608-22.877-76.908-46.277-115.6-69.014-7.417-4.359-6.913-8.511-3.418-14.81,19.076-34.376,33.606-70.592,41.693-109.107,26.26-125.08,2.81-239.928-74.38-342.128-64.071-84.831-150.018-135.961-254.2-156.27-17.721-3.455-35.729-6.138-53.9-6.062-6.465.027-8.838-1.919-8.662-8.756,1.238-48.234,2.327-96.474,2.892-144.72.1-8.862,4.883-7.946,10.453-7.642,70.268,3.827,138.34,18,202.521,47.08,176.626,80.017,287.038,215.282,332.721,403.4C1651.367,794.845,1654.454,838.16,1654.062,881.6Z" transform="translate(-507.28 -301.22)" class="color30bcc5 svgShape"></path><path fill="#ededed" d="M1087.576 382.043c-.474 23.214-1.247 46.427-1.262 69.641-.005 8.224-2.026 11.057-11 11.093-89.269.35-169.559 28.162-241.346 80.8-52.543 38.524-93.378 87.25-123 145.14a390.128 390.128 0 00-39.65 126.482c-2.308 17.158-5.084 34.242-5.251 51.6-.531 55.114 8.8 108.469 29.034 159.788 4.644 11.777 9.5 23.567 15.491 34.684 4.431 8.22 3.4 12.821-4.829 17.239-24.842 13.343-49.419 27.18-74.111 40.8-13.928 7.684-27.938 15.22-41.8 23.015-12.347 6.942-14.478 6.282-20.735-6.1-24.784-49.066-41.946-100.814-52.432-154.608-5.294-27.161-6.986-54.885-8.828-82.63-1.984-29.9 1.679-59.265 3.234-88.7 1.956-37.029 11.781-73.116 23.03-108.611 24.169-76.263 63.187-144.294 115.3-204.547 38.76-44.818 84.15-82.164 135.292-112.581 40.043-23.816 82.032-42.944 126.491-56.55A605.925 605.925 0 011031.926 304.4c15.835-1.5 31.773.514 47.474-2.821 7.333-1.557 10.08 1.993 9.778 9.741C1088.261 334.88 1088.057 358.467 1087.576 382.043zM1064.865 1448.6c-63.664-.364-136.323-14.342-205.645-43.688-59.359-25.129-113.488-58.726-161.392-102.268-43.962-39.959-81.653-84.817-111.689-136.152-3.653-6.243-3.281-8.723 2.852-12.49 40.687-24.989 82.675-47.69 124.154-71.285 4.907-2.791 7.439-1.5 10.272 3.3 19.65 33.258 44.59 62.316 72.158 89.182 45.655 44.492 99.478 75.152 159.854 95.1 49.565 16.378 100.722 19.79 152.105 17.9 46.076-1.7 90.466-13.161 133.169-31.093 54.923-23.064 102.215-56.877 143.188-99.772a385.588 385.588 0 0043.447-55.324c4.031-6.154 7.494-7.535 13.971-3.622q60.831 36.748 121.943 73.03c4.859 2.9 5.242 5.693 2.134 10.527a635.358 635.358 0 01-61.846 80.763 545.388 545.388 0 01-108.462 92.8 584.689 584.689 0 01-123.293 60.81 574.914 574.914 0 01-126.215 29.344A458.6 458.6 0 011064.865 1448.6z" transform="translate(-507.28 -301.22)" class="colorededed svgShape"></path><path fill="#ffffff" d="M967.716,1150.939c-80.61,1.709-174.695-63.581-171.566-177.949,2.878-105.2,80.438-173.015,178.456-170.7,100.365,2.366,172.689,75.009,171.053,178.152C1143.859,1093.919,1048.233,1155.61,967.716,1150.939Zm.928-64.75c8.173,1.963,11.86-1.279,10.649-9.538-1.623-11.075,3.1-15.16,14.107-17.628,20.676-4.639,32.8-19.066,36.468-40.019,4.254-24.291-4.693-42.461-26.908-53.914C989.794,958.3,976,952.744,962.832,945.953c-7.989-4.121-11.328-11.136-7.685-20.106,3.308-8.145,12.637-12.769,21.365-10.983,6.768,1.384,13.12,4.614,15.337,10.92,4.91,13.964,13.194,12.208,23.144,6.629a15.367,15.367,0,0,1,4.055-1.541c8.108-1.847,7.994-6.75,5.1-12.982-6.421-13.829-16.118-24.33-31.179-28.149-7.341-1.862-10.59-5.069-9.4-12.564,1.318-8.292-3.46-9.313-10.269-9.357-6.493-.042-11.841-.008-10.9,8.65.876,8.034-3,11.006-10.694,12.694-13.923,3.054-23.668,12.2-29.673,25.045-12.414,26.548-2.952,54.154,23.3,67.126,12.643,6.248,25.8,11.454,38.581,17.429,6.522,3.049,9.982,8.839,9.311,15.847s-3.742,13.179-10.861,16.4c-11.951,5.407-31.518.223-35.487-11.966-4.506-13.839-11.914-13.431-22.452-9.315a35.056,35.056,0,0,1-8.421,2.033c-5.587.685-6.276,3.858-4.864,8.458,5.767,18.793,16.428,33.565,36.186,38.59,9.8,2.493,13.061,6.8,11.273,16.319C957.151,1082.852,959.045,1088.27,968.644,1086.189Z" transform="translate(-507.28 -301.22)" class="color5232c2 svgShape"></path><path fill="#ffffff" d="M973.23 778.4c-11.042-.712-23.311.506-35.423 2.787-4.809.906-8.039.207-11.5-3.438-34.98-36.825-70.28-73.346-105.162-110.262-13.4-14.185-12.825-25.691 1.22-39.568 13.935-13.768 28.163-27.241 42.369-40.731 13.843-13.146 27.252-13.012 40.667.839q51.111 52.774 101.9 105.857Q1161.455 854.448 1315.62 1015a65.791 65.791 0 0113.079 18.529q23.887 53.021 47.742 106.057c2.482 5.516 4.015 11.037-.593 16.258-4.735 5.365-10.813 4.206-16.113 2.014-38.15-15.776-76.163-31.895-113.124-50.332a49.715 49.715 0 01-12.818-9.925c-21.806-22.314-43.355-44.879-65.068-67.285-3.148-3.249-4.533-5.879-3.52-11.2 20.429-107.332-39.784-205.443-143.413-234.192A182.463 182.463 0 00973.23 778.4zM936.094 655.552a34.059 34.059 0 00-2.378-3.014c-15.068-15.643-30.278-31.151-45.17-46.959-3.905-4.145-6.016-1.661-8.727.942-12.795 12.284-25.523 24.641-38.512 36.716-3.949 3.671-4.653 6.267-.522 10.451q21.356 21.633 42.095 43.87c4.012 4.292 6.781 4.887 11.27.432 12.328-12.237 25.143-23.983 37.7-35.991C933.6 660.331 936.107 659.075 936.094 655.552zm404.555 468.666l2.1-2.172c-10.145-22.278-20.382-44.514-30.364-66.864-2.23-4.993-4.34-4.7-7.775-1.305-10.822 10.709-21.76 21.3-32.691 31.9-3.258 3.158-4.119 5.73.95 7.993Q1306.8 1108.912 1340.649 1124.219zM1388.4 689.741c.152 5.111-2.733 8.849-5.7 12.532-9.813 12.2-21.507 22.581-32.709 33.407-46.434 44.874-93.148 89.457-139.474 134.441-5.591 5.429-8.393 6.217-14.233 0Q1146 816.585 1094.654 764.047c-6.512-6.657-5.82-9.956.557-16.024 56.237-53.518 112.109-107.419 168.154-161.139 13.041-12.5 22.75-12.234 35.4.915q40.359 41.966 80.53 84.114C1384.1 676.944 1388.709 682.091 1388.4 689.741zm-195.753 25.323c-5.939.181-10.469 2.8-12.893 8.277-2.856 6.452-.711 11.881 3.939 16.753q22.475 23.55 44.831 47.215c14.723 15.518 14.556 15.349 29.5.6 4.265-4.211 4.776-6.675.323-11.177-18.058-18.257-35.717-36.909-53.528-55.411C1201.487 717.858 1197.865 714.942 1192.652 715.064zm56.075-4.825c-4.591.275-9.029 2.227-11.6 7.263-2.954 5.795-2.234 11.336 2.045 16.07 7.257 8.03 14.735 15.864 22.218 23.685 14.427 15.077 14.293 14.887 29.462-.239 3.989-3.978 4.365-6.306.267-10.337-10.288-10.119-20.152-20.669-30.2-31.035A16 16 0 001248.727 710.239zm-81.055 77.869c-.295 5.75 2.1 9.606 5.5 13.112 6.535 6.738 12.946 13.595 19.435 20.377 15.672 16.379 15.678 16.373 30.874-.788a5.594 5.594 0 01.775-.755c3.162-2.408 2.379-4.576-.092-7.075-11.166-11.294-22.091-22.83-33.4-33.98-4.243-4.185-9.985-4.4-15.222-2.185A12.343 12.343 0 001167.672 788.108zm114.674-109.443c-5.968.246-10.526 3.026-12.968 8.373-2.478 5.427-1.334 10.718 2.65 15.123q10.567 11.683 21.411 23.113c15.5 16.246 15.4 16.067 30.824-.43 3.618-3.87 3.559-6.113-.054-9.69-10.292-10.192-20.3-20.675-30.384-31.072A16.819 16.819 0 001282.346 678.665zm30.5-28.547a12.665 12.665 0 00-12.623 6.83c-3.084 5.566-2.742 11.359 1.592 16.157 7.276 8.055 14.873 15.821 22.381 23.663 14.334 14.971 14.241 14.854 28.744-.046 3.593-3.692 4.878-6.194.591-10.423-10.3-10.164-20.134-20.807-30.218-31.2C1320.476 652.184 1317.16 650.035 1312.843 650.118z" transform="translate(-507.28 -301.22)" class="color5232c2 svgShape"></path><path fill="#f9f9f9" d="M968.644 1086.189c-9.6 2.081-11.493-3.337-10.043-11.057 1.788-9.517-1.47-13.826-11.273-16.319-19.758-5.025-30.419-19.8-36.186-38.59-1.412-4.6-.722-7.773 4.864-8.458a35.056 35.056 0 008.421-2.033c10.538-4.116 17.946-4.524 22.452 9.315 3.969 12.189 23.536 17.373 35.487 11.966 7.119-3.221 10.191-9.392 10.861-16.4s-2.789-12.8-9.311-15.847c-12.784-5.975-25.938-11.181-38.581-17.429-26.249-12.972-35.711-40.578-23.3-67.126 6.006-12.844 15.751-21.992 29.673-25.045 7.7-1.688 11.569-4.66 10.694-12.694-.944-8.659 4.4-8.692 10.9-8.65 6.809.044 11.587 1.065 10.269 9.357-1.191 7.5 2.057 10.7 9.4 12.564 15.061 3.82 24.757 14.32 31.179 28.149 2.894 6.232 3.008 11.135-5.1 12.982a15.367 15.367 0 00-4.055 1.541c-9.95 5.579-18.234 7.334-23.144-6.629-2.218-6.306-8.569-9.536-15.337-10.92-8.728-1.786-18.057 2.838-21.365 10.983-3.643 8.97-.3 15.985 7.685 20.106 13.164 6.791 26.962 12.35 40.128 19.137 22.215 11.453 31.162 29.623 26.908 53.914-3.669 20.953-15.792 35.38-36.468 40.019-11 2.469-15.73 6.554-14.107 17.628C980.5 1084.91 976.817 1088.152 968.644 1086.189zM936.094 655.552c.013 3.523-2.5 4.778-4.243 6.448-12.558 12.008-25.373 23.754-37.7 35.991-4.489 4.456-7.258 3.86-11.27-.432q-20.757-22.208-42.095-43.87c-4.131-4.185-3.427-6.78.522-10.451 12.989-12.076 25.717-24.433 38.512-36.716 2.712-2.6 4.822-5.088 8.727-.942 14.892 15.808 30.1 31.317 45.17 46.959A34.059 34.059 0 01936.094 655.552zM1340.649 1124.219q-33.881-15.238-67.775-30.448c-5.07-2.263-4.208-4.835-.95-7.993 10.931-10.6 21.869-21.191 32.691-31.9 3.435-3.4 5.546-3.688 7.775 1.305 9.981 22.351 20.219 44.587 30.364 66.864zM1192.652 715.064c5.212-.122 8.835 2.794 12.168 6.256 17.811 18.5 35.47 37.154 53.528 55.411 4.453 4.5 3.942 6.966-.323 11.177-14.94 14.749-14.773 14.918-29.5-.6q-22.407-23.616-44.831-47.215c-4.65-4.872-6.795-10.3-3.939-16.753C1182.184 717.863 1186.713 715.245 1192.652 715.064zM1248.727 710.239a16 16 0 0112.2 5.407c10.046 10.366 19.91 20.916 30.2 31.035 4.1 4.03 3.722 6.359-.267 10.337-15.17 15.126-15.035 15.316-29.462.239-7.484-7.821-14.961-15.655-22.218-23.685-4.279-4.734-5-10.275-2.045-16.07C1239.7 712.466 1244.137 710.514 1248.727 710.239zM1167.672 788.108a12.343 12.343 0 017.873-11.295c5.237-2.213 10.979-2 15.222 2.185 11.307 11.15 22.232 22.685 33.4 33.98 2.471 2.5 3.254 4.667.092 7.075a5.594 5.594 0 00-.775.755c-15.2 17.162-15.2 17.168-30.874.788-6.489-6.782-12.9-13.639-19.435-20.377C1169.773 797.714 1167.377 793.858 1167.672 788.108zM1282.349 678.655a16.873 16.873 0 0111.477 5.427c10.088 10.4 20.092 20.881 30.384 31.072 3.613 3.577 3.672 5.82.054 9.69-15.425 16.5-15.32 16.676-30.824.43q-10.875-11.4-21.411-23.113c-3.984-4.4-5.129-9.7-2.65-15.123C1271.819 681.691 1276.378 678.911 1282.349 678.655zM1312.841 650.12c4.319-.085 7.635 2.064 10.468 4.983 10.084 10.389 19.914 21.032 30.218 31.2 4.287 4.229 3 6.731-.591 10.423-14.5 14.9-14.41 15.017-28.744.046-7.509-7.843-15.106-15.609-22.381-23.663-4.334-4.8-4.676-10.591-1.592-16.157A12.659 12.659 0 011312.841 650.12z" transform="translate(-507.28 -301.22)" class="colorf9f9f9 svgShape"></path></svg></g></svg>