<svg id="SvgjsSvg1017" width="288" height="288" xmlns="http://www.w3.org/2000/svg" version="1.1" xmlns:xlink="http://www.w3.org/1999/xlink" xmlns:svgjs="http://svgjs.com/svgjs"><defs id="SvgjsDefs1018"></defs><g id="SvgjsG1019"><svg xmlns="http://www.w3.org/2000/svg" viewBox="0 0 1989.811 1988.918" width="288" height="288"><path fill="#c63823" d="M1000.367,4C450.238,4.184,6.48,447.988,6.36,998.111c-.119,550.307,443.131,994.249,993.258,994.807s996.167-443.534,996.552-992.169C1996.558,449,1551.8,3.816,1000.367,4Zm388.96,1229.429c-12.073,138.964-94.237,225.986-220.385,275.1-27.777,10.815-57.334,17.055-89.543,26.41v174.5H910.123V1552.155c-70.66-14.809-137.565-25.137-202.288-43.257-98.77-27.652-98.108-29.934-73.251-127.355,9.293-36.422,18.46-72.877,27.409-108.23,60.927,19.36,118.993,44.433,179.6,55.15,57.249,10.124,117.432,9.288,175.826,5.527,47.2-3.039,87.246-27.034,101.051-77.437,12.357-45.114-8.543-89.2-59.711-118.959-35.6-20.7-74.745-35.449-112.745-51.838-50.725-21.878-103.541-39.535-152.508-64.739C681.633,963.435,613.613,874.846,622.651,743.543c9.1-132.2,86.456-215.434,204.638-265.329,8.083-3.413,16.478-6.14,24.844-8.821,64.4-20.639,64.41-20.611,64.41-90.4V288.865h170.381V434.713c60.15,10.943,116.244,17.765,170.477,31.787,86.632,22.4,86.173,24.438,64.4,108.551-9.211,35.588-18.693,71.106-28.215,106.612l1.134.218c-.965,1.393-1.617,2.388-2.06,3.1-.55,1.436-1.445,2.317,0,0a5.839,5.839,0,0,0,.193-.578q.367-1.369.733-2.738c-82.188-15.605-159.708-34.255-238.33-43.365-36.921-4.278-78.557,3.579-113.535,17.389-61.663,24.345-73.156,96.989-20.069,136.07,45.821,33.732,99.891,56.8,151.7,81.706,49.73,23.907,102.908,40.941,151.63,66.583C1342.253,1001.764,1400.9,1100.263,1389.327,1233.429Z" transform="translate(-6.36 -4)" class="color5232c2 svgShape"></path><path fill="#c63823" d="M1292.664 684.98c-1.445 2.317-.55 1.436 0 0zM1292.664 684.98c.443-.711 1.095-1.705 2.06-3.1l-1.134-.218q-.367 1.369-.733 2.738A5.839 5.839 0 011292.664 684.98z" transform="translate(-6.36 -4)" class="color5232c2 svgShape"></path><path fill="#c63823" d="M1000.367,4C450.238,4.184,6.48,447.988,6.36,998.111c-.119,550.307,443.131,994.249,993.258,994.807s996.167-443.534,996.552-992.169C1996.558,449,1551.8,3.816,1000.367,4Zm388.96,1229.429c-12.073,138.964-94.237,225.986-220.385,275.1-27.777,10.815-57.334,17.055-89.543,26.41v174.5H910.123V1552.155c-70.66-14.809-137.565-25.137-202.288-43.257-98.77-27.652-98.108-29.934-73.251-127.355,9.293-36.422,18.46-72.877,27.409-108.23,60.927,19.36,118.993,44.433,179.6,55.15,57.249,10.124,117.432,9.288,175.826,5.527,47.2-3.039,87.246-27.034,101.051-77.437,12.357-45.114-8.543-89.2-59.711-118.959-35.6-20.7-74.745-35.449-112.745-51.838-50.725-21.878-103.541-39.535-152.508-64.739C681.633,963.435,613.613,874.846,622.651,743.543c9.1-132.2,86.456-215.434,204.638-265.329,8.083-3.413,16.478-6.14,24.844-8.821,64.4-20.639,64.41-20.611,64.41-90.4V288.865h170.381V434.713c60.15,10.943,116.244,17.765,170.477,31.787,86.632,22.4,86.173,24.438,64.4,108.551-9.211,35.588-18.693,71.106-28.215,106.612l1.134.218c-.965,1.393-1.617,2.388-2.06,3.1-.55,1.436-1.445,2.317,0,0a5.839,5.839,0,0,0,.193-.578q.367-1.369.733-2.738c-82.188-15.605-159.708-34.255-238.33-43.365-36.921-4.278-78.557,3.579-113.535,17.389-61.663,24.345-73.156,96.989-20.069,136.07,45.821,33.732,99.891,56.8,151.7,81.706,49.73,23.907,102.908,40.941,151.63,66.583C1342.253,1001.764,1400.9,1100.263,1389.327,1233.429Z" transform="translate(-6.36 -4)" class="color5232c2 svgShape"></path><path fill="#c63823" d="M1292.664,684.98c.443-.711,1.095-1.705,2.06-3.1l-1.134-.218q-.367,1.369-.733,2.738A5.839,5.839,0,0,1,1292.664,684.98Z" transform="translate(-6.36 -4)" class="color5232c2 svgShape"></path></svg></g></svg>