<svg id="SvgjsSvg1001" width="288" height="288" xmlns="http://www.w3.org/2000/svg" version="1.1" xmlns:xlink="http://www.w3.org/1999/xlink" xmlns:svgjs="http://svgjs.com/svgjs"><defs id="SvgjsDefs1002"></defs><g id="SvgjsG1008" transform="matrix(1,0,0,1,0,0)"><svg xmlns="http://www.w3.org/2000/svg" viewBox="0 0 761.047 1050" width="288" height="288"><path fill="#c63823" d="M366.609 841.272q.011-215.258-.009-430.515c-.015-49.393 37.964-86.371 93.522-87.108 88.326-1.171 176.687-.425 265.032-.208 17.081.042 31.793 6.225 43.895 16.923Q937.529 489.3 1105.956 638.278c14.7 13 21.652 28.232 21.611 47.184q-.633 294.252-.243 588.506c.009 49.044-38.366 84.562-94.228 86.8-10.4.417-20.842.138-31.265.138q-265.785.007-531.571.073c-37.888.034-70.143-10.359-88.873-40.731-8.183-13.269-14.058-29.56-14.164-44.517C366.188 1130.918 366.6 986.094 366.609 841.272zM747.167 687.684q-104.933 0-209.867.01c-28.811.013-44.672 10.321-44.262 28.616.4 18 15.744 27.8 43.79 27.808q209.866.03 419.733 0c28.859 0 44.618-10.279 44.224-28.709-.385-17.978-15.63-27.7-43.751-27.715Q852.1 687.641 747.167 687.684zm-1.319 336.457q88.548 0 177.1-.007c15.873 0 31.774.4 47.611-.287 17.23-.752 30.036-12.834 30.251-27.251.214-14.332-12.382-26.366-29.558-27.981-4.421-.416-8.919-.238-13.382-.239q-67.713-.021-135.426-.009c-96.733 0-193.468-.218-290.2.338-9.7.056-20.961 2.878-28.671 7.845-10.658 6.867-13.559 18.129-8.1 29.652 6.1 12.883 17.646 18.01 33.1 17.984Q637.209 1024 745.848 1024.141zm2.83-195.9v.051c-73.916 0-147.832-.151-221.747.1-19.705.067-33.223 11.363-33.88 26.782-.639 15 12.729 27.147 31.894 28.826 3.443.3 6.939.165 10.41.165q211.33.01 422.661-.079a91.339 91.339 0 0020.538-2.056c13.852-3.248 23.2-15.5 22.179-27.73-1.086-12.995-12.668-23.988-27.356-25.544a156.3 156.3 0 00-16.344-.5Q852.855 828.219 748.678 828.243zM619.889 1164.06v.3c30.26 0 60.522.206 90.779-.068 22.288-.2 35.745-10.7 36.046-27.295.3-16.58-13.207-28.375-34.985-28.517-61.012-.4-122.035-.468-183.04.226a48.571 48.571 0 00-25.586 8.308c-9.795 6.936-12.946 17.511-7.924 28.625s13.97 18.239 27.991 18.346C555.407 1164.229 587.649 1164.06 619.889 1164.06zm.219-560.808c17.416-.018 31.22-11.809 31.6-26.988.384-15.485-14.178-28.572-31.722-28.51-16.783.059-31.361 12.577-31.79 27.3C587.75 590.266 602.466 603.27 620.107 603.252zm-94.943-.006c17.215-.081 31.237-12.15 31.544-27.15.313-15.265-14.655-28.5-32.036-28.339-16.767.16-31.315 12.783-31.643 27.455C492.691 590.388 507.524 603.329 525.165 603.245zm189.6.029c18.093.181 32.128-12.067 31.959-27.891-.161-15.154-13.946-27.381-31.138-27.619-17.379-.241-32.414 12.911-32.214 28.178C683.57 590.878 697.611 603.1 714.766 603.275zM1111.024 452.122c-.006 21.072-.249 42.148.1 63.214.164 9.82-2.977 17.505-12.134 21.27-9.128 3.753-16.815.491-23.7-6.415Q984.16 438.8 892.793 347.639c-6.563-6.56-11.081-13.785-7.294-23.482 3.972-10.169 12.481-12.853 22.3-12.862 39.949-.038 79.918-.778 119.841.245 49.223 1.262 83.456 37.561 83.4 86.586Q1111 425.124 1111.024 452.122z" transform="translate(-366.521 -311)" class="color5232c2 svgShape"></path></svg></g></svg>