<?xml version="1.0" encoding="utf-8"?>
<!-- Generator: Adobe Illustrator 16.0.0, SVG Export Plug-In . SVG Version: 6.00 Build 0)  -->
<!DOCTYPE svg PUBLIC "-//W3C//DTD SVG 1.0//EN" "http://www.w3.org/TR/2001/REC-SVG-20010904/DTD/svg10.dtd">
<svg version="1.0" id="Layer_1" xmlns="http://www.w3.org/2000/svg" xmlns:xlink="http://www.w3.org/1999/xlink" x="0px" y="0px"
	 width="200px" height="200px" viewBox="-210.5 0.25 200 200" enable-background="new -210.5 0.25 200 200" xml:space="preserve">
<path fill="#C63823" d="M-110.5,0.25c-55.229,0-100,44.771-100,100s44.771,100,100,100s100-44.771,100-100S-55.271,0.25-110.5,0.25z
	 M-110.5,186.347c-47.55,0-86.097-38.547-86.097-86.097s38.547-86.097,86.097-86.097S-24.403,52.7-24.403,100.25
	S-62.95,186.347-110.5,186.347z"/>
<g>
	<path fill="#C63823" d="M-184.801,136.706c7.086-6.798,14.207-13.558,21.246-20.402c9.012-8.762,19.791-12.752,32.302-12.184
		c0.756,0.033,1.552-0.016,2.259,0.204c12.178,3.778,24.715,2.583,37.153,2.744c5.163,0.068,9.046,2.975,10.147,7.435
		c1.555,6.305-2.629,12.17-9.178,12.428c-6.179,0.244-12.374,0.077-18.562,0.124c-1.126,0.008-2.491-0.184-3.319,0.363
		c-1.093,0.72-2.48,2.121-2.419,3.151c0.063,1.076,1.679,2.928,2.648,2.948c8.828,0.171,17.692,0.377,26.483-0.271
		c2.579-0.192,5.407-2.675,7.35-4.807c8.08-8.863,15.859-18.003,23.765-27.025c2.8-3.196,6.311-4.564,10.504-3.655
		c4.225,0.918,6.844,3.64,7.899,7.79c0.876,3.44-0.073,6.538-2.332,9.172c-10.605,12.367-21.185,24.753-31.915,37.011
		c-5.23,5.975-12.155,8.323-19.981,8.317c-13.894-0.012-27.789,0.148-41.675-0.092c-4.341-0.075-7.875,0.646-10.492,4.337
		c-1.09,1.537-2.451,2.883-3.9,4.56c-8.897-7.286-17.33-14.239-25.821-21.12c-3.997-3.241-8.104-6.347-12.163-9.513
		C-184.801,137.717-184.801,137.209-184.801,136.706z"/>
	<g>
		<path fill="#C63823" d="M-95.51,73.907c2.214-0.542,3.856-1.97,3.856-3.608c0-1.638-1.642-3.065-3.856-3.608V73.907L-95.51,73.907
			z"/>
		<path fill="#C63823" d="M-97.44,43.338c-11.688,0-21.196,9.508-21.196,21.196c0,11.69,9.508,21.201,21.196,21.201
			c11.692,0,21.202-9.511,21.202-21.201C-76.238,52.846-85.748,43.338-97.44,43.338z M-87.802,70.298
			c0,3.723-3.316,6.838-7.708,7.55v2.104c0,1.067-0.861,1.927-1.93,1.927c-1.06,0-1.923-0.86-1.923-1.927v-2.104
			c-4.393-0.711-7.713-3.827-7.713-7.55c0-1.067,0.864-1.929,1.93-1.929c1.067,0,1.929,0.862,1.929,1.929
			c0,1.638,1.639,3.067,3.854,3.608v-7.618c-4.393-0.717-7.712-3.832-7.712-7.554c0-3.722,3.32-6.836,7.712-7.552v-2.084
			c0-1.065,0.862-1.927,1.924-1.927c1.069,0,1.928,0.862,1.928,1.927v2.084c4.394,0.716,7.709,3.831,7.709,7.552
			c0,1.065-0.86,1.927-1.926,1.927c-1.067,0-1.926-0.862-1.926-1.927c0-1.639-1.642-3.065-3.857-3.608v7.617
			C-91.118,63.461-87.802,66.575-87.802,70.298L-87.802,70.298z"/>
		<path fill="#C63823" d="M-99.363,55.126c-2.214,0.542-3.853,1.969-3.853,3.608s1.639,3.067,3.853,3.608V55.126z"/>
		<path fill="#C63823" d="M-97.44,31.646c-18.06,0-32.887,14.826-32.887,32.888c0,18.064,14.827,32.889,32.887,32.889
			c18.067,0,32.893-14.825,32.893-32.889C-64.547,46.471-79.373,31.646-97.44,31.646z M-97.44,89.589
			c-13.813,0-25.053-11.239-25.053-25.056c0-13.812,11.24-25.05,25.053-25.05c13.816,0,25.055,11.238,25.055,25.05
			C-72.385,78.35-83.624,89.589-97.44,89.589z"/>
	</g>
</g>
</svg>
