<svg id="SvgjsSvg1160" width="288" height="288" xmlns="http://www.w3.org/2000/svg" version="1.1" xmlns:xlink="http://www.w3.org/1999/xlink" xmlns:svgjs="http://svgjs.com/svgjs"><defs id="SvgjsDefs1161"></defs><g id="SvgjsG1162"><svg xmlns="http://www.w3.org/2000/svg" width="288" height="288" enable-background="new 0 0 212 200" viewBox="0 0 212 200"><path fill="#ffffff" d="M7.236 153.268c9.418-9.035 18.884-18.021 28.24-27.119 11.98-11.647 26.307-16.951 42.938-16.197 1.005.046 2.062-.018 3.002.273 16.187 5.021 32.851 3.434 49.386 3.648 6.861.09 12.024 3.953 13.487 9.881 2.067 8.382-3.494 16.178-12.199 16.521-8.214.324-16.448.102-24.674.164-1.498.012-3.311-.244-4.412.481-1.452.959-3.298 2.821-3.217 4.19.085 1.432 2.234 3.894 3.521 3.918 11.736.228 23.518.503 35.203-.359 3.428-.253 7.186-3.554 9.771-6.388 10.74-11.783 21.082-23.929 31.59-35.923 3.721-4.248 8.388-6.067 13.963-4.858 5.615 1.22 9.097 4.836 10.5 10.353 1.163 4.573-.099 8.692-3.101 12.194-14.096 16.438-28.159 32.902-42.421 49.195-6.954 7.942-16.159 11.063-26.561 11.056-18.467-.015-36.938.196-55.397-.121-5.771-.099-10.467.856-13.947 5.764-1.448 2.043-3.257 3.832-5.182 6.06-11.827-9.685-23.037-18.927-34.323-28.074-5.313-4.308-10.773-8.435-16.167-12.644C7.236 154.611 7.236 153.938 7.236 153.268zM125.925 69.793c2.944-.721 5.126-2.619 5.126-4.796s-2.182-4.076-5.126-4.796V69.793z" class="colorC63823 svgShape"></path><path fill="#ffffff" d="M123.359,29.159c-15.535,0-28.174,12.638-28.174,28.174c0,15.54,12.639,28.182,28.174,28.182
		c15.541,0,28.183-12.642,28.183-28.182C151.542,41.797,138.9,29.159,123.359,29.159z M136.172,64.997
		c0,4.948-4.408,9.089-10.247,10.035v2.797c0,1.418-1.144,2.561-2.565,2.561c-1.41,0-2.557-1.143-2.557-2.561v-2.797
		c-5.839-0.945-10.252-5.087-10.252-10.035c0-1.418,1.147-2.565,2.565-2.565s2.564,1.147,2.564,2.565
		c0,2.177,2.178,4.076,5.122,4.796V59.666c-5.839-0.953-10.252-5.093-10.252-10.041c0-4.947,4.413-9.087,10.252-10.039v-2.77
		c0-1.416,1.146-2.561,2.557-2.561c1.422,0,2.565,1.145,2.565,2.561v2.77c5.839,0.951,10.247,5.091,10.247,10.039
		c0,1.416-1.143,2.561-2.561,2.561s-2.561-1.145-2.561-2.561c0-2.179-2.182-4.074-5.126-4.796v10.125
		C131.764,55.908,136.172,60.046,136.172,64.997L136.172,64.997z" class="colorC63823 svgShape"></path><path fill="#ffffff" d="M120.803,44.829c-2.944,0.721-5.122,2.617-5.122,4.796s2.178,4.076,5.122,4.796V44.829z" class="colorC63823 svgShape"></path><path fill="#ffffff" d="M123.359,13.617c-24.005,0-43.714,19.707-43.714,43.716c0,24.013,19.709,43.718,43.714,43.718
		c24.018,0,43.723-19.705,43.723-43.718C167.082,33.324,147.377,13.617,123.359,13.617z M123.359,90.638
		c-18.36,0-33.3-14.939-33.3-33.304c0-18.36,14.939-33.298,33.3-33.298c18.365,0,33.305,14.938,33.305,33.298
		C156.664,75.698,141.725,90.638,123.359,90.638z" class="colorC63823 svgShape"></path></svg></g></svg>