<?xml version="1.0" encoding="utf-8"?>
<!-- Generator: Adobe Illustrator 16.0.0, SVG Export Plug-In . SVG Version: 6.00 Build 0)  -->
<!DOCTYPE svg PUBLIC "-//W3C//DTD SVG 1.0//EN" "http://www.w3.org/TR/2001/REC-SVG-20010904/DTD/svg10.dtd">
<svg version="1.0" id="Layer_1" xmlns="http://www.w3.org/2000/svg" xmlns:xlink="http://www.w3.org/1999/xlink" x="0px" y="0px"
	 width="200px" height="200px" viewBox="-210.5 0.25 200 200" enable-background="new -210.5 0.25 200 200" xml:space="preserve">
<path fill="#C63823" d="M-110.5,0.25c-55.229,0-100,44.771-100,100s44.771,100,100,100s100-44.771,100-100S-55.271,0.25-110.5,0.25z
	 M-110.5,186.347c-47.55,0-86.097-38.547-86.097-86.097s38.547-86.097,86.097-86.097S-24.403,52.7-24.403,100.25
	S-62.95,186.347-110.5,186.347z"/>
<g>
	<path fill="#C63823" d="M-61.868,67.707c0,10.731,0.015,21.159-0.048,31.586c-0.003,0.442-0.638,1.088-1.124,1.289
		c-4.927,2.031-7.675,7.638-6.078,12.544c1.723,5.295,7.061,8.322,12.343,7.001c3.948-0.986,7.362-4.829,7.684-8.65
		c0.399-4.749-1.97-8.881-6.219-10.709c-0.894-0.385-1.463-0.708-1.457-1.87c0.049-10.486,0.051-20.974,0.003-31.46
		c-0.004-1.058,0.41-1.466,1.333-1.752c1.603-0.495,3.182-1.075,4.752-1.668c1.199-0.453,1.77-1.366,1.561-2.646
		c-0.229-1.393-1.379-1.764-2.519-2.16c-19.088-6.633-38.179-13.258-57.274-19.871c-1.058-0.363-2.449-0.314-3.525,0.035
		c-5.322,1.73-10.59,3.627-15.879,5.464c-13.906,4.833-27.813,9.664-41.722,14.49c-1.037,0.359-1.857,0.863-1.913,2.046
		c-0.056,1.208,0.583,2.001,1.702,2.421c0.419,0.158,0.834,0.327,1.256,0.473c19.034,6.621,38.072,13.229,57.115,19.823
		c0.878,0.285,1.822,0.29,2.702,0.015c10.169-3.479,20.311-7.038,30.462-10.569C-73.169,71.609-67.621,69.697-61.868,67.707z
		 M-74.667,77.733c-0.797,0.251-1.327,0.404-1.848,0.585c-10.152,3.518-20.314,7.01-30.448,10.578
		c-2.389,0.841-4.643,0.859-7.036,0.013c-9.181-3.246-18.391-6.405-27.592-9.592c-1.521-0.526-3.049-1.027-4.787-1.613v2.014
		c0,10.596,0.049,21.192-0.041,31.789c-0.018,2.127,0.787,3.259,2.671,4.098c8.369,3.716,17.074,6.052,26.207,6.806
		c14.137,1.165,27.689-1.033,40.604-6.97c1.593-0.732,2.314-1.827,2.304-3.674c-0.067-10.764-0.034-21.53-0.034-32.294
		C-74.667,78.974-74.667,78.475-74.667,77.733z M-66.954,123.582c0,11.557-0.019,22.822,0.017,34.088
		c0.008,2.099,1.626,3.627,3.805,3.696c2.297,0.072,4.596,0.042,6.894,0.026c3.242-0.019,4.664-1.473,4.667-4.763
		c0.005-10.427,0.005-20.855-0.002-31.282c0-0.521-0.059-1.042-0.102-1.747C-56.825,126.198-61.789,126.156-66.954,123.582
		L-66.954,123.582z"/>
	<path fill="#C63823" d="M-61.868,67.707c-5.753,1.991-11.302,3.902-16.846,5.832c-10.151,3.53-20.291,7.089-30.461,10.569
		c-0.88,0.275-1.824,0.27-2.702-0.015c-19.05-6.573-38.087-13.181-57.114-19.823c-0.423-0.146-0.837-0.315-1.257-0.473
		c-1.119-0.42-1.758-1.213-1.701-2.422c0.055-1.183,0.875-1.686,1.912-2.046c13.912-4.818,27.819-9.647,41.722-14.49
		c5.287-1.838,10.557-3.733,15.879-5.464c1.077-0.35,2.468-0.398,3.524-0.035c19.109,6.575,38.201,13.2,57.276,19.871
		c1.139,0.396,2.288,0.768,2.517,2.16c0.211,1.28-0.36,2.193-1.561,2.646c-1.57,0.594-3.148,1.173-4.752,1.668
		c-0.924,0.286-1.337,0.695-1.333,1.752c0.042,10.487,0.04,20.974-0.003,31.461c-0.007,1.16,0.563,1.483,1.457,1.869
		c4.249,1.827,6.617,5.96,6.218,10.709c-0.322,3.82-3.736,7.663-7.684,8.651c-5.282,1.32-10.619-1.708-12.343-7.002
		c-1.596-4.906,1.152-10.514,6.078-12.544c0.485-0.202,1.122-0.846,1.125-1.289C-61.853,88.865-61.868,78.438-61.868,67.707z"/>
	<path fill="#C63823" d="M-74.667,77.733c0,0.741,0,1.24,0,1.739c0,10.765-0.035,21.531,0.033,32.294
		c0.013,1.846-0.708,2.941-2.302,3.674c-12.917,5.937-26.467,8.135-40.604,6.971c-9.133-0.752-17.838-3.092-26.206-6.806
		c-1.885-0.839-2.689-1.971-2.672-4.098c0.09-10.597,0.041-21.194,0.041-31.79v-2.013c1.737,0.585,3.266,1.086,4.786,1.613
		c9.201,3.187,18.412,6.346,27.593,9.592c2.394,0.846,4.648,0.828,7.035-0.013c10.135-3.568,20.297-7.061,30.45-10.578
		C-75.994,78.138-75.465,77.984-74.667,77.733z"/>
	<path fill="#C63823" d="M-66.954,123.582c5.163,2.574,10.128,2.614,15.278,0.018c0.043,0.704,0.101,1.227,0.102,1.748
		c0.006,10.427,0.006,20.855,0.002,31.281c-0.002,3.291-1.424,4.744-4.667,4.764c-2.298,0.016-4.599,0.046-6.894-0.026
		c-2.179-0.069-3.797-1.598-3.805-3.696C-66.972,146.405-66.954,135.139-66.954,123.582z"/>
</g>
</svg>
