<svg id="SvgjsSvg1168" width="288" height="288" xmlns="http://www.w3.org/2000/svg" version="1.1" xmlns:xlink="http://www.w3.org/1999/xlink" xmlns:svgjs="http://svgjs.com/svgjs"><defs id="SvgjsDefs1169"></defs><g id="SvgjsG1170"><svg xmlns="http://www.w3.org/2000/svg" viewBox="0 0 1153.232 1153.531" width="288" height="288"><path fill="#ffffff" d="M903.218,1152.835c-2.736,1.628-5.82,3.307-8.745,5.229-13.629,8.954-27.424,17.679-40.744,27.075-9.17,6.468-16.736,5.437-24.4-2.253q-19.436-19.49-39.315-38.538c-8.086-7.725-8.169-15.636-2.091-24.459,8.964-13.012,17.446-26.367,26.739-39.135,4.96-6.815,4.516-12.345,2.612-20.7-5.454-23.925-20.344-32.837-43.007-33.706-6.552-.251-13.04-2.278-19.549-3.534-22.3-4.3-24.559-6.483-25.049-28.825-.347-15.785.163-31.6.793-47.389.417-10.446,5.641-16.776,16.773-18.137,10.1-1.235,20.009-4.76,30.1-5.248,20.609-1,33.051-9.446,38.84-30.47,2.755-10,3.093-16.606-3.03-24.75-9.17-12.2-17.178-25.266-25.884-37.822-6.167-8.9-5.4-16.785,2.273-24.369q20.131-19.894,39.992-40.06c7.431-7.586,14.8-7.342,23.129-1.468,13.748,9.692,28,18.681,41.564,28.615,6.128,4.487,10.92,3.509,17.947,1.784,23.031-5.654,33.081-19.8,34.192-42.766.485-10.02,4.255-19.838,5.749-29.865,1.754-11.769,9.441-16.93,19.894-17.44,17.291-.843,34.659-.812,51.97-.32,11.85.337,18.19,8.02,20.423,19.145,3.2,15.958,6.755,31.884,8.961,47.988,1.145,8.364,5.589,11.11,12.349,14.991,20.579,11.814,36.454,8.346,55.8-5.735,41.12-29.937,30.751-31.615,68.209,6.032,30.853,31.009,34.693,22.579,5.586,65.53-.856,1.263-1.481,2.809-2.61,3.743-21.942,18.139-11.007,37.559-2.488,57.046,2.331,5.331,6.985,5.376,11.325,6.225,16.011,3.132,32,6.475,48.112,8.959,10.6,1.634,16.655,6.69,17.534,17.543a369.9,369.9,0,0,1,.3,56.531c-.842,11.683-7,18.1-19.147,19.717-14.131,1.887-28,5.8-42.134,7.6-10.3,1.313-14.483,6.567-19.6,15.495-11.11,19.37-6.274,33.5,5.729,50.493,30.536,43.22,30.816,33.678-6.524,71.257-34.1,34.318-25.15,27.464-61.19,6.339-1.756-1.03-3.741-1.957-5.038-3.44-18.283-20.9-38.118-13.789-58.487-3.789-5.606,2.752-6.519,7.036-7.456,12.183-2.827,15.516-6.307,30.922-8.814,46.486-2.122,13.176-9.7,20.169-22.486,20.576-16.292.518-32.636.251-48.93-.389-11.935-.469-20.089-6.151-22.067-18.982-1.549-10.046-5.62-20.046-5.32-29.968.81-26.8-17.8-34.458-37.811-41.477C906.761,1153.882,905.3,1153.48,903.218,1152.835Zm96.052-66.373c61.1-.137,111.137-49.7,111.662-110.614.534-61.919-50.7-112.887-113.021-112.427-60.952.45-110.531,50.286-110.906,111.483C886.63,1036.12,937.43,1086.6,999.27,1086.462Z" transform="translate(-423.117 -397.211)" class="color5232c2 svgShape"></path><path fill="#ffffff" d="M992.746,472c0,19.375-1.287,38.862.391,58.091,1.444,16.544-6.065,19.846-20.036,20.148-37.928.82-74.764,8.495-110.427,21.041-126.7,44.571-214.411,129.912-263.058,254.865-5.471,14.053-10.219,15.42-23.547,10.769-36.889-12.873-74.285-24.359-111.759-35.456-12.077-3.576-14.691-8.046-10-20.136Q571.962,478.335,888.989,407.671a443.67,443.67,0,0,1,93.822-10.457c9.5-.061,11.9,2.311,11.389,12.1-1.094,20.845-.334,41.786-.334,62.688Z" transform="translate(-423.117 -397.211)" class="color30bcc5 svgShape"></path><path fill="#ffffff" d="M423.525 976.416c-2.31-51.668 6.158-100.981 17.965-149.954 3.26-13.524 7.15-19.767 23.431-13.965 37.283 13.285 75.378 24.314 113.248 35.915 7.727 2.367 9.871 5.5 7.72 13.863-11.21 43.566-13.874 87.971-12.724 132.854 1.372 53.574 14.03 104.248 35.637 153.028 25.554 57.691 63.193 106.444 109.506 148.767 7.826 7.151 16.848 12.991 25.3 19.462 6.1 4.673 7.629 8.891 2.315 16.331q-36.719 51.407-72.009 103.828c-8.918 13.239-15.69 3.546-22.119-1.218-54.376-40.292-99.635-89.124-136.265-146.079-44.011-68.433-72.008-142.942-86.125-222.9A412.06 412.06 0 01423.525 976.416zM1001.918 516.018c5.81-33.051 2.823-67.737 2.619-102.266-.085-14.376 5.085-17.568 17.747-16.279 45.857 4.671 91.52 10.18 135.992 23.108 72.587 21.1 139.483 53.969 198.159 101.4 57.662 46.611 106.748 101.268 143.364 166.6 14.982 26.73 27.058 54.612 39.435 82.479 5.323 11.986 4.7 18.656-10.006 22.973-36.512 10.716-72.731 22.562-108.6 35.269-14.524 5.145-20.63 1.316-25.674-12.561-19.571-53.845-51.909-99.6-91.474-140.608-60.137-62.329-134.041-99.449-217.467-119.152-17.781-4.2-35.736-6.735-54.2-6.582-24.22.2-29.427-5.7-29.887-29.972C1001.9 519.4 1001.918 518.385 1001.918 516.018zM1576.348 975.211c-.545 76.088-15.866 149.005-43.891 219.588-35.431 89.234-94.3 161.023-164.443 224.609-18.388 16.67-20.382 15.693-35.291-4.977q-31.614-43.832-63.967-87.126c-7.574-10.084-7.227-15.672 3.442-24.76 40.113-34.17 73.99-73.8 99.858-120.226 23.512-42.2 40.2-86.841 47.731-134.227 6.7-42.166 6.626-84.895 2.285-127.633-1.912-18.819-4.653-37.406-10.455-55.132-4.655-14.22-.193-21.088 12.562-25.291q44.192-14.561 88.379-29.135c7.723-2.529 15.8-4.118 23.284-7.2 9.346-3.844 14.289-1.338 16.883 8.3 12.683 47.148 22.529 94.709 21.554 143.876C1574.146 962.629 1575.417 969.009 1576.348 975.211zM1021.742 1550.731c-85.493.382-157.154-8.933-225.638-35.776a641.886 641.886 0 01-108.965-54.713c-8.915-5.633-10.032-9.246-3.145-18.669 23.966-32.793 46.791-66.446 69.206-100.33 6.418-9.7 11.236-10.08 20.678-4.171 56.905 35.616 118.848 55.207 185.907 61.991 86.925 8.794 167.387-9.8 243.921-49.544 10.778-5.6 20.8-12.725 30.863-19.6 9.683-6.619 17.842-6.244 25 3.574 23.311 31.982 46.455 64.09 70.138 95.795 7.126 9.539 6.326 15.14-3.99 21.881-68.868 45-143.1 76.344-224.2 91.451C1070.968 1548.308 1040.038 1548.349 1021.742 1550.731z" transform="translate(-423.117 -397.211)" class="colorf2f2f2 svgShape"></path><path fill="#ffffff" d="M1044.711,975.92a45.588,45.588,0,0,1-46.239,44.719c-25.656-.357-45.647-20.391-45.4-45.5a45.822,45.822,0,1,1,91.64.778Z" transform="translate(-423.117 -397.211)" class="color5232c2 svgShape"></path></svg></g></svg>