<?xml version="1.0" encoding="utf-8"?>
<!-- Generator: Adobe Illustrator 16.0.0, SVG Export Plug-In . SVG Version: 6.00 Build 0)  -->
<!DOCTYPE svg PUBLIC "-//W3C//DTD SVG 1.0//EN" "http://www.w3.org/TR/2001/REC-SVG-20010904/DTD/svg10.dtd">
<svg version="1.0" id="Layer_1" xmlns="http://www.w3.org/2000/svg" xmlns:xlink="http://www.w3.org/1999/xlink" x="0px" y="0px"
	 width="200px" height="200px" viewBox="-210.5 0.25 200 200" enable-background="new -210.5 0.25 200 200" xml:space="preserve">
<path fill="#C63823" d="M-110.5,0.25c-55.229,0-100,44.771-100,100s44.771,100,100,100s100-44.771,100-100S-55.271,0.25-110.5,0.25z
	 M-110.5,186.347c-47.55,0-86.097-38.547-86.097-86.097s38.547-86.097,86.097-86.097S-24.403,52.7-24.403,100.25
	S-62.95,186.347-110.5,186.347z"/>
<path fill="#C63823" d="M-127.861,114.826h-2.508c-4.893,0-9.788-0.062-14.681,0.02c-2.83,0.049-5.196-0.686-6.575-3.305
	c-1.373-2.609-0.657-4.998,0.909-7.332c17.341-25.86,34.667-51.731,51.98-77.61c2.089-3.118,5.026-4.085,8.229-2.792
	c2.647,1.068,3.961,3.911,3.55,7.283c-2.177,17.878-4.329,35.76-6.457,53.645c-0.027,0.225,0.075,0.467,0.16,0.946
	c5.193,0,10.398-0.007,15.604,0.005c1.222,0.003,2.457-0.03,3.664,0.129c4.06,0.54,6.48,4.92,4.798,8.653
	c-0.332,0.736-0.81,1.412-1.262,2.087c-17.214,25.652-34.425,51.305-51.632,76.961c-1.512,2.258-3.333,3.828-6.144,3.73
	c-3.753-0.133-6.386-3.039-5.99-6.848c0.799-7.701,1.765-15.385,2.69-23.07c1.208-10.035,2.446-20.064,3.651-30.098
	C-127.788,116.527-127.861,115.805-127.861,114.826z"/>
</svg>
