<svg id="SvgjsSvg1042" width="288" height="288" xmlns="http://www.w3.org/2000/svg" version="1.1" xmlns:xlink="http://www.w3.org/1999/xlink" xmlns:svgjs="http://svgjs.com/svgjs"><defs id="SvgjsDefs1043"></defs><g id="SvgjsG1044"><svg xmlns="http://www.w3.org/2000/svg" viewBox="0 0 1170.991 1270.577" width="288" height="288"><path fill="#c63823" d="M473.177 882.452q0-224.442.042-448.884c.032-45.083 26.2-79.793 68.805-91.518a78.422 78.422 0 0120.534-2.9c51.893-.008 103.877-1.489 155.651 1.11 48.087 2.414 82.8 42.258 83.581 90.873.388 24.114.079 48.24.079 72.36q0 409.637.144 819.275c.021 25.2-5.7 48.147-18.091 70.166-35.451 62.984-70.192 126.367-105.141 189.633-10.241 18.539-25.1 28.738-46.919 26.4-15.945-1.706-27.081-10.729-34.642-24.352q-55.886-100.683-111.577-201.474c-9.742-17.629-12.608-36.706-12.58-56.71Q473.374 1104.442 473.177 882.452zm253.4 431.531c-33.787 1.94-66.268 4.469-98.8 5.436-21.32.633-21.357-.379-21.357-22.437q0-412.051-.009-824.1c0-4.9.176-9.833-.241-14.707-1.066-12.45-9.526-22.053-21.673-25.036-20.791-5.107-36.347 9.809-36.329 35.527q.3 430.447.918 860.894c.01 6.338.784 13.456 3.687 18.88q24.557 45.889 50.68 90.926c2.22 3.825 8.445 7.132 13.031 7.439a314.507 314.507 0 0042.873-.017c4.538-.317 10.593-3.89 12.857-7.776 15.82-27.163 30.256-55.14 46.328-82.146C727.081 1342.529 728.138 1327.91 726.58 1313.983zM1288.039 924.3q149.548 0 299.1.023c28.636.016 46.81 11.8 54.355 34.87a48.791 48.791 0 01-38.448 63.511 112.7 112.7 0 01-18.253 1.563q-297.257.119-594.514-.068c-8.475-.007-17.3-.814-25.354-3.244-21.183-6.389-34.244-27.079-32.984-50.3a47.876 47.876 0 0138.778-44.522 112.717 112.717 0 0120.681-1.756Q1139.717 924.208 1288.039 924.3zM1288.153 1122.976q149.548 0 299.1-.045c22.505-.024 41.135 6.88 51.517 28.247 14.922 30.709-3.288 65.06-37.047 70.4a102.038 102.038 0 01-15.819 1.37q-297.87.1-595.74-.078a88.133 88.133 0 01-25.337-3.311c-21.234-6.481-34.186-27.091-32.879-50.355a47.861 47.861 0 0138.882-44.43 112.186 112.186 0 0120.683-1.723Q1139.831 1122.889 1288.153 1122.976zM1289.226 527.035q147.71 0 295.419.126c8.492.017 17.3.688 25.408 2.987 21.474 6.088 35.252 27.745 33.663 51.127a48.465 48.465 0 01-39.436 44.053 103.237 103.237 0 01-18.24 1.689q-298.484.128-596.969.049c-35.306-.008-57.759-20.205-57.244-51.131.472-28.354 21.967-48.329 53.4-48.8 27.779-.419 55.569-.1 83.354-.1Q1178.9 527.033 1289.226 527.035zM1287.975 725.707q149.537 0 299.074-.028c22.42-.015 41.184 6.769 51.637 28.109 15.034 30.691-2.882 64.909-36.751 70.584a111.235 111.235 0 01-18.269 1.341q-296.01.1-592.019-.1c-9.263-.009-18.959-.855-27.7-3.658-21.232-6.809-33.624-27.621-31.851-50.911a48.015 48.015 0 0139.791-43.62 123.233 123.233 0 0120.692-1.652Q1140.277 725.623 1287.975 725.707zM1138.717 1321.663c51.077 0 102.155-.159 153.231.064 29.284.128 48.658 15.7 53.48 42.15 4.679 25.664-13.465 51.749-39.236 56.031a120.147 120.147 0 01-19.473 1.686q-147.715.156-295.429-.07c-8.875-.02-18.122-.8-26.543-3.375-21.3-6.5-34.139-27.09-32.8-50.386a47.912 47.912 0 0138.977-44.368 105.508 105.508 0 0119.465-1.661C1039.832 1321.6 1089.274 1321.661 1138.717 1321.663z" transform="translate(-473.063 -338.72)" class="color5232c2 svgShape"></path></svg></g></svg>