<svg xmlns="http://www.w3.org/2000/svg" viewBox="0 0 975.994 972.641">
  <g>
    <path d="M1321.722,1037.733q0-199.717,0-399.434c0-21.35-.829-22.142-22.488-22.2-5.59-.016-11.369.883-16.717-.256s-12.008-3.109-14.719-7.04c-1.569-2.276,2.37-10.264,5.791-13.765,27.343-27.987,55.155-55.517,82.823-83.186,33.719-33.72,33.721-33.722,66.973-.464,27.308,27.312,54.8,54.449,81.716,82.137,4.081,4.2,5.517,10.968,8.176,16.548-5.748,2.008-11.493,5.736-17.245,5.748-41.08.085-36.357-.766-36.364,36.283q-.072,390.287-.026,780.573c0,26.259-.005,26.263-27.014,26.266q-43.45.006-86.9,0c-23.985-.016-24-.032-24-23.291Q1321.718,1236.688,1321.722,1037.733Z" transform="translate(-537.279 -486.498)" fill="#fff"/>
    <path d="M1197.264,1090.469q0,173.8-.01,347.6c0,20.226-.542,20.808-20.2,20.85-33.032.072-66.07-.364-99.092.2-13.354.229-18.881-3.7-18.858-18.2q.555-349.883.043-699.767c-.018-13.706,4.14-19.191,18.3-18.9,33.526.687,67.076.168,100.616.24,18.421.04,19.192.872,19.2,20.386Q1197.29,916.671,1197.264,1090.469Z" transform="translate(-537.279 -486.498)" fill="#fff"/>
    <path d="M936.807,1166.554q0,134.1,0,268.2c0,24.157-.018,24.172-24.838,24.182-32,.013-64.01-.414-96,.2-13.205.251-17.866-4.677-17.847-17.805q.383-274.293-.029-548.587c-.023-14.073,5.178-18.6,18.9-18.3,33.51.711,67.059.808,100.563-.033,14.719-.37,19.557,4.811,19.483,19.384C936.579,984.706,936.807,1075.63,936.807,1166.554Z" transform="translate(-537.279 -486.498)" fill="#fff"/>
    <path d="M537.543,1280.306c0-52.836.386-105.678-.259-158.506-.172-14.064,4.6-18.784,18.508-18.5,34.532.712,69.093.519,103.634.083,11.76-.148,16.124,4.152,16.091,16.079q-.444,160.794.013,321.59c.041,13.232-4.979,18.172-17.947,18.015q-51.813-.629-103.637.022c-12.65.176-16.717-4.838-16.608-17.229C537.815,1388.014,537.543,1334.159,537.543,1280.306Z" transform="translate(-537.279 -486.498)" fill="#fff"/>
  </g>
</svg>
