<svg version="1.1" id="Layer_1" xmlns="http://www.w3.org/2000/svg" xmlns:xlink="http://www.w3.org/1999/xlink" x="0px" y="0px"
	 width="179px" height="200px" viewBox="0 0 179 200" enable-background="new 0 0 179 200" xml:space="preserve">
<g>
	<path fill="#C63823" d="M62.799,101.154c0-14.578,11.817-26.392,26.391-26.392c14.576,0,26.389,11.814,26.389,26.392
		c0,14.572-11.813,26.392-26.389,26.392C74.617,127.546,62.799,115.727,62.799,101.154z"/>
	<g>
		<path fill="#C63823" d="M89.19,184.568c-45.997,0-83.416-37.42-83.416-83.414c0-45.995,37.419-83.414,83.416-83.414
			c45.994,0,83.417,37.419,83.417,83.414C172.607,147.148,135.184,184.568,89.19,184.568z M89.19,52.063
			c-27.072,0-49.091,22.022-49.091,49.091s22.02,49.091,49.091,49.091s49.089-22.021,49.089-49.091S116.262,52.063,89.19,52.063z"/>
	</g>
</g>
</svg>
