<svg id="SvgjsSvg1056" width="288" height="288" xmlns="http://www.w3.org/2000/svg" version="1.1" xmlns:xlink="http://www.w3.org/1999/xlink" xmlns:svgjs="http://svgjs.com/svgjs"><defs id="SvgjsDefs1057"></defs><g id="SvgjsG1058"><svg xmlns="http://www.w3.org/2000/svg" viewBox="0 0 1140.443 1140.767" width="288" height="288"><path fill="#c63823" d="M1541.853,1542.541h-16.142c-182.317,0-364.635-.47-546.95.112-252.265.8-451.019-152.126-533.367-351.656C320.957,889.486,470.586,546.866,778.166,436.371c330.727-118.81,682.088,80.711,752.735,424.859a538.514,538.514,0,0,1,10.484,104.779c1,187.135.47,374.278.468,561.418C1541.853,1531.739,1541.853,1536.049,1541.853,1542.541ZM513.536,896.089h294c0-38.582.111-76.128-.046-113.674-.08-19.033,9.3-31.936,25.543-40.324C853.5,731.523,877.765,735.76,897,753.052q100.605,90.446,201.118,181c29.223,26.328,29.149,50.389-.152,76.784q-58.052,52.293-116.167,104.517-43.563,39.193-87.146,78.365c-17.57,15.7-37.906,18.611-59.193,9.874-21.353-8.764-29.038-25.994-28.194-48.783,1-26.973.226-54.012.222-81.023q0-12.7,0-25.354H513.36c26.027,194.056,205.9,392.23,461.544,389.537,261.334-2.753,465.063-211.422,462.895-470.858-2.129-254.838-210.346-461.05-466.159-460.613C713.575,506.934,537.7,707.888,513.536,896.089Z" transform="translate(-401.552 -401.889)" class="color5232c2 svgShape"></path></svg></g></svg>