<?xml version="1.0" encoding="utf-8"?>
<!-- Generator: Adobe Illustrator 16.0.0, SVG Export Plug-In . SVG Version: 6.00 Build 0)  -->
<!DOCTYPE svg PUBLIC "-//W3C//DTD SVG 1.0//EN" "http://www.w3.org/TR/2001/REC-SVG-20010904/DTD/svg10.dtd">
<svg version="1.0" id="Layer_1" xmlns="http://www.w3.org/2000/svg" xmlns:xlink="http://www.w3.org/1999/xlink" x="0px" y="0px"
	 width="200px" height="200px" viewBox="-210.5 0.25 200 200" enable-background="new -210.5 0.25 200 200" xml:space="preserve">
<path fill="#C63823" d="M-110.5,0.25c-55.229,0-100,44.771-100,100s44.771,100,100,100s100-44.771,100-100S-55.271,0.25-110.5,0.25z
	 M-110.5,186.347c-47.55,0-86.097-38.547-86.097-86.097s38.547-86.097,86.097-86.097S-24.403,52.7-24.403,100.25
	S-62.95,186.347-110.5,186.347z"/>
<g>
	<path fill-rule="evenodd" clip-rule="evenodd" fill="#C63823" d="M-171.041,152.174c-0.661-6.862,1.034-15.946,11.387-21.179
		c-2.562-3.785-3.334-7.905-1.982-12.3c0.928-3.018,2.776-5.413,5.388-7.197c5.264-3.595,12.252-3.045,17.019,1.312
		c4.13,3.775,6.503,11.036,1.764,18.217c3.111,1.489,5.784,3.539,7.924,6.463c2.146-2.837,4.743-4.97,7.876-6.394
		c-3.959-7.955-3.063-14.438,2.543-18.931c5.036-4.035,12.077-4.041,17.164-0.014c5.614,4.444,6.51,10.888,2.63,18.797
		c1.421,0.928,2.892,1.781,4.241,2.798c1.353,1.019,2.584,2.2,3.665,3.133c0.977-0.872,2.184-2.081,3.525-3.115
		c1.339-1.029,2.813-1.883,4.232-2.816c-3.905-7.721-3.039-14.244,2.503-18.713c5.131-4.137,12.204-4.138,17.35-0.002
		c5.555,4.466,6.419,10.97,2.458,18.809c8.688,4.356,12.1,11.6,11.442,21.133C-90.292,152.174-130.632,152.174-171.041,152.174z"/>
	<path fill-rule="evenodd" clip-rule="evenodd" fill="#C63823" d="M-77.138,72.89c0,4.945,0,9.813,0,14.798
		c-4.327,0-8.634,0-13.056,0c0,9.814,0,19.512,0,29.21c-3.697-9.21-10.19-14.785-20.27-14.814
		c-10.124-0.03-16.646,5.517-20.315,15.108c0-9.969,0-19.645,0-29.429c-4.412,0-8.679,0-13.033,0c0-5.005,0-9.9,0-14.874
		C-121.594,72.89-99.396,72.89-77.138,72.89z"/>
	<path fill-rule="evenodd" clip-rule="evenodd" fill="#C63823" d="M-132.61,65.589c1.58-6.197,5.236-10.551,11.004-13.336
		c-2.58-3.911-3.417-8.084-1.943-12.557c0.975-2.958,2.809-5.305,5.393-7.046c5.062-3.41,11.856-3.039,16.47,0.921
		c2.728,2.341,4.376,5.302,4.771,8.893c0.388,3.516-0.459,6.75-2.584,9.743c3.886,1.843,6.979,4.438,8.988,8.138
		c0.876,1.614,1.499,3.365,2.319,5.244C-103.19,65.589-117.842,65.589-132.61,65.589z"/>
</g>
</svg>
