<?xml version="1.0" encoding="utf-8"?>
<!-- Generator: Adobe Illustrator 16.0.0, SVG Export Plug-In . SVG Version: 6.00 Build 0)  -->
<!DOCTYPE svg PUBLIC "-//W3C//DTD SVG 1.0//EN" "http://www.w3.org/TR/2001/REC-SVG-20010904/DTD/svg10.dtd">
<svg version="1.0" id="Layer_1" xmlns="http://www.w3.org/2000/svg" xmlns:xlink="http://www.w3.org/1999/xlink" x="0px" y="0px"
	 width="200px" height="200px" viewBox="-210.5 0.25 200 200" enable-background="new -210.5 0.25 200 200" xml:space="preserve">
<path fill="#C63823" d="M-110.5,0.25c-55.229,0-100,44.771-100,100s44.771,100,100,100s100-44.771,100-100S-55.271,0.25-110.5,0.25z
	 M-110.5,186.347c-47.55,0-86.097-38.547-86.097-86.097s38.547-86.097,86.097-86.097S-24.403,52.7-24.403,100.25
	S-62.95,186.347-110.5,186.347z"/>
<g>
	<path fill="#C63823" d="M-111.109,163.25h-50.786V39.693h50.786V163.25z M-141.783,59.954h-10.538v9.907h10.538V59.954z
		 M-131.282,152.491h10.559v-9.918h-10.559V152.491z M-152.292,142.663v9.949h10.477v-9.949H-152.292z M-131.259,121.985
		c-3.232,0-6.212-0.056-9.188,0.053c-0.502,0.018-1.384,0.72-1.403,1.138c-0.123,2.885-0.065,5.778-0.065,8.792h10.657V121.985z
		 M-131.012,111.008h10.533v-9.795h-10.533V111.008z M-142.091,111.178v-10.001h-10.607c0,3.003-0.058,5.896,0.064,8.78
		c0.018,0.425,0.879,1.148,1.372,1.165C-148.287,111.232-145.304,111.176-142.091,111.178L-142.091,111.178z M-142.048,90.679
		h10.541v-9.788h-10.541V90.679z M-121.67,59.917h-10.479v9.784h10.479V59.917z"/>
	<path fill="#C63823" d="M-107.395,163.027V90.832h10.252V70.96h10.5V34.169h2.918v17.674l3.91,0.316V70.9h10.338v19.815h10.371
		v72.313L-107.395,163.027L-107.395,163.027z M-79.514,101.354v9.928h10.5v-9.928H-79.514z M-69.442,152.875v-9.921h-10.454v9.921
		H-69.442z M-86.504,152.871v-9.908h-10.507v9.908H-86.504z M-96.845,111.237h10.55v-9.841h-10.55V111.237z M-86.251,121.842
		h-10.542v9.681h10.542V121.842z M-69.389,121.804h-10.521v9.751h10.521V121.804z"/>
</g>
</svg>
