<?xml version="1.0" encoding="utf-8"?>
<!-- Generator: Adobe Illustrator 16.0.0, SVG Export Plug-In . SVG Version: 6.00 Build 0)  -->
<!DOCTYPE svg PUBLIC "-//W3C//DTD SVG 1.1//EN" "http://www.w3.org/Graphics/SVG/1.1/DTD/svg11.dtd">
<svg version="1.1" id="e25bf204-4211-4f7e-8636-af6dfbff5836"
	 xmlns="http://www.w3.org/2000/svg" xmlns:xlink="http://www.w3.org/1999/xlink" x="0px" y="0px" width="213.652px" height="200px"
	 viewBox="643.17 0 213.652 200" enable-background="new 643.17 0 213.652 200" xml:space="preserve">
<title>Untitled-2</title>
<g>
	<path fill="#C63823" d="M745.232,200c-7.532-1.173-14.769-2.328-22.018-3.4c-1.259-0.186-1.738-0.658-1.768-1.94
		c-0.118-5.146-0.288-10.292-0.545-15.433c-0.032-0.653-0.544-1.666-1.07-1.854c-7.487-2.69-14.458-6.363-21.077-10.886
		l-15.27,10.234l-16.992-17.054c2.954-4.388,5.93-8.952,9.078-13.397c0.979-1.383,0.975-2.295,0.027-3.693
		c-3.941-5.819-7.202-12.016-9.517-18.669c-0.396-1.136-0.958-1.601-2.184-1.636c-5.589-0.166-11.176-0.424-17.005-0.657
		l-3.724-23.678l38.313-6.517c0.004,20.899,7.399,38.476,22.688,52.509c11.593,10.641,25.433,16.426,41.083,17.496
		c33.727,2.311,62.639-19.767,70.933-50.677c8.819-32.87-8.521-70.401-43.791-82.418l6.775-19.608
		c0.839,0.279,1.558,0.495,2.26,0.755c6.58,2.429,12.834,5.664,18.618,9.63c0.968,0.665,1.598,0.635,2.535-0.013
		c4.6-3.181,9.251-6.286,13.711-9.301l17.074,17.083c-2.951,4.4-6.031,9.063-9.2,13.666c-0.717,1.041-0.797,1.748-0.038,2.848
		c4.107,5.95,7.454,12.316,9.85,19.145c0.428,1.219,1.045,1.537,2.219,1.565c5.081,0.12,10.16,0.339,15.241,0.466
		c1.093,0.027,1.759,0.2,1.949,1.493c1.088,7.374,2.259,14.735,3.433,22.288c-0.989,0.389-1.979,0.801-2.985,1.17
		c-4.343,1.591-8.682,3.191-13.042,4.732c-0.959,0.339-1.444,0.757-1.475,1.876c-0.206,7.493-1.442,14.827-3.416,22.056
		c-0.151,0.557,0.328,1.567,0.833,1.978c3.745,3.04,7.571,5.979,11.369,8.956c0.649,0.51,1.282,1.041,2.007,1.629
		c-3.514,6.916-6.948,13.738-10.485,20.506c-0.201,0.384-1.305,0.594-1.868,0.441c-4.962-1.334-9.906-2.734-14.832-4.201
		c-1.063-0.315-1.704-0.271-2.438,0.701c-4.368,5.787-9.597,10.742-15.263,15.229c-1.101,0.872-1.269,1.616-0.88,2.91
		c1.588,5.283,3.053,10.604,4.614,16.088l-21.361,10.943c-3.423-4.357-6.825-8.547-10.049-12.873
		c-1.063-1.428-1.988-1.663-3.67-1.176c-6.545,1.928-13.317,2.979-20.139,3.131c-1.583,0.026-2.321,0.625-2.845,2.129
		C749.114,189.715,747.158,194.801,745.232,200z"/>
	<path fill="#C63823" d="M712.505,55.775l1.618-1.225c3.028,2.741,6.062,5.486,9.099,8.236c6.523,5.917,13.041,11.841,19.554,17.771
		c0.925,0.848,1.686,1.15,3.024,0.793c4.138-1.103,7.958-0.266,10.979,2.88c3.27,3.404,4.181,7.446,2.454,11.911
		c-0.392,1.009-0.273,1.616,0.52,2.314c1.587,1.399,3.094,2.891,4.739,4.443l-4.196,4.084l-4.879-5.643
		c-4.09,2.174-7.904,2.684-11.777,0.66c-5.557-2.902-7.688-9.493-4.73-14.998c0.689-1.286,0.503-1.961-0.406-2.943
		c-8.17-8.819-16.312-17.664-24.426-26.535C713.644,57.057,713.224,56.577,712.505,55.775z"/>
	<path fill="#C63823" d="M683.911,58.705c0.026,3.955-3.052,6.049-5.856,4.506c-5.854-3.222-11.637-6.574-17.401-9.952
		c-2.104-1.233-2.437-3.134-1.172-5.304c1.175-2.018,3.057-2.695,5.071-1.567c5.889,3.292,11.753,6.63,17.549,10.081
		C683.025,57.018,683.55,58.24,683.911,58.705z"/>
	<path fill="#C63823" d="M707.213,36.768c-0.48-0.382-1.742-0.951-2.335-1.925c-3.436-5.645-6.739-11.37-10.031-17.101
		c-1.269-2.207-0.655-4.077,1.583-5.349c2.061-1.17,4.011-0.695,5.25,1.399c3.335,5.631,6.642,11.28,9.917,16.946
		C713.254,33.621,711.296,36.806,707.213,36.768z"/>
	<path fill="#C63823" d="M742.091,13.531c0-3.21-0.021-6.42,0.007-9.629c0.021-2.58,1.373-3.894,3.932-3.902
		c2.542-0.008,3.896,1.312,3.928,3.9c0.076,6.419,0.138,12.838,0.183,19.257c0.019,2.769-1.488,4.305-4.067,4.247
		c-2.512-0.056-3.854-1.515-3.867-4.245c-0.016-3.209-0.004-6.42-0.004-9.629L742.091,13.531z"/>
</g>
</svg>
