<svg id="SvgjsSvg1052" width="288" height="288" xmlns="http://www.w3.org/2000/svg" version="1.1" xmlns:xlink="http://www.w3.org/1999/xlink" xmlns:svgjs="http://svgjs.com/svgjs"><defs id="SvgjsDefs1053"></defs><g id="SvgjsG1054"><svg xmlns="http://www.w3.org/2000/svg" viewBox="0 0 1103.917 1103.669" width="288" height="288"><path fill="#ffffff" d="M1618.51,890.276c0,101.674.437,203.351-.114,305.023-.645,118.867-87.9,219.894-205.977,241.259-17.949,3.248-36.533,4.136-54.826,4.163-194.158.286-388.317.029-582.476.244-87.941.1-159.567-32.9-212.7-103.609-30.946-41.183-47.119-88.056-47.231-139.462q-.672-308.469-.007-616.941C515.6,453,619.912,347.165,752.626,338.077c8.015-.549,16.071-.721,24.107-.723q290.376-.058,580.753.01c83.4.054,153.418,29.639,206.678,95.228,35.686,43.946,53.852,94.478,54.107,150.937.461,102.247.131,204.5.131,306.747ZM576.141,888.567q0,149.066.126,298.131c.031,13.15.366,26.579,2.945,39.4,18.8,93.43,93.56,153.6,194.553,154.032q292.956,1.265,585.921.011c95.442-.384,170.286-54.986,190.892-140.856,7.226-30.113,6.279-62.562,6.369-93.951q.791-276.588.222-553.18c-.075-109.432-79.447-192.187-188.919-192.9q-301.565-1.959-603.15,0c-109.451.713-188.777,83.488-188.929,192.909Q575.965,740.363,576.141,888.567Z" transform="translate(-514.757 -337.295)" class="color5232c2 svgShape"></path><path fill="#ffffff" d="M885.105 1354.3a145.741 145.741 0 01-145.769-147.177c.5-79.817 66.958-145.4 146.71-144.787 81.139.628 146.518 66.709 145.881 147.448C1031.295 1289.915 965.667 1354.512 885.105 1354.3zM892.649 1034.823c-76.132 6.445-147.094-55.724-153.031-134.068C733.6 821.36 793.1 750.7 871.6 744.025c82.367-7 153.272 51.805 159.824 133.937C1037.969 960.054 974.789 1031.951 892.649 1034.823zM1258.335 714.311c-81.081-.29-146.851-66.489-146.112-147.069.735-80.256 66.167-144.741 146.724-144.6 81.568.141 146.077 65.178 145.736 146.927C1404.348 649.755 1338.786 714.6 1258.335 714.311zM1404.684 1209.99c.089 81.106-66.146 147.311-146.6 146.538-80.36-.772-145.673-66.122-145.865-145.948-.194-80.589 66.135-146.591 147-146.277A145.613 145.613 0 011404.684 1209.99zM739.33 565.8c.28-79.861 66.047-145.316 146.156-145.464 80.554-.149 146.793 66.349 146.442 147.013-.348 79.909-66.085 145.219-146.267 145.315C804.743 712.761 739.045 646.823 739.33 565.8zM1404.684 891.031A145.444 145.444 0 011259.561 1037c-81.1.441-147.313-65.1-147.341-145.856-.028-80.5 67.263-147.328 147.222-146.208C1340.492 746.067 1404.653 810.606 1404.684 891.031z" transform="translate(-514.757 -337.295)" class="color5232c2 svgShape"></path></svg></g></svg>