<svg id="SvgjsSvg1021" width="288" height="288" xmlns="http://www.w3.org/2000/svg" version="1.1" xmlns:xlink="http://www.w3.org/1999/xlink" xmlns:svgjs="http://svgjs.com/svgjs"><defs id="SvgjsDefs1022"></defs><g id="SvgjsG1023"><svg xmlns="http://www.w3.org/2000/svg" viewBox="0 0 38.99 38.96" width="288" height="288"><path fill="#ededed" d="M5.84 24.33L1.09 25.88a19.48 19.48 0 0018 13.1V34A14.51 14.51 0 015.84 24.33zM38.09 25.38v0zM34 19.5a14.44 14.44 0 01-.6 4.12l4.76 1.55A19.45 19.45 0 0031.25 4L28.31 8A14.47 14.47 0 0134 19.5zM.91 25.38v0zM19.88 34v5a19.48 19.48 0 0018-13.1l-4.76-1.55A14.51 14.51 0 0119.88 34zM5 19.5A14.47 14.47 0 0110.69 8L7.75 4A19.45 19.45 0 00.84 25.17L5.6 23.62A14.43 14.43 0 015 19.5z" transform="translate(0 -.04)" class="colorededed svgShape"></path><path fill="#f4a89c" d="M19.5,5a14.41,14.41,0,0,1,8.21,2.56l2.94-4a19.44,19.44,0,0,0-22.3,0l2.94,4A14.41,14.41,0,0,1,19.5,5Z" transform="translate(0 -.04)" class="color30bcc5 svgShape"></path><path fill="#ededed" d="M19.88 39zM19.13 39h0zM37.93 25.88l.16-.5c0 .17-.12.33-.18.5zM38.16 25.17h0v0zM31.27 3.94l-.61-.44h0c.21.14.4.3.6.45zM8.34 3.5l-.61.44V4l.6-.45zM.84 25.17v0zM1.07 25.88h0a4.83 4.83 0 00-.16-.5z" transform="translate(0 -.04)" class="colorededed svgShape"></path><path fill="#fefefe" d="M19,14.13a6.2,6.2,0,0,1,1,1.3,6.75,6.75,0,0,1-2,9.09.37.37,0,0,0-.18.36v3.24a1.69,1.69,0,0,0,.08.54c.47,1.32,1,2.61,1.59,3.9a.44.44,0,0,0,.45.33.47.47,0,0,0,.39-.39l1.35-3.77a2.24,2.24,0,0,0,.11-.76V7.87a.87.87,0,0,0-.75-1H18.87a.82.82,0,0,0-1,1c0,1.73,0,3.46,0,5.18a.37.37,0,0,0,.2.35A5,5,0,0,1,19,14.13ZM31.25,21.7a.83.83,0,0,0,.2-.65v-4a.72.72,0,0,0-.85-.85H22.7c-.3,0-.39.06-.38.38q0,2.5,0,5c0,.29.08.34.34.34,2.19,0,4.39,0,6.58,0a12.69,12.69,0,0,0,1.59,0,.65.65,0,0,0,.45-.16Z" transform="translate(0 -.04)" class="colorfefefe svgShape"></path><path fill="#f4a89c" d="M18 13.33c0-1.73 0-3.45 0-5.18a.82.82 0 011-1c.66 0 1.34 0 2 0a.87.87 0 011 1V28.31a2.24 2.24 0 01-.11.76L20.49 32.8a.47.47 0 01-.39.39.44.44 0 01-.45-.33c-.57-1.29-1.14-2.55-1.59-3.9a1.69 1.69 0 01-.08-.54V25.23C18 25.09 18 13.48 18 13.33zm3.11-2.77v-.13c0-.74 0-1.45 0-2.21C21.1 8 21 8 20.89 8h-1.8c-.18 0-.26 0-.25.25q0 1 0 2.06c0 .2 0 .28.27.27h1.77A.17.17 0 0021.09 10.56zM20 31.57h.11l.83-2.35c.06-.18 0-.22-.19-.19H19.17c-.16 0-.24 0-.19.19zM31.37 22.06a.65.65 0 01-.43.18 12.69 12.69 0 01-1.59 0H22.77c-.27 0-.35 0-.34-.34q0-2.5 0-5c0-.32.09-.37.38-.38h7.91a.72.72 0 01.85.85v4A.83.83 0 0131.37 22.06zm-5.4-4a.46.46 0 00-.51-.1.49.49 0 00-.3.51V20.7c0 .73 0 .72.71.71.21 0 .28 0 .27-.27 0-.88 0-1.75 0-2.62a.55.55 0 00-.16-.45zm1.48 1.2a.47.47 0 00-.78.34v1.1c0 .71 0 .71.71.71.19 0 .25-.06.25-.25 0-.49 0-1 0-1.41a.54.54 0 00-.16-.51zm-3.82 0a.56.56 0 00-.17.45v1c0 .77 0 .77.71.71h0c.13 0 .17-.06.17-.17 0-.54 0-1.08 0-1.62a.46.46 0 00-.33-.41.42.42 0 00-.35.06zm5.39 0a.47.47 0 00-.51-.1.45.45 0 00-.29.43l0 1.07c0 .76 0 .76.71.71.18 0 .23-.06.23-.23 0-.49 0-1 0-1.45a.57.57 0 00-.08-.45zm1.41 0a.43.43 0 00-.47-.13.45.45 0 00-.34.44c0 .37 0 .74 0 1.11 0 .71 0 .69.71.71.18 0 .26 0 .25-.25 0-.49 0-1 0-1.41a.48.48 0 00-.13-.47zM17 22.06a.65.65 0 01-.43.18 12.69 12.69 0 01-1.59 0H8.37c-.27 0-.35 0-.34-.34q0-2.5 0-5c0-.32.09-.37.38-.38h7.91a.72.72 0 01.85.85v4A.83.83 0 0117 22.06zm-5.4-4a.46.46 0 00-.51-.1.49.49 0 00-.3.51V20.7c0 .73 0 .72.71.71.21 0 .28 0 .27-.27 0-.88 0-1.75 0-2.62a.55.55 0 00-.16-.45zm1.48 1.2a.47.47 0 00-.78.34v1.1c0 .71 0 .71.71.71.19 0 .25-.06.25-.25 0-.49 0-1 0-1.41a.54.54 0 00-.16-.51zm-3.82 0a.56.56 0 00-.17.45v1c0 .77 0 .77.71.71h0c.13 0 .17-.06.17-.17 0-.54 0-1.08 0-1.62a.46.46 0 00-.33-.41.42.42 0 00-.35.06zm5.39 0a.47.47 0 00-.51-.1.45.45 0 00-.29.43l0 1.07c0 .76 0 .76.71.71.18 0 .23-.06.23-.23 0-.49 0-1 0-1.45a.57.57 0 00-.08-.45zm1.41 0a.43.43 0 00-.47-.13.45.45 0 00-.34.44c0 .37 0 .74 0 1.11 0 .71 0 .69.71.71.18 0 .26 0 .25-.25 0-.49 0-1 0-1.41a.48.48 0 00-.13-.47z" transform="translate(0 -.04)" class="color5232c2 svgShape"></path><path fill="#f9f9f9" d="M28.48,27.78l-2.32-1c-.17-.07-.15-.16,0-.27l1.09-1.11c.11-.12.19-.13.27,0,.35.75.72,1.5,1.08,2.25Z" transform="translate(0 -.04)" class="colorf9f9f9 svgShape"></path></svg></g></svg>