<svg id="SvgjsSvg1097" width="288" height="288" xmlns="http://www.w3.org/2000/svg" version="1.1" xmlns:xlink="http://www.w3.org/1999/xlink" xmlns:svgjs="http://svgjs.com/svgjs"><defs id="SvgjsDefs1098"></defs><g id="SvgjsG1099"><svg xmlns="http://www.w3.org/2000/svg" viewBox="0 0 38.99 38.96" width="288" height="288"><path fill="#ededed" d="M5.84 24.33L1.09 25.88a19.48 19.48 0 0018 13.1V34A14.51 14.51 0 015.84 24.33zM38.09 25.38v0z" transform="translate(0 -.04)" class="colorededed svgShape"></path><path fill="#c63823" d="M34,19.5a14.44,14.44,0,0,1-.6,4.12l4.76,1.55A19.45,19.45,0,0,0,31.25,4L28.31,8A14.47,14.47,0,0,1,34,19.5Z" transform="translate(0 -.04)" class="color30bcc5 svgShape"></path><path fill="#ededed" d="M.91,25.38v0Z" transform="translate(0 -.04)" class="colorededed svgShape"></path><path fill="#c63823" d="M19.88,34v5a19.48,19.48,0,0,0,18-13.1l-4.76-1.55A14.51,14.51,0,0,1,19.88,34Z" transform="translate(0 -.04)" class="color30bcc5 svgShape"></path><path fill="#ededed" d="M5,19.5A14.47,14.47,0,0,1,10.69,8L7.75,4A19.45,19.45,0,0,0,.84,25.17L5.6,23.62A14.43,14.43,0,0,1,5,19.5Z" transform="translate(0 -.04)" class="colorededed svgShape"></path><path fill="#c63823" d="M19.5,5a14.41,14.41,0,0,1,8.21,2.56l2.94-4a19.44,19.44,0,0,0-22.3,0l2.94,4A14.41,14.41,0,0,1,19.5,5Z" transform="translate(0 -.04)" class="color30bcc5 svgShape"></path><path fill="#ededed" d="M19.88 39zM19.13 39h0zM37.93 25.88l.16-.5c0 .17-.12.33-.18.5zM38.16 25.17h0v0zM31.27 3.94l-.61-.44h0c.21.14.4.3.6.45zM8.34 3.5l-.61.44V4l.6-.45zM.84 25.17v0zM1.07 25.88h0a4.83 4.83 0 00-.16-.5z" transform="translate(0 -.04)" class="colorededed svgShape"></path><path fill="#c63823" d="M15.08,19.89c.09,0,.14-.06.2-.1a3.31,3.31,0,0,1,1.79-.51h8.46A3.34,3.34,0,0,1,25.65,26c-2.9,0-5.81,0-8.71,0a3.14,3.14,0,0,1-2.38-1.12c-.14-.15-.19-.19-.35,0A3.22,3.22,0,0,1,11.69,26H9.09c-.65,0-.93-.46-.62-1C9,24,9.5,23.09,10,22.17l3.65-6.36c.3-.52.49-.62.85-.54s.45.27.49.85c.06,1.15,0,2.3,0,3.46A.65.65,0,0,0,15.08,19.89Zm2,.74a2,2,0,1,0,2,2A2,2,0,0,0,17.06,20.62Zm8.47,0a2,2,0,1,0,2,2A2,2,0,0,0,25.52,20.62Z" transform="translate(0 -.04)" class="color5232c2 svgShape"></path><path fill="#c63823" d="M27.51,18.37a5.68,5.68,0,0,0-2.56-.45h-8.2c-.39,0-.39,0-.33-.4a2.63,2.63,0,0,1,1.1-1.77.44.44,0,0,0,.21-.42,7.57,7.57,0,0,1,0-.8.65.65,0,0,1,.65-.62.64.64,0,0,1,.65.62c0,.11,0,.23,0,.34,0,.38,0,.37.39.37.17,0,.23-.06.27-.22.36-1.46.73-2.92,1.09-4.38.16-.64.28-.75.94-.75h4a1.93,1.93,0,0,1,1.8,1.72c0,2.22,0,4.44,0,6.66A.56.56,0,0,1,27.51,18.37Zm-4.79-3.13h1.45a.64.64,0,0,0,.69-.7q0-1.31,0-2.62a.65.65,0,0,0-.7-.69H22.24c-.16,0-.23.05-.27.21q-.43,1.8-.89,3.6c0,.17,0,.22.17.22Z" transform="translate(0 -.04)" class="color5232c2 svgShape"></path></svg></g></svg>