<svg xmlns="http://www.w3.org/2000/svg" viewBox="0 0 1107.115 1179.713">
  <g>
    <path d="M1540.338,1523.425v103.16H445.485v-103.16Z" transform="translate(-433.222 -446.872)" fill="#f2f2f2"/>
    <path d="M1531.407,624.953H434.221l-.461-2.661c5.2-2.079,10.344-4.479,15.624-6.191q258.148-83.709,516.393-166.936a48.116,48.116,0,0,1,28.479-.266q264.2,84.681,528.157,170.568C1523.985,619.977,1525.4,621.251,1531.407,624.953Z" transform="translate(-433.222 -446.872)" fill="#f2f2f2"/>
    <path d="M1528.366,642.377v88.535H433.222V642.377Z" transform="translate(-433.222 -446.872)" fill="#f2f2f2"/>
    <path d="M927.158,1413.172V748.6h118.578v664.573Z" transform="translate(-433.222 -446.872)" fill="#f2f2f2"/>
    <path d="M542.122,746.91c37.255,0,73.512-.295,109.752.525,3.108.07,6.7,7.09,8.934,11.746,1.286,2.683.318,7.1.318,10.74q.006,311.053,0,622.105c0,6.5,0,13.009,0,21.2H542.122Z" transform="translate(-433.222 -446.872)" fill="#f2f2f2"/>
    <path d="M1120.584,748H1238.31v665.194H1120.584Z" transform="translate(-433.222 -446.872)" fill="#f2f2f2"/>
    <path d="M1419.195,1413.871H1301.424V748.651h117.771Z" transform="translate(-433.222 -446.872)" fill="#f2f2f2"/>
    <path d="M734.47,746.952c33.843,0,66.606-.265,99.354.471,2.811.063,6.4,6.245,8.021,10.544,1.35,3.577.376,8.566.376,12.93q.008,309.886,0,619.771v22.8H734.47Z" transform="translate(-433.222 -446.872)" fill="#f2f2f2"/>
    <path d="M1504.344,1432.306v57.2H480.126v-57.2Z" transform="translate(-433.222 -446.872)" fill="#f2f2f2"/>
  </g>
</svg>
