<?xml version="1.0" encoding="utf-8"?>
<!-- Generator: Adobe Illustrator 16.0.0, SVG Export Plug-In . SVG Version: 6.00 Build 0)  -->
<!DOCTYPE svg PUBLIC "-//W3C//DTD SVG 1.1//EN" "http://www.w3.org/Graphics/SVG/1.1/DTD/svg11.dtd">
<svg version="1.1" id="Layer_1" xmlns="http://www.w3.org/2000/svg" xmlns:xlink="http://www.w3.org/1999/xlink" x="0px" y="0px"
	 width="187.691px" height="200px" viewBox="656.154 0 187.691 200" enable-background="new 656.154 0 187.691 200"
	 xml:space="preserve">
<g>
	<path fill="#C63823" d="M843.846,182.512V200H658.232v-17.488H843.846z"/>
	<path fill="#C63823" d="M842.332,30.19H656.323l-0.078-0.451c0.882-0.352,1.754-0.759,2.647-1.049
		c29.178-9.461,58.358-18.895,87.547-28.301c1.566-0.502,3.251-0.518,4.827-0.045c29.86,9.571,59.707,19.21,89.54,28.917
		C841.074,29.347,841.314,29.563,842.332,30.19z"/>
	<path fill="#C63823" d="M841.816,33.145v15.01H656.154v-15.01H841.816z"/>
	<path fill="#C63823" d="M739.893,163.818V51.153h20.104V163.82h-20.104V163.818z"/>
	<path fill="#C63823" d="M674.616,50.866c6.314,0,12.462-0.05,18.605,0.088c0.527,0.012,1.137,1.202,1.516,1.991
		c0.218,0.455,0.054,1.204,0.054,1.821c0.001,35.156,0.001,70.312,0,105.468c0,1.102,0,2.205,0,3.594h-20.175V50.866L674.616,50.866
		z"/>
	<path fill="#C63823" d="M772.684,51.051h19.959v112.772h-19.959V51.051z"/>
	<path fill="#C63823" d="M823.309,163.938h-19.966V51.161h19.966V163.938z"/>
	<path fill="#C63823" d="M707.225,50.874c5.737,0,11.293-0.044,16.846,0.08c0.477,0.011,1.084,1.059,1.358,1.788
		c0.229,0.606,0.063,1.452,0.063,2.192c0.001,35.023,0.002,70.046,0.001,105.071v3.864h-18.27L707.225,50.874L707.225,50.874z"/>
	<path fill="#C63823" d="M837.744,167.063v9.698H664.105v-9.698H837.744z"/>
</g>
</svg>
