<svg id="8e3c2eb4-ae94-4eb3-9fff-d575dbdfe350" data-name="Layer 1" xmlns="http://www.w3.org/2000/svg" viewBox="0 0 1735 1491.643"><title>Untitled-3</title><path d="M1501.032,195.618c235.925.689,427.246,192.474,426.968,428-.278,235.824-191.949,427.113-427.771,426.916-236.708-.2-427.373-192.351-426.7-430.034C1074.187,386.544,1266.978,194.935,1501.032,195.618Zm.693,473.033c51.364,0,102.728.143,154.091-.049,36.062-.135,58.194-18.439,58.317-47.641.119-28.207-21.261-46.843-56.427-46.98q-156.389-.61-312.78.137c-10.387.046-21.642,2.089-30.95,6.479-19.481,9.188-28.649,31.77-23.524,52.379,5.223,21,23.135,35.169,47.985,35.431C1392.86,668.982,1447.295,668.585,1501.725,668.651Z" transform="translate(-193 -195.508)" fill="#f2f2f2"/><path d="M1047.207,1259.1c-.069,236.121-191.1,427.065-427.2,427.012C384,1686.057,192.967,1494.89,193,1258.8c.033-236.146,191.154-425.774,428.455-425.108C857.76,834.353,1047.276,1023.717,1047.207,1259.1Zm-475.883-47.56c-23.08,0-43.566-.047-64.052.013-23,.067-46.077-.976-68.962.673-25.731,1.855-45.068,23.34-44.93,46.891.134,22.852,18.107,42.878,42.972,46.034,13.6,1.727,27.506,1.382,41.277,1.467,30.4.189,60.812.059,93.6.059,0,11.415-.007,19.659,0,27.9.036,34.5-.5,69.01.328,103.489.513,21.41,12.469,35.676,32.728,42.421,19.645,6.54,37.635,1.651,49.242-14.567,7-9.785,10.971-23.675,11.388-35.888,1.377-40.353.519-80.782.519-123.358,13.732,0,24.365.086,35-.016,32.941-.317,65.974.679,98.794-1.5a46.528,46.528,0,0,0,44-47.232c-.585-23.732-20.061-43.925-46.063-45.914-16.772-1.283-33.711-.435-50.576-.46-26.472-.04-52.944-.011-81.144-.011,0-42.421.212-81.4-.158-120.381-.086-9.041-.516-18.68-3.633-26.974-8.013-21.318-28.974-32.015-51.95-28.25-21.722,3.559-37.812,21.377-38.185,44.981C570.84,1123.624,571.324,1166.352,571.324,1211.539Z" transform="translate(-193 -195.508)" fill="#f2f2f2"/><path d="M761.975,555.7V757.586c-95.264-24.628-188.272-25.013-284.3.331V555.706c-28.013,0-53.079-.138-78.142.041-21.916.156-41.465-4.3-51.823-26.361-10.8-23.014-1.015-41.04,13.942-58.393q107.351-124.543,214.2-249.516c29.395-34.241,56.613-34.646,85.727-1.069q108.47,125.1,216.838,250.289c15.1,17.351,24.6,35.518,14.217,58.437-10.063,22.2-29.682,26.759-51.637,26.607C815.837,555.568,790.667,555.7,761.975,555.7Z" transform="translate(-193 -195.508)" fill="#f2f2f2"/><path d="M1642.753,1124.28v202.362c28.672,0,55.263.5,81.826-.155,22.015-.542,39.177,6.656,48.853,27.2,9.427,20.018,2.816,37.276-10.585,52.9q-112.343,131-224.876,261.834c-21.875,25.276-51.281,24.886-73.55-.689q-114.081-131.015-227.36-262.728c-12.549-14.513-17.2-30.79-9.547-48.983,8.083-19.216,24.207-27.306,43.97-27.761,28.15-.647,56.325-.165,86.972-.165V1124.211C1454.146,1149.4,1547.331,1149.309,1642.753,1124.28Z" transform="translate(-193 -195.508)" fill="#f2f2f2"/></svg>
