<svg xmlns="http://www.w3.org/2000/svg" viewBox="0 0 1158.576 831.259">
  <g>
    <path d="M701,553.907c-4.312,45.19,7.72,85.108,42.909,118.615,31.617,30.1,71.475,46.24,118.244,46.987,56.358.9,112.862,1.35,169.121-1.1,72.652-3.169,134.121-52.057,147.451-113.724,3.476-16.083,3.2-32.768,4.785-50.774h11.517q122.856,0,245.712.012c63.563.037,103.935,34.963,103.938,89.845q.016,306.726-.023,613.453c-.012,42.042-29.38,74.754-75.812,84-9.228,1.838-19.054,2-28.6,2.005-316.334.1-632.67-.389-949,.474-63.775.174-105.4-41.07-105.12-90.627,1.129-203.04.465-406.087.475-609.131,0-55,40.274-89.969,103.736-90.019q99.037-.079,198.074-.012Zm23.037,623.22c44.7,0,89.4.268,134.094-.085,35.43-.28,56.2-20,54.833-50.376-.9-20.066-10.043-37.071-28.67-48.184-20.417-12.181-42.985-21.707-64.746-32.189-10.531-5.073-22-8.871-31.922-14.677-21.98-12.868-25.755-29.981-11.736-49.514a65.069,65.069,0,0,1,12.468-13.433c29.487-23.046,38.867-52.089,34.3-85.081-11.622-83.869-108.6-96.359-160.54-64.266-32.024,19.788-49.291,65.162-38.833,102.083,5.667,20.008,19.147,35.326,35.3,49.931,28.905,26.145,22.554,52.672-15.137,67.959-20.359,8.257-41.671,15.166-60.771,25.2-14.638,7.691-28.579,17.921-39.073,29.54-15.118,16.738-16.7,36.4-5.009,55.887,11.547,19.245,30.052,27.609,55.12,27.341C637.141,1176.8,680.591,1177.134,724.036,1177.126ZM1230.9,865.367q-90.818,0-181.637.011a115.83,115.83,0,0,0-12.506.3c-15.543,1.7-22.732,8.618-23.035,22.258-.224,10.069-.046,20.144-.047,30.217,0,24.945,6.471,30.657,34.99,30.661q182.263.025,364.526-.022a101.46,101.46,0,0,0,13.705-.706c14.157-1.944,20.51-8.005,20.852-20.239.321-11.5.089-23.021.083-34.533-.013-22.026-6.861-27.922-32.789-27.939Q1322.967,865.322,1230.9,865.367ZM1206.3,1115.031q79.554,0,159.107-.048a123.158,123.158,0,0,0,16.172-1.117c11.055-1.488,17.272-7.835,17.737-16.889a471.029,471.029,0,0,0,0-47.468c-.427-8.585-6.324-14.786-16.749-16.508a92.215,92.215,0,0,0-14.869-1.307q-160.987-.109-321.973-.047a85.686,85.686,0,0,0-8.757.23c-15.516,1.6-22.94,8.554-23.245,22.112-.243,10.789-.055,21.586-.052,32.379.007,22.544,7.029,28.621,33.524,28.648Q1126.748,1115.1,1206.3,1115.031Z" transform="translate(-386.116 -512.438)" fill="#fff"/>
    <path d="M943.053,512.637c24.644-.016,49.3-.495,73.927.093,40.124.958,68.845,26.667,69.137,61.047.3,34.9-27.269,61.65-67.2,62.435q-77.64,1.527-155.348-.033c-39.808-.815-67.131-27.81-66.524-62.881.59-34.131,28.841-59.557,68.319-60.525C891.244,512.138,917.157,512.653,943.053,512.637Z" transform="translate(-386.116 -512.438)" fill="#fff"/>
  </g>
</svg>