<svg id="SvgjsSvg1058" width="288" height="288" xmlns="http://www.w3.org/2000/svg" version="1.1" xmlns:xlink="http://www.w3.org/1999/xlink" xmlns:svgjs="http://svgjs.com/svgjs"><defs id="SvgjsDefs1059"></defs><g id="SvgjsG1060"><svg xmlns="http://www.w3.org/2000/svg" viewBox="0 0 1093.139 1215.107" width="288" height="288"><path fill="#ffffff" d="M454.628 733.834h1090.82c.282 5.964.769 11.476.77 16.987q.055 347.3-.017 694.594c-.044 79.174-43.93 139.331-115.079 157.191-13.2 3.313-27.223 4-40.868 4.014-260.079.225-520.16-.394-780.236.486-85.353.288-140.674-58.914-153.058-125.781A190.433 190.433 0 01454.026 1447q-.255-348.868-.112-697.737C453.914 744.623 454.332 739.984 454.628 733.834zM953.774 974.391V830.032H818.562V974.391zm227.937-144.442H1046.3V974.06h135.411zm-.171 630.162V1316.485H1046.429v143.626zm-363.226-.012H953.82V1316.5H818.315zm363.364-388.063c-43.366 0-85.885-.214-128.391.5-2.7.045-7.426 7.228-7.575 11.244-.773 20.895-.37 41.839-.373 62.767 0 23.4 0 46.792 0 70.381h136.339zM818.291 1216.888h135.65V1073.3H818.291zm590.9-387.167H1274.539V974.248h134.647zM726.192 974.408V830.01H591.42v144.4zm.133 98.83H591.5v143.95H726.325zM1274.3 1217.066h134.733V1072.889H1274.3zM726.146 1460.255v-143.7H591.736v143.7zm548.295-144.2v143.8h134.625v-143.8zM1204.465 438.887c1.635-19.911-4.283-43.3 22.434-46.651 15.387-1.932 20.047 7.5 25.078 47.767 21.731 0 43.714-.152 65.694.044 20.594.183 41.214.127 61.774 1.229 88.378 4.737 165.8 90.878 166.663 185.059a58.057 58.057 0 01-.865 6.947H453.133c2.287-16.262 3.151-32.259 6.9-47.443 21.951-88.876 91.713-144.647 181.771-145.753 35.245-.433 70.5-.071 106.847-.071 2.7-19.662-4.738-47.388 23.68-47.336 27.785.051 21.227 26.657 22.967 46.21zm-456.5 59.456c-17.594 11.11-25.129 31.36-19.294 51.852 6.24 21.915 24.567 36.356 45.061 35.507 20.894-.865 39.268-16.849 43.541-37.878 4.206-20.7-4.533-41.215-21.05-49.422-4.415 30.853-9.369 38.806-24.12 38.722C757.867 537.042 753.326 529.745 747.963 498.343zm503.3-1.6c-1.831 29.761-6.389 38.858-20.8 39.9-25.97 1.872-24.488-20.267-26.933-38.738-18.961 15.6-24.995 35.777-17.641 55.91 7.343 20.1 25.289 32.954 44.5 31.867 20.84-1.18 38.788-17.077 43.155-38.225C1277.661 527.516 1269.43 508.083 1251.263 496.739z" transform="translate(-453.133 -392)" class="color5232c2 svgShape"></path></svg></g></svg>