<?xml version="1.0" encoding="utf-8"?>
<!-- Generator: Adobe Illustrator 16.0.0, SVG Export Plug-In . SVG Version: 6.00 Build 0)  -->
<!DOCTYPE svg PUBLIC "-//W3C//DTD SVG 1.1//EN" "http://www.w3.org/Graphics/SVG/1.1/DTD/svg11.dtd">
<svg version="1.1" id="Layer_1" xmlns="http://www.w3.org/2000/svg" xmlns:xlink="http://www.w3.org/1999/xlink" x="0px" y="0px"
	 width="179.92px" height="200px" viewBox="660.038 0 179.92 200" enable-background="new 660.038 0 179.92 200"
	 xml:space="preserve">
<g>
	<path fill="#C63823" d="M660.284,56.264h179.543c0.046,0.981,0.126,1.889,0.126,2.796c0.007,38.109,0.006,76.217-0.002,114.327
		c-0.008,13.031-7.231,22.934-18.941,25.873c-2.173,0.545-4.48,0.658-6.727,0.66c-42.81,0.037-85.616-0.064-128.423,0.08
		c-14.05,0.047-23.154-9.697-25.192-20.703c-0.332-1.865-0.493-3.756-0.483-5.648c-0.027-38.281-0.033-76.563-0.019-114.844
		C660.166,58.04,660.235,57.276,660.284,56.264z M742.44,95.858v-23.76h-22.256v23.761L742.44,95.858L742.44,95.858z
		 M779.958,72.084H757.67v23.72h22.288V72.084z M779.93,175.805v-23.64h-22.237v23.64H779.93z M720.145,175.803h22.305v-23.635
		h-22.305V175.803z M779.952,111.93c-7.138,0-14.136-0.035-21.132,0.084c-0.445,0.006-1.224,1.188-1.247,1.851
		c-0.128,3.438-0.063,6.887-0.063,10.331c0,3.852,0,7.701,0,11.584h22.44L779.952,111.93L779.952,111.93z M720.141,135.771h22.327
		v-23.633h-22.327V135.771z M817.399,72.046h-22.163v23.789h22.162L817.399,72.046z M704.981,95.861V72.094h-22.184v23.767H704.981z
		 M705.004,112.128h-22.19v23.692h22.19V112.128z M795.197,135.801h22.177v-23.73h-22.177V135.801z M704.975,175.829v-23.652
		h-22.124v23.652H704.975L704.975,175.829z M795.221,152.094v23.67h22.158v-23.67H795.221z"/>
	<path fill="#C63823" d="M783.703,7.717c0.269-3.277-0.705-7.127,3.691-7.678c2.532-0.318,3.301,1.234,4.129,7.862
		c3.575,0,7.193-0.025,10.812,0.007c3.39,0.03,6.783,0.021,10.168,0.202c14.546,0.78,27.289,14.958,27.433,30.46
		c-0.024,0.384-0.072,0.766-0.144,1.144H660.038c0.376-2.677,0.519-5.31,1.136-7.809c3.612-14.628,15.095-23.808,29.918-23.99
		c5.801-0.071,11.604-0.012,17.587-0.012c0.444-3.236-0.779-7.8,3.897-7.791c4.573,0.008,3.494,4.388,3.78,7.606L783.703,7.717z
		 M708.565,17.503c-2.896,1.829-4.137,5.162-3.177,8.535c1.027,3.607,4.044,5.984,7.417,5.844c3.439-0.143,6.463-2.773,7.166-6.234
		c0.692-3.407-0.746-6.784-3.464-8.135c-0.728,5.078-1.542,6.387-3.971,6.374C710.195,23.873,709.447,22.672,708.565,17.503
		L708.565,17.503z M791.406,17.24c-0.303,4.898-1.053,6.396-3.424,6.567c-4.274,0.308-4.031-3.336-4.435-6.376
		c-3.12,2.567-4.113,5.889-2.903,9.202c1.209,3.309,4.163,5.424,7.324,5.245c3.432-0.194,6.385-2.811,7.104-6.292
		C795.75,22.305,794.396,19.106,791.406,17.24L791.406,17.24z"/>
</g>
</svg>
