<svg id="SvgjsSvg1069" width="288" height="288" xmlns="http://www.w3.org/2000/svg" version="1.1" xmlns:xlink="http://www.w3.org/1999/xlink" xmlns:svgjs="http://svgjs.com/svgjs"><defs id="SvgjsDefs1070"></defs><g id="SvgjsG1071"><svg xmlns="http://www.w3.org/2000/svg" viewBox="0 0 1417.884 1419.783" width="288" height="288"><path fill="#ffffff" d="M986.86,1314.77c-74.02-.673-163.172,1.034-252.3-2.778-17.294-.74-23.561-5.955-23.476-23.791q.914-191.785.051-383.575c-.063-15.507,4.766-19.94,20.106-19.9q270.968.681,541.938-.052c17.213-.05,22.184,5.677,22.113,22.413-.542,126.686-.277,253.375-.333,380.063-.01,23.252-4.451,27.616-27.291,27.619C1179.106,1314.775,1090.542,1314.77,986.86,1314.77Zm-20.834-223.636c.507-4.121,3.775-4.785,6.113-6.307,20.6-13.409,31.008-32.2,27.056-56.72-3.975-24.667-22.374-35.961-44.408-42.256-20.058-5.73-40.482-4.982-61.067-2.8-42.193,4.463-45.29,8.476-38.206,49.735,1.756,10.229,5.171,13.34,15.073,8.525a88.539,88.539,0,0,1,46.052-8.507c8.247.614,15.5,2.667,17.319,11.664,1.876,9.256-3.26,15.689-10.945,20.033-8.375,4.734-18.041,4.571-27.167,6.4-4.037.807-8.885.459-8.89,6.167-.01,13.992-2.663,29.064,1.746,41.59,2.829,8.035,17.846,4.806,27.477,6.329a57.852,57.852,0,0,1,11.736,3.409c9.355,3.631,16.055,9.425,16.193,20.531.147,11.852-6.643,18.028-16.905,21.7-14.348,5.134-28.65,3.548-43.167.524-33.682-7.017-33.483-6.817-38.43,27.847-1.347,9.436-.231,15.51,10.307,18.385,36.674,10,72.994,11.152,108.157-4.922,25.327-11.578,40.149-31.525,42.35-60.035,2.142-27.735-11.939-45.36-35.083-57.607A50.587,50.587,0,0,1,966.026,1091.134Zm185.277,11.487c0-34.037-.452-68.083.24-102.106.249-12.258-3.673-16.238-16.011-16.387-25.06-.3-43.263,16.357-65.048,23.882-19.729,6.815-26.614,17.36-21.929,39.1,5.292,24.562,3.522,25.728,26.462,16.818,11-4.272,14.31-2.818,14.365,9.235.16,35.2,1.471,70.39,1.742,105.589.335,43.562.077,43.143,43.346,42.889,12.692-.074,17.513-3.364,17.14-16.918C1150.673,1170.712,1151.3,1136.658,1151.3,1102.621Z" transform="translate(-294.697 -269)" class="color30bcc5 svgShape"></path><path fill="#ffffff" d="M1008.576,365.912c0-27.572-.1-55.144.053-82.715.051-9.444,3.166-14.859,14.711-14.133,77.952,4.9,154.467,17.128,227.537,45.645q299.557,116.91,417.592,416.321c6.174,15.667,5.381,22.8-13.161,28.155-47.127,13.606-93.64,29.454-139.97,45.634-13.435,4.692-17.72,1.09-22.749-11.191-68.849-168.1-190.956-276.057-366.852-322.447-34.071-8.986-69.072-12.935-104.175-14.291-13.239-.511-15.2-5.749-14.878-17.043.7-24.627.215-49.287.215-73.934Z" transform="translate(-294.697 -269)" class="color5232c2 svgShape"></path><path fill="#ffffff" d="M495.317 843.061c-17.528 51.615-16.583 108.357-16.261 165.1.349 61.726 15.128 120.407 39.278 176.516 29.2 67.85 70.328 128.055 124.312 178.9 12.285 11.57 25.839 21.826 39.115 32.3 11.363 8.963 14.459 17.342 4.849 30.794-28.521 39.923-56.043 80.577-83.181 121.459-7.236 10.9-13.789 10.454-22.693 3.548-60.339-46.8-113.574-100.368-158.013-162.728-60.779-85.288-98.729-180.319-118.683-282.32-13.546-69.242-9.659-139.58-5.069-209.71 2.266-34.629 11.06-67.791 18.419-101.322 4.623-21.064 7.5-22.346 27.348-15.875q69.21 22.562 138.422 45.117C490.626 827.261 498.445 829.07 495.317 843.061zM996.841 318.846c1.087 41.588-6.176 82.947-3.457 124.57.616 9.434-3.914 11.621-12.582 12.124-76.721 4.451-149.695 22.411-218.161 58.547-42.219 22.283-80.72 48.894-115.843 81.322C593.623 644.5 552.03 701.525 522.214 767.276c-5.307 11.7-9.81 23.782-14.429 35.786-3.44 8.94-7.616 12.337-18.408 8.746-46.044-15.32-92.533-29.294-138.764-44.058-20.3-6.482-21.756-9.33-14.841-28.783A677.841 677.841 0 01452.995 532.483c69.264-83.763 152.717-149.27 251.405-194.889 70.99-32.816 145.133-54.373 223.3-62.46 19.853-2.054 39.813-.665 59.341-4.059 9.324-1.62 9.88 2.281 9.835 9.036C996.794 293.023 996.855 305.935 996.841 318.846zM1712.579 968.456c.184 109.226-21.423 213.25-67.87 312.555-40.281 86.124-95.722 160.45-164.849 225.034-11.92 11.137-25.276 20.727-37.372 31.689-7.79 7.059-13.419 5.013-18.758-2.281-31.387-42.882-62.449-86.005-94.287-128.549-6.244-8.343-2.785-12.708 3.063-17.36 19.308-15.359 36.95-32.525 53.746-50.48q86.644-92.62 121.4-214.746c14.37-50.881 22.1-102.686 20.878-155.531-1-43.264-8.089-85.874-18.855-127.728-3.121-12.131-.9-19.108 10.973-23.135 49.324-16.722 98.706-33.285 147.813-50.626 11.2-3.956 12.266 3.481 13.813 9.874 7.679 31.73 16.606 63.306 21.692 95.474C1708.962 904.247 1709.874 936.493 1712.579 968.456zM1010.641 1688.133c-127.349 2.644-238.408-27.433-343.36-82.148-15.54-8.1-30-18.317-45.7-26.056-13.816-6.811-12.009-15.126-5.225-25.253q30.749-45.9 61.578-91.743c5.549-8.237 11.464-16.226 17.057-24.434 13.73-20.149 14.338-21.219 34.157-9.032 60.7 37.325 126.649 60.341 196.637 70.691 42.694 6.314 85.832 6.082 129.287 2.181 73.037-6.557 140.236-29.553 204.241-63.685 12.856-6.856 24.984-15.162 37.052-23.381 9.328-6.352 17.1-6.544 24.134 3.058 30.686 41.917 61.137 84.012 92.313 125.562 8.391 11.183.912 15.434-6.337 20.328-68.965 46.559-143.3 81.594-224 102.261C1123.457 1681.593 1063.652 1691.475 1010.641 1688.133z" transform="translate(-294.697 -269)" class="colorf2f2f2 svgShape"></path><path fill="#ffffff" d="M1003.049,842.71c-89.807,0-179.618-.465-269.417.388-18.218.173-23.448-6.064-22.885-23.336,1.089-33.425.971-66.913.384-100.358-.221-12.6,5.587-16.776,16.652-17.063q4.4-.114,8.8-.037c14.044.257,30.748-4.063,41.4,2.087,11.249,6.493,4.144,24.808,6.281,37.805,5.216,31.733,28.619,50.089,64.395,49.461,35.791-.629,59.2-20.8,63.039-53.642,1.338-11.454-5.432-27.375,3.482-33.243,8.727-5.746,23.68-2.37,35.9-2.414,43.436-.155,86.876.249,130.306-.282,10.574-.129,15.55,2.551,13.944,13.7-.5,3.449-.089,7.033-.055,10.554.517,52.967,48.053,82.1,95.965,58.819,23.65-11.49,31.143-31.938,31.548-56.46.436-26.389.518-26.388,25.862-26.389,46.424,0,46.441,0,46.452,46.454.006,24.653-.466,49.314.059,73.955.321,15.04-5.657,20.672-20.937,20.592-90.392-.474-180.787-.234-271.181-.234Z" transform="translate(-294.697 -269)" class="color30bcc5 svgShape"></path><path fill="#ffffff" d="M1186.406 703.665c0 8.172.195 16.349-.034 24.514-.54 19.249-7.826 26.2-27.021 26.131-19.177-.073-26.147-6.769-26.5-26.492-.325-18.088-.468-36.2.116-54.278.528-16.339 9.357-24.143 25.771-24.268 16.337-.124 25.7 7.633 27.559 22.877a29.07 29.07 0 01.1 3.5Q1186.409 689.656 1186.406 703.665zM873.722 702.125c0 8.8.289 17.612-.059 26.4-.785 19.841-7.454 26.036-27.133 25.776-18.5-.244-25.144-6.561-25.543-25.719-.39-18.77.037-37.557.069-56.337.028-17.027 11.541-22.008 25.436-22.852 16.505-1 25.905 7.507 27.206 22.816.2 2.337.308 4.689.32 7.034.04 7.628.015 15.256.015 22.884z" transform="translate(-294.697 -269)" class="color30bcc5 svgShape"></path></svg></g></svg>