<svg id="SvgjsSvg1044" width="288" height="288" xmlns="http://www.w3.org/2000/svg" version="1.1" xmlns:xlink="http://www.w3.org/1999/xlink" xmlns:svgjs="http://svgjs.com/svgjs"><defs id="SvgjsDefs1045"></defs><g id="SvgjsG1046"><svg xmlns="http://www.w3.org/2000/svg" viewBox="0 0 38.99 38.96" width="288" height="288"><path fill="#ededed" d="M5.84 24.33L1.09 25.88a19.48 19.48 0 0018 13.1V34A14.51 14.51 0 015.84 24.33zM38.09 25.38v0z" transform="translate(0 -.04)" class="colorededed svgShape"></path><path fill="#f4a89c" d="M34,19.5a14.44,14.44,0,0,1-.6,4.12l4.76,1.55A19.45,19.45,0,0,0,31.25,4L28.31,8A14.47,14.47,0,0,1,34,19.5Z" transform="translate(0 -.04)" class="color30bcc5 svgShape"></path><path fill="#ededed" d="M.91 25.38v0zM19.88 34v5a19.48 19.48 0 0018-13.1l-4.76-1.55A14.51 14.51 0 0119.88 34zM5 19.5A14.47 14.47 0 0110.69 8L7.75 4A19.45 19.45 0 00.84 25.17L5.6 23.62A14.43 14.43 0 015 19.5z" transform="translate(0 -.04)" class="colorededed svgShape"></path><path fill="#f4a89c" d="M19.5,5a14.41,14.41,0,0,1,8.21,2.56l2.94-4a19.44,19.44,0,0,0-22.3,0l2.94,4A14.41,14.41,0,0,1,19.5,5Z" transform="translate(0 -.04)" class="color30bcc5 svgShape"></path><path fill="#ededed" d="M19.88 39zM19.13 39h0zM37.93 25.88l.16-.5c0 .17-.12.33-.18.5zM38.16 25.17h0v0zM31.27 3.94l-.61-.44h0c.21.14.4.3.6.45zM8.34 3.5l-.61.44V4l.6-.45zM.84 25.17v0zM1.07 25.88h0a4.83 4.83 0 00-.16-.5z" transform="translate(0 -.04)" class="colorededed svgShape"></path><path fill="#fefefe" d="M15.83,29a5.79,5.79,0,0,0,5.93-5.65q0-.15,0-.3a5.73,5.73,0,0,0-5.52-5.93h-.42a5.73,5.73,0,0,0-5.94,5.51q0,.21,0,.42a5.79,5.79,0,0,0,5.63,6Zm-.07-12.66a6.2,6.2,0,0,1,1.65.19,6.75,6.75,0,0,1,5,7.86.37.37,0,0,0,.13.38L24.84,27a1.69,1.69,0,0,0,.44.33c1.27.6,2.57,1.12,3.88,1.63a.44.44,0,0,0,.55-.08.47.47,0,0,0,0-.55L28,24.71a2.24,2.24,0,0,0-.46-.62l-10.7-10.7L13.33,9.87a.87.87,0,0,0-1.38,0c-.47.47-.95.94-1.41,1.41a.82.82,0,0,0,0,1.35c1.21,1.23,2.44,2.45,3.65,3.67a.37.37,0,0,0,.39.11A5,5,0,0,1,15.76,16.29Zm14-3.3a.83.83,0,0,0-.32-.6l-2.79-2.8a.72.72,0,0,0-1.2,0l-5.6,5.59c-.21.21-.23.32,0,.54q1.78,1.75,3.53,3.53c.2.21.3.18.48,0,1.54-1.56,3.1-3.11,4.65-4.66a12.69,12.69,0,0,0,1.09-1.16.65.65,0,0,0,.21-.43Z" transform="translate(0 -.04)" class="colorfefefe svgShape"></path><path fill="#f4a89c" d="M15.83,29a5.79,5.79,0,0,1-6-5.57q0-.18,0-.36a5.73,5.73,0,0,1,5.53-5.92h.41a5.73,5.73,0,0,1,6,5.46q0,.22,0,.44a5.79,5.79,0,0,1-5.63,5.95Zm0-2.2q.42.09.36-.33a.52.52,0,0,1,.47-.61,1.56,1.56,0,0,0,1.21-1.38,1.59,1.59,0,0,0-1-1.81c-.45-.22-.92-.4-1.38-.62a.5.5,0,0,1-.3-.64l0,0a.7.7,0,0,1,1.25,0c.18.47.46.41.79.21l.14-.06c.27-.07.27-.23.16-.44a1.6,1.6,0,0,0-1.08-.93c-.25-.06-.36-.16-.33-.42s-.12-.31-.36-.31-.4,0-.36.3-.09.38-.35.44a1.44,1.44,0,0,0-1,.87,1.66,1.66,0,0,0,.85,2.19l.08,0c.43.2.88.37,1.32.57a.52.52,0,0,1,.33.53.63.63,0,0,1-.36.56A1,1,0,0,1,15,24.48c-.16-.47-.41-.45-.77-.3a1.19,1.19,0,0,1-.28.07c-.19,0-.21.14-.16.29a1.74,1.74,0,0,0,1.26,1.29c.33.08.45.22.39.55s0,.45.38.37Z" transform="translate(0 -.04)" class="color5232c2 svgShape"></path><path fill="#f4a89c" d="M15.76 16.29a5 5 0 00-1.2.12.37.37 0 01-.39-.11c-1.21-1.23-2.44-2.44-3.65-3.67a.82.82 0 010-1.35c.46-.48.94-.95 1.41-1.41a.87.87 0 011.38 0l3.54 3.53 10.7 10.7a2.24 2.24 0 01.46.62l1.7 3.57a.47.47 0 010 .55.44.44 0 01-.55.08c-1.31-.51-2.61-1-3.88-1.63a1.69 1.69 0 01-.44-.33l-2.26-2.24a.37.37 0 01-.13-.38 6.75 6.75 0 00-5-7.86A6.2 6.2 0 0015.76 16.29zm-1.35-4.15l-.08-.1c-.52-.52-1.05-1-1.57-1.56-.14-.14-.21-.05-.3 0l-1.28 1.27c-.13.13-.15.22 0 .36q.74.72 1.46 1.46c.14.14.23.16.38 0 .41-.42.84-.83 1.26-1.25A.17.17 0 0014.41 12.14zM28.48 27.78l.07-.08-1.08-2.25c-.08-.17-.15-.16-.27 0l-1.09 1.11c-.11.11-.14.2 0 .27zM29.81 13a.65.65 0 01-.18.43 12.69 12.69 0 01-1.09 1.16l-4.65 4.66c-.19.19-.28.22-.48 0q-1.75-1.78-3.53-3.53c-.23-.22-.2-.33 0-.54l5.6-5.59a.72.72 0 011.2 0l2.79 2.8A.83.83 0 0129.81 13zm-6.63 1a.46.46 0 00-.43.29.49.49 0 00.15.57l1.56 1.57c.51.52.51.51 1 0 .14-.15.16-.23 0-.38-.63-.61-1.24-1.23-1.86-1.85a.55.55 0 00-.43-.2zm1.9-.2a.47.47 0 00-.31.79l.77.79c.5.5.5.5 1 0 .13-.14.14-.22 0-.35-.36-.34-.7-.69-1-1a.54.54 0 00-.47-.25zm-2.7 2.7a.56.56 0 00.2.44l.67.68c.54.55.54.55 1 0h0c.11-.08.08-.16 0-.24l-1.16-1.13a.46.46 0 00-.52-.06.42.42 0 00-.2.29zm3.82-3.8a.47.47 0 00-.43.29.45.45 0 00.1.51l.74.77c.54.54.53.54 1 0 .12-.13.12-.21 0-.33-.36-.34-.7-.69-1-1a.57.57 0 00-.37-.26zm1-1a.43.43 0 00-.42.24.45.45 0 00.07.55c.25.27.52.53.78.79.5.5.49.49 1 0 .12-.13.16-.21 0-.35-.36-.34-.7-.69-1-1a.48.48 0 00-.42-.24z" transform="translate(0 -.04)" class="color5232c2 svgShape"></path><path fill="#f9f9f9" d="M15.82 26.75c-.32.08-.39-.11-.35-.37a.45.45 0 00-.39-.55 1.74 1.74 0 01-1.26-1.29c-.05-.16 0-.26.16-.29a1.19 1.19 0 00.28-.07c.36-.15.61-.17.77.3a1 1 0 001.21.38.63.63 0 00.36-.56.52.52 0 00-.33-.53c-.44-.19-.89-.36-1.32-.57A1.66 1.66 0 0114.07 21l0-.08a1.44 1.44 0 011-.87c.26-.06.39-.17.35-.44s.14-.3.36-.3.39 0 .36.31.08.36.33.42a1.6 1.6 0 011.08.93c.1.21.11.38-.16.44l-.14.06c-.33.2-.61.26-.79-.21a.7.7 0 00-1.25 0 .5.5 0 00.24.66l0 0c.45.22.92.4 1.38.62a1.59 1.59 0 011 1.81 1.56 1.56 0 01-1.21 1.38c-.37.09-.53.23-.47.61S16.1 26.81 15.82 26.75zM14.41 12.14c0 .12-.08.16-.14.22-.42.42-.85.82-1.26 1.25-.15.15-.24.14-.38 0q-.72-.74-1.46-1.46c-.14-.14-.12-.23 0-.36l1.28-1.27c.09-.09.16-.18.3 0 .52.53 1 1 1.57 1.56zM28.48 27.78l-2.32-1c-.17-.07-.15-.16 0-.27l1.09-1.11c.11-.12.19-.13.27 0 .35.75.72 1.5 1.08 2.25zM23.17 14a.55.55 0 01.42.2c.62.62 1.23 1.24 1.86 1.85.15.15.14.23 0 .38-.5.51-.49.52-1 0l-1.56-1.57a.49.49 0 01-.15-.57A.46.46 0 0123.17 14zM25.07 13.78a.54.54 0 01.42.18l1 1c.14.13.13.21 0 .35-.5.52-.5.53-1 0l-.77-.79a.43.43 0 01.35-.74zM22.37 16.48a.42.42 0 01.26-.39.46.46 0 01.52.06l1.16 1.13c.09.08.11.16 0 .24h0c-.5.59-.5.59-1 0l-.67-.68A.56.56 0 0122.37 16.48zM26.19 12.68a.57.57 0 01.39.18c.35.35.7.7 1 1 .13.12.13.2 0 .33-.51.57-.51.58-1 0l-.74-.77a.45.45 0 01-.1-.51A.48.48 0 0126.19 12.68zM27.21 11.69a.48.48 0 01.36.16l1 1c.15.14.11.23 0 .35-.48.52-.48.52-1 0l-.78-.79a.45.45 0 01-.07-.55A.43.43 0 0127.21 11.69z" transform="translate(0 -.04)" class="colorf9f9f9 svgShape"></path></svg></g></svg>