<?xml version="1.0" encoding="utf-8"?>
<!-- Generator: Adobe Illustrator 16.0.0, SVG Export Plug-In . SVG Version: 6.00 Build 0)  -->
<!DOCTYPE svg PUBLIC "-//W3C//DTD SVG 1.1//EN" "http://www.w3.org/Graphics/SVG/1.1/DTD/svg11.dtd">
<svg version="1.1" id="Layer_1" xmlns="http://www.w3.org/2000/svg" xmlns:xlink="http://www.w3.org/1999/xlink" x="0px" y="0px"
	 width="182.025px" height="200px" viewBox="658.988 0 182.025 200" enable-background="new 658.988 0 182.025 200"
	 xml:space="preserve">
<g>
	<path fill="#C63823" d="M794.793,122.921c4.406,3.347,8.879,6.788,8.555,12.824c-0.166,3.101-1.132,6.553-2.848,9.097
		c-4.445,6.592-11.24,6.83-21.378,1.408c3.846,7.928,3.692,13.773-0.995,18.258c-7.714,7.38-15.245,4.409-22.712-1.078
		c2.793,4.364,3.548,8.787,1.856,13.453c-3.153,8.705-13.044,11.799-21.029,6.473c-11.748-7.837-23.399-15.821-35.091-23.744
		c-9.76-6.613-19.36-13.475-29.314-19.78c-12.978-8.22-15.487-23.559-10.378-35.397c1.193-2.765,2.757-5.411,4.441-7.916
		c12.576-18.69,25.194-37.352,37.854-55.985c6.004-8.869,15.618-12.25,25.762-8.5c9.642,3.564,17.877,9.583,25.316,16.546
		c4.455,4.17,5.995,9.984,6.359,15.903c0.152,2.485,1.185,3.697,3.039,4.942c13.855,9.307,27.678,18.663,41.466,28.07
		c7.366,5.037,9.247,12.475,4.839,19.404C806.899,122.611,801.412,124.114,794.793,122.921z"/>
	<path fill="#C63823" d="M838.73,23.386c8.271,21.741-6.948,46.35-29.463,47.963c-5.01,0.359-7.918,2.07-10.113,6.191
		c-1.139,2.137-2.705,4.046-4.279,6.354c-6.081-4.114-11.947-8.079-17.812-12.049c-2.804-1.898-5.612-3.79-8.405-5.705
		c-2.742-1.88-3.756-5.04-1.615-7.374c4.519-4.927,4.335-9.794,2.737-16.1c-4.938-19.486,10.423-40.49,30.374-42.615
		c1.019-0.108,2.059-0.013,3.684-0.013c-2.675,3.979-5.119,7.623-7.572,11.259c-2.547,3.775-5.205,7.48-7.583,11.359
		c-0.585,0.954-0.74,2.678-0.284,3.679c2.754,6.05,5.68,12.026,8.72,17.938c0.467,0.909,1.775,1.849,2.774,1.945
		c6.509,0.623,13.045,0.948,19.559,1.527c2.016,0.179,3.175-0.493,4.271-2.15C828.537,38.316,833.484,31.122,838.73,23.386z"/>
	<path fill="#C63823" d="M696.449,162.662l31.292,21.201c-3.537,4.261-6.42,8.899-10.389,12.249
		c-6.595,5.567-16.41,4.947-22.883-0.528c-6.801-5.752-8.727-14.859-4.527-22.752C691.791,169.36,694.178,166.176,696.449,162.662z"
		/>
</g>
</svg>
