<?xml version="1.0" encoding="utf-8"?>
<!-- Generator: Adobe Illustrator 16.0.0, SVG Export Plug-In . SVG Version: 6.00 Build 0)  -->
<!DOCTYPE svg PUBLIC "-//W3C//DTD SVG 1.1//EN" "http://www.w3.org/Graphics/SVG/1.1/DTD/svg11.dtd">
<svg version="1.1" id="Layer_1" xmlns="http://www.w3.org/2000/svg" xmlns:xlink="http://www.w3.org/1999/xlink" x="0px" y="0px"
	 width="211px" height="200px" viewBox="644.5 0 211 200" enable-background="new 644.5 0 211 200" xml:space="preserve">
<path fill="#C63823" d="M828.484,45.514c0.033,4.575,3.561,10.639,10.438,15.243c3.341,2.237,6.52,5.301,8.6,8.707
	c3.65,5.974,3.42,12.596-0.09,18.669c-4.605,7.97-4.544,15.561-0.089,23.637c5.444,9.869,2.509,20.885-7.12,26.738
	c-8.112,4.93-11.893,11.656-11.795,21.166c0.099,9.501-8.357,18.025-17.978,18.719c-6.006,0.433-12.006,0.746-16.64,5.266
	c-1.673,1.631-3.357,3.398-4.486,5.411c-5.75,10.255-17.979,13.976-28.164,8.206c-7.654-4.335-15.047-4.223-22.691,0.092
	c-10.031,5.66-22.26,1.859-27.898-8.188c-3.4-6.058-8.637-9.646-15.688-10.294c-2.467-0.227-4.968-0.232-7.399-0.655
	c-8.882-1.546-16.397-10.396-16.219-19.428c0.175-8.853-3.416-15.33-11.022-19.794c-7.26-4.261-10.842-10.753-10.182-19.131
	c0.238-3.031,1.343-6.201,2.813-8.891c4.029-7.371,4.063-14.432,0.017-21.817c-5.956-10.871-3.072-21.696,7.544-28.253
	c7.388-4.564,10.979-10.866,10.822-19.577c-0.187-10.395,8.604-19.461,19.126-19.816c6.267-0.211,12.102-1.347,16.642-6.059
	c1.313-1.363,2.575-2.864,3.487-4.51c5.705-10.29,17.944-14.004,28.139-8.229c7.661,4.339,15.051,4.225,22.698-0.083
	c10.038-5.653,22.287-1.854,27.891,8.19c4.271,7.654,11.222,10.472,19.717,10.676C820.164,21.778,828.598,30.733,828.484,45.514z
	 M735.466,116.979c-6.327-6.321-12.493-12.532-18.719-18.682c-3.313-3.273-6.325-3.241-9.677,0.026
	c-2.821,2.749-5.618,5.521-8.351,8.356c-3.188,3.309-3.28,6.192-0.103,9.398c10.695,10.785,21.435,21.527,32.22,32.225
	c3.023,3.002,6.166,3.016,9.173,0.016c22.145-22.092,44.261-44.212,66.35-66.36c3.153-3.163,3.092-5.915,0.025-9.119
	c-2.645-2.764-5.389-5.431-8.107-8.122c-3.918-3.876-6.702-3.873-10.633,0.047c-8.443,8.423-16.879,16.855-25.304,25.298
	C753.438,98.972,744.541,107.889,735.466,116.979L735.466,116.979z"/>
</svg>
