<?xml version="1.0" encoding="utf-8"?>
<!-- Generator: Adobe Illustrator 16.0.0, SVG Export Plug-In . SVG Version: 6.00 Build 0)  -->
<!DOCTYPE svg PUBLIC "-//W3C//DTD SVG 1.1//EN" "http://www.w3.org/Graphics/SVG/1.1/DTD/svg11.dtd">
<svg version="1.1" id="Layer_1" xmlns="http://www.w3.org/2000/svg" xmlns:xlink="http://www.w3.org/1999/xlink" x="0px" y="0px"
	 width="180.887px" height="200px" viewBox="657.5 0 180.887 200" enable-background="new 657.5 0 180.887 200"
	 xml:space="preserve">
<g>
	<path fill="#C63823" d="M731.175,144.794l-2.464,8.616c1.648-0.395,2.813-0.611,3.94-0.951
		c17.757-5.369,35.499-10.785,53.273-16.093c2.117-0.632,3.443-1.585,4.194-3.755c1.28-3.715,2.914-7.3,4.879-10.703v77.457
		c-0.985-1.17-1.706-1.947-2.343-2.791c-6.794-8.979-13.628-17.926-20.314-26.984c-1.416-1.919-2.622-2.412-5.006-1.682
		c-33.86,10.373-67.744,20.672-101.649,30.9c-1.271,0.386-2.549,0.746-4.073,1.19V0h133.386c0.087,0.852,0.249,1.706,0.25,2.56
		c0.017,11.713,0.035,23.427-0.027,35.14c-0.007,1.157-0.225,2.579-0.908,3.423c-5.091,6.292-10.323,12.47-15.134,18.232
		c-2.543-0.316-4.594-0.792-6.646-0.794c-30.974-0.048-61.946-0.059-92.92-0.032c-0.788,0-1.576-0.001-2.364,0.021
		c-2.582,0.073-4.07,1.532-4.11,3.981c-0.04,2.458,1.465,3.937,3.984,4.157c1.006,0.088,2.025,0.039,3.039,0.039
		c29.509,0.001,59.018,0.001,88.526,0.001h4.356l-14.488,17.534l2.351,2.887c-3.046,1.225-5.752,2.605-8.619,3.398
		c-4.349,1.202-6.981,3.694-7.21,7.936c-2.269-0.312-4.214-0.806-6.16-0.812c-20.049-0.057-40.097-0.067-60.145-0.031
		c-0.9,0-2.068-0.297-2.646,0.148c-1.372,1.058-3.242,2.374-3.433,3.786c-0.163,1.199,1.527,2.959,2.807,3.934
		c0.82,0.626,2.383,0.353,3.613,0.354c20.386,0.016,40.771,0.02,61.157,0.01h2.305c-0.194,1.057-0.27,1.908-0.511,2.711
		c-2.523,8.398-5.17,16.762-7.55,25.2c-0.623,2.208-1.646,2.729-3.764,2.72c-17.007-0.074-34.014-0.042-51.021-0.04
		c-5.079,0-7.181,1.187-7.271,4.084c-0.094,3.026,2.021,4.246,7.4,4.247c15.655,0.003,31.312,0.004,46.967,0.001H731.175z
		 M726.288,20.551c-15.981,0-31.962-0.006-47.942-0.018c-2.844-0.007-4.937,0.89-5.244,3.97c-0.253,2.521,1.941,4.187,5.333,4.292
		c0.45,0.014,0.9,0.003,1.351,0.003c30.949,0,61.897-0.004,92.847-0.012c1.228,0,2.796,0.257,3.605-0.375
		c1.25-0.976,2.772-2.657,2.707-3.966c-0.064-1.301-1.762-2.798-3.098-3.66c-0.894-0.576-2.406-0.233-3.642-0.234
		C756.898,20.544,741.594,20.543,726.288,20.551z"/>
	<path fill="#C63823" d="M797.991,112.424l-28.249-28.089l33.32-40.301l35.324,34.854L797.991,112.424z"/>
	<path fill="#C63823" d="M743.777,131.938c0.207-0.842,0.377-1.697,0.628-2.526c2.762-9.136,5.457-18.293,8.392-27.372
		c0.438-1.355,1.801-2.76,3.102-3.418c2.893-1.463,6.071-2.351,9.026-3.705c1.798-0.824,2.982-0.675,4.414,0.786
		c5.665,5.786,11.413,11.491,17.244,17.114c1.341,1.298,1.29,2.354,0.888,4.104c-2,8.688-6.822,13.711-15.988,15.301
		c-7.219,1.253-14.161,4.096-21.539,5.713c5.535-5.549,11.04-11.128,16.644-16.606c0.637-0.624,1.8-0.778,2.754-0.995
		c3.77-0.859,5.894-3.348,5.693-6.77c-0.179-3.057-2.64-5.77-5.674-6.259c-3.345-0.539-6.82,1.347-7.4,4.862
		c-0.496,3.006-2.33,4.682-4.186,6.557c-4.485,4.531-8.981,9.054-13.487,13.565L743.777,131.938z"/>
</g>
</svg>
