<?xml version="1.0" encoding="utf-8"?>
<!-- Generator: Adobe Illustrator 16.0.0, SVG Export Plug-In . SVG Version: 6.00 Build 0)  -->
<!DOCTYPE svg PUBLIC "-//W3C//DTD SVG 1.1//EN" "http://www.w3.org/Graphics/SVG/1.1/DTD/svg11.dtd">
<svg version="1.1" id="Layer_1" xmlns="http://www.w3.org/2000/svg" xmlns:xlink="http://www.w3.org/1999/xlink" x="0px" y="0px"
	 width="198.303px" height="200px" viewBox="650.847 0 198.303 200" enable-background="new 650.847 0 198.303 200"
	 xml:space="preserve">
<g>
	<path fill="#C63823" d="M682.297,118.992c0-1.605,0-2.714,0-3.823c0-34.229,0.001-68.458,0.002-102.687
		c0.002-7.627,4.407-12.397,12.009-12.426c26.797-0.099,53.595-0.039,80.393-0.03c0.537,0,1.073,0.118,1.981,0.224
		c0,5.937,0,11.761,0,17.586c0,2.477,0,4.954,0,7.431c-0.015,12.62,7.63,20.354,20.345,20.477
		c7.312,0.071,14.625,0.013,22.204,0.013v20.389h-3.86c-24.996,0-49.993-0.044-74.988,0.073c-2.439,0.04-4.841,0.61-7.037,1.672
		c-8.185,3.991-16.279,8.162-24.285,12.514c-1.477,0.801-3.311,2.686-3.281,4.034c0.029,1.378,1.895,3.181,3.392,3.987
		c8.217,4.421,16.518,8.684,24.903,12.787c1.911,0.908,3.999,1.386,6.115,1.398c25.108,0.092,50.217,0.06,75.325,0.06h3.984
		c0,1.524,0,2.729,0,3.933c0,26.91-0.001,53.82-0.002,80.73c-0.002,8.082-4.382,12.631-12.423,12.639
		c-37.382,0.037-74.763,0.038-112.145,0.003c-8.216-0.007-12.626-4.577-12.631-12.841c-0.003-6.406,0-12.812,0-19.819h4.37
		c30.964,0,61.927,0.007,92.891,0.022c8,0.015,14.736-2.359,18.621-9.771c1.358-2.592,2.011-5.688,2.373-8.632
		c0.397-3.215,0.08-6.519,0.084-9.783c0.013-12.328-7.768-20.119-20.32-20.145c-25.334-0.051-50.668-0.056-76.002-0.016H682.297z"/>
	<path fill="#C63823" d="M665.437,126.793c0,3.104,0.025,6.015-0.007,8.924c-0.029,2.614,1.006,4.598,3.755,4.627
		c2.765,0.027,3.817-1.903,3.762-4.558c-0.061-2.909-0.014-5.821-0.014-9.003h6.575c0,5.512-0.048,10.986,0.019,16.46
		c0.036,3.036,1.782,4.691,4.318,4.229c2.466-0.448,3.165-2.191,3.154-4.462c-0.025-5.374-0.008-10.75-0.008-16.31h6.485
		c0,2.946,0.036,5.83-0.01,8.715c-0.042,2.676,0.738,4.93,3.771,4.918c3.012-0.012,3.821-2.267,3.793-4.935
		c-0.028-2.801-0.006-5.603-0.006-8.645h6.405c0,3.315,0,6.634,0,9.955c0.001,2.252-0.062,4.507,0.031,6.755
		c0.102,2.475,1.313,4.138,3.956,4.043c2.472-0.09,3.529-1.732,3.54-4.075c0.023-5.489,0.008-10.979,0.008-16.692h6.502
		c0,1.823,0,3.686,0,5.547c0,6.191,0.838,8.053,3.662,8.131c2.928,0.082,3.824-1.859,3.824-8.279c0-1.682,0-3.365,0-5.338h6.568
		c0,4.316,0,8.656,0,12.996c0,1.238,0.012,2.477,0.01,3.715c-0.005,2.416,1.163,3.951,3.589,3.996
		c2.607,0.049,3.852-1.604,3.882-4.109c0.053-4.277,0.019-8.556,0.021-12.834c0-1.213,0-2.426,0-3.846h6.395
		c0,2.992,0.018,5.872-0.006,8.752c-0.021,2.687,0.852,4.902,3.861,4.863c3.03-0.039,3.767-2.332,3.734-4.982
		c-0.034-2.795-0.008-5.592-0.008-8.61h6.398c0,4.6-0.001,9.167,0,13.735c0,1.125-0.077,2.26,0.038,3.375
		c0.243,2.35,1.551,3.775,3.977,3.658c2.252-0.108,3.447-1.492,3.462-3.766c0.029-4.391,0.018-8.781,0.023-13.172
		c0.001-1.207,0-2.414,0-4.275c5.06,0.273,9.783,0.17,14.38,0.882c4.228,0.655,7.712,5.44,7.845,9.888
		c0.12,4.05,0.13,8.109-0.002,12.158c-0.17,5.201-4.286,9.591-9.479,10.26c-1.452,0.172-2.915,0.251-4.378,0.236
		c-38.167,0.012-76.334,0.02-114.501,0.021c-4.159,0.002-8.369-0.213-10.923-3.959c-1.441-2.113-2.365-4.809-2.75-7.357
		c-0.464-3.082-0.122-6.289-0.109-9.44C651.017,130.551,656.326,125.9,665.437,126.793z"/>
	<path fill="#C63823" d="M832.957,73.824v21.142h-91.113V73.824H832.957z"/>
	<path fill="#C63823" d="M784.23,5.851l30.406,32.352c-3.711,0-6.543,0.039-9.374-0.009c-3.934-0.066-7.89,0.038-11.792-0.356
		c-4.896-0.495-9.062-4.896-9.191-9.734C784.09,21.026,784.23,13.94,784.23,5.851z"/>
	<path fill="#C63823" d="M841.014,73.781c6.538,1.164,8.137,3.014,8.137,9.089c0,1.12,0,2.241,0,3.361
		c0,5.659-1.933,7.799-8.137,8.699V73.781z"/>
	<path fill="#C63823" d="M733.614,92.591l-16.075-8.239l16.075-8.216V92.591z"/>
</g>
</svg>
