<?xml version="1.0" encoding="utf-8"?>
<!-- Generator: Adobe Illustrator 16.0.0, SVG Export Plug-In . SVG Version: 6.00 Build 0)  -->
<!DOCTYPE svg PUBLIC "-//W3C//DTD SVG 1.0//EN" "http://www.w3.org/TR/2001/REC-SVG-20010904/DTD/svg10.dtd">
<svg version="1.0" id="Layer_1" xmlns="http://www.w3.org/2000/svg" xmlns:xlink="http://www.w3.org/1999/xlink" x="0px" y="0px"
	 width="200px" height="200px" viewBox="-210.5 0.25 200 200" enable-background="new -210.5 0.25 200 200" xml:space="preserve">
<path fill="#FFFFFF" d="M-110.5,0.25c-55.229,0-100,44.771-100,100s44.771,100,100,100s100-44.771,100-100S-55.271,0.25-110.5,0.25z
	 M-110.5,186.347c-47.55,0-86.097-38.547-86.097-86.097s38.547-86.097,86.097-86.097S-24.403,52.7-24.403,100.25
	S-62.95,186.347-110.5,186.347z"/>
<g>
	<path fill-rule="evenodd" clip-rule="evenodd" fill="#FFFFFF" d="M-163.103,132.035c2.398,0,4.681,0,7.036,0
		c0-3.27,0-6.429,0-9.724c-2.317,0-4.631,0-7.03,0c0-2.482,0-4.832,0-7.317c2.327,0,4.639,0,6.919,0
		c1.594-7.528-4.508-17.385-11.852-19.146c0,1.889,0,3.752,0,5.692c-2.479,0-4.831,0-7.312,0c0-2.243,0-4.438,0-6.768
		c-1.705,0-3.29,0-4.955,0c0-2.486,0-4.838,0-7.331c1.577,0,3.163,0,4.905,0c0-2.364,0-4.595,0-6.892c2.509,0,4.858,0,7.303,0
		c0,2.507,0,4.951,0,7.345c13.1,4.275,19.564,13.232,19.492,27.051c2.319,0,4.628,0,7.001,0c0,2.467,0,4.785,0,7.261
		c-2.306,0-4.612,0-7.005,0c0,3.315,0,6.476,0,9.799c2.286,0,4.599,0,6.991,0c0,2.515,0,4.866,0,7.335c-2.306,0-4.582,0-6.987,0
		c0.109,3.066,1.125,5.661,2.899,7.966c3.716,4.825,9.878,6.749,15.653,4.926c5.792-1.829,9.661-6.984,9.983-13.303
		c0.001-0.041,0.011-0.083,0.002-0.121c-0.589-3.021,0.734-4.86,3.488-6.001c1.278-0.529,2.408-1.418,3.738-2.227
		c0.042,0.439,0.105,0.734,0.095,1.027c-0.149,3.812,0.112,7.699-0.546,11.423c-1.813,10.292-11.31,17.535-21.982,17.179
		c-10.329-0.347-19.169-8.354-20.505-18.571c-0.094-0.712-0.182-1.423-0.286-2.244c-2.328,0-4.647,0-7.046,0
		C-163.103,136.932-163.103,134.583-163.103,132.035z"/>
	<path fill-rule="evenodd" clip-rule="evenodd" fill="#FFFFFF" d="M-120.245,127.291c-0.704-21.275-1.397-42.242-2.095-63.401
		c0.51,0.254,0.862,0.411,1.196,0.6c5.668,3.21,11.325,6.438,17.008,9.62c0.711,0.398,0.932,0.789,0.796,1.608
		c-0.766,4.623,0.488,8.679,3.624,12.141c0.436,0.482,0.589,0.817,0.246,1.444c-6.816,12.491-13.611,24.997-20.411,37.498
		C-119.918,126.87-119.975,126.931-120.245,127.291z"/>
	<path fill-rule="evenodd" clip-rule="evenodd" fill="#FFFFFF" d="M-92.651,92.047c5.427,1.042,9.961-0.335,13.88-4.156
		c6.414,3.332,12.85,6.677,19.491,10.126c-17.767,10.805-35.377,21.514-52.988,32.223c-0.08-0.055-0.159-0.109-0.24-0.164
		C-105.895,117.408-99.279,104.742-92.651,92.047z"/>
	<path fill-rule="evenodd" clip-rule="evenodd" fill="#FFFFFF" d="M-117.679,57.846c15.007-5.84,29.953-11.657,45.138-17.567
		c-0.307,0.599-0.473,0.951-0.663,1.292c-4.02,7.198-8.05,14.391-12.057,21.596c-0.382,0.687-0.704,1.04-1.648,0.879
		c-4.623-0.786-8.655,0.552-12.169,3.615c-0.268,0.232-0.908,0.36-1.188,0.204c-5.725-3.194-11.422-6.437-17.122-9.676
		C-117.481,58.136-117.535,58.019-117.679,57.846z"/>
	<path fill-rule="evenodd" clip-rule="evenodd" fill="#FFFFFF" d="M-66.506,44.588c3.31,15.667,6.539,30.957,9.803,46.408
		c-0.352-0.137-0.596-0.208-0.814-0.322c-5.674-2.941-11.35-5.877-17.004-8.855c-0.328-0.173-0.726-0.72-0.677-1.027
		c0.812-5.057-0.622-9.376-4.22-13.104C-75.175,60.097-70.93,52.502-66.506,44.588z"/>
	<path fill-rule="evenodd" clip-rule="evenodd" fill="#FFFFFF" d="M-89.271,85.072c-3.862,0.003-6.991-3.107-7-6.96
		c-0.009-3.815,3.144-6.954,7.006-6.975c3.836-0.021,6.978,3.122,6.978,6.979C-82.289,81.983-85.386,85.068-89.271,85.072z"/>
</g>
</svg>
