<?xml version="1.0" encoding="utf-8"?>
<!-- Generator: Adobe Illustrator 16.0.0, SVG Export Plug-In . SVG Version: 6.00 Build 0)  -->
<!DOCTYPE svg PUBLIC "-//W3C//DTD SVG 1.0//EN" "http://www.w3.org/TR/2001/REC-SVG-20010904/DTD/svg10.dtd">
<svg version="1.0" id="Layer_1" xmlns="http://www.w3.org/2000/svg" xmlns:xlink="http://www.w3.org/1999/xlink" x="0px" y="0px"
	 width="200px" height="200px" viewBox="-210.5 0.25 200 200" enable-background="new -210.5 0.25 200 200" xml:space="preserve">
<path fill="#C63823" d="M-110.5,0.25c-55.229,0-100,44.771-100,100s44.771,100,100,100s100-44.771,100-100S-55.271,0.25-110.5,0.25z
	 M-110.5,186.347c-47.55,0-86.097-38.547-86.097-86.097s38.547-86.097,86.097-86.097S-24.403,52.7-24.403,100.25
	S-62.95,186.347-110.5,186.347z"/>
<g>
	<path fill-rule="evenodd" clip-rule="evenodd" fill="#C63823" d="M-168.062,135.568c2.665,0,5.201,0,7.818,0
		c0-3.633,0-7.144,0-10.805c-2.575,0-5.146,0-7.812,0c0-2.758,0-5.369,0-8.131c2.586,0,5.154,0,7.688,0
		c1.771-8.365-5.009-19.317-13.169-21.274c0,2.099,0,4.169,0,6.325c-2.754,0-5.368,0-8.125,0c0-2.492,0-4.932,0-7.521
		c-1.895,0-3.656,0-5.505,0c0-2.763,0-5.375,0-8.146c1.752,0,3.514,0,5.449,0c0-2.626,0-5.105,0-7.658c2.788,0,5.398,0,8.115,0
		c0,2.786,0,5.501,0,8.161c14.556,4.75,21.739,14.703,21.658,30.059c2.577,0,5.143,0,7.779,0c0,2.741,0,5.316,0,8.067
		c-2.562,0-5.124,0-7.783,0c0,3.685,0,7.195,0,10.889c2.54,0,5.109,0,7.768,0c0,2.794,0,5.407,0,8.15c-2.562,0-5.091,0-7.764,0
		c0.122,3.407,1.251,6.29,3.222,8.851c4.129,5.362,10.976,7.5,17.394,5.474c6.435-2.032,10.734-7.761,11.093-14.781
		c0.002-0.046,0.012-0.093,0.003-0.135c-0.654-3.356,0.815-5.4,3.876-6.668c1.42-0.588,2.675-1.576,4.153-2.475
		c0.048,0.488,0.117,0.816,0.106,1.142c-0.166,4.235,0.124,8.556-0.606,12.693c-2.015,11.436-12.567,19.484-24.427,19.088
		c-11.477-0.385-21.3-9.282-22.784-20.636c-0.104-0.791-0.202-1.581-0.318-2.493c-2.587,0-5.164,0-7.829,0
		C-168.062,141.009-168.062,138.399-168.062,135.568z"/>
	<path fill-rule="evenodd" clip-rule="evenodd" fill="#C63823" d="M-120.438,130.297c-0.782-23.641-1.553-46.938-2.328-70.449
		c0.566,0.283,0.957,0.457,1.329,0.667c6.298,3.567,12.583,7.153,18.898,10.689c0.791,0.442,1.035,0.876,0.885,1.787
		c-0.851,5.137,0.542,9.644,4.026,13.491c0.485,0.536,0.655,0.908,0.274,1.605c-7.574,13.879-15.124,27.775-22.68,41.666
		C-120.076,129.829-120.139,129.896-120.438,130.297z"/>
	<path fill-rule="evenodd" clip-rule="evenodd" fill="#C63823" d="M-89.778,91.135c6.03,1.158,11.068-0.373,15.423-4.618
		c7.127,3.702,14.278,7.419,21.657,11.252c-19.742,12.006-39.31,23.905-58.878,35.805c-0.089-0.061-0.177-0.122-0.267-0.183
		C-104.493,119.315-97.143,105.241-89.778,91.135z"/>
	<path fill-rule="evenodd" clip-rule="evenodd" fill="#C63823" d="M-117.588,53.132c16.675-6.489,33.282-12.953,50.155-19.52
		c-0.341,0.665-0.525,1.057-0.736,1.435c-4.467,7.999-8.945,15.991-13.397,23.996c-0.425,0.764-0.782,1.155-1.832,0.977
		c-5.137-0.874-9.617,0.613-13.522,4.017c-0.297,0.258-1.008,0.4-1.32,0.226c-6.36-3.549-12.692-7.153-19.024-10.751
		C-117.368,53.454-117.428,53.324-117.588,53.132z"/>
	<path fill-rule="evenodd" clip-rule="evenodd" fill="#C63823" d="M-60.727,38.4c3.678,17.409,7.266,34.398,10.893,51.566
		c-0.392-0.152-0.662-0.23-0.905-0.357c-6.305-3.268-12.611-6.531-18.894-9.839c-0.365-0.192-0.807-0.8-0.753-1.142
		c0.902-5.619-0.691-10.418-4.688-14.56C-70.359,55.634-65.642,47.195-60.727,38.4z"/>
	<path fill-rule="evenodd" clip-rule="evenodd" fill="#C63823" d="M-86.022,83.385c-4.291,0.003-7.768-3.453-7.777-7.734
		c-0.011-4.24,3.493-7.727,7.785-7.75c4.262-0.023,7.753,3.469,7.753,7.755C-78.264,79.952-81.705,83.38-86.022,83.385z"/>
</g>
</svg>
