<svg version="1.1" id="Layer_1" xmlns="http://www.w3.org/2000/svg" xmlns:xlink="http://www.w3.org/1999/xlink" x="0px" y="0px"
	 width="208.129px" height="200px" viewBox="642.5 0 208.129 200" enable-background="new 642.5 0 208.129 200"
	 xml:space="preserve">
<g>
	<path fill="#C63823" d="M768.668,60.729H649.407V0h119.261V60.729z M682.174,21.163h-11.477V39.55h11.477V21.163z M747.521,39.586
		V21.198h-11.232v18.388H747.521z M714.883,21.205h-11.188v18.299h11.188V21.205z"/>
	<path fill="#C63823" d="M649.37,130.437V69.722h119.238v60.715H649.37z M670.609,109.199h11.499V90.754H670.61L670.609,109.199z
		 M714.886,109.197V90.819h-11.19v18.378H714.886z M736.285,90.744v18.395h11.238V90.744H736.285z"/>
	<path fill="#C63823" d="M649.377,139.152h3.248c37.586,0,75.17-0.021,112.755-0.063c2.758-0.007,3.545,0.642,3.524,3.471
		c-0.135,18.058-0.068,36.118-0.068,54.177V200H649.377V139.152z M670.662,160.515V179h11.492v-18.484L670.662,160.515z
		 M703.734,160.477v18.502h11.12v-18.503L703.734,160.477z M747.52,179.063v-18.487h-11.186v18.488L747.52,179.063z"/>
	<path fill="#C63823" d="M821.546,180.137v10.525l-36.555-21.079l36.414-21.054v10.346h29.055v21.261L821.546,180.137z"/>
	<path fill="#C63823" d="M785.182,45.916V24.643h28.878V14.126l36.569,21.086L814.28,56.235V45.916H785.182z"/>
</g>
</svg>
