<svg version="1.1" id="Layer_1" xmlns="http://www.w3.org/2000/svg" xmlns:xlink="http://www.w3.org/1999/xlink" x="0px" y="0px"
	 width="200px" height="200px" viewBox="650.5 0 200 200" enable-background="new 650.5 0 200 200" xml:space="preserve">
<g>
	<path fill="#C63823" d="M683.014,200c-10.706-0.557-19.906-5.629-24.967-16.441c-5.286-11.295-3.866-22.483,4.31-31.795
		c8.283-9.435,17.543-18.019,26.528-26.818c1.074-1.054,3.074-1.389,4.706-1.608c8.499-1.148,12.615-5.479,13.148-14.069
		c0.171-2.75,5.899-9.562,8.595-9.786c1.149-0.096,2.695,0.528,3.534,1.358c11.841,11.704,23.59,23.502,35.366,35.272
		c2.051,2.05,1.965,4.001-0.002,6.11c-3.229,3.463-6.395,6.436-11.761,6.617c-5.728,0.194-10.441,5.805-10.618,11.878
		c-0.087,2.98-1.147,5.097-3.197,7.113c-7.912,7.784-15.7,15.696-23.576,23.516C699.291,197.093,692.27,199.928,683.014,200z
		 M689.045,185.143c1.739-1.045,3.16-1.574,4.146-2.545c7.559-7.445,15.064-14.943,22.518-22.498
		c2.681-2.719,2.752-5.299,0.509-7.451c-2.134-2.047-4.849-1.833-7.512,0.764c-3.886,3.79-7.694,7.66-11.529,11.502
		c-3.748,3.755-7.668,7.361-11.123,11.369c-1.049,1.215-1.433,3.734-0.962,5.311C685.506,182.978,687.543,183.875,689.045,185.143z
		 M674.97,171.232c1.915-1.213,3.519-1.884,4.671-3.014c7.306-7.167,14.528-14.418,21.741-21.678
		c2.928-2.945,3.21-5.457,1.023-7.711c-2.146-2.211-5.099-1.848-8.046,1.07c-4.381,4.337-8.743,8.694-13.084,13.072
		c-3.135,3.142-6.441,6.143-9.281,9.533c-0.978,1.168-1.406,3.529-0.936,4.969C671.525,168.9,673.442,169.851,674.97,171.232
		L674.97,171.232z"/>
	<path fill="#C63823" d="M740.044,87.548l-9.308,9.418c-2.425-2.566-4.786-5.053-7.134-7.552
		c-5.138-5.471-11.441-7.785-18.935-7.486c-7.224,0.289-14.212-0.865-20.773-4.227c-16.082-8.237-24.728-24.678-22.163-42.613
		c0.172-1.201,0.929-3.091,1.702-3.25c1.111-0.228,2.779,0.537,3.701,1.413c4.559,4.335,8.924,8.874,13.406,13.291
		c5.875,5.788,13.605,5.729,19.308-0.127c2.151-2.21,4.28-4.446,6.333-6.748c5.493-6.156,5.418-12.878-0.307-18.792
		c-4.633-4.788-9.459-9.39-14.072-14.196c-0.914-0.953-1.795-2.523-1.658-3.688c0.089-0.752,1.989-1.57,3.199-1.868
		c26.649-6.573,52.857,16.748,49.406,43.93c-0.95,7.482,1.293,13.897,6.468,19.271c2.288,2.376,4.823,4.513,7.331,6.838
		l-9.682,9.484c-3.228-3.41-6.459-6.923-9.803-10.325c-2.771-2.818-5.955-3.198-8.139-1.157c-2.368,2.214-2.085,5.403,0.893,8.398
		C733.12,80.882,736.517,84.111,740.044,87.548z"/>
	<path fill="#C63823" d="M739.13,104.682c1.485-1.983,2.396-3.559,3.64-4.802c17.436-17.448,34.911-34.856,52.426-52.223
		c1.983-1.962,3.069-3.879,2.842-6.733c-0.244-3.064,0.067-6.168-0.092-9.243c-0.135-2.596,0.988-4.1,3.234-5.209
		c10.599-5.238,21.173-10.526,31.723-15.864c2.307-1.167,4.123-0.901,5.944,0.98c8.24,8.507,7.361,5.493,2.631,15.303
		c-4.226,8.764-8.786,17.367-13.004,26.134c-1.296,2.695-3.031,4.34-5.97,3.784c-9.532-1.804-15.916,2.542-22.271,9.281
		c-14.635,15.514-30.029,30.312-45.119,45.396c-4.362,4.359-5.514,4.372-9.929-0.123
		C743.174,109.314,741.321,107.109,739.13,104.682z"/>
	<path fill="#C63823" d="M758.544,123.58l8.969-8.387c0.654,0.623,1.63,1.512,2.562,2.444
		c16.675,16.669,33.349,33.339,50.021,50.011c0.869,0.869,1.707,1.829,2.73,2.477c2.24,1.414,4.569,1.291,6.434-0.609
		c1.847-1.883,2.044-4.199,0.541-6.424c-0.75-1.11-1.759-2.059-2.717-3.014c-16.526-16.469-33.066-32.922-49.621-49.362
		c-0.954-0.946-2.244-1.552-3.498-2.397l9.713-9.218c0.45,0.384,1.127,0.888,1.719,1.479c17.813,17.799,35.617,35.609,53.411,53.429
		c7.561,7.599,8.281,16.776,2.16,24.679c-6.197,8-18.377,9.465-25.585,2.367c-18.998-18.705-37.679-37.734-56.477-56.645
		C758.751,124.254,758.713,123.98,758.544,123.58z"/>
</g>
</svg>
