<?xml version="1.0" encoding="utf-8"?>
<!-- Generator: Adobe Illustrator 16.0.0, SVG Export Plug-In . SVG Version: 6.00 Build 0)  -->
<!DOCTYPE svg PUBLIC "-//W3C//DTD SVG 1.0//EN" "http://www.w3.org/TR/2001/REC-SVG-20010904/DTD/svg10.dtd">
<svg version="1.0" id="Layer_1" xmlns="http://www.w3.org/2000/svg" xmlns:xlink="http://www.w3.org/1999/xlink" x="0px" y="0px"
	 width="200px" height="200px" viewBox="-210.5 0.25 200 200" enable-background="new -210.5 0.25 200 200" xml:space="preserve">
<path fill="#FFFFFF" d="M-110.5,0.25c-55.229,0-100,44.771-100,100s44.771,100,100,100s100-44.771,100-100S-55.271,0.25-110.5,0.25z
	 M-110.5,186.347c-47.55,0-86.097-38.547-86.097-86.097s38.547-86.097,86.097-86.097S-24.403,52.7-24.403,100.25
	S-62.95,186.347-110.5,186.347z"/>
<g>
	<path fill="#FFFFFF" d="M-156.279,76.19h91.566c0,0.525,0,0.996,0,1.466c0,24.71,0,49.419-0.001,74.129
		c-0.001,6.412-4.284,10.729-10.694,10.73c-23.385,0.013-46.771,0.013-70.157,0c-6.43-0.003-10.71-4.301-10.711-10.705
		c-0.002-24.71-0.003-49.419-0.001-74.128C-156.279,77.21-156.279,76.737-156.279,76.19z M-80.007,119.31
		c0-8.289-0.001-16.576-0.002-24.865c0-2.128-0.894-3.059-3.022-3.111c-1.411-0.035-2.822-0.047-4.232,0.004
		c-1.983,0.073-2.871,1.011-2.872,2.988c-0.005,16.664-0.005,33.329,0,49.996c0,1.979,0.885,2.895,2.887,2.965
		c1.365,0.047,2.732,0.03,4.099,0.008c2.302-0.039,3.142-0.916,3.143-3.253C-80.005,135.799-80.005,127.555-80.007,119.31z
		 M-140.99,119.186c0,8.376,0,16.754,0.002,25.13c0.002,1.938,0.852,2.883,2.748,2.965c1.541,0.065,3.088,0.065,4.628-0.001
		c1.893-0.082,2.754-1.04,2.756-2.965c0.003-16.664,0.003-33.329,0-49.995c0-1.959-0.905-2.907-2.889-2.981
		c-1.364-0.051-2.734-0.03-4.1-0.008c-2.281,0.038-3.144,0.936-3.145,3.255C-140.992,102.785-140.992,110.985-140.99,119.186
		L-140.99,119.186z M-115.563,119.359c0,8.288,0,16.576,0.002,24.864c0.001,2.083,0.862,3.002,2.921,3.064
		c1.453,0.044,2.911,0.051,4.363-0.004c1.981-0.074,2.842-1.009,2.843-3.013c0.004-16.619,0.004-33.241,0-49.861
		c0-2.11-0.909-3.028-3.06-3.078c-1.278-0.03-2.556-0.019-3.835-0.003c-2.381,0.029-3.234,0.901-3.235,3.297
		C-115.566,102.87-115.566,111.114-115.563,119.359L-115.563,119.359z"/>
	<path fill="#FFFFFF" d="M-135.561,57.045c0-0.662,0-1.141,0-1.619c0-4.809-0.009-9.617,0.005-14.426
		c0.006-2.069,0.921-3.015,2.973-3.017c14.734-0.012,29.469-0.012,44.204,0c1.992,0.001,2.904,0.933,2.912,2.93
		c0.018,4.809,0.006,9.617,0.006,14.426c0,0.516,0,1.032,0,1.707h1.726c8.514,0,17.028,0,25.542,0c2.917,0,3.611,0.686,3.612,3.548
		c0,2.073,0.009,4.146-0.002,6.22c-0.011,1.848-0.853,2.769-2.669,2.931c-0.394,0.036-0.792,0.014-1.19,0.014
		c-34.718,0-69.436,0-104.153,0c-0.397,0-0.796,0.02-1.19-0.018c-1.769-0.17-2.608-1.065-2.624-2.836
		c-0.019-2.293-0.013-4.588-0.002-6.881c0.012-2.073,0.892-2.969,2.988-2.972c8.691-0.012,17.381-0.014,26.072-0.005
		L-135.561,57.045z M-128.225,56.943h35.41v-8.222h-35.41V56.943z"/>
</g>
</svg>
