<?xml version="1.0" encoding="utf-8"?>
<!-- Generator: Adobe Illustrator 16.0.0, SVG Export Plug-In . SVG Version: 6.00 Build 0)  -->
<!DOCTYPE svg PUBLIC "-//W3C//DTD SVG 1.0//EN" "http://www.w3.org/TR/2001/REC-SVG-20010904/DTD/svg10.dtd">
<svg version="1.0" id="Layer_1" xmlns="http://www.w3.org/2000/svg" xmlns:xlink="http://www.w3.org/1999/xlink" x="0px" y="0px"
	 width="200px" height="200px" viewBox="-210.5 0.25 200 200" enable-background="new -210.5 0.25 200 200" xml:space="preserve">
<path fill="#FFFFFF" d="M-110.5,0.25c-55.229,0-100,44.771-100,100s44.771,100,100,100s100-44.771,100-100S-55.271,0.25-110.5,0.25z
	 M-110.5,186.347c-47.55,0-86.097-38.547-86.097-86.097s38.547-86.097,86.097-86.097S-24.403,52.7-24.403,100.25
	S-62.95,186.347-110.5,186.347z"/>
<g>
	<path fill="#FFFFFF" d="M-110.475,27.583c40.285,0.024,72.656,32.473,72.635,72.808c-0.022,40.15-32.512,72.568-72.686,72.524
		c-40.424-0.044-72.688-32.466-72.635-72.988C-183.106,59.96-150.554,27.56-110.475,27.583z M-110.25,56.285
		c-0.446,0.383-0.625,0.486-0.736,0.639c-9.739,13.489-18.956,27.311-25.655,42.603c-1.823,4.159-3.479,8.672-3.846,13.135
		c-1.304,15.895,10.684,29.563,27.004,31.489c16.557,1.953,32.417-11.606,33.159-28.243c0.279-6.273-1.899-11.88-4.415-17.379
		c-6.769-14.8-15.685-28.313-25.16-41.48C-110.058,56.831-110.131,56.552-110.25,56.285L-110.25,56.285z"/>
	<path fill="#FFFFFF" d="M-105.582,107.943c3.106,0,6.266-0.145,9.403,0.053c1.972,0.125,3.438,1.949,3.667,3.888
		c0.213,1.819-1.014,3.962-2.831,4.577c-0.947,0.319-2.019,0.344-3.037,0.363c-2.455,0.049-4.912,0.016-7.583,0.016
		c0,2.949,0.016,5.676-0.003,8.401c-0.021,2.977-1.905,5.048-4.546,5.04c-2.64-0.007-4.503-2.075-4.523-5.061
		c-0.018-2.674-0.004-5.348-0.004-8.381c-2.528,0-4.965,0.035-7.398-0.016c-1.086-0.023-2.229-0.039-3.238-0.378
		c-1.826-0.613-3.035-2.765-2.81-4.583c0.239-1.935,1.713-3.748,3.685-3.871c3.138-0.196,6.297-0.052,9.762-0.052
		c0-2.941-0.007-5.59,0.001-8.237c0.011-3.206,1.742-5.273,4.445-5.325c2.798-0.054,4.615,2.045,4.63,5.347
		c0.012,2.472,0.021,4.943,0.041,7.414C-105.92,107.261-105.822,107.382-105.582,107.943z"/>
</g>
</svg>
