<svg id="SvgjsSvg1331" width="288" height="288" xmlns="http://www.w3.org/2000/svg" version="1.1" xmlns:xlink="http://www.w3.org/1999/xlink" xmlns:svgjs="http://svgjs.com/svgjs"><defs id="SvgjsDefs1332"></defs><g id="SvgjsG1333"><svg xmlns="http://www.w3.org/2000/svg" width="288" height="288" enable-background="new 644.5 0 210 200" viewBox="644.5 0 210 200"><path fill="#f4a89c" d="M750.035,0c55.439,0.033,99.987,44.688,99.956,100.195c-0.03,55.253-44.741,99.865-100.026,99.805
		c-55.629-0.061-100.03-44.678-99.956-100.443C650.082,44.555,694.88-0.033,750.035,0z M750.344,39.498
		c-0.614,0.527-0.861,0.669-1.014,0.879c-13.401,18.562-26.086,37.584-35.305,58.628c-2.508,5.723-4.788,11.934-5.292,18.076
		c-1.794,21.874,14.702,40.685,37.161,43.334c22.785,2.688,44.611-15.971,45.632-38.866c0.385-8.634-2.614-16.35-6.075-23.917
		c-9.315-20.367-21.585-38.963-34.625-57.083C750.609,40.249,750.508,39.865,750.344,39.498L750.344,39.498z" class="colorC63823 svgShape"></path><path fill="#f4a89c" d="M756.768,110.588c4.275,0,8.623-0.2,12.94,0.072c2.714,0.172,4.732,2.683,5.046,5.351
		c0.294,2.503-1.395,5.452-3.896,6.298c-1.303,0.439-2.777,0.473-4.178,0.5c-3.379,0.067-6.76,0.021-10.436,0.021
		c0,4.059,0.021,7.811-0.005,11.562c-0.028,4.096-2.621,6.947-6.255,6.936c-3.633-0.01-6.197-2.856-6.225-6.965
		c-0.025-3.68-0.006-7.359-0.006-11.532c-3.479,0-6.831,0.048-10.181-0.022c-1.494-0.031-3.066-0.054-4.456-0.52
		c-2.514-0.843-4.177-3.805-3.867-6.307c0.329-2.662,2.357-5.158,5.07-5.328c4.319-0.269,8.666-0.071,13.434-0.071
		c0-4.048-0.009-7.692,0.002-11.335c0.014-4.411,2.397-7.257,6.117-7.328c3.85-0.074,6.351,2.814,6.372,7.358
		c0.016,3.401,0.028,6.802,0.057,10.203C756.303,109.648,756.437,109.815,756.768,110.588z" class="colorC63823 svgShape"></path></svg></g></svg>