<?xml version="1.0" encoding="utf-8"?>
<!-- Generator: Adobe Illustrator 16.0.0, SVG Export Plug-In . SVG Version: 6.00 Build 0)  -->
<!DOCTYPE svg PUBLIC "-//W3C//DTD SVG 1.0//EN" "http://www.w3.org/TR/2001/REC-SVG-20010904/DTD/svg10.dtd">
<svg version="1.0" id="Layer_1" xmlns="http://www.w3.org/2000/svg" xmlns:xlink="http://www.w3.org/1999/xlink" x="0px" y="0px"
	 width="200px" height="200px" viewBox="-210.5 0.25 200 200" enable-background="new -210.5 0.25 200 200" xml:space="preserve">
<path fill="#FFFFFF" d="M-110.5,0.25c-55.229,0-100,44.771-100,100s44.771,100,100,100s100-44.771,100-100S-55.271,0.25-110.5,0.25z
	 M-110.5,186.347c-47.55,0-86.097-38.547-86.097-86.097s38.547-86.097,86.097-86.097S-24.403,52.7-24.403,100.25
	S-62.95,186.347-110.5,186.347z"/>
<path fill="#FFFFFF" d="M-56.157,53.176c0.026,0.528,0.064,0.943,0.064,1.358c0.002,10.484,0.085,20.969-0.02,31.452
	c-0.165,16.465-3.801,32.059-12.422,46.234c-9.733,16.006-23.363,27.537-40.666,34.734c-0.893,0.37-1.638,0.409-2.528,0.021
	c-26.805-11.625-43.917-31.464-50.745-59.966c-1.848-7.709-2.483-15.576-2.468-23.499c0.019-9.497,0.005-18.994,0.005-28.49
	c0-0.558,0-1.115,0-1.787c1.601,0.11,3.079,0.217,4.558,0.312c11.678,0.751,22.947-0.941,33.716-5.637
	c4.511-1.967,8.551-4.69,12.463-7.64c0.682-0.513,1.634-0.791,2.497-0.918c2.906-0.427,5.34,0.496,7.827,2.165
	c9.832,6.602,20.716,10.514,32.5,11.844C-66.315,53.931-61.203,53.868-56.157,53.176z M-140.424,99.412l23.128,24.488l40.133-40.814
	l-6.119-5.441l-34.013,25.166l-16.326-11.559L-140.424,99.412z"/>
</svg>
