<svg id="SvgjsSvg1069" width="288" height="288" xmlns="http://www.w3.org/2000/svg" version="1.1" xmlns:xlink="http://www.w3.org/1999/xlink" xmlns:svgjs="http://svgjs.com/svgjs"><defs id="SvgjsDefs1070"></defs><g id="SvgjsG1071"><svg xmlns="http://www.w3.org/2000/svg" viewBox="0 0 1427.042 1429.803" width="288" height="288"><path fill="#f2f2f2" d="M349.948 978.768c.9-44.687 8.291-108.578 25.764-171.188 3.289-11.786 7.737-14.955 20.075-10.913 49.866 16.337 100.052 31.705 150.2 47.154 8.287 2.553 10.4 6.684 7.963 14.96-17.867 60.608-19.425 122.971-16.07 185.189 3.1 57.528 17.874 112.907 40.9 165.99 29.6 68.239 72.038 127.259 126.088 178.092 13.337 12.543 26.748 25.048 40.75 36.827 8.447 7.105 8 12.694 1.836 21.368q-43.445 61.168-85.619 123.234c-7.309 10.707-15.281 11.266-24.563 4.058-13.958-10.837-28.368-21.289-41.129-33.436-49.636-47.247-97.776-95.869-133.867-154.893-50.448-82.5-88.016-169.752-101.815-266.4C354.774 1078.955 349.511 1039.206 349.948 978.768zM1055.767 380.374c0 25.117-.55 50.25.231 75.342.389 12.511-3.406 16.244-16.4 17.126C920.014 480.96 812.862 520.36 720.906 599.218c-70.672 60.605-122.137 133.993-154.085 221.188-4.024 10.983-9.026 13.694-20.562 9.906-48.127-15.8-96.434-31.1-144.988-45.525-14.58-4.332-16.255-10.911-11.091-23.879C421.3 682.757 459.7 609.143 514.57 544.375 601.559 441.7 707.185 366.53 834.963 324.022c65.477-21.782 132.429-37.5 202.425-35.775 14.321.353 19.387 3.875 18.693 18.631C1054.93 331.327 1055.768 355.87 1055.767 380.374z" transform="translate(-349.923 -285.197)" class="colorf2f2f2 svgShape"></path><path fill="#c63823" d="M1071.672,1715c-146.643-2.224-274.962-37.123-391.841-111.793-13.307-8.5-15.879-15.165-6.152-28.65q43.435-60.218,84.628-122.036c7.881-11.817,14.179-13.129,25.819-5.638,55.657,35.818,116.494,58.819,181.485,70.824,131.614,24.311,254.825,1.285,370.046-66.2,3.691-2.162,7.239-4.566,10.913-6.758,28.674-17.109,28.782-17.178,48.154,8.992,26.535,35.847,52.357,72.239,79.615,107.524,9.815,12.705,7.162,19.615-4.862,27.6-86.522,57.457-180.094,97.323-282.742,115.3C1145.736,1711.347,1104.267,1712.085,1071.672,1715Z" transform="translate(-349.923 -285.197)" class="color5232c2 svgShape"></path><path fill="#f2f2f2" d="M1084.458 285.6c124.761 6 241.948 38.392 348.624 103.924 117.709 72.311 207.856 170.783 270.266 294.154 11 21.744 19.229 44.874 29.206 67.155 5.279 11.79 3.645 19.738-9.565 24.033q-74.89 24.354-149.656 49.092c-10.168 3.361-13.33-3.626-15.962-10.55a527.926 527.926 0 00-73.557-132.367C1442.333 626.4 1392 581.864 1333.144 546.652c-60.58-36.243-126.6-57.145-195.542-69.14-18.4-3.2-37.283-6.9-56.326-5-11.413 1.14-14.311-3.934-14.726-14.847-2.049-53.865 5.382-107.464 3.857-161.273C1070.1 285.689 1076.253 284.309 1084.458 285.6zM1776.711 987.968c.449 131.417-27.9 242.784-82.756 347.135-28.469 54.15-64.3 103.421-106.249 148.428-22.952 24.624-48.689 45.909-72.67 69.179-13.907 13.5-17.724 17.631-34.281-3.443-22.959-29.223-44.765-59.355-66.985-89.157-6.194-8.308-11.44-17.421-18.3-25.115-11.2-12.562-5.647-20.756 5.059-29.588q126.728-104.536 170.576-262.976a520.442 520.442 0 0018.442-122.392c1.919-55.8-4.658-110.184-17.119-164.137-2.549-11.036-1.472-16.818 10.354-20.532 47.767-15 95.348-30.606 142.846-46.442 13.857-4.62 20.833-1.272 24.444 13.534C1766 867.756 1778.954 933.358 1776.711 987.968z" transform="translate(-349.923 -285.197)" class="colorf2f2f2 svgShape"></path><path fill="#c63823" d="M1249.543 1156.6c-1.237 39.4-18.715 83.015-54.155 119.537-36.387 37.5-83.226 58.322-132.413 58.288s-96.037-20.926-132.3-58.536c-35.764-37.089-54.071-81.146-53.917-132.547.3-101.151 83.636-183.588 185.618-184.1C1165.889 958.727 1249.774 1042.183 1249.543 1156.6zm-289.078-51.446c18.931 15.388 34.153 28.355 50.049 40.435 8.178 6.214 9.309 12.408 6.364 22.051-5.408 17.708-12.851 35.012-15.25 56.471 13.7-8.244 26.126-13.9 36.329-22.272 17.161-14.079 32.351-15.031 49.825-.385 10.323 8.652 23.124 14.347 38.979 23.877-6.635-22.465-11.043-40.129-17.184-57.169-3.8-10.535-1.409-16.911 7.158-23.4 15.7-11.891 30.7-24.7 48.986-39.55-24.057-1.243-43.4-2.9-62.75-2.985-10.783-.048-16.367-3.635-19.976-14.012-5.255-15.114-10.107-30.671-20.905-47.112-7.327 18.083-13.9 33.014-19.38 48.335-3.071 8.583-7.336 12.583-17.029 12.673C1005.607 1102.294 985.545 1103.885 960.465 1105.152zM1064.34 667.295c45.3 0 90.61-.094 135.914.034 25.362.072 45.138 14.736 48.8 35.744 3.587 20.574-7.022 37.3-31.831 46.7-8.548 3.238-9.027 8.079-8.957 15.162.2 20.2-.392 40.421.241 60.6.4 12.745-3.5 22.047-14.172 29.7-24.37 17.47-48.071 35.874-72.092 53.834-5.388 4.028-10.8 8.038-18.091 8.019-27.549-.071-55.1-.04-82.647-.044-7.279 0-12.573-4.349-17.946-8.362-24.029-17.949-47.794-36.262-72.094-53.835-9.963-7.206-14.247-15.92-13.666-28.073.613-12.828.2-25.707.121-38.564-.113-18.62 5.056-37.762-22.632-45.26-16.242-4.4-21.951-27.394-17.128-44.037 5.324-18.369 23.189-31.408 44.755-31.534C970.056 667.107 1017.2 667.3 1064.34 667.295zm19.338 118.525h.244c0 9.766-.813 19.618.207 29.277 1.252 11.856 8.51 18.822 20.878 18.55 12.177-.268 19.638-6.737 20.013-19.136.534-17.691.167-35.407.32-53.112.047-5.387-.878-8.709-7.472-9.994-27.738-5.4-34.186-.56-34.19 27.088Q1083.678 782.157 1083.678 785.82zm-41.448 3.173h.148c0-7.332-.58-14.72.134-21.982 1.109-11.265-1.8-17.47-14.671-15.625-5.989.859-12.2.276-18.307.159-5.973-.114-9.23 2.493-9.143 8.617.266 18.919-.33 37.913 1.215 56.73.993 12.084 9.883 17.7 22.133 16.727 11.586-.919 17.691-7.707 18.388-18.974C1042.652 806.125 1042.23 797.546 1042.23 788.993z" transform="translate(-349.923 -285.197)" class="color30bcc5 svgShape"></path></svg></g></svg>