<svg id="SvgjsSvg1029" width="288" height="288" xmlns="http://www.w3.org/2000/svg" version="1.1" xmlns:xlink="http://www.w3.org/1999/xlink" xmlns:svgjs="http://svgjs.com/svgjs"><defs id="SvgjsDefs1030"></defs><g id="SvgjsG1031"><svg xmlns="http://www.w3.org/2000/svg" viewBox="0 0 1266.607 1268.038" width="288" height="288"><path fill="#f4a89c" d="M1278.367,1066.571c.766,16.206,1.428,32.447-3.295,48.285-8.021,26.9-28.328,37.16-54.893,27.526-15.414-5.59-28.923-14.767-42.63-23.387-50.46-31.738-105.507-42-164.173-36.3-7.883.765-15.6,2.055-22.695,5.775-13.229,6.933-18.445,17.748-12.968,31.322,9.394,23.281,19.983,46.079,30.035,69.1,3.838,8.789,11.972,12.9,19.315,17.833,8.162,5.488,14.977,11.911,14.011,22.746-.974,10.924-8.847,15.938-18.065,19.557-21.934,8.612-43.979,16.969-65.656,26.189-5.019,2.135-7.43.311-11.112-1.832-11.445-6.66-18.34-16.892-23.536-28.559-11.487-25.792-22.845-51.642-34.362-77.42-2.534-5.673-4.114-12.843-10.65-14.906-15.875-5.012-32.4-7.762-44.885-20.774-3.453-3.6-9.894,1.079-14.743,2.7-34.036,11.4-62.12,2.149-85.362-28.293-18.033-23.619-19.386-64.105-3.292-88.818,6.682-10.26,16.575-15.507,27.407-19.988,51.918-21.475,101.932-46.491,148.382-78.435C969.683,874.544,1014.137,817.1,1027.4,738.1c3.7-22.036,10.509-42.774,34.75-51.916,5.386-2.031,8.9-2.123,14.383-.162,31.971,11.423,55.3,33.966,75.695,59.429,68.157,85.07,109.6,182.06,125.93,289.726C1279.713,1045.417,1278.367,1056.1,1278.367,1066.571Zm-54.772-25.013c-5.34-79.789-34.584-152.058-79.7-218.546-14.439-21.279-30.439-41.345-50-58.246-4.234-3.658-8.807-9.183-14.935-6.729-5.475,2.193-4.486,8.84-5.256,13.948-3.964,26.289-.72,52.336,4.009,78.048,14.842,80.7,48.721,151.825,108.661,209.114,8.783,8.395,19.065,22.716,30.788,17.327C1228.2,1071.4,1221.429,1054.448,1223.595,1041.558Z" transform="translate(-366.393 -346.037)" class="color5232c2 svgShape"></path><path fill="#ededed" d="M992.683 430.423c0 23.046-.365 46.1.172 69.133.23 9.834-2.375 13.724-13.079 13.912-106.465 1.877-199.674 40.244-280.91 107.17-62.629 51.6-109.774 115.422-137.81 192.424-7.514 20.638-8.179 20.483-29.376 13.686-40.211-12.894-80.4-25.863-120.812-38.106-11.2-3.393-13.852-8.027-9.6-19.175 30.047-78.754 70.889-150.593 128.114-213.325 58.192-63.793 125.523-114.534 203.831-150.262 58.072-26.5 118.59-45.826 182.421-53.028 21.171-2.389 42.42-4.088 63.609-6.332 10.134-1.073 13.917 2.727 13.636 13.2C992.249 383.273 992.682 406.854 992.683 430.423zM545.6 855.484c-5.1 25.542-10.918 50.707-12.858 76.941a679.228 679.228 0 00.12 96.772c2.478 36.409 10.986 71.045 22.792 105.062 18.851 54.318 47.163 103.283 84.078 147.546a464.991 464.991 0 0074.636 71.137c10.115 7.762 11.734 14.6 3.417 25.786-24.271 32.643-47.211 66.273-70.782 99.439-13.249 18.643-16.26 20.165-32.868 5.916-58.454-50.152-113.708-103.307-153.708-170.3a683.375 683.375 0 01-81.461-205.7c-13.615-62.243-15.2-124.947-9.4-188.231C373 882.37 379.945 845.709 389 809.3c2.535-10.192 6.739-12.7 17.191-9.22 41.605 13.864 83.522 26.793 125.291 40.167C538.962 842.639 547.149 844.714 545.6 855.484z" transform="translate(-366.393 -346.037)" class="colorededed svgShape"></path><path fill="#f4a89c" d="M1633,976.545c-1.014,94.863-18.044,180.024-54.188,261.365-37.585,84.585-92.266,156.281-159.929,218.658-3.435,3.167-7.477,5.669-11.173,8.561-25.814,20.2-25.932,20.3-45.4-5.749-23.743-31.762-47.221-63.722-70.886-95.543-5.19-6.978-7.257-11.259,1.867-18.838,90.142-74.875,146.93-169.858,167.844-285.477,12.357-68.313,7.5-136.132-10.061-202.985-3.533-13.452-1.735-19.675,12.277-24.013q60.646-18.776,120.523-40.005c14.386-5.071,21.09-1.506,24.987,12.93,12.256,45.406,21.809,91.187,22.217,138.442C1631.187,956.976,1631.03,970.03,1633,976.545Z" transform="translate(-366.393 -346.037)" class="color30bcc5 svgShape"></path><path fill="#ededed" d="M1022.031 346.925c76.646 4.333 150.575 19.881 221.523 49.475 59.81 24.948 114.034 58.951 163.881 99.849 56.633 46.466 101.885 102.786 139.289 165.674 17.708 29.773 31.248 61.43 44.756 93.145 8.15 19.135 7.72 19.688-11.489 26.123-38.635 12.942-77.554 25.113-115.767 39.2-15.55 5.733-23.04 1.772-28.726-12.621a462.878 462.878 0 00-68.8-118.858C1318.262 628.1 1257.811 583 1187.094 551.167c-43.159-19.428-88.72-30.019-135.157-37.235a128.457 128.457 0 00-32.911-.43c-14.53 1.54-18.561-4.485-16.99-17.85 4.281-36.419 3.157-73.031 3.229-109.593.014-7.333.617-14.73-.132-21.985C1003.777 350.948 1007.21 343.334 1022.031 346.925zM1009.44 1614.075c-131.717-1.151-242.949-33.768-345.8-95.61-19.492-11.721-20.006-12.635-7.168-30.562 25.491-35.6 49.22-72.425 76.094-107.084 6.7-8.639 11.166-6.987 17.587-2.761 28.534 18.781 59.612 32.284 91.508 43.974 40.329 14.78 81.865 24.557 124.957 25.087 44.286.545 88.56 1.7 132.408-8.36 58.236-13.358 111.931-36.847 161.769-69.192 10.9-7.077 17.2-5.933 24.28 3.748q40.139 54.893 80.611 109.543c6.593 8.948 1.672 13.38-5.895 18.523-68.112 46.291-142.055 78.946-222.494 96.946C1091.388 1608.6 1044.865 1612.869 1009.44 1614.075z" transform="translate(-366.393 -346.037)" class="colorededed svgShape"></path></svg></g></svg>