<svg id="SvgjsSvg1077" width="288" height="288" xmlns="http://www.w3.org/2000/svg" version="1.1" xmlns:xlink="http://www.w3.org/1999/xlink" xmlns:svgjs="http://svgjs.com/svgjs"><defs id="SvgjsDefs1078"></defs><g id="SvgjsG1079"><svg xmlns="http://www.w3.org/2000/svg" viewBox="0 0 1149.543 1148.052" width="288" height="288"><path fill="#c63823" d="M424.937,922.535c1.726-56.819,8.306-109.46,21.956-161.135,2.3-8.709,6.036-11.876,15.655-8.661q57.871,19.342,116.191,37.33c11.484,3.564,13.594,9.16,10.9,20.88-37.875,164.9,5.4,305.634,127.325,422.424,9.413,9.016,20.073,16.761,30.393,24.789,5.741,4.465,7.864,7.813,2.613,15.122q-37.085,51.617-72.666,104.3c-6.149,9.131-10.562,8.582-18.375,2.637q-175.609-133.628-221.749-349.312C429.374,994.02,427.092,956.542,424.937,922.535Z" transform="translate(-424.937 -342)" class="color30bcc5 svgShape"></path><path fill="#f2f2f2" d="M993.507 418.113c0 20.938-.363 41.885.16 62.809.237 9.5-2.986 12.61-12.6 12.755-96.191 1.457-179.408 36.695-253.246 97.057-58.454 47.786-98.956 108.14-126.863 177.485-3.976 9.881-8.635 13.2-18.706 10-35.78-11.371-71.591-22.65-107.5-33.6-13.824-4.214-17.808-11.089-12.157-25.42 24.889-63.12 57.957-121.03 102.082-172.962 51.493-60.6 112.592-108.664 183.633-143.487 58.312-28.584 119.856-47.483 184.957-54.55 14.335-1.556 29.054-.747 43.325-5.052 12.08-3.643 18.008 1.33 17.2 15.3C992.658 378.282 993.509 398.222 993.507 418.113zM1020.984 343.584c43.767 3.88 92.093 10.075 139.371 23.639 76.978 22.084 145.932 59.21 207.423 109.858a543.894 543.894 0 01136.451 167.527c11.9 22.586 21.887 46.177 33.248 69.06 5.143 10.358 2.736 16.792-7.753 20.977-37.871 15.109-77.443 25.042-115.979 38.132-9.407 3.2-12.986-4.074-15.78-11.179a395.856 395.856 0 00-51.368-93.012c-37.307-49.781-82.478-90.837-136.667-122.1a404.91 404.91 0 00-131.545-48.052c-19.429-3.506-39.14-6.437-59.034-4.848-10.345.826-13.566-3.228-13.453-13.458.459-41.363.182-82.734.2-124.1C1006.1 349.121 1005.006 341.326 1020.984 343.584zM1574.48 906.678c-1.613 135.537-38.522 248.271-110.651 349.162-28.083 39.281-63.827 71.785-98.371 105.159-13.781 13.314-15.9 12.414-27.579-3.024-21.992-29.064-43.35-58.614-65.633-87.451-7.779-10.067-8-16.447 2-25.791 28.609-26.713 56.039-54.606 78.459-87.1 35.214-51.03 58.3-106.877 68.114-168.019a561.773 561.773 0 006.256-60.415c2.131-41.92-4.246-83.13-14.05-123.687-2.952-12.213.81-17.854 11.267-21.252 37.706-12.253 75.531-24.147 113.118-36.752 8.538-2.863 10.852.371 13.217 7.6 8.444 25.811 13.436 52.456 17.357 79.114C1572.066 861.957 1573.087 890.138 1574.48 906.678zM1010.7 1489.966c-118.017 1.185-219.455-29.689-313.87-85.632-16.906-10.017-16.972-10.251-5.323-26.991 21.738-31.237 43.914-62.172 65.344-93.618 5.88-8.628 10.817-8.486 19.374-3.773 46.814 25.788 95.184 47.632 148.51 56.592 41.418 6.959 82.713 6.277 124.536 3.123 54.871-4.138 104.66-22.5 152.854-46.987 10.67-5.423 21.7-10.942 30.742-18.576 13.176-11.124 21.276-5.175 29.322 5.556 19.055 25.415 38.22 50.749 57.091 76.3 19.429 26.307 19.472 26.682-8.272 43.894-69.949 43.4-144.914 72.971-227 84.3C1057.032 1487.883 1030.253 1490.574 1010.7 1489.966z" transform="translate(-424.937 -342)" class="colorf2f2f2 svgShape"></path><path fill="#c63823" d="M905.147 1076.13c11.73-4.93 21.625-9.759 32.823-7.778 2.057.364 4.99-.3 6.111.862 21.168 22 56.281 20.3 75.958 45.306 7.952 10.1 13.534 19.559 4.3 30.5-9.22 10.919-21.278 9.039-30.588.59-11.811-10.717-27.084-12.1-39.866-18.419-19.939-9.853-36.813-7.956-56.92-4.455-20.051 3.491-35.325-17.669-34.913-42.847.067-4.1.453-8.2.721-12.817-9.865.242-15.522 7.224-22.457 11.3-15.621 9.189-32.2 15.958-50.3 14.591-26.382-1.993-43.581-17.683-50.88-43.942-7.741-27.848-5.592-55.751-.347-83.72 6.547-34.911 14.632-69.279 31.133-101.138 12.41-23.96 30.231-42.609 54.095-55.045 28.854-15.037 58.068-9.6 79.688 14.642 18.119 20.314 26.192 44.761 27.713 71.6.67 11.811-5.521 19.082-16.47 21.493-10.855 2.39-18.537-3.287-21.957-13.244-3.714-10.812-5.324-22.354-9.136-33.124-11.413-32.242-31.3-36.986-56.747-14a84.983 84.983 0 00-20.482 27.557c-19.919 43.281-31.712 88.543-30.352 136.48.9 31.906 14.678 38.8 42.283 22.066 8.492-5.147 16.719-10.728 25.128-16.014A108.824 108.824 0 01872 1013.559c29.1-8.192 44.1 5.205 39.056 34.86C909.591 1057.041 907.427 1065.544 905.147 1076.13zM1130.056 858.41l45.529 16.613c29.893 10.906 29.987 10.94 18.83 40.931-18.72 50.319-37.368 100.665-56.443 150.849-11.936 31.4-31.869 57.429-57.2 79.1-6.114 5.231-8.353 11.666-11.471 18.117-2.483 5.138-5.73 8.956-12.063 6.682-6.716-2.412-8.929-7.707-5.814-13.759 4.762-9.253 1.847-17.963.546-27.251-4.556-32.527-2.348-64.975 8.44-95.9 19.257-55.2 40.07-109.857 60.463-164.655C1122.48 864.818 1122.307 858.052 1130.056 858.41zM1229.373 663.108c21.474.224 45.076 28.68 38.939 49.494-13.288 45.069-30.551 88.815-47.1 132.781-2.427 6.45-6.079 7.648-12.011 5.519-21.165-7.595-42.316-15.233-63.574-22.562-6.725-2.319-6.978-5.817-4.706-11.889 15.216-40.661 29.633-81.627 45.277-122.12C1193.821 674.615 1211.552 662.923 1229.373 663.108zM1173.032 695.973c-.738 2.438-1.621 5.964-2.861 9.359q-22.57 61.813-45.3 123.567c-1.8 4.861-3.813 9.927-6.947 13.945-5.649 7.242-13.438 10.113-22.336 6.333-8.737-3.712-12.66-10.593-11.092-20.165a40.786 40.786 0 011.938-7.515q24.177-65.411 48.481-130.775c3.834-10.294 10.5-17.408 22.448-14.887C1167.057 677.881 1172.445 684.572 1173.032 695.973z" transform="translate(-424.937 -342)" class="color5232c2 svgShape"></path></svg></g></svg>