<?xml version="1.0" encoding="utf-8"?>
<!-- Generator: Adobe Illustrator 16.0.0, SVG Export Plug-In . SVG Version: 6.00 Build 0)  -->
<!DOCTYPE svg PUBLIC "-//W3C//DTD SVG 1.1//EN" "http://www.w3.org/Graphics/SVG/1.1/DTD/svg11.dtd">
<svg version="1.1" id="Layer_1" xmlns="http://www.w3.org/2000/svg" xmlns:xlink="http://www.w3.org/1999/xlink" x="0px" y="0px"
	 width="200.163px" height="199.977px" viewBox="649.945 0.023 200.163 199.977"
	 enable-background="new 649.945 0.023 200.163 199.977" xml:space="preserve">
<title>cancelado</title>
<path fill="#EDEDED" d="M679.902,124.691l-24.385,7.957c13.696,39.541,50.564,66.375,92.402,67.248v-25.564
	C717.173,173.418,690.149,153.697,679.902,124.691z"/>
<path fill="#EDEDED" d="M845.457,130.082L845.457,130.082z"/>
<path fill="#EDEDED" d="M824.461,99.897c0,7.162-1.037,14.287-3.08,21.149l24.437,7.957c12.136-40.08-2.028-83.473-35.474-108.675
	l-15.092,20.534C813.657,54.913,824.458,76.742,824.461,99.897z"/>
<path fill="#EDEDED" d="M654.595,130.082L654.595,130.082z"/>
<path fill="#EDEDED" d="M751.977,174.332V200c41.838-0.875,78.706-27.707,92.402-67.248l-24.436-7.957
	C809.669,153.742,782.679,173.414,751.977,174.332z"/>
<path fill="#EDEDED" d="M675.59,99.897c0.004-23.155,10.805-44.985,29.21-59.035l-15.093-20.534
	C656.264,45.53,642.1,88.924,654.235,129.003l24.435-7.957C676.627,114.184,675.589,107.059,675.59,99.897z"/>
<path fill="#EDEDED" d="M750.025,25.462c15.059-0.011,29.763,4.574,42.146,13.142l15.092-20.534
	c-34.364-24.062-80.109-24.062-114.477,0l15.093,20.534C720.264,30.036,734.967,25.451,750.025,25.462z"/>
<path fill="#EDEDED" d="M751.977,200"/>
<path fill="#EDEDED" d="M748.126,200L748.126,200z"/>
<path fill="#EDEDED" d="M844.636,132.648l0.821-2.566c0,0.873-0.616,1.693-0.924,2.566H844.636z"/>
<path fill="#EDEDED" d="M845.816,129.004L845.816,129.004L845.816,129.004z"/>
<path fill="#EDEDED" d="M810.446,20.021l-3.131-2.259l0,0c1.077,0.719,2.053,1.54,3.079,2.31L810.446,20.021z"/>
<path fill="#EDEDED" d="M692.736,17.762l-3.133,2.259v0.308l3.08-2.31L692.736,17.762z"/>
<path fill="#EDEDED" d="M654.235,129.004L654.235,129.004z"/>
<path fill="#EDEDED" d="M655.416,132.648L655.416,132.648c-0.229-0.869-0.502-1.728-0.821-2.566L655.416,132.648z"/>
<path fill="#C63823" d="M786.627,136.346h-22.792l-14.22-22.793L735.6,136.346h-22.278l24.179-37.27L714.759,63.45h21.817
	l13.142,22.536l12.681-22.536h22.483l-23.049,37.167L786.627,136.346z"/>
</svg>
