<svg version="1.1" id="Layer_1" xmlns="http://www.w3.org/2000/svg" xmlns:xlink="http://www.w3.org/1999/xlink" x="0px" y="0px"
	 width="179px" height="200px" viewBox="0 0 179 200" enable-background="new 0 0 179 200" xml:space="preserve">
<path fill-rule="evenodd" clip-rule="evenodd" fill="#C63823" d="M4.917,54.22C4.788,46.553,7.1,39.956,12.914,34.639
	c4.517-4.145,8.786-8.575,13.055-13c6.916-7.187,17.604-6.344,24.033-0.033c7.554,7.414,15.011,14.929,22.467,22.445
	c6.149,6.208,6.798,15.162,1.621,21.619c-1.675,2.102-3.804,3.615-6.343,4.517c-4.647,1.659-8.225,4.496-10.234,9.115
	c-1.329,3.08-1.513,6.214-0.659,9.472c1.978,7.462,5.857,13.902,10.677,19.809c7.176,8.812,15.54,16.226,25.807,21.283
	c3.836,1.892,7.812,3.545,12.266,2.967c6.04-0.784,10.644-3.686,13-9.45c1.566-3.794,3.49-7.165,7.187-9.283
	c5.771-3.317,13.043-2.734,18.133,1.556c0.67,0.562,1.318,1.162,1.935,1.783c7.306,7.284,14.48,14.676,21.905,21.835
	c7.349,7.1,6.408,17.998-0.021,24.423c-4.658,4.652-9.402,9.218-13.93,13.989c-4.637,4.874-10.354,7.003-16.891,7.278
	c-7.003,0.297-13.725-1.271-20.295-3.496c-12.925-4.377-24.606-11.185-35.651-19.079c-18.316-13.103-34.364-28.61-48.197-46.371
	c-10.18-13.081-18.825-27.06-24.304-42.826C6.506,67.534,4.928,59.602,4.917,54.22z"/>
</svg>
