<svg version="1.1" id="_x34_93e9a47-0433-459d-bae2-e266ecfc1cf6"
	 xmlns="http://www.w3.org/2000/svg" xmlns:xlink="http://www.w3.org/1999/xlink" x="0px" y="0px" width="200.02px" height="200px"
	 viewBox="649.991 0 200.02 200" enable-background="new 649.991 0 200.02 200" xml:space="preserve">
<path fill="#DB4B36" d="M750.028,0c54.981,0.037,100.015,44.945,99.982,99.704c-0.032,55.1-44.899,100.217-99.737,100.295
	c-55.644,0.08-100.367-44.805-100.282-100.644C650.072,44.703,695.119-0.037,750.028,0z M750.12,177.619
	c43.151-0.166,77.817-35.232,77.665-78.562c-0.148-42.307-35.369-77.02-77.956-76.832c-43.301,0.192-77.768,35.035-77.607,78.452
	C672.382,142.962,707.635,177.783,750.12,177.619L750.12,177.619z"/>
<path fill="#C63823" d="M749.968,155.229c-30.771-0.07-55.452-24.979-55.362-55.871c0.09-30.304,25.103-55.133,55.436-55.026
	c30.835,0.108,55.46,24.958,55.355,55.86C805.295,130.51,780.332,155.297,749.968,155.229z M750.094,66.774
	c-18.342-0.122-33.229,14.647-33.332,33.066c-0.102,18.392,14.459,33.101,33.026,33.362c18.262,0.258,33.269-14.504,33.481-32.93
	C783.482,81.878,768.647,66.897,750.094,66.774L750.094,66.774z"/>
</svg>
