<svg id="SvgjsSvg1057" width="288" height="288" xmlns="http://www.w3.org/2000/svg" version="1.1" xmlns:xlink="http://www.w3.org/1999/xlink" xmlns:svgjs="http://svgjs.com/svgjs"><defs id="SvgjsDefs1058"></defs><g id="SvgjsG1059"><svg xmlns="http://www.w3.org/2000/svg" viewBox="0 0 38.99 38.96" width="288" height="288"><path fill="#f4a89c" d="M5.84,24.33,1.09,25.88a19.48,19.48,0,0,0,18,13.1V34A14.51,14.51,0,0,1,5.84,24.33Z" transform="translate(0 -.04)" class="color30bcc5 svgShape"></path><path fill="#ededed" d="M38.09,25.38v0Z" transform="translate(0 -.04)" class="colorededed svgShape"></path><path fill="#f4a89c" d="M34,19.5a14.44,14.44,0,0,1-.6,4.12l4.76,1.55A19.45,19.45,0,0,0,31.25,4L28.31,8A14.47,14.47,0,0,1,34,19.5Z" transform="translate(0 -.04)" class="color30bcc5 svgShape"></path><path fill="#ededed" d="M.91,25.38v0Z" transform="translate(0 -.04)" class="colorededed svgShape"></path><path fill="#f4a89c" d="M19.88,34v5a19.48,19.48,0,0,0,18-13.1l-4.76-1.55A14.51,14.51,0,0,1,19.88,34Z" transform="translate(0 -.04)" class="color30bcc5 svgShape"></path><path fill="#ededed" d="M5,19.5A14.47,14.47,0,0,1,10.69,8L7.75,4A19.45,19.45,0,0,0,.84,25.17L5.6,23.62A14.43,14.43,0,0,1,5,19.5Z" transform="translate(0 -.04)" class="colorededed svgShape"></path><path fill="#f4a89c" d="M19.5,5a14.41,14.41,0,0,1,8.21,2.56l2.94-4a19.44,19.44,0,0,0-22.3,0l2.94,4A14.41,14.41,0,0,1,19.5,5Z" transform="translate(0 -.04)" class="color30bcc5 svgShape"></path><path fill="#ededed" d="M19.88 39zM19.13 39h0zM37.93 25.88l.16-.5c0 .17-.12.33-.18.5zM38.16 25.17h0v0zM31.27 3.94l-.61-.44h0c.21.14.4.3.6.45zM8.34 3.5l-.61.44V4l.6-.45zM.84 25.17v0zM1.07 25.88h0a4.83 4.83 0 00-.16-.5z" transform="translate(0 -.04)" class="colorededed svgShape"></path><path fill="#f4a89c" d="M27.4,20.14c0,2.6,0,5.2,0,7.8A1.34,1.34,0,0,1,26,29.36q-6.62.11-13.24,0a1.24,1.24,0,0,1-1.2-1.19c0-.11,0-.21,0-.32q0-7.72,0-15.43a1.45,1.45,0,0,1,.57-1.28,1.67,1.67,0,0,1,1-.23c.35,0,.8-.13,1,0s.06.64.08,1a9.42,9.42,0,0,0,0,1.32,2,2,0,0,0,1.64,1.58,3.6,3.6,0,0,0,.53,0h6.12a2,2,0,0,0,2.21-2.19c0-.49,0-1,0-1.47,0-.2.06-.28.25-.3a4.61,4.61,0,0,1,1.53.08,1.19,1.19,0,0,1,.84,1.2q0,2.06,0,4.12c0,1.29,0,2.58,0,3.87ZM14.93,17.49a.65.65,0,0,0-.66.4.61.61,0,0,0,.15.72c.41.42.82.83,1.24,1.24a.68.68,0,0,0,1.09,0l2.5-2.5a.67.67,0,1,0-.94-.93L17,17.76c-.24.23-.46.62-.72.65s-.5-.41-.76-.63S15.14,17.48,14.93,17.49Zm1.28,7.91a.7.7,0,0,0,.55-.27l2.45-2.45c.36-.36.39-.75.11-1s-.69-.26-1.06.11c-.62.61-1.24,1.22-1.84,1.84-.15.16-.25.17-.4,0s-.4-.4-.61-.6a.67.67,0,0,0-1,0,.65.65,0,0,0,0,1c.42.43.84.84,1.26,1.26A.59.59,0,0,0,16.21,25.41Zm6.6-1.3h1.36a.47.47,0,0,0,.35-.13.72.72,0,0,0,.23-.78.62.62,0,0,0-.63-.44c-.89,0-1.78,0-2.68,0a.67.67,0,0,0-.62.7.7.7,0,0,0,.71.65Zm0-6.61h0c-.46,0-.93,0-1.39,0a.63.63,0,0,0-.57.65.67.67,0,0,0,.62.65h2.64a.64.64,0,0,0,.68-.66.64.64,0,0,0-.69-.65Z" transform="translate(0 -.04)" class="color5232c2 svgShape"></path><path fill="#f4a89c" d="M19.49,13.51H16.34c-.54,0-.79-.24-.79-.78q0-1.25,0-2.51c0-.44.21-.64.67-.66s.74,0,1.11,0a.36.36,0,0,0,.39-.23,1.88,1.88,0,0,1,1.75-1.1,1.93,1.93,0,0,1,1.79,1.11.34.34,0,0,0,.36.22c.38,0,.76,0,1.15,0a.64.64,0,0,1,.67.65q0,1.34,0,2.69a.63.63,0,0,1-.69.62Z" transform="translate(0 -.04)" class="color5232c2 svgShape"></path></svg></g></svg>