<svg version="1.1" id="Layer_1" xmlns="http://www.w3.org/2000/svg" xmlns:xlink="http://www.w3.org/1999/xlink" x="0px" y="0px"
	 width="212px" height="200px" viewBox="643.5 0 212 200" enable-background="new 643.5 0 212 200" xml:space="preserve">
<path fill="#DB4B36" d="M679.902,124.691l-24.384,7.957c13.696,39.542,50.564,66.375,92.402,67.249v-25.565
	C717.173,173.418,690.149,153.697,679.902,124.691z"/>
<path fill="#EDEDED" d="M845.457,130.082L845.457,130.082z"/>
<path fill="#DB4B36" d="M824.461,99.897c0,7.161-1.037,14.286-3.08,21.149l24.436,7.957c12.136-40.08-2.028-83.473-35.473-108.675
	l-15.092,20.534C813.657,54.913,824.458,76.742,824.461,99.897z"/>
<path fill="#EDEDED" d="M654.595,130.082L654.595,130.082z"/>
<path fill="#DB4B36" d="M751.977,174.332V200c41.837-0.875,78.706-27.707,92.402-67.248l-24.436-7.957
	C809.669,153.742,782.679,173.414,751.977,174.332z"/>
<path fill="#EDEDED" d="M675.59,99.897c0.004-23.155,10.805-44.985,29.21-59.035l-15.093-20.534
	c-33.443,25.202-47.607,68.596-35.472,108.675l24.435-7.957C676.627,114.184,675.589,107.059,675.59,99.897z"/>
<path fill="#DB4B36" d="M750.025,25.462c15.059-0.011,29.763,4.574,42.146,13.142l15.092-20.534
	c-34.365-24.062-80.11-24.062-114.477,0l15.093,20.534C720.264,30.036,734.967,25.451,750.025,25.462z"/>
<path fill="#EDEDED" d="M751.977,200"/>
<path fill="#EDEDED" d="M748.126,200L748.126,200z"/>
<path fill="#EDEDED" d="M844.636,132.648l0.821-2.566c0,0.873-0.616,1.694-0.924,2.566H844.636z"/>
<path fill="#EDEDED" d="M845.816,129.004L845.816,129.004L845.816,129.004z"/>
<path fill="#EDEDED" d="M810.446,20.021l-3.131-2.259l0,0c1.078,0.719,2.053,1.54,3.08,2.31L810.446,20.021z"/>
<path fill="#EDEDED" d="M692.736,17.762l-3.132,2.259v0.308l3.08-2.31L692.736,17.762z"/>
<path fill="#EDEDED" d="M654.235,129.004L654.235,129.004z"/>
<path fill="#EDEDED" d="M655.416,132.648L655.416,132.648c-0.228-0.869-0.502-1.727-0.821-2.566L655.416,132.648z"/>
<path fill="#C63823" d="M790.58,103.183c0,13.347,0,26.694,0,40.041c0.23,3.792-2.656,7.054-6.448,7.284
	c-0.246,0.016-0.492,0.018-0.738,0.006c-22.656,0.376-45.312,0.376-67.968,0c-3.338-0.105-6.027-2.772-6.16-6.109
	c0-0.564,0-1.078,0-1.643c0-26.42,0-52.823,0-79.209c-0.218-2.547,0.887-5.028,2.927-6.571c1.544-0.922,3.341-1.335,5.133-1.181
	c1.797,0,4.107-0.667,5.134,0s0.308,3.286,0.41,5.133c-0.158,2.256-0.158,4.521,0,6.776c0.844,4.193,4.197,7.425,8.419,8.111
	c0.906,0.067,1.815,0.067,2.722,0h31.416c5.636,0.625,10.711-3.438,11.336-9.074c0.079-0.721,0.082-1.447,0.01-2.168
	c0-2.516,0-5.133,0-7.546c0-1.026,0.308-1.437,1.283-1.54c2.622-0.302,5.277-0.163,7.854,0.411c2.681,0.821,4.459,3.361,4.312,6.16
	c0,7.05,0,14.1,0,21.15c0,6.623,0,13.245,0,19.867L790.58,103.183z M726.565,89.579c-1.457-0.133-2.831,0.7-3.388,2.053
	c-0.599,1.266-0.284,2.775,0.77,3.696c2.105,2.156,4.21,4.261,6.366,6.365c1.152,1.546,3.34,1.863,4.885,0.711
	c0.27-0.201,0.509-0.44,0.71-0.711l12.834-12.833c1.537-1.116,1.878-3.267,0.762-4.804c-1.115-1.537-3.267-1.878-4.804-0.762
	c-0.303,0.219-0.567,0.487-0.783,0.792l-6.725,6.878c-1.232,1.181-2.362,3.183-3.696,3.337c-1.335,0.154-2.566-2.104-3.901-3.234
	S727.644,89.528,726.565,89.579z M733.137,130.185c1.104-0.003,2.145-0.515,2.823-1.386l12.577-12.577
	c1.848-1.849,2.002-3.851,0.564-5.134s-3.542-1.334-5.441,0.564c-3.183,3.132-6.365,6.264-9.445,9.446
	c-0.771,0.821-1.283,0.872-2.054,0s-2.054-2.054-3.132-3.08c-1.264-1.417-3.438-1.542-4.855-0.277
	c-0.098,0.087-0.19,0.18-0.277,0.277c-1.418,1.177-1.612,3.281-0.435,4.698c0.131,0.158,0.276,0.304,0.435,0.436
	c2.156,2.207,4.312,4.312,6.468,6.468c0.765,0.653,1.804,0.884,2.772,0.616V130.185z M767.018,123.512h6.981
	c0.665,0.035,1.315-0.207,1.797-0.668c1.182-0.963,1.65-2.553,1.181-4.004c-0.426-1.41-1.764-2.346-3.234-2.259
	c-4.568,0-9.138,0-13.758,0c-1.859,0.138-3.271,1.731-3.183,3.593c0.136,1.904,1.736,3.369,3.645,3.338H767.018z M767.018,89.579
	L767.018,89.579c-2.361,0-4.774,0-7.136,0c-1.705,0.162-2.988,1.625-2.926,3.337c0.048,1.764,1.423,3.206,3.183,3.336h13.553
	c1.811,0.115,3.371-1.261,3.485-3.072c0.007-0.105,0.009-0.211,0.005-0.316c0.034-1.814-1.409-3.312-3.224-3.346
	c-0.106-0.002-0.212,0.001-0.318,0.01L767.018,89.579z"/>
<path fill="#C63823" d="M749.975,69.148h-16.171c-2.771,0-4.056-1.232-4.056-4.004c0-4.278,0-8.573,0-12.885
	c0-2.259,1.078-3.286,3.439-3.388s3.799,0,5.698,0c0.862,0.128,1.697-0.364,2.002-1.181c1.599-3.507,5.131-5.728,8.983-5.647
	c3.921-0.086,7.524,2.147,9.189,5.698c0.279,0.759,1.045,1.227,1.848,1.129c1.951,0,3.902,0,5.904,0
	c1.812-0.085,3.351,1.315,3.436,3.127c0.004,0.07,0.005,0.14,0.004,0.209c0,4.586,0,9.189,0,13.809
	c-0.021,1.786-1.484,3.217-3.271,3.197c-0.09-0.001-0.181-0.006-0.271-0.015L749.975,69.148z"/>
</svg>
