<svg id="SvgjsSvg1071" width="288" height="288" xmlns="http://www.w3.org/2000/svg" version="1.1" xmlns:xlink="http://www.w3.org/1999/xlink" xmlns:svgjs="http://svgjs.com/svgjs"><defs id="SvgjsDefs1072"></defs><g id="SvgjsG1073"><svg xmlns="http://www.w3.org/2000/svg" viewBox="0 0 38.99 38.96" width="288" height="288"><path fill="#f4a89c" d="M5.84,24.33,1.09,25.88a19.48,19.48,0,0,0,18,13.1V34A14.51,14.51,0,0,1,5.84,24.33Z" transform="translate(0 -.04)" class="color30bcc5 svgShape"></path><path fill="#ededed" d="M38.09,25.38v0Z" transform="translate(0 -.04)" class="colorededed svgShape"></path><path fill="#f4a89c" d="M34,19.5a14.44,14.44,0,0,1-.6,4.12l4.76,1.55A19.45,19.45,0,0,0,31.25,4L28.31,8A14.47,14.47,0,0,1,34,19.5Z" transform="translate(0 -.04)" class="color30bcc5 svgShape"></path><path fill="#ededed" d="M.91,25.38v0Z" transform="translate(0 -.04)" class="colorededed svgShape"></path><path fill="#f4a89c" d="M19.88 34v5a19.48 19.48 0 0018-13.1l-4.76-1.55A14.51 14.51 0 0119.88 34zM5 19.5A14.47 14.47 0 0110.69 8L7.75 4A19.45 19.45 0 00.84 25.17L5.6 23.62A14.43 14.43 0 015 19.5zM19.5 5a14.41 14.41 0 018.21 2.56l2.94-4a19.44 19.44 0 00-22.3 0l2.94 4A14.41 14.41 0 0119.5 5z" transform="translate(0 -.04)" class="color30bcc5 svgShape"></path><path fill="#ededed" d="M19.88 39zM19.13 39h0zM37.93 25.88l.16-.5c0 .17-.12.33-.18.5zM38.16 25.17h0v0zM31.27 3.94l-.61-.44h0c.21.14.4.3.6.45zM8.34 3.5l-.61.44V4l.6-.45zM.84 25.17v0zM1.07 25.88h0a4.83 4.83 0 00-.16-.5z" transform="translate(0 -.04)" class="colorededed svgShape"></path><path fill="#f4a89c" d="M12.49,19.17a1.63,1.63,0,0,1,.78.24c.8.46,1.62.89,2.41,1.38a1.68,1.68,0,0,0,2-.28c2.25-2.34,4.51-4.67,6.77-7,.3-.3.6-.6.91-.89a1,1,0,0,1,1.3-.06,13.32,13.32,0,0,1,1.69,1.62,1,1,0,0,1-.11,1.47q-1.73,1.82-3.48,3.63l-7,7.18a.36.36,0,0,1-.52.08l-6-3.42a3.93,3.93,0,0,1-.4-.26,1,1,0,0,1-.34-1.3,18.33,18.33,0,0,1,1.16-2A1,1,0,0,1,12.49,19.17Z" transform="translate(0 -.04)" class="color5232c2 svgShape"></path></svg></g></svg>