<svg id="SvgjsSvg1109" width="288" height="288" xmlns="http://www.w3.org/2000/svg" version="1.1" xmlns:xlink="http://www.w3.org/1999/xlink" xmlns:svgjs="http://svgjs.com/svgjs"><defs id="SvgjsDefs1110"></defs><g id="SvgjsG1111"><svg xmlns="http://www.w3.org/2000/svg" viewBox="0 0 1216.782 1218.047" width="288" height="288"><path fill="#ffffff" d="M1232.773,935.267c0,79.82-.547,159.647.345,239.457.256,22.875-14.933,42.793-42.509,43.266q-203.215,3.482-406.383-.67c-19.679-.407-35.126-15.853-36.748-36.426-.258-3.277-.138-6.587-.138-9.882q0-236.717-.034-473.435c-.006-15.794,3.9-29.5,17.395-39.364,8.924-6.523,19.282-6.5,29.367-7.058,10.891-.606,24.686-3.886,31.983,1.326,7.2,5.144,1.765,19.762,2.366,30.2.776,13.495-1.272,27.1,1.4,40.529,5.12,25.7,24.536,44.419,50.363,48.344a110.411,110.411,0,0,0,16.407,1.079q93.917.109,187.834.037c43.031-.029,67.656-24.483,67.818-67.261.057-15.012.322-30.034-.128-45.032-.182-6.082,1.94-8.561,7.746-9.125,15.771-1.532,31.586-1.322,46.9,2.367,15.512,3.736,25.718,18.926,25.891,36.694q.615,63.157.728,126.319c.115,39.544.025,79.089.025,118.633ZM850.1,853.977c-10.052-.053-16.6,4.222-20.132,12.361-3.641,8.384-1.637,15.805,4.467,22.071,12.5,12.826,25.063,25.593,37.9,38.082,11.49,11.182,22.02,11.266,33.369.07q38.641-38.12,76.828-76.7c10.123-10.205,10.678-22.65,1.971-31-9-8.638-20.39-7.818-30.854,2.468-13.816,13.581-27.455,27.341-41.253,40.941-7.264,7.16-14.168,19.046-22.2,19.922-9.294,1.014-15.426-12.568-23.309-19.386C861.521,858.165,856.594,853.377,850.1,853.977Zm39.211,242.8c7.22.574,12.211-3.588,16.973-8.352,25.065-25.071,50.222-50.049,75.222-75.184,10.91-10.97,11.993-23.124,3.256-31.809-9.175-9.121-21.042-7.877-32.516,3.521-18.929,18.8-37.972,37.5-56.595,56.6-4.671,4.791-7.561,5.287-12.168.149-5.841-6.514-12.382-12.42-18.806-18.389-10.079-9.365-21.706-9.834-30.259-1.437-8.659,8.5-8.358,20.032,1.361,30.027,12.738,13.1,25.813,25.872,38.756,38.772C878.584,1094.7,883.263,1097.286,889.313,1096.774Zm202.645-39.986c13.874,0,27.748-.065,41.621.039,4.18.031,7.547-.878,10.834-3.922,7.243-6.708,9.559-14.731,6.907-23.836-2.713-9.313-10.61-13.314-19.336-13.494-27.368-.562-54.763-.688-82.129-.132-11.093.226-19.679,10.982-19.094,21.446.619,11.083,10.1,19.823,21.766,19.89C1065.671,1056.855,1078.815,1056.8,1091.958,1056.788Zm-.511-202.892v.223c-14.242,0-28.5-.392-42.72.133-10.113.373-17.837,9.738-17.637,19.936.2,10.4,8.987,19.977,19.086,20.045,27.028.183,54.06.279,81.085-.03,12.972-.148,21.007-8.451,20.943-20.36-.063-11.681-8.351-19.642-21.31-19.891C1117.75,853.7,1104.6,853.9,1091.448,853.9Z" transform="translate(-380.945 -285)" class="color5232c2 svgShape"></path><path fill="#ffffff" d="M986.662,370.4c0,24.9-.234,49.794.147,74.684.11,7.2-1.33,10.074-9.415,10.388C910,458.09,845.555,473.314,786.244,505.761c-124.581,68.153-202.027,171.76-227.979,311.9-18.114,97.812-2.369,191.171,42.514,279.765,7.22,14.251,7.217,14.386-6,22.027-39.88,23.047-79.617,46.353-119.814,68.834-16.953,9.481-13.39,9.65-22.058-6.339-33.52-61.834-55.1-127.8-65.768-197.179-7.8-50.752-7.629-101.838-2.8-152.937,9.5-100.547,42.608-193.006,99.141-276.233C578,416.424,708.509,330.062,873.558,296.187A540.667,540.667,0,0,1,976.785,285c7.526-.081,10.184,1.742,10.044,9.62C986.378,319.876,986.661,345.143,986.662,370.4Z" transform="translate(-380.945 -285)" class="color30bcc5 svgShape"></path><path fill="#ededed" d="M994.42 1503c-92.618-1.935-176.5-18.321-256.378-54.925-78.263-35.866-145.393-86.312-202.9-149.816a565.609 565.609 0 01-62.7-83.96c-4.807-7.83-4.268-11.913 3.443-16.387 34.072-19.772 67.973-39.838 102-59.694 8.826-5.151 18.141-9.506 26.717-15.027 5.468-3.52 8.14-2.415 11.351 2.724 21.827 34.932 49.363 65.056 79.234 93.165 36.3 34.157 78.252 59.515 123.656 79.553a400.449 400.449 0 00117.628 32.012c27.326 3.041 54.963 4.23 82.9 1.588 28.01-2.65 55.6-6.1 82.747-13.288 58.227-15.421 111.458-41.013 158.846-78.345 41.335-32.563 76.189-71.016 103.689-115.953 3.84-6.274 7.726-6.239 13.459-2.891q51.973 30.355 104.134 60.39c7.579 4.387 15.06 8.972 22.827 13 7.849 4.07 10.862 8.709 4.951 16.947-15.292 21.312-29.428 43.506-45.566 64.143a502.9 502.9 0 01-51.678 56.523 648.844 648.844 0 01-120.678 89.964c-57.435 33.112-118.869 55.621-183.762 68.279-27.765 5.416-55.847 9.542-84.389 10.018C1012.379 1501.215 1000.77 1503.393 994.42 1503zM1597.321 896.465c3.425 78.925-15.148 153.184-42.672 225.562-8.149 21.429-18.609 42.009-29.508 62.286-3.3 6.135-6.657 8.148-12.895 4.561-42.379-24.373-84.568-49.091-127.358-72.72-9.731-5.373-8.549-10.489-4.767-17.949a483.894 483.894 0 0031.852-79.146 436.894 436.894 0 0016.678-88.79 401.52 401.52 0 001.765-44.777 441.272 441.272 0 00-34.907-162.322c-17.909-42.344-42.265-80.491-72.179-115.443-67.437-78.8-152.847-126.066-253.9-145.859-21.692-4.249-43.807-7.2-66.072-6.974-7.7.08-10.22-3.058-10.193-10.489.184-49.787.262-99.575-.071-149.36-.055-8.2 3.266-9.876 10.416-9.511 41.815 2.133 83.323 6.122 124.235 15.776 77.666 18.326 149.393 49.754 214.313 96.19a633.883 633.883 0 01114.481 105.838c33.819 39.8 61.427 83.369 84.023 130.177 25.028 51.843 41 106.581 50.513 163.346A507.22 507.22 0 011597.321 896.465z" transform="translate(-380.945 -285)" class="colorededed svgShape"></path><path fill="#ffffff" d="M990.169,731.7c-32.224.016-64.449.07-96.673-.006-16.7-.04-24.309-7.377-24.272-23.93q.086-38.445.841-76.887c.246-13.625,6.506-19.707,20.4-20.118,11.344-.336,22.708-.558,34.047-.251,5.811.157,9.086-1.465,11.854-7.013,10.972-21.993,29.806-33.618,53.759-33.753,24.478-.138,43.289,12.167,54.84,34.051,2.642,5.006,5.431,6.861,10.9,6.7,11.708-.344,23.437-.295,35.149-.033,11.744.263,20.4,8.214,20.528,19.876q.468,41.188-.227,82.386c-.2,11.58-8.788,18.867-21.188,18.916C1056.814,731.766,1023.491,731.68,990.169,731.7Z" transform="translate(-380.945 -285)" class="color5232c2 svgShape"></path><path fill="#fbfbfb" d="M850.1 853.977c6.492-.6 11.419 4.188 16.781 8.826 7.883 6.818 14.014 20.4 23.309 19.386 8.035-.876 14.939-12.762 22.2-19.922 13.8-13.6 27.437-27.36 41.253-40.941 10.464-10.286 21.85-11.106 30.854-2.468 8.707 8.353 8.153 20.8-1.971 31Q944.3 888.4 905.7 926.561c-11.349 11.2-21.879 11.111-33.369-.07-12.832-12.488-25.4-25.255-37.9-38.082-6.1-6.265-8.108-13.686-4.467-22.071C833.505 858.2 840.051 853.924 850.1 853.977zM889.313 1096.774c-6.05.512-10.729-2.07-14.774-6.1-12.943-12.9-26.019-25.672-38.756-38.772-9.719-10-10.02-21.525-1.361-30.027 8.553-8.4 20.18-7.929 30.259 1.437 6.424 5.969 12.964 11.875 18.806 18.389 4.607 5.137 7.5 4.642 12.168-.149 18.623-19.1 37.666-37.8 56.595-56.6 11.474-11.4 23.34-12.641 32.516-3.521 8.737 8.685 7.654 20.839-3.256 31.809-25 25.135-50.157 50.113-75.222 75.184C901.524 1093.185 896.533 1097.348 889.313 1096.774z" transform="translate(-380.945 -285)" class="colorfbfbfb svgShape"></path><path fill="#fcfcfc" d="M1091.958 1056.792c-13.144 0-26.288.062-39.431-.013-11.662-.067-21.147-8.808-21.766-19.89-.585-10.464 8-21.22 19.094-21.446 27.367-.556 54.761-.43 82.129.132 8.725.179 16.623 4.181 19.336 13.494 2.652 9.1.336 17.128-6.907 23.836-3.287 3.044-6.654 3.954-10.834 3.922C1119.707 1056.723 1105.832 1056.788 1091.958 1056.792zM1091.448 853.9c13.149 0 26.3-.2 39.446.056 12.959.249 21.247 8.211 21.31 19.891.064 11.909-7.97 20.212-20.943 20.36-27.025.309-54.058.213-81.085.03-10.1-.068-18.882-9.646-19.086-20.045-.2-10.2 7.524-19.564 17.637-19.936 14.222-.524 28.479-.133 42.72-.133z" transform="translate(-380.945 -285)" class="colorfcfcfc svgShape"></path></svg></g></svg>