<?xml version="1.0" encoding="utf-8"?>
<!-- Generator: Adobe Illustrator 16.0.0, SVG Export Plug-In . SVG Version: 6.00 Build 0)  -->
<!DOCTYPE svg PUBLIC "-//W3C//DTD SVG 1.1//EN" "http://www.w3.org/Graphics/SVG/1.1/DTD/svg11.dtd">
<svg version="1.1" id="Layer_1" xmlns="http://www.w3.org/2000/svg" xmlns:xlink="http://www.w3.org/1999/xlink" x="0px" y="0px"
	 width="232px" height="200px" viewBox="633.5 0 232 200" enable-background="new 633.5 0 232 200" xml:space="preserve">
<g>
	<path fill="#C63823" d="M820.062,199.996c-11.042,0-22.084-0.002-33.126-0.004c-4.804-0.004-6.059-1.297-6.06-6.158
		c-0.001-9.402,0-18.806,0.002-28.209c0.003-3.872,1.527-5.478,5.47-5.51c7.159-0.059,14.319-0.019,21.479-0.019
		c14.924,0,29.848,0,44.771,0c5.652,0.001,6.897,1.224,6.897,6.747c0,9.059,0,18.115-0.001,27.174
		c-0.002,4.583-1.39,5.969-6.051,5.973C842.318,200.004,831.19,200.005,820.062,199.996z"/>
	<path fill="#C63823" d="M771.028,100.3c10.61-0.001,21.221-0.001,31.831,0c6.479,0.001,7.397,0.905,7.397,7.255
		c0,8.972-0.001,17.943-0.003,26.915c-0.004,4.068-1.499,5.771-5.536,5.78c-22.516,0.052-45.03,0.053-67.546,0.002
		c-4.062-0.009-5.515-1.656-5.518-5.738c-0.005-9.488-0.005-18.979,0-28.467c0.003-4.305,1.347-5.715,5.73-5.731
		C748.6,100.272,759.813,100.301,771.028,100.3z"/>
	<path fill="#C63823" d="M721.492,199.995c-11.037,0.001-22.074-0.001-33.111-0.003c-4.67-0.006-5.93-1.302-5.932-6.015
		c-0.002-9.485-0.002-18.971,0.004-28.456c0.004-3.76,1.509-5.404,5.283-5.412c22.679-0.039,45.356-0.037,68.035,0.005
		c3.632,0.007,5.161,1.671,5.17,5.28c0.021,9.743,0.022,19.486,0.001,29.23c-0.008,3.81-1.503,5.348-5.303,5.357
		C744.257,200.014,732.874,199.994,721.492,199.995z"/>
	<path fill="#C63823" d="M731.271,60.796c-2.227-5.896-6.062-8.845-11.955-7.549c-2.923,0.663-5.688,1.889-8.142,3.609
		c-2.838,2.005-5.146,4.757-7.92,7.411l-21.298-14.959c1.825-2.617,3.623-5.196,5.422-7.773c0.346-0.494,0.674-1.004,1.054-1.472
		c8.888-10.934,4.233-22.272-6.507-28.292c-6.655-3.73-13.773-3.981-21.088-3.114c-1.886,0.223-4.296,1.234-4.952-1.58
		c-0.644-2.759,1.727-3.338,3.733-3.985c17.566-5.665,34.419-3.265,50.564,4.917c5.736,2.907,11.014,6.723,16.479,10.161
		c0.571,0.374,1.051,0.873,1.399,1.46c6.535,11.002,8.899,12.694,21.485,15.072L731.271,60.796z"/>
	<path fill="#C63823" d="M681.731,55.765l16.573,11.62c-0.512,0.807-0.89,1.458-1.319,2.071
		c-13.003,18.555-26.045,37.085-38.966,55.697c-1.285,1.853-2.513,2.177-4.483,1.604c-5.354-1.553-9.617-4.602-12.631-9.252
		c-0.497-0.77-0.559-2.427-0.061-3.146c13.357-19.254,26.775-38.465,40.254-57.635C681.295,56.445,681.476,56.154,681.731,55.765z"
		/>
	<path fill="#C63823" d="M733.864,65.553l21.454-31.073c1.84,1.292,3.601,2.372,5.176,3.675c2.104,1.741,2.574,4.214,1.028,6.484
		c-5.279,7.759-10.638,15.464-16.075,23.115c-1.546,2.176-4.364,2.553-6.716,1.136C737.12,67.918,735.617,66.765,733.864,65.553z"/>
</g>
</svg>
