<?xml version="1.0" encoding="utf-8"?>
<!-- Generator: Adobe Illustrator 16.0.0, SVG Export Plug-In . SVG Version: 6.00 Build 0)  -->
<!DOCTYPE svg PUBLIC "-//W3C//DTD SVG 1.0//EN" "http://www.w3.org/TR/2001/REC-SVG-20010904/DTD/svg10.dtd">
<svg version="1.0" id="Layer_1" xmlns="http://www.w3.org/2000/svg" xmlns:xlink="http://www.w3.org/1999/xlink" x="0px" y="0px"
	 width="200px" height="200px" viewBox="-210.5 0.25 200 200" enable-background="new -210.5 0.25 200 200" xml:space="preserve">
<path fill="#FFFFFF" d="M-110.5,0.25c-55.229,0-100,44.771-100,100s44.771,100,100,100s100-44.771,100-100S-55.271,0.25-110.5,0.25z
	 M-110.5,186.347c-47.55,0-86.097-38.547-86.097-86.097s38.547-86.097,86.097-86.097S-24.403,52.7-24.403,100.25
	S-62.95,186.347-110.5,186.347z"/>
<path fill="#FFFFFF" d="M-69.501,41.019c0,3.782,0.023,7.429-0.013,11.074c-0.013,1.384-0.049,2.405,1.787,2.932
	c2.444,0.702,2.821,2.97,2.816,5.279c-0.024,10.731-0.027,21.462-0.01,32.194c0,2.478,0,4.957,0,7.612h4.407v36.428h-8.987
	c0,2.534,0.002,4.833-0.002,7.133c-0.004,3.078,0.087,6.159-0.045,9.232c-0.202,4.623-3.269,6.611-9.844,6.553
	c-5.116-0.046-8.125-2.41-8.23-6.682c-0.109-4.405-0.032-8.816-0.036-13.225c-0.001-0.896,0-1.79,0-2.807h-45.646
	c0,4.84,0.045,9.646-0.028,14.448c-0.02,1.389-0.111,2.88-0.63,4.134c-1.474,3.559-4.607,4.133-8.046,4.154
	c-3.639,0.022-7.12-0.239-8.855-4.095c-0.49-1.088-0.607-2.414-0.624-3.635c-0.067-4.905-0.028-9.812-0.028-15.065h-8.968v-36.42
	l4.43-0.224c0-0.979,0-1.866,0-2.752c0-12.229,0-24.457,0.002-36.686c0.002-3.954,0.715-4.959,4.498-6.275V41.019H-69.501z
	 M-115.153,63.88h-31.713V100h31.713V63.88z M-105.849,99.978h31.59V63.862h-31.59V99.978z M-148.07,118.366
	c-0.005,3.796,2.988,6.79,6.792,6.794c3.795,0.006,6.833-3.02,6.804-6.776c-0.029-3.849-3.009-6.832-6.781-6.786
	C-145.122,111.644-148.065,114.567-148.07,118.366z M-72.912,118.49c0.012-3.848-2.935-6.883-6.688-6.89
	c-3.841-0.005-6.909,2.924-6.973,6.656c-0.062,3.709,2.985,6.835,6.73,6.9C-76.055,125.227-72.924,122.213-72.912,118.49z"/>
</svg>
