<?xml version="1.0" encoding="utf-8"?>
<!-- Generator: Adobe Illustrator 16.0.0, SVG Export Plug-In . SVG Version: 6.00 Build 0)  -->
<!DOCTYPE svg PUBLIC "-//W3C//DTD SVG 1.0//EN" "http://www.w3.org/TR/2001/REC-SVG-20010904/DTD/svg10.dtd">
<svg version="1.0" id="Layer_1" xmlns="http://www.w3.org/2000/svg" xmlns:xlink="http://www.w3.org/1999/xlink" x="0px" y="0px"
	 width="200px" height="200px" viewBox="-210.5 0.25 200 200" enable-background="new -210.5 0.25 200 200" xml:space="preserve">
<path fill="#C63823" d="M-110.5,0.25c-55.229,0-100,44.771-100,100s44.771,100,100,100s100-44.771,100-100S-55.271,0.25-110.5,0.25z
	 M-110.5,186.347c-47.55,0-86.097-38.547-86.097-86.097s38.547-86.097,86.097-86.097S-24.403,52.7-24.403,100.25
	S-62.95,186.347-110.5,186.347z"/>
<g>
	<path fill-rule="evenodd" clip-rule="evenodd" fill="#C63823" d="M-36.66,112.58c-6.444,0-12.742,0.015-19.039-0.028
		c-0.469-0.002-1.001-0.321-1.391-0.635c-6.648-5.347-15.729-5.359-22.309-0.06c-0.512,0.412-1.293,0.693-1.95,0.694
		c-19.449,0.036-38.896,0.035-58.344,0.003c-0.615-0.001-1.345-0.258-1.825-0.642c-6.721-5.379-15.687-5.371-22.423,0.042
		c-0.385,0.311-0.93,0.597-1.402,0.6c-6.205,0.032-12.411,0.013-18.617,0.002c-0.087,0-0.174-0.062-0.425-0.154
		c0-0.462,0-0.982,0-1.504c0-14.024-0.002-28.048,0-42.073c0.001-5.059,2.819-7.853,7.921-7.853
		c41.388-0.001,82.777,0.011,124.165-0.023c3.174-0.002,5.518,1.154,7.239,3.833c2.428,3.78,5.008,7.46,7.436,11.239
		c0.529,0.822,0.971,1.876,0.976,2.827c0.067,10.945,0.043,21.891,0.041,32.836C-36.606,111.923-36.634,112.159-36.66,112.58z
		 M-97.629,87.946c6.102,0,12.204,0.009,18.305-0.005c2.611-0.006,3.995-1.374,4.006-3.959c0.018-4.588,0.018-9.177,0-13.766
		c-0.011-2.582-1.399-3.955-4.009-3.956c-12.154-0.01-24.309-0.009-36.463-0.002c-2.708,0.003-4.071,1.352-4.08,4.031
		c-0.015,4.491-0.011,8.981-0.001,13.473c0.006,2.862,1.336,4.178,4.229,4.181C-109.638,87.951-103.634,87.946-97.629,87.946z
		 M-148.457,66.255c-5.956,0-11.911-0.01-17.866,0.005c-2.597,0.007-3.968,1.384-3.978,3.984c-0.016,4.54-0.014,9.079-0.001,13.619
		c0.007,2.694,1.366,4.076,4.037,4.079c11.763,0.01,23.528,0.009,35.292,0c2.688-0.003,4.043-1.367,4.052-4.062
		c0.015-4.442,0.009-8.883,0.002-13.326c-0.004-2.996-1.289-4.294-4.26-4.297C-136.938,66.25-142.698,66.255-148.457,66.255z
		 M-42.597,100.816c0.064-0.531,0.118-0.768,0.118-1.004c0.004-7.031,0.04-14.062-0.042-21.091c-0.01-0.893-0.474-1.898-1.013-2.644
		c-1.716-2.371-3.748-4.529-5.315-6.987c-1.492-2.34-3.309-3.169-6.028-2.886c-2.589,0.27-3.986,1.427-4.004,4.01
		c-0.019,2.734-0.005,5.468-0.005,8.202c0,6.152-0.007,12.304,0.005,18.455c0.004,2.216,1.183,3.859,3.12,3.909
		C-51.38,100.895-46.994,100.816-42.597,100.816z"/>
	<path fill-rule="evenodd" clip-rule="evenodd" fill="#C63823" d="M-83.905,133.634c-17.784,0-35.394,0-53.188,0
		c2.162-4.537,2.598-9.138,0.987-13.945c17.126,0,34.091,0,51.204,0C-86.479,124.482-86.075,129.085-83.905,133.634z"/>
	<path fill-rule="evenodd" clip-rule="evenodd" fill="#C63823" d="M-166.79,125.522c-0.02-7.758,6.303-14.121,14.025-14.117
		c7.776,0.004,14.077,6.267,14.122,14.031c0.044,7.733-6.3,14.114-14.031,14.114C-160.457,139.551-166.77,133.276-166.79,125.522z
		 M-152.686,132.507c3.81,0.004,6.992-3.168,6.998-6.979c0.006-3.907-3.164-7.086-7.054-7.073c-3.825,0.015-6.978,3.156-6.999,6.979
		C-159.762,129.324-156.592,132.502-152.686,132.507z"/>
	<path fill-rule="evenodd" clip-rule="evenodd" fill="#C63823" d="M-68.278,111.405c7.828,0.023,14.116,6.375,14.079,14.222
		c-0.037,7.649-6.396,13.94-14.075,13.923c-7.834-0.017-14.125-6.371-14.073-14.217C-82.296,117.667-75.948,111.383-68.278,111.405z
		 M-68.185,132.507c3.807-0.024,6.96-3.223,6.939-7.036c-0.023-3.904-3.219-7.057-7.112-7.016c-3.823,0.042-6.946,3.208-6.94,7.037
		C-75.291,129.377-72.092,132.532-68.185,132.507z"/>
	<path fill-rule="evenodd" clip-rule="evenodd" fill="#C63823" d="M-52.535,133.677c2.287-7.367,2.293-7.448,0.991-13.946
		c4.945,0,9.867,0,14.882,0c0,2.637,0.184,5.272-0.047,7.87c-0.297,3.334-3.176,5.938-6.497,6.054
		C-46.271,133.761-49.344,133.677-52.535,133.677z"/>
	<path fill-rule="evenodd" clip-rule="evenodd" fill="#C63823" d="M-169.481,119.715c-1.154,5.747-1.438,6.765,0.987,13.923
		c-3.277,0-6.542,0.181-9.779-0.051c-3.271-0.234-5.863-3.084-6.07-6.326c-0.119-1.847-0.036-3.706-0.042-5.559
		c-0.002-0.629,0-1.258,0-1.987C-179.364,119.715-174.427,119.715-169.481,119.715z"/>
</g>
</svg>
