<?xml version="1.0" encoding="utf-8"?>
<!-- Generator: Adobe Illustrator 16.0.0, SVG Export Plug-In . SVG Version: 6.00 Build 0)  -->
<!DOCTYPE svg PUBLIC "-//W3C//DTD SVG 1.0//EN" "http://www.w3.org/TR/2001/REC-SVG-20010904/DTD/svg10.dtd">
<svg version="1.0" id="Layer_1" xmlns="http://www.w3.org/2000/svg" xmlns:xlink="http://www.w3.org/1999/xlink" x="0px" y="0px"
	 width="200px" height="200px" viewBox="-210.5 0.25 200 200" enable-background="new -210.5 0.25 200 200" xml:space="preserve">
<path fill="#FFFFFF" d="M-110.5,0.25c-55.229,0-100,44.771-100,100s44.771,100,100,100s100-44.771,100-100S-55.271,0.25-110.5,0.25z
	 M-110.5,186.347c-47.55,0-86.097-38.547-86.097-86.097s38.547-86.097,86.097-86.097S-24.403,52.7-24.403,100.25
	S-62.95,186.347-110.5,186.347z"/>
<path fill-rule="evenodd" clip-rule="evenodd" fill="#FFFFFF" d="M-108.855,107.99c-2.368,1.69-4.529,3.271-6.729,4.798
	c-6.417,4.453-12.834,8.904-19.292,13.298c-0.751,0.512-0.884,0.984-0.786,1.803c0.847,7.021,1.618,14.051,2.494,21.068
	c0.211,1.687-0.185,2.95-1.553,3.978c-1.144,0.859-2.185,1.855-3.307,2.747c-1.837,1.458-3.648,1.078-4.723-0.979
	c-3.654-6.993-7.291-13.995-10.961-20.979c-0.27-0.512-0.689-0.996-1.148-1.353c-6.246-4.819-12.513-9.612-18.77-14.418
	c-1.849-1.422-1.934-3.28-0.2-4.821c1.167-1.04,2.404-2,3.579-3.03c1.04-0.916,2.152-1.131,3.494-0.727
	c6.813,2.051,13.649,4.029,20.455,6.105c1.063,0.324,1.663,0.148,2.445-0.646c7.09-7.21,14.238-14.36,21.367-21.53
	c0.178-0.179,0.334-0.378,0.637-0.723c-0.595-0.208-1.055-0.385-1.526-0.531c-18.845-5.875-37.69-11.748-56.535-17.623
	c-0.497-0.155-1.007-0.282-1.479-0.495c-1.739-0.785-2.379-3.09-0.979-4.319c2.537-2.224,5.158-4.395,7.974-6.238
	c2.463-1.612,5.396-1.692,8.315-1.437c23.355,2.042,46.715,4.05,70.071,6.104c1.121,0.099,1.945-0.143,2.808-0.879
	c5.22-4.451,10.51-8.82,15.731-13.269c3.978-3.389,8.56-5.385,13.687-6.192c6.115-0.961,11.096,5.047,9.079,10.938
	c-1.684,4.917-4.474,9.06-8.49,12.395c-5.28,4.38-10.498,8.835-15.776,13.216c-0.798,0.661-1.165,1.353-1.254,2.392
	c-1.987,23.274-4.047,46.542-5.995,69.818c-0.402,4.794-2.236,8.661-6.06,11.594c-1.204,0.924-2.352,1.925-3.491,2.932
	c-0.979,0.865-2.028,1.345-3.325,0.82c-1.244-0.504-1.64-1.548-1.8-2.786c-1.652-12.823-3.317-25.643-4.98-38.463
	c-0.911-7.014-1.824-14.026-2.739-21.038C-108.672,109.093-108.75,108.671-108.855,107.99z"/>
</svg>
