<?xml version="1.0" encoding="utf-8"?>
<!-- Generator: Adobe Illustrator 16.0.0, SVG Export Plug-In . SVG Version: 6.00 Build 0)  -->
<!DOCTYPE svg PUBLIC "-//W3C//DTD SVG 1.0//EN" "http://www.w3.org/TR/2001/REC-SVG-20010904/DTD/svg10.dtd">
<svg version="1.0" id="Layer_1" xmlns="http://www.w3.org/2000/svg" xmlns:xlink="http://www.w3.org/1999/xlink" x="0px" y="0px"
	 width="200px" height="200px" viewBox="-210.5 0.25 200 200" enable-background="new -210.5 0.25 200 200" xml:space="preserve">
<path fill="#FFFFFF" d="M-110.5,0.25c-55.229,0-100,44.771-100,100s44.771,100,100,100s100-44.771,100-100S-55.271,0.25-110.5,0.25z
	 M-110.5,186.347c-47.55,0-86.097-38.547-86.097-86.097s38.547-86.097,86.097-86.097S-24.403,52.7-24.403,100.25
	S-62.95,186.347-110.5,186.347z"/>
<g>
	<path fill-rule="evenodd" clip-rule="evenodd" fill="#FFFFFF" d="M-151.143,135.756c-0.264-0.718-0.448-1.258-0.658-1.787
		c-4.237-10.696-8.48-21.392-12.717-32.09c-0.871-2.2-0.329-3.261,1.95-3.856c16.998-4.446,33.995-8.898,50.999-13.32
		c0.649-0.168,1.415-0.205,2.058-0.038c17.004,4.418,34.001,8.868,50.997,13.324c2.393,0.627,2.908,1.669,2.012,3.93
		c-4.288,10.812-8.579,21.621-12.867,32.433c-0.15,0.381-0.288,0.767-0.48,1.28c1.057,0.1,2.061,0.056,2.982,0.308
		c2.47,0.678,5.013,1.248,7.327,2.299c3.032,1.375,6.04,2.497,9.421,2.509c1.918,0.007,3.373,1.531,3.529,3.393
		c0.153,1.835-1.077,3.502-2.946,3.927c-0.478,0.107-0.987,0.114-1.482,0.112c-4.264-0.015-8.154-1.341-11.894-3.292
		c-3.878-2.023-7.999-2.122-12.144-1.086c-1.47,0.368-2.856,1.116-4.241,1.777c-7.415,3.539-14.872,3.674-22.211-0.031
		c-4.401-2.223-8.875-2.984-13.627-1.759c-1.43,0.37-2.787,1.072-4.129,1.722c-7.487,3.614-15.017,3.763-22.439,0.003
		c-4.364-2.211-8.806-2.938-13.511-1.727c-1.471,0.379-2.881,1.072-4.244,1.768c-3.324,1.695-6.836,2.54-10.552,2.636
		c-2.503,0.064-4.303-1.378-4.409-3.575c-0.108-2.223,1.547-3.688,4.055-3.952c2.045-0.215,4.207-0.415,6.053-1.224
		C-160.118,137.599-156.038,135.55-151.143,135.756z M-73.079,107.249c0.019-1.922-1.195-3.27-3.543-3.885
		c-10.766-2.82-21.532-5.644-32.309-8.42c-0.853-0.22-1.85-0.305-2.688-0.09c-11.182,2.871-22.349,5.801-33.517,8.732
		c-1.246,0.327-2.11,1.139-2.552,2.355c-0.498,1.376-0.234,2.638,0.726,3.718c1.157,1.301,2.618,1.452,4.227,1.031
		c10.487-2.74,20.976-5.477,31.47-8.189c0.492-0.127,1.074-0.132,1.565-0.006c7.278,1.874,14.551,3.779,21.824,5.68
		c3.254,0.85,6.502,1.729,9.763,2.555C-75.43,111.407-73.104,109.772-73.079,107.249z"/>
	<path fill-rule="evenodd" clip-rule="evenodd" fill="#FFFFFF" d="M-72.062,86.694c-3.94-1.026-7.673-1.996-11.404-2.972
		c-8.398-2.197-16.788-4.432-25.205-6.556c-1.15-0.291-2.503-0.286-3.653,0.009c-11.871,3.04-23.718,6.168-35.572,9.269
		c-0.276,0.072-0.563,0.105-0.971,0.181c-0.027-0.455-0.07-0.845-0.071-1.236c-0.004-7.365-0.005-14.729-0.001-22.094
		c0-2.394,0.817-3.205,3.232-3.206c23.468-0.001,46.935-0.001,70.402,0c2.421,0,3.241,0.808,3.242,3.197
		c0.004,7.365,0.001,14.729,0.001,22.094C-72.062,85.749-72.062,86.119-72.062,86.694z"/>
	<path fill-rule="evenodd" clip-rule="evenodd" fill="#FFFFFF" d="M-99.23,52.55c-7.598,0-14.986,0-22.458,0
		c-0.032-0.362-0.083-0.68-0.083-0.998c-0.006-2.827-0.024-5.655,0.002-8.482c0.036-3.75,2.64-6.508,6.368-6.612
		c3.282-0.09,6.571-0.097,9.854,0.005c3.673,0.114,6.27,2.86,6.31,6.539C-99.202,46.151-99.23,49.302-99.23,52.55z"/>
</g>
</svg>
