<?xml version="1.0" encoding="utf-8"?>
<!-- Generator: Adobe Illustrator 16.0.0, SVG Export Plug-In . SVG Version: 6.00 Build 0)  -->
<!DOCTYPE svg PUBLIC "-//W3C//DTD SVG 1.0//EN" "http://www.w3.org/TR/2001/REC-SVG-20010904/DTD/svg10.dtd">
<svg version="1.0" id="Layer_1" xmlns="http://www.w3.org/2000/svg" xmlns:xlink="http://www.w3.org/1999/xlink" x="0px" y="0px"
	 width="200px" height="200px" viewBox="-210.5 0.25 200 200" enable-background="new -210.5 0.25 200 200" xml:space="preserve">
<path fill="#FFFFFF" d="M-110.5,0.25c-55.229,0-100,44.771-100,100s44.771,100,100,100s100-44.771,100-100S-55.271,0.25-110.5,0.25z
	 M-110.5,186.347c-47.55,0-86.097-38.547-86.097-86.097s38.547-86.097,86.097-86.097S-24.403,52.7-24.403,100.25
	S-62.95,186.347-110.5,186.347z"/>
<g>
	<path fill-rule="evenodd" clip-rule="evenodd" fill="#FFFFFF" d="M-149.843,123.995c0-7.992,0-15.931,0-23.958
		c15.917,0,31.805,0,47.764,0c0,7.981,0,15.923,0,23.958C-117.983,123.995-133.873,123.995-149.843,123.995z"/>
	<path fill-rule="evenodd" clip-rule="evenodd" fill="#FFFFFF" d="M-94.289,124.012c0-7.998,0-15.936,0-23.969
		c13.249,0,26.484,0,39.806,0c0.031,0.337,0.084,0.654,0.084,0.97c0.004,7.297-0.011,14.594,0.022,21.89
		c0.004,0.914-0.238,1.206-1.183,1.204c-12.562-0.03-25.123-0.021-37.685-0.022C-93.569,124.084-93.892,124.04-94.289,124.012z"/>
	<path fill-rule="evenodd" clip-rule="evenodd" fill="#FFFFFF" d="M-78.331,60.6c-8.954,0-17.908,0.002-26.862,0
		c-3.466-0.001-5.006-1.676-4.728-5.129c0.505-6.251,5.26-10.725,11.522-10.737c13.349-0.026,26.697-0.025,40.045,0
		c6.71,0.013,11.663,5.103,11.581,11.812c-0.031,2.439-1.57,4.005-4.074,4.044c-2.611,0.041-5.223,0.011-7.834,0.011
		C-65.231,60.6-71.78,60.6-78.331,60.6z"/>
	<path fill-rule="evenodd" clip-rule="evenodd" fill="#FFFFFF" d="M-145.687,60.591c5.02,0,10.039-0.006,15.059,0.002
		c3.135,0.005,4.596,1.484,4.459,4.597c-0.172,3.913-1.623,7.421-3.649,10.701c-0.215,0.349-0.971,0.512-1.476,0.514
		c-8.464,0.031-16.926,0.022-25.39,0.022c-1.202,0-2.41-0.057-3.607,0.018c-0.9,0.057-1.421-0.238-1.867-1.043
		c-1.661-3.004-2.899-6.138-3.272-9.576c-0.161-1.486-0.096-2.91,1.022-4.071c0.902-0.937,2.032-1.177,3.29-1.172
		C-155.976,60.604-150.832,60.591-145.687,60.591z"/>
	<path fill-rule="evenodd" clip-rule="evenodd" fill="#FFFFFF" d="M-101.928,68.22c6.629,0,13.126,0,19.711,0
		c0,8.018,0,15.987,0,24.023c-6.565,0-13.094,0-19.711,0C-101.928,84.257-101.928,76.289-101.928,68.22z"/>
	<path fill-rule="evenodd" clip-rule="evenodd" fill="#FFFFFF" d="M-54.761,92.266c-6.602,0-13.1,0-19.686,0
		c0-8.01,0-15.982,0-24.024c6.576,0,13.098,0,19.686,0C-54.761,76.254-54.761,84.195-54.761,92.266z"/>
	<path fill-rule="evenodd" clip-rule="evenodd" fill="#FFFFFF" d="M-125.812,143.737c0,6.682-5.424,12.074-12.118,12.049
		c-6.63-0.026-11.985-5.412-11.979-12.052c0.004-6.674,5.466-12.121,12.106-12.075
		C-131.193,131.704-125.812,137.123-125.812,143.737z M-134.098,143.824c-0.02-2.127-1.688-3.868-3.729-3.889
		c-1.997-0.021-3.811,1.716-3.814,3.655c-0.007,2.178,1.72,3.974,3.795,3.947C-135.822,147.512-134.08,145.787-134.098,143.824z"/>
	<path fill-rule="evenodd" clip-rule="evenodd" fill="#FFFFFF" d="M-82.286,155.784c-6.701,0.014-12.091-5.38-12.075-12.078
		c0.015-6.629,5.395-12.025,12.008-12.047c6.633-0.021,12.142,5.485,12.11,12.105C-70.274,150.391-75.667,155.772-82.286,155.784z
		 M-78.544,143.865c-0.003-2.174-1.75-3.969-3.822-3.93c-1.963,0.038-3.718,1.732-3.743,3.614c-0.027,2.159,1.698,3.988,3.764,3.988
		C-80.322,147.538-78.54,145.816-78.544,143.865z"/>
	<path fill-rule="evenodd" clip-rule="evenodd" fill="#FFFFFF" d="M-101.979,145.149c-5.49,0-10.786,0-16.227,0
		c0.205-4.905-1.06-9.353-4.085-13.415c8.175,0,16.146,0,24.348,0C-100.852,135.758-102.215,140.172-101.979,145.149z"/>
	<path fill-rule="evenodd" clip-rule="evenodd" fill="#FFFFFF" d="M-153.391,131.648c-3.066,4.137-4.35,8.573-4.139,13.559
		c-0.607,0-1.096,0-1.584,0c-3.646-0.001-7.29-0.007-10.936,0.001c-1.67,0.003-2.998-0.595-3.76-2.144
		c-0.79-1.604-0.408-3.038,0.679-4.374c1.726-2.119,3.408-4.275,5.156-6.376c0.273-0.329,0.798-0.633,1.209-0.638
		C-162.417,131.632-158.068,131.648-153.391,131.648z"/>
	<path fill-rule="evenodd" clip-rule="evenodd" fill="#FFFFFF" d="M-157.486,92.38c0-2.668,0-5.427,0-8.251
		c7.789,0,15.519,0,23.327,0c0,2.71,0,5.375,0,8.251C-141.935,92.38-149.668,92.38-157.486,92.38z"/>
	<path fill-rule="evenodd" clip-rule="evenodd" fill="#FFFFFF" d="M-157.615,124.034c-2.716,0-5.353,0-8.076,0
		c-0.035-0.311-0.093-0.584-0.093-0.859c-0.002-3.897-0.043-7.795,0.02-11.692c0.077-4.657,3.159-9.001,7.477-10.68
		c0.187-0.073,0.389-0.109,0.673-0.188C-157.615,108.431-157.615,116.161-157.615,124.034z"/>
	<path fill-rule="evenodd" clip-rule="evenodd" fill="#FFFFFF" d="M-66.762,131.703c4.233,0,8.203,0,12.367,0
		c0,0.572,0,1.092,0,1.611c-0.001,2.612,0.024,5.226-0.01,7.837c-0.033,2.507-1.54,3.996-4.051,4.049
		c-1.362,0.028-2.723,0.006-4.241,0.006C-62.432,140.23-63.732,135.797-66.762,131.703z"/>
</g>
</svg>
