<?xml version="1.0" encoding="utf-8"?>
<!-- Generator: Adobe Illustrator 16.0.0, SVG Export Plug-In . SVG Version: 6.00 Build 0)  -->
<!DOCTYPE svg PUBLIC "-//W3C//DTD SVG 1.0//EN" "http://www.w3.org/TR/2001/REC-SVG-20010904/DTD/svg10.dtd">
<svg version="1.0" id="Layer_1" xmlns="http://www.w3.org/2000/svg" xmlns:xlink="http://www.w3.org/1999/xlink" x="0px" y="0px"
	 width="200px" height="200px" viewBox="-210.5 0.25 200 200" enable-background="new -210.5 0.25 200 200" xml:space="preserve">
<path fill="#FFFFFF" d="M-110.5,0.25c-55.229,0-100,44.771-100,100s44.771,100,100,100s100-44.771,100-100S-55.271,0.25-110.5,0.25z
	 M-110.5,186.347c-47.55,0-86.097-38.547-86.097-86.097s38.547-86.097,86.097-86.097S-24.403,52.7-24.403,100.25
	S-62.95,186.347-110.5,186.347z"/>
<g>
	<path fill-rule="evenodd" clip-rule="evenodd" fill="#FFFFFF" d="M-83.287,133.687c2.167,3.175,4.28,6.273,6.396,9.37
		c4.164,6.101,8.35,12.188,12.47,18.318c0.515,0.765,0.688,1.758,1.14,2.966c-1.744,0-3.062,0.014-4.378-0.004
		c-1.87-0.023-4.03,0.496-5.528-0.269c-1.455-0.744-2.231-2.815-3.302-4.307c-0.682-0.949-1.396-1.88-2.017-2.867
		c-0.408-0.649-0.906-0.829-1.648-0.829c-20.293,0.019-40.587,0.02-60.881-0.002c-0.756-0.001-1.211,0.232-1.635,0.85
		c-1.509,2.203-3.1,4.351-4.604,6.557c-0.457,0.67-0.966,0.886-1.758,0.872c-2.833-0.047-5.668-0.018-8.553-0.018
		c-0.261-1.08-0.156-1.95,0.482-2.862c6.196-8.857,12.352-17.742,18.516-26.621c0.256-0.368,0.489-0.751,0.618-0.951
		c-2.604-0.613-5.311-0.954-7.792-1.895c-5.869-2.226-9.249-6.545-9.649-12.912c-0.168-2.662-0.092-5.342-0.075-8.014
		c0.053-8.31-0.111-16.629,0.256-24.926c0.565-12.768,3.035-25.164,8.676-36.758c2.104-4.326,4.513-8.471,8.214-11.705
		c1.256-1.098,2.613-1.661,4.307-1.658c15.492,0.03,30.983,0.048,46.476-0.011c2.275-0.009,4.02,0.798,5.568,2.346
		c3.572,3.57,6.015,7.886,8.101,12.409c4.003,8.678,6.089,17.878,7.336,27.313c0.989,7.478,1.001,14.984,0.993,22.5
		c-0.006,5.554,0.026,11.107,0.024,16.661c-0.002,4.628-1.349,8.746-4.893,11.885c-3.29,2.915-7.301,4.079-11.609,4.373
		c-0.333,0.022-0.666,0.033-0.999,0.055C-83.068,133.555-83.101,133.587-83.287,133.687z M-110.546,95.336
		c9.852,0,19.703,0.007,29.556-0.003c4.409-0.005,7.468-2.802,7.678-7.205c0.453-9.48-0.163-18.851-3.312-27.907
		c-1.819-5.232-4.204-10.156-7.844-14.415c-2.267-2.652-4.853-4.037-8.55-3.977c-12.187,0.196-24.378,0.095-36.567,0.052
		c-1.961-0.007-3.712,0.503-4.981,1.909c-1.92,2.125-3.913,4.269-5.383,6.702c-5.441,9.004-7.677,18.932-7.846,29.373
		c-0.042,2.629,0.011,5.26,0.061,7.889c0.09,4.726,2.993,7.569,7.759,7.577C-130.167,95.347-120.357,95.336-110.546,95.336z
		 M-137.891,150.246c18.343,0,36.397,0,54.515,0c-0.061-0.231-0.062-0.362-0.123-0.451c-1.812-2.603-3.613-5.213-5.473-7.781
		c-0.213-0.295-0.757-0.495-1.147-0.495c-13.694-0.018-27.389-0.009-41.083,0.015c-0.338,0.001-0.826,0.101-0.987,0.332
		C-134.086,144.592-135.934,147.352-137.891,150.246z M-91.556,138.046c-0.864-1.448-1.566-2.72-2.378-3.919
		c-0.199-0.295-0.75-0.498-1.139-0.499c-10.513-0.019-21.024-0.007-31.536,0.011c-0.317,0.001-0.79,0.012-0.927,0.204
		c-0.946,1.328-1.823,2.705-2.812,4.203C-117.31,138.046-104.551,138.046-91.556,138.046z M-144.262,115.383
		c0.029,3.761,3.276,6.923,7.035,6.851c3.596-0.068,6.726-3.305,6.706-6.934c-0.02-3.689-3.207-6.845-6.909-6.839
		C-141.101,108.466-144.29,111.697-144.262,115.383z M-90.592,115.265c0.003,3.831,3.116,6.977,6.888,6.959
		c3.652-0.018,6.787-3.151,6.796-6.793c0.009-3.811-3.156-7.018-6.883-6.972C-87.46,108.504-90.596,111.641-90.592,115.265z"/>
	<path fill-rule="evenodd" clip-rule="evenodd" fill="#FFFFFF" d="M-117.957,84.425c-2.745,0-5.277,0-7.896,0
		c0-8.869,0-17.699,0-26.719c2.272,0,4.554-0.036,6.831,0.037c0.354,0.012,0.746,0.474,1.032,0.804
		c2.623,3.022,5.227,6.061,7.925,9.199c2.327-2.741,4.671-5.337,6.813-8.09c1.132-1.454,2.323-2.173,4.196-1.961
		c1.474,0.167,2.98,0.034,4.561,0.034c0,8.954,0,17.776,0,26.686c-2.672,0-5.314,0-8.109,0c0-5.006,0-9.943,0-15.273
		c-2.726,3.15-5.191,6-7.74,8.944c-2.502-2.949-4.942-5.825-7.613-8.972C-117.957,74.391-117.957,79.322-117.957,84.425z"/>
</g>
</svg>
