<?xml version="1.0" encoding="utf-8"?>
<!-- Generator: Adobe Illustrator 16.0.0, SVG Export Plug-In . SVG Version: 6.00 Build 0)  -->
<!DOCTYPE svg PUBLIC "-//W3C//DTD SVG 1.1//EN" "http://www.w3.org/Graphics/SVG/1.1/DTD/svg11.dtd">
<svg version="1.1" id="Layer_1" xmlns="http://www.w3.org/2000/svg" xmlns:xlink="http://www.w3.org/1999/xlink" x="0px" y="0px"
	 width="218px" height="200px" viewBox="637.5 0 218 200" enable-background="new 637.5 0 218 200" xml:space="preserve">
<path fill="#C63823" d="M738.255,96.25l7.996-7.998c-0.361-0.459-0.798-1.027-1.248-1.584
	c-13.467-16.655-12.742-40.616,1.913-56.237c6.182-6.589,12.566-12.984,19.156-19.187c16.393-15.419,43.204-14.881,59.139,1.007
	c3.982,3.971,7.957,7.95,11.925,11.937c17.257,17.419,17.26,44.039,0.002,61.436c-5.423,5.466-10.884,10.894-16.329,16.338
	c-15.52,15.521-40.342,16.858-57.454,3.1c-0.569-0.458-1.137-0.919-1.644-1.329l-7.982,7.988c0.416,0.531,0.895,1.152,1.384,1.764
	c13.454,16.821,12.547,40.774-2.293,56.379c-6.089,6.402-12.334,12.654-18.736,18.757c-16.288,15.482-43.158,15.095-59.144-0.722
	c-4.093-4.051-8.162-8.124-12.208-12.221c-17.13-17.386-17.076-43.987,0.12-61.295c5.38-5.414,10.775-10.812,16.188-16.196
	c15.763-15.774,40.594-17.06,57.913-2.998C737.412,95.562,737.87,95.937,738.255,96.25z M776.709,88.332
	c0.92,0.645,1.491,1.086,2.101,1.465c8.2,5.102,18.585,4.451,25.688-2.104c6.389-5.897,12.593-12.027,18.506-18.4
	c7.769-8.373,7.396-20.987-0.56-29.281c-4.076-4.25-8.24-8.417-12.491-12.5c-7.98-7.69-20.896-8.066-29.012-0.545
	c-6.427,5.957-12.617,12.193-18.594,18.602c-7.072,7.586-7.234,20.201-0.433,27.729c0.455-0.612,0.831-1.271,1.347-1.79
	c7.229-7.257,14.471-14.499,21.729-21.726c3.253-3.222,7.186-4.095,11.467-2.533c4.227,1.543,6.544,4.763,6.962,9.221
	c0.334,3.571-1.132,6.485-3.648,8.972C792.154,72.968,784.569,80.525,776.709,88.332L776.709,88.332z M723.086,111.892
	c-7.771-7.022-20.732-6.424-28.47,1.128c-5.701,5.565-11.336,11.199-16.902,16.903c-8.509,8.729-8.424,21.79,0.133,30.491
	c3.943,4.012,7.92,7.988,11.931,11.934c7.824,7.701,20.49,8.535,28.669,1.242c6.985-6.252,13.612-12.895,19.849-19.895
	c6.592-7.371,6.262-19.992-0.338-26.887c-0.443,0.604-0.812,1.268-1.328,1.787c-7.229,7.259-14.473,14.504-21.73,21.734
	c-3.138,3.118-6.953,3.994-11.1,2.634c-4.176-1.37-6.611-4.423-7.236-8.792c-0.547-3.82,0.938-6.912,3.613-9.558
	C707.79,127.084,715.385,119.532,723.086,111.892z"/>
</svg>
