<?xml version="1.0" encoding="utf-8"?>
<!-- Generator: Adobe Illustrator 16.0.0, SVG Export Plug-In . SVG Version: 6.00 Build 0)  -->
<!DOCTYPE svg PUBLIC "-//W3C//DTD SVG 1.1//EN" "http://www.w3.org/Graphics/SVG/1.1/DTD/svg11.dtd">
<svg version="1.1" id="Capa_1" xmlns="http://www.w3.org/2000/svg" xmlns:xlink="http://www.w3.org/1999/xlink" x="0px" y="0px"
	 width="141.73px" height="161.57px" viewBox="0 0 141.73 161.57" enable-background="new 0 0 141.73 161.57" xml:space="preserve">
<title>Mi publicación</title>
<path fill="#5232C2" d="M70.801,9.952C31.617,9.965,0.009,41.576,0,80.76c-0.008,39.197,31.563,70.818,70.748,70.857
	c39.185,0.04,70.955-31.592,70.982-70.67C141.758,41.648,110.078,9.938,70.801,9.952z M98.506,97.521
	c-0.859,9.898-6.712,16.097-15.697,19.595c-1.979,0.771-4.084,1.215-6.378,1.882v12.429H64.374v-11.203
	c-5.033-1.055-9.799-1.79-14.409-3.081c-7.035-1.97-6.988-2.132-5.218-9.071c0.662-2.594,1.315-5.19,1.953-7.709
	c4.339,1.379,8.476,3.165,12.792,3.929c4.078,0.721,8.364,0.661,12.523,0.394c3.362-0.217,6.215-1.926,7.197-5.516
	c0.881-3.214-0.607-6.354-4.252-8.474c-2.536-1.475-5.325-2.524-8.031-3.692c-3.613-1.559-7.375-2.815-10.863-4.611
	C48.099,78.29,43.253,71.98,43.897,62.628c0.648-9.416,6.158-15.345,14.576-18.898c0.576-0.243,1.174-0.438,1.77-0.629
	c4.587-1.47,4.588-1.468,4.588-6.438v-6.42h12.136v10.389c4.284,0.779,8.279,1.265,12.143,2.264c6.17,1.596,6.138,1.741,4.587,7.732
	c-0.656,2.534-1.331,5.064-2.01,7.594l0.081,0.016c-0.068,0.099-0.115,0.17-0.146,0.221c-0.039,0.102-0.104,0.165,0,0
	c0.005-0.014,0.01-0.027,0.014-0.042c0.018-0.064,0.035-0.13,0.052-0.194c-5.854-1.111-11.376-2.44-16.976-3.089
	c-2.63-0.305-5.596,0.255-8.087,1.238c-4.392,1.734-5.211,6.908-1.43,9.692c3.264,2.402,7.115,4.046,10.806,5.819
	c3.542,1.703,7.33,2.916,10.801,4.743C95.153,81.02,99.33,88.036,98.506,97.521z"/>
<path fill="#5232C2" d="M91.621,58.457C91.518,58.622,91.582,58.558,91.621,58.457z"/>
<path fill="#5232C2" d="M91.621,58.457c0.031-0.051,0.078-0.122,0.146-0.222l-0.08-0.015c-0.018,0.064-0.035,0.13-0.053,0.194
	C91.631,58.429,91.627,58.443,91.621,58.457z"/>
<path fill="#FFFFFF" d="M70.801,9.952C31.617,9.965,0.009,41.576,0,80.76c-0.008,39.197,31.563,70.818,70.748,70.857
	c39.185,0.04,70.955-31.592,70.982-70.67C141.758,41.648,110.078,9.938,70.801,9.952z M98.506,97.521
	c-0.859,9.898-6.712,16.097-15.697,19.595c-1.979,0.771-4.084,1.215-6.378,1.882v12.429H64.374v-11.203
	c-5.033-1.055-9.799-1.79-14.409-3.081c-7.035-1.97-6.988-2.132-5.218-9.071c0.662-2.594,1.315-5.19,1.953-7.709
	c4.339,1.379,8.476,3.165,12.792,3.929c4.078,0.721,8.364,0.661,12.523,0.394c3.362-0.217,6.215-1.926,7.197-5.516
	c0.881-3.214-0.607-6.354-4.252-8.474c-2.536-1.475-5.325-2.524-8.031-3.692c-3.613-1.559-7.375-2.815-10.863-4.611
	C48.099,78.29,43.253,71.98,43.897,62.628c0.648-9.416,6.158-15.345,14.576-18.898c0.576-0.243,1.174-0.438,1.77-0.629
	c4.587-1.47,4.588-1.468,4.588-6.438v-6.42h12.136v10.389c4.284,0.779,8.279,1.265,12.143,2.264c6.17,1.596,6.138,1.741,4.587,7.732
	c-0.656,2.534-1.331,5.064-2.01,7.594l0.081,0.016c-0.068,0.099-0.115,0.17-0.146,0.221c-0.039,0.102-0.104,0.165,0,0
	c0.005-0.014,0.01-0.027,0.014-0.042c0.018-0.064,0.035-0.13,0.052-0.194c-5.854-1.111-11.376-2.44-16.976-3.089
	c-2.63-0.305-5.596,0.255-8.087,1.238c-4.392,1.734-5.211,6.908-1.43,9.692c3.264,2.402,7.115,4.046,10.806,5.819
	c3.542,1.703,7.33,2.916,10.801,4.743C95.153,81.02,99.33,88.036,98.506,97.521z"/>
<path fill="#5232C2" d="M91.621,58.457c0.031-0.051,0.078-0.122,0.146-0.222l-0.08-0.015c-0.018,0.064-0.035,0.13-0.053,0.194
	C91.631,58.429,91.627,58.443,91.621,58.457z"/>
</svg>
