<svg xmlns="http://www.w3.org/2000/svg" viewBox="0 0 922.321 963.895">
  <path d="M898.094,1140.094c-8.5,42.405-17.119,83.011-24.69,123.81-7.474,40.279-12.738,35.454,13.433,68.876,28.8,36.779,24.409,101.055-5.259,137.252-7.211,8.8-15.511,16.728-23.564,24.8-8.743,8.768-18.956,9.429-28.931,2.864-30.627-20.157-61.4-40.131-91.3-61.336-29.38-20.839-42.533-50.712-42.7-86.326-.228-47.7.207-95.4-.387-143.1a28.866,28.866,0,0,0-7.392-17.794c-19.622-20.708-39.957-40.752-60.4-60.657a35.412,35.412,0,0,0-14.258-8.563c-63.71-18.2-105.889-58.557-121.783-122.927-15.54-62.935,2.048-118.147,48.638-162.756,32.919-31.519,73.845-44.973,119.357-44.885,69.308.135,138.617.189,207.922-.225a35.324,35.324,0,0,0,18.946-5.9Q1014.37,693.1,1142.444,602.146a75.173,75.173,0,0,0,16.411-16.082c12.937-17.3,28.236-31.767,47.937-40.73,35.088-15.964,76.222-4.516,104.343,28.1,32.45,37.634,50.062,82.555,63.645,129.4,26.35,90.866,34.55,183.938,32.6,278.106-1.841,88.824-12.965,176.245-42.132,260.673-12.31,35.632-27.917,69.662-53.238,98.172-23.549,26.515-51.917,41.759-88.777,34.4-23.529-4.7-42.023-18.013-56.246-36.4-11.442-14.787-25.108-26.289-40.207-36.876q-108.6-76.145-216.811-152.844C906.688,1145.747,903.3,1143.583,898.094,1140.094Zm217.141-157.738c2.282,71.708,10.114,142.605,29.636,211.916,10.864,38.571,25.23,75.532,48.513,108.467,10.781,15.25,23.533,28.314,43.26,31.267a21.548,21.548,0,0,0,24.67-16.859c2.055-9.914-4.714-19.405-14.716-23.9-7.039-3.164-15.516-7.321-18.981-13.489-12.3-21.889-25.063-44-33.425-67.526-28.126-79.136-36.964-161.566-37.67-245.1-.044-5.252,0-10.707-1.355-15.7-2.774-10.247-12.447-16.446-22.389-14.634-10.839,1.976-17.586,8.052-17.55,19.887C1115.256,965.242,1115.235,973.8,1115.235,982.356ZM704.568,874.214l0-.966c16.7,0,33.409.214,50.107-.064,14.848-.247,23.859-8,24.211-20.12.366-12.6-8.819-21.626-24.183-21.621-38.27.012-76.634-.744-114.789,1.593-61.41,3.762-111.92,59.391-112.13,120.882-.05,14.747,7.423,23.614,20.146,23.9,12.613.287,21.009-8.529,21.636-22.722,1.938-43.8,33.116-77.4,76.4-80.64C665.4,873.006,685.03,874.214,704.568,874.214Zm619.263,94.827c-.017-51.6-13.688-85.367-40.106-110.816-10.718-10.324-23.746-11.362-32.444-2.584-8.862,8.945-8.96,21.249,2.283,31.154,37.1,32.683,37.4,103.589,3.368,137.442-11.424,11.365-10.973,23.177-1.139,32.148,9.071,8.275,21.9,6.5,32.254-4.4C1313.266,1025.425,1323.415,993.187,1323.831,969.041Z" transform="translate(-485.333 -538.198)" fill="#5232c2"/>
</svg>
