<svg xmlns="http://www.w3.org/2000/svg" viewBox="0 0 1293.649 1292.593">
  <path d="M1014.865,1364.747c0-3.957,0-6.563,0-9.169,0-234.9,1.259-469.813-.562-704.7-.843-108.716-51.673-191.469-145.955-246.269-29.987-17.43-63.142-23.166-98.694-19.775,0,13.435.432,26.773-.133,40.069-.476,11.216-.928,22.653-3.426,33.526C752.3,518.479,701.174,560.761,639.7,562c-37.22.753-74.686,1.627-111.682-1.634-61.055-5.381-112.138-61.688-114.551-123.189-.842-21.473-1.9-43.27.72-64.477,5.72-46.271,41.943-77.538,89.214-77.781,96.583-.495,193.174-.707,289.753.076,67.177.544,124.445,27.87,175.745,69.486,35.71,28.968,64.046,64.09,86.929,103.791,1.3,2.264,2.656,4.5,4.016,6.732.106.175.453.2,1.293.547,1.388-2.211,2.853-4.527,4.3-6.853,57.543-92.363,139.7-149.051,246.715-168.807,19.463-3.593,39.595-4.779,59.432-4.912,80.047-.535,160.1-.246,240.149-.2,16.165.009,31.8,2.362,46.277,10.351,31.282,17.264,47.294,43.937,47.782,79.335.311,22.513,1.384,45.5-2.4,67.493-10.38,60.34-56.855,104.188-117.882,109.052a690.856,690.856,0,0,1-118.7-.466c-67.673-6.333-117.009-63.7-117.623-131.735-.129-14.353-.019-28.709-.019-43.632-33.063,2.346-63.673,10.367-92.177,24.7-84.612,42.541-135.047,110.754-150.305,204.4-1.972,12.1-2.352,24.568-2.359,36.866q-.2,351.959-.1,703.917v10.181c10.475,0,20.373-.364,30.238.057,81.741,3.493,147.542,71.884,147.959,153.7.115,22.523.017,45.047.017,68.072H836.71c0-22.472-1.1-44.773.354-66.907,1.119-17.087,3.484-34.589,8.682-50.822,17.21-53.75,71.831-105.49,150.251-104.607C1001.985,1364.805,1007.975,1364.747,1014.865,1364.747Z" transform="translate(-412.522 -294.481)" fill="#5232c2"/>
</svg>
