<svg xmlns="http://www.w3.org/2000/svg" viewBox="0 0 1054.931 1109.576">
  <g>
    <path d="M723.905,1531.057c-59.4-3.091-110.443-31.227-138.518-91.216-29.325-62.661-21.446-124.732,23.911-176.393,45.954-52.34,97.325-99.965,147.174-148.788,5.964-5.841,17.059-7.7,26.111-8.921,47.149-6.371,69.986-30.4,72.945-78.057.947-15.257,32.732-53.045,47.683-54.289,6.377-.53,14.952,2.931,19.608,7.533,65.694,64.935,130.875,130.389,196.208,195.69,11.376,11.37,10.9,22.2-.014,33.9-17.909,19.211-35.474,35.707-65.247,36.715-31.775,1.075-57.925,32.2-58.908,65.895-.482,16.533-6.362,28.271-17.737,39.463-43.894,43.189-87.1,87.078-130.8,130.462C814.208,1514.929,775.251,1530.66,723.905,1531.057Zm33.459-82.424c9.646-5.8,17.531-8.734,23-14.12q62.909-61.956,124.926-124.815c14.876-15.085,15.268-29.4,2.825-41.338-11.837-11.359-26.9-10.172-41.674,4.234-21.56,21.027-42.686,42.5-63.963,63.814-20.793,20.829-42.542,40.84-61.712,63.071-5.816,6.744-7.949,20.722-5.333,29.46C737.731,1436.618,749.028,1441.6,757.364,1448.633Zm-78.089-77.173c10.623-6.728,19.518-10.452,25.913-16.724,40.53-39.757,80.6-79.983,120.619-120.259,16.242-16.347,17.808-30.276,5.676-42.783-11.9-12.269-28.284-10.251-44.637,5.938q-36.46,36.094-72.589,72.522c-17.39,17.432-35.733,34.079-51.487,52.889-5.426,6.479-7.806,19.58-5.193,27.568C660.164,1358.519,670.8,1363.794,679.276,1371.46Z" transform="translate(-568.069 -421.482)" fill="#5232c2"/>
    <path d="M1040.3,907.186l-51.641,52.251c-13.451-14.238-26.551-28.035-39.575-41.9-28.5-30.351-63.473-43.19-105.048-41.532-40.076,1.6-78.844-4.8-115.247-23.451-89.221-45.7-137.184-136.912-122.96-236.413.953-6.664,5.154-17.149,9.448-18.029,6.161-1.262,15.419,2.977,20.53,7.838C661.1,630,685.315,655.18,710.186,679.684c32.594,32.112,75.48,31.783,107.113-.709,11.937-12.261,23.748-24.667,35.138-37.433,30.473-34.154,30.057-71.448-1.7-104.26-25.707-26.56-52.478-52.094-78.072-78.759-5.072-5.284-9.962-14-9.2-20.457.493-4.171,11.036-8.708,17.745-10.363,147.85-36.469,293.247,92.912,274.1,243.716-5.27,41.51,7.176,77.1,35.885,106.913,12.691,13.181,26.757,25.038,40.67,37.934l-53.712,52.617c-17.906-18.917-35.83-38.407-54.382-57.28-15.371-15.637-33.041-17.744-45.151-6.421-13.139,12.285-11.569,29.975,4.947,46.593C1001.886,870.207,1020.729,888.118,1040.3,907.186Z" transform="translate(-568.069 -421.482)" fill="#5232c2"/>
    <path d="M1035.23,1002.24c8.241-11,13.293-19.738,20.188-26.638q145.1-145.2,290.856-289.729c11-10.883,17.028-21.522,15.766-37.352-1.355-17,.374-34.222-.51-51.282-.747-14.4,5.485-22.745,17.942-28.9q88.2-43.589,175.993-88.013c12.8-6.472,22.876-5,32.978,5.435,45.72,47.2,40.84,30.474,14.6,84.9-23.445,48.621-48.746,96.348-72.145,144.99-7.193,14.953-16.818,24.076-33.121,20.991-52.884-10.007-88.3,14.105-123.562,51.488C1293.025,874.2,1207.62,956.3,1123.9,1039.981c-24.2,24.189-30.59,24.26-55.08-.677C1057.663,1027.942,1047.386,1015.714,1035.23,1002.24Z" transform="translate(-568.069 -421.482)" fill="#5232c2"/>
    <path d="M1142.934,1107.088l49.759-46.524c3.63,3.455,9.042,8.387,14.215,13.559q138.766,138.713,277.507,277.452c4.827,4.824,9.472,10.149,15.152,13.738,12.424,7.85,25.348,7.168,35.693-3.382,10.242-10.444,11.34-23.292,3-35.636-4.161-6.16-9.757-11.422-15.073-16.72q-137.53-137.044-275.291-273.855c-5.293-5.248-12.454-8.612-19.406-13.3l53.883-51.14c2.5,2.132,6.256,4.928,9.535,8.205q148.242,148.127,296.319,296.419c41.946,42.157,45.945,93.076,11.986,136.914-34.382,44.385-101.952,52.511-141.944,13.137-105.4-103.776-209.034-209.351-313.323-314.257C1144.084,1110.831,1143.875,1109.313,1142.934,1107.088Z" transform="translate(-568.069 -421.482)" fill="#5232c2"/>
  </g>
</svg>
