<svg xmlns="http://www.w3.org/2000/svg" viewBox="0 0 989.659 989.702">
  <g>
    <path d="M1542.171,920.173q0,234.659,0,469.318c0,20.371-5.074,25.457-25.569,25.458q-468.847.013-937.695,0c-21.267,0-26.392-5.043-26.392-25.857q0-468.847,0-937.694c0-21.187,4.869-26.14,25.844-26.14q469.318-.011,938.635,0c20.507,0,25.176,4.78,25.176,25.6Q1542.173,685.515,1542.171,920.173Zm-954.223-.485q0,217.695,0,435.39c0,18.825,5.691,24.487,24.794,24.488q434.919.016,869.839,0c18.854,0,24.5-5.769,24.5-24.856q.007-434.919,0-869.839c0-18.825-5.712-24.507-24.861-24.508q-434.92-.025-869.84,0c-18.8,0-24.426,5.828-24.427,24.875Q587.946,702.464,587.948,919.688Z" transform="translate(-552.513 -425.253)" fill="#5232c2"/>
    <path d="M906.1,827.145l-53.5-40.053c-14.981-11.215-19.469-11.165-34.756.3-17.522,13.139-35.06,26.257-53.12,39.78-16.729-12.564-33.313-24.823-49.578-37.49-1.976-1.539-3.082-5.259-3.151-8-.325-12.845.168-25.713-.28-38.551-.219-6.263,1.67-10.336,6.838-14.072,18.028-13.033,35.6-26.7,53.557-39.83,7.2-5.264,10.571-11.632,10.329-20.711-.452-16.916-.33-33.858.044-50.778.073-3.287,1.441-7.723,3.815-9.592,15.994-12.591,32.42-24.632,49.113-37.158,16.695,12.509,33.338,24.742,49.608,37.453,2.164,1.691,3.368,5.793,3.423,8.807.318,17.236.5,34.491.011,51.718-.249,8.795,3.111,14.889,9.929,19.933,18.138,13.418,35.987,27.23,54.258,40.461,4.922,3.564,6.675,7.379,6.472,13.3-.5,14.709,4.072,31.636-1.788,43.541-5.828,11.84-21.866,18.675-33.479,27.637C918.16,818.228,912.357,822.462,906.1,827.145Z" transform="translate(-552.513 -425.253)" fill="#5232c2"/>
    <path d="M976.8,1198.253c-16.861-12.617-33.215-24.7-49.324-37.111-1.88-1.448-2.447-4.635-3.525-7.059a4.9,4.9,0,0,1-.047-1.865c.07-15.038-4.375-32.234,1.489-44.5,5.8-12.13,21.923-19.392,33.677-28.587,8.634-6.754,17.505-13.205,26.3-19.746,6.194-4.6,9.3-10.365,9.118-18.425-.394-17.54-.24-35.1,0-52.642.038-2.814.788-6.738,2.7-8.23,16.512-12.859,33.367-25.277,50.309-37.968,16.89,12.651,33.316,24.658,49.288,37.242,2.353,1.854,3.511,6.415,3.59,9.762.368,15.66.734,31.361-.024,46.993-.56,11.552,3.419,19.463,12.873,26.127,17.659,12.447,34.843,25.6,51.8,38.993a17.268,17.268,0,0,1,5.829,11.285c.719,13.122.594,26.322.056,39.461-.141,3.445-2.06,7.9-4.679,9.981-13.963,11.117-28.548,21.45-42.6,32.455-4.406,3.45-7.295,2.742-11.356-.394-15.62-12.059-31.5-23.782-47.289-35.62-15.644-11.729-19.314-11.729-34.694-.194C1012.54,1171.519,994.769,1184.8,976.8,1198.253Z" transform="translate(-552.513 -425.253)" fill="#5232c2"/>
    <path d="M1188.892,827.15c-16.858-12.6-33.035-24.418-48.8-36.762-2.434-1.906-4.08-6.19-4.2-9.442-.468-13.14-.65-26.331.083-39.447a17.34,17.34,0,0,1,5.931-11.3c17.461-13.752,35.278-27.065,53.247-40.152,7.991-5.82,12.063-12.654,11.665-22.923-.643-16.577-.381-33.2.007-49.8.076-3.249,1.555-7.6,3.937-9.475,15.74-12.375,31.9-24.212,48.818-36.892,16.915,12.721,33.951,25.31,50.612,38.377,1.842,1.444,2.1,5.615,2.138,8.534.2,15.66.7,31.355-.106,46.975-.6,11.613,3.549,19.514,12.894,26.154,17.352,12.329,34.047,25.579,51.271,38.093,5.008,3.639,7.468,7.406,7.175,13.886-.564,12.5.1,25.062-.345,37.576-.118,3.289-1.519,7.679-3.908,9.555-15.98,12.55-32.388,24.556-49.056,37.038-18.288-13.691-36.289-27.183-54.308-40.652-13.674-10.222-19.062-10.258-32.478-.224C1225.433,799.769,1207.408,813.282,1188.892,827.15Z" transform="translate(-552.513 -425.253)" fill="#5232c2"/>
    <path d="M906.147,1074.577c-19.012-14.229-37.279-27.935-55.584-41.59-12.577-9.383-17.671-9.393-30.138-.087-16.567,12.365-33.229,24.609-49.562,37.276-4.517,3.5-7.556,3.709-12.152.09-13.531-10.654-27.668-20.543-41.119-31.293a15.951,15.951,0,0,1-5.483-10.555c-.5-15.325-4.6-32.871,1.394-45.4,5.784-12.082,22.326-19.044,34.214-28.161,8.2-6.29,16.446-12.531,24.82-18.589,6.88-4.977,10.133-11.224,9.9-19.972-.448-16.909-.485-33.852.134-50.75a17.294,17.294,0,0,1,5.68-11.482c13.649-11,28.016-21.1,41.87-31.859,3.888-3.018,6.494-3.208,10.5-.089,14.078,10.974,28.683,21.28,42.613,32.431,2.844,2.277,5.011,7.081,5.13,10.8.54,16.9.623,33.847.082,50.751-.294,9.189,3.326,15.4,10.432,20.623,18.167,13.361,36.3,26.786,54.02,40.726a17.334,17.334,0,0,1,5.823,11.367c.721,13.121.534,26.315.087,39.461-.111,3.266-1.608,7.6-4.008,9.492C939.061,1050.148,922.9,1062,906.147,1074.577Z" transform="translate(-552.513 -425.253)" fill="#5232c2"/>
    <path d="M1330.243,1074.581c-18.994-14.242-37.508-28.163-56.066-42.027-11.856-8.857-17.407-8.825-29.423.151-18.55,13.856-37.06,27.766-55.875,41.869-16.846-12.627-33.469-24.893-49.778-37.563-2-1.551-3.183-5.251-3.249-7.992-.327-13.466-.539-26.962.1-40.4a16.1,16.1,0,0,1,5.447-10.64c18-14.1,36.327-27.775,54.763-41.3,7.464-5.474,10.915-12.1,10.629-21.535-.513-16.9-.413-33.844.082-50.75a14.71,14.71,0,0,1,4.911-9.872c13.978-11.1,28.537-21.456,42.621-32.422,4.007-3.12,6.682-2.81,10.517.158,14.117,10.926,28.662,21.3,42.623,32.42,2.621,2.087,4.561,6.574,4.663,10.018.481,16.279.765,32.606.024,48.866-.5,11.009,3.838,18.272,12.447,24.48,17.526,12.638,34.551,25.97,52.006,38.711,4.682,3.417,7.168,6.848,6.874,13.05-.708,14.972,3.886,32.185-2.091,44.351-5.805,11.816-22.1,18.487-33.818,27.385C1341.939,1065.878,1336.169,1070.145,1330.243,1074.581Z" transform="translate(-552.513 -425.253)" fill="#5232c2"/>
    <path d="M976.8,950.876c-16.442-12.335-32.551-24.21-48.34-36.5a12.552,12.552,0,0,1-4.346-8.4c-.445-14.08-.551-28.2.051-42.264.144-3.357,2.7-7.561,5.446-9.7q26.306-20.479,53.281-40.093c7.982-5.806,12.105-12.543,11.668-22.861-.7-16.57-.4-33.2-.01-49.786.076-3.268,1.518-7.66,3.9-9.532,15.982-12.549,32.389-24.557,49.055-37.037,16.751,12.558,33.364,24.767,49.59,37.471,2.157,1.689,3.244,5.872,3.3,8.928.311,16.907.5,33.833.013,50.731-.272,9.464,3.4,15.976,10.838,21.423,18.187,13.313,36.274,26.781,53.971,40.732a16.987,16.987,0,0,1,5.647,11.352c.57,15,4.672,32.295-1.29,44.441-5.937,12.1-22.34,19.075-34.206,28.229-5.438,4.2-11,8.229-17.2,12.85l-54.712-40.99c-13.292-9.959-18.513-10.011-31.683-.17C1013.492,923.358,995.24,937.058,976.8,950.876Z" transform="translate(-552.513 -425.253)" fill="#5232c2"/>
    <path d="M906.129,1322c-18.83-14.114-37.1-27.819-55.385-41.51-12.11-9.069-18.366-9.151-30.288-.245-18.32,13.686-36.6,27.433-55.706,41.766-16.95-12.724-34.005-25.349-50.751-38.372-1.677-1.3-2.02-5.014-2.057-7.621-.2-13.476-.488-26.977.171-40.424a16.079,16.079,0,0,1,5.594-10.528q26.635-20.865,54.043-40.737c7.532-5.483,10.971-12.045,10.7-21.472-.49-16.913-.408-33.859.089-50.772a14.8,14.8,0,0,1,4.893-9.989c15.493-12.214,31.428-23.867,47.954-36.265,16.976,12.694,34.058,25.25,50.777,38.273,1.868,1.455,2.3,5.55,2.335,8.434.207,17.238.411,34.489-.03,51.718-.216,8.43,3.036,14.334,9.543,19.167,18.112,13.452,35.976,27.242,54.267,40.443,5.21,3.76,7.044,7.849,6.841,14.081-.416,12.839.172,25.713-.341,38.544a13.737,13.737,0,0,1-4.564,9.19C938.679,1297.844,922.767,1309.521,906.129,1322Z" transform="translate(-552.513 -425.253)" fill="#5232c2"/>
    <path d="M1330.268,1321.988c-19.322-14.455-37.845-28.353-56.414-42.189-11.019-8.21-17.613-8.182-28.682.073-18.561,13.842-37.087,27.729-56.334,42.124-16.762-12.6-33.562-25.016-50.029-37.863-1.963-1.531-2.907-5.365-2.971-8.163-.3-13.148-.581-26.332.134-39.448a17.308,17.308,0,0,1,5.78-11.359q26.179-20.638,53.25-40.137c8.346-6.05,12.284-13.235,11.827-23.8-.69-15.944.039-31.946-.3-47.913-.118-5.545,1.422-9.161,6.077-12.484q21.017-15.006,41.327-30.992c4.261-3.341,7.055-3.287,11.3.043q20.32,15.938,41.33,30.985c4.671,3.341,6.083,7.07,5.977,12.572-.315,16.281.288,32.586-.262,48.855-.333,9.845,3.508,16.576,11.22,22.217,18.194,13.308,36.282,26.779,53.98,40.733,3.065,2.417,5.45,7.452,5.661,11.411.7,13.118.49,26.3.092,39.447-.091,2.993-1.516,6.979-3.731,8.709C1363.483,1297.317,1347.1,1309.364,1330.268,1321.988Z" transform="translate(-552.513 -425.253)" fill="#5232c2"/>
    <path d="M994.368,496.077h106.176c0,12.188,1.08,24.377-.251,36.3-2.043,18.3,4.245,30.743,20,40.572,15.619,9.743,29.616,22.061,44.593,32.877,4.512,3.258,6.554,6.647,6.372,12.339-.419,13.145.209,26.327-.368,39.46a14.869,14.869,0,0,1-5.032,9.794c-13.726,10.906-28.1,21-41.823,31.9-4.767,3.787-7.8,2.928-12.106-.386-16.127-12.419-32.5-24.518-48.807-36.7-13.279-9.923-18.132-9.864-31.669.286-16.037,12.023-32.174,23.917-48.025,36.18-4.587,3.549-7.8,4.361-12.849.323-13.448-10.748-27.63-20.575-41.131-31.259-2.725-2.157-5.151-6.413-5.3-9.805-.6-13.759-.661-27.58.032-41.33.182-3.609,2.994-8.071,5.964-10.393,17.762-13.882,35.829-27.384,54-40.732,7.145-5.249,10.675-11.486,10.368-20.639C993.984,528.952,994.368,513.01,994.368,496.077Z" transform="translate(-552.513 -425.253)" fill="#5232c2"/>
    <path d="M1471.3,942.361v204.369c-11.07,7.886-21.217,14.95-31.184,22.259-11.358,8.328-22.679,16.719-33.757,25.412-3.835,3.01-6.565,3.3-10.57.193-14.342-11.127-29.111-21.707-43.356-32.953-2.425-1.914-4.224-6.043-4.336-9.218-.473-13.448-.591-26.941.056-40.375a15.976,15.976,0,0,1,5.493-10.513c17.745-13.886,35.813-27.367,54-40.678,7.694-5.632,11.568-12.369,11.249-22.213-.536-16.579-.342-33.192.02-49.78.072-3.315,1.3-7.818,3.649-9.674C1438.02,966.995,1453.929,955.376,1471.3,942.361Z" transform="translate(-552.513 -425.253)" fill="#5232c2"/>
    <path d="M1471.564,694.716V898.788l-70.882,51.9c-16.637-12.481-33.236-24.736-49.515-37.4-1.973-1.535-3.062-5.269-3.126-8.017-.314-13.457-.523-26.943.106-40.378a15.977,15.977,0,0,1,5.338-10.6c17.978-14.093,36.29-27.77,54.714-41.28,7.468-5.477,10.925-12.151,10.673-21.535-.446-16.584-.481-33.2.137-49.774a17.165,17.165,0,0,1,5.632-11.428C1439.443,718.426,1454.814,707.291,1471.564,694.716Z" transform="translate(-552.513 -425.253)" fill="#5232c2"/>
    <path d="M623.928,695.077c17.381,13.06,33.487,24.906,49.188,37.267,2.117,1.667,3.027,5.909,3.079,8.984.289,16.923.5,33.864-.009,50.776-.277,9.154,3.281,15.482,10.366,20.717,17.893,13.221,35.466,26.881,53.524,39.869,5.493,3.951,7.531,8.217,7.278,14.844-.479,12.521.1,25.081-.319,37.606-.1,2.973-1.606,6.9-3.833,8.64-16.051,12.519-32.454,24.587-48.918,36.926l-70.357-51.679Z" transform="translate(-552.513 -425.253)" fill="#5232c2"/>
    <path d="M694.115,1198.222l-70.242-52.257V942.6c9.775,7.274,17.993,15.112,27.654,20.224,20.805,11.009,28.974,27,25.041,50.217-1.446,8.534.187,17.544-.35,26.29-.56,9.121,3.089,15.506,10.222,20.772,18.406,13.588,36.791,27.217,54.76,41.37a17.347,17.347,0,0,1,5.748,11.39c.72,12.814.521,25.7.1,38.543-.11,3.329-1.382,7.811-3.759,9.681C727.3,1173.66,710.869,1185.675,694.115,1198.222Z" transform="translate(-552.513 -425.253)" fill="#5232c2"/>
    <path d="M1047.514,1189.524c16.523,12.378,32.724,24.193,48.446,36.614,2.6,2.055,4.284,6.73,4.382,10.251.455,16.286.677,32.61.032,48.883-.419,10.577,3.6,17.716,12.015,23.716,15.017,10.7,29.574,22.052,45.874,34.3H939.19l-2.073-1.677a46.911,46.911,0,0,0,6.086-3.29c13.838-10.268,27.547-20.711,41.411-30.944,6.8-5.017,10.164-11.14,9.9-19.95-.509-17.224-.362-34.478.041-51.707.076-3.229,1.741-7.518,4.163-9.415C1014.493,1213.945,1030.676,1202.115,1047.514,1189.524Z" transform="translate(-552.513 -425.253)" fill="#5232c2"/>
    <path d="M1418.749,496.012h52.219V652.829c-6.627,4.341-13.25,8.281-19.44,12.812-14.664,10.736-29.3,21.531-43.569,32.778-4.967,3.914-8.352,4.606-13.65.351-13.188-10.59-27.168-20.195-40.323-30.822a17.438,17.438,0,0,1-5.814-11.281c-.725-12.812.033-25.7-.411-38.54-.2-5.748,2.012-9.028,6.474-12.282,17.975-13.109,35.552-26.764,53.516-39.89,7.747-5.661,11.481-12.478,11.143-22.293C1418.355,528.074,1418.749,512.455,1418.749,496.012Z" transform="translate(-552.513 -425.253)" fill="#5232c2"/>
    <path d="M623.937,495.969h52.4c0,14.456.853,28.786-.246,42.965-1.046,13.5,3.9,22.383,14.819,29.94,17.251,11.941,33.9,24.791,50.348,37.823,3.07,2.432,5.473,7.451,5.694,11.415.713,12.814.522,25.7.09,38.539-.112,3.322-1.422,7.784-3.806,9.658-15.987,12.569-32.413,24.581-49.127,37.1l-70.17-52.248Z" transform="translate(-552.513 -425.253)" fill="#5232c2"/>
    <path d="M1383.367,496.344c0,13.818.116,27.21-.138,40.595a7.975,7.975,0,0,1-3.037,5.276c-16.433,12.513-33.006,24.841-49.939,37.517-18.6-13.923-36.867-27.6-55.14-41.272-13.093-9.8-18-9.828-30.918-.16-18.3,13.7-36.582,27.413-55.316,41.455-16.747-12.556-33.311-24.868-49.692-37.418a9.121,9.121,0,0,1-3.314-6.111c-.3-13.09-.152-26.19-.152-39.881Z" transform="translate(-552.513 -425.253)" fill="#5232c2"/>
    <path d="M711.858,496.239H958.946c0,13.871.205,27.263-.2,40.636-.068,2.257-2.327,5.013-4.331,6.554-14.4,11.076-29.14,21.718-43.447,32.911-4.319,3.379-7,1.965-10.566-.744q-25.432-19.348-51.1-38.385c-11.028-8.2-16.791-8.152-27.884.109-16.835,12.537-33.717,25.014-50.344,37.821-4.317,3.325-7.354,4.3-12.155.5-13.76-10.874-28.084-21.032-41.925-31.806-2.37-1.845-4.793-5.285-4.906-8.081C711.567,522.94,711.858,510.091,711.858,496.239Z" transform="translate(-552.513 -425.253)" fill="#5232c2"/>
    <path d="M1471.333,1189.718v153.767H1360.685c4.882-3.7,8.365-6.354,11.867-8.986,11.768-8.846,23.378-17.913,35.371-26.443,7.9-5.618,11.246-12.639,10.96-22.359-.488-16.593-.25-33.212-.021-49.816.039-2.865.621-6.891,2.52-8.378C1437.341,1215.007,1453.667,1202.977,1471.333,1189.718Z" transform="translate(-552.513 -425.253)" fill="#5232c2"/>
    <path d="M734.761,1343.809H624.175V1190.215c10.5,7.815,19.722,16.371,30.414,22.263,18.11,9.979,25.311,23.868,21.969,44.27-1.35,8.239.486,16.957-.388,25.326-1.327,12.722,3.569,21.26,13.969,28.383C704.758,1320.471,718.591,1331.632,734.761,1343.809Z" transform="translate(-552.513 -425.253)" fill="#5232c2"/>
    <path d="M795.35,1343.259l40.07-30.047,40.087,30.047Z" transform="translate(-552.513 -425.253)" fill="#5232c2"/>
    <path d="M1300.064,1343.568h-80.942l40.418-30.37Z" transform="translate(-552.513 -425.253)" fill="#5232c2"/>
  </g>
</svg>
