<svg xmlns="http://www.w3.org/2000/svg" viewBox="0 0 783.023 871.977">
  <path d="M607.925,721.286h641.043c0,3.678,0,6.974,0,10.27q0,259.484-.013,518.968c-.007,44.894-29.982,75.106-74.866,75.129q-245.583.129-491.166,0c-45.015-.022-74.985-30.112-74.99-74.946q-.03-259.484-.008-518.968C607.925,728.428,607.925,725.112,607.925,721.286Zm533.969,301.874q0-87.039-.011-174.078c-.007-14.9-6.255-21.415-21.166-21.782-9.871-.243-19.763-.324-29.627.036-13.879.506-20.1,7.077-20.108,20.921q-.053,175,0,350.008c0,13.862,6.194,20.281,20.207,20.762,9.557.328,19.136.212,28.7.05,16.116-.272,21.992-6.41,22-22.765Q1141.911,1109.737,1141.894,1023.16Zm-426.938-.869q0,87.965.023,175.931c.012,13.57,5.959,20.18,19.237,20.754,10.782.466,21.617.459,32.4-.006,13.25-.572,19.281-7.287,19.285-20.757q.044-175,0-350.009c0-13.718-6.334-20.355-20.218-20.87-9.555-.354-19.136-.211-28.7-.054-15.972.262-22.012,6.55-22.018,22.785Q714.93,936.178,714.957,1022.291Zm178.007,1.212q0,87.039.016,174.078c.01,14.578,6.04,21.008,20.455,21.451,10.176.312,20.38.357,30.551-.026,13.867-.523,19.9-7.066,19.905-21.086q.04-174.541,0-349.081c0-14.771-6.362-21.2-21.421-21.549-8.946-.208-17.9-.132-26.851-.023-16.671.2-22.646,6.309-22.651,23.084Q892.943,936.928,892.963,1023.5Z" transform="translate(-536.897 -453.741)" fill="#5232c2"/>
  <path d="M752.969,587.25c0-4.632,0-7.984,0-11.336,0-33.663-.061-67.327.031-100.99.04-14.489,6.446-21.113,20.821-21.124q154.727-.119,309.455.006c13.949.012,20.335,6.529,20.387,20.508.125,33.663.044,67.326.046,100.99,0,3.614,0,7.227,0,11.946h12.082q89.408,0,178.817,0c20.422,0,25.283,4.8,25.289,24.838,0,14.515.063,29.031-.02,43.546-.074,12.943-5.968,19.388-18.684,20.521-2.759.246-5.555.1-8.334.1q-364.583,0-729.165,0c-2.779,0-5.577.141-8.333-.124-12.383-1.19-18.266-7.455-18.371-19.856-.136-16.058-.1-32.119-.016-48.178.075-14.512,6.239-20.784,20.917-20.805q91.261-.131,182.523-.041Zm51.356-.712h247.9v-57.56h-247.9Z" transform="translate(-536.897 -453.741)" fill="#5232c2"/>
</svg>
