<svg xmlns="http://www.w3.org/2000/svg" viewBox="0 0 897.535 1055.121">
  <path d="M1444.765,516.961c.215,4.35.531,7.772.531,11.194.02,86.42.7,172.846-.161,259.257-1.36,135.717-31.335,264.257-102.4,381.115-80.235,131.942-192.585,226.992-335.214,286.32-7.354,3.059-13.493,3.37-20.84.184C765.731,1359.2,624.669,1195.669,568.378,960.719c-15.225-63.549-20.469-128.389-20.339-193.7.156-78.281.037-156.563.037-234.844,0-4.593,0-9.187,0-14.725,13.19.907,25.376,1.791,37.568,2.575,96.264,6.189,189.163-7.756,277.924-46.466C900.75,457.345,934.047,434.9,966.3,410.582c5.616-4.234,13.459-6.515,20.587-7.563,23.954-3.522,44.015,4.083,64.515,17.847,81.052,54.421,170.772,86.666,267.905,97.631A507.4,507.4,0,0,0,1444.765,516.961ZM750.134,898.083l190.653,201.853L1271.605,763.5l-50.449-44.846L940.793,926.094,806.211,830.819Z" transform="translate(-548.037 -402.163)" fill="#5232c2"/>
</svg>
