<svg xmlns="http://www.w3.org/2000/svg" viewBox="0 0 1304.927 1390.496">
  <g>
    <path d="M1630.235,1605.9V1727.5H339.761V1605.9Z" transform="translate(-325.308 -337)" fill="#5232c2"/>
    <path d="M1619.709,546.9H326.485l-.543-3.137c6.135-2.451,12.192-5.279,18.415-7.3Q648.629,437.8,953.016,339.7a56.713,56.713,0,0,1,33.567-.313q311.406,99.811,622.525,201.044C1610.961,541.034,1612.629,542.536,1619.709,546.9Z" transform="translate(-325.308 -337)" fill="#5232c2"/>
    <path d="M1616.124,567.437V671.79H325.308V567.437Z" transform="translate(-325.308 -337)" fill="#5232c2"/>
    <path d="M907.5,1475.952V692.638h139.765v783.314Z" transform="translate(-325.308 -337)" fill="#5232c2"/>
    <path d="M453.665,690.647c43.912,0,86.646-.347,129.362.619,3.663.083,7.9,8.357,10.53,13.844,1.516,3.163.375,8.371.375,12.658q.007,366.629,0,733.259c0,7.667,0,15.334,0,24.991H453.665Z" transform="translate(-325.308 -337)" fill="#5232c2"/>
    <path d="M1135.482,691.932h138.76v784.046h-138.76Z" transform="translate(-325.308 -337)" fill="#5232c2"/>
    <path d="M1487.447,1476.776H1348.634V692.7h138.813Z" transform="translate(-325.308 -337)" fill="#5232c2"/>
    <path d="M680.38,690.7c39.89,0,78.507-.312,117.106.555,3.314.074,7.54,7.36,9.454,12.428,1.592,4.216.443,10.1.444,15.24q.009,365.254.005,730.508V1476.3H680.38Z" transform="translate(-325.308 -337)" fill="#5232c2"/>
    <path d="M1587.81,1498.5v67.426H380.592V1498.5Z" transform="translate(-325.308 -337)" fill="#5232c2"/>
  </g>
</svg>
