<svg xmlns="http://www.w3.org/2000/svg" viewBox="0 0 1248.497 1248.91">
  <g>
    <path d="M537.232,1070.518H456.3V882.955c21,0,42.345-.77,63.6.278,13.6.671,20.495-3.075,24.81-16.711,6.6-20.848,16.269-40.757,26.267-65.023l-56.3-49.7L651.742,616.471c13.466,13.965,28.573,31,45.4,46.189,4.591,4.144,14.935,5.024,21.622,3.389,11.036-2.7,21.108-9,31.826-13.191,34.03-13.307,34.073-13.2,34.073-50.376V560.7H975.943c0,18.991.96,37.98-.285,56.829-1.123,17.016,2.231,28.563,21.98,31.473,9.059,1.335,17.713,5.932,26.306,9.6,31.7,13.55,31.786,13.753,56.635-11.367,10.489-10.6,20.345-21.809,29.194-31.345l137.328,135c-12.686,12.049-26.492,26.408-41.675,39.187-12.212,10.278-16.624,19.788-6.441,34.072,5.269,7.391,7.906,16.661,11.348,25.231,13.476,33.552,13.419,33.574,51.269,33.574h42.456v187.972c-22.446,0-44.626.485-66.767-.2-11.115-.346-16.393,2.933-19.911,14.039-5.547,17.516-14.957,33.841-20.654,51.325-2.018,6.193-.461,16.528,3.781,21.128,15,16.26,31.866,30.855,46.431,44.581l-136.447,134.244-49.27-56.247c-29.361,11.54-52.4,19.771-74.529,29.9-5.156,2.36-9.926,11.041-10.264,17.064-1.222,21.79-.481,43.687-.481,66.779H785.822V1314.6l-80.32-32.766-51.978,56.637-138.856-136.6,57.374-48.439ZM879.852,746.13c-131.046.415-234.833,103.263-234.364,232.243.464,127.509,106.665,229.856,237.839,229.206,128.725-.637,232.613-104.814,232.028-232.672C1114.773,847.4,1010.1,745.717,879.852,746.13Z" transform="translate(-268.214 -328.269)" fill="#5232c2"/>
    <path d="M386.929,1267.931c31.556,6.644,60.417,12.9,89.364,18.747,17.513,3.537,33.112,8.823,30.486,30.852-1.92,16.106-14.545,21.631-39,18.2-2.782-.391-5.63-.332-11.757-.658,4.385,6.036,6.867,10.53,10.345,14.085,127.466,130.286,282.3,191.165,466.417,175.557,147.238-12.481,268.839-75.984,368.1-182.458,14.8-15.871,29.38-18.75,40.934-6.911,13.294,13.622,8.749,27.023-2.743,39.512-105.679,114.837-236.345,183.5-393.314,198.862-209.363,20.491-384.076-50.428-528.243-202.188-1.9,4.554-3.6,8.617-5.287,12.689-5.53,13.354-16.187,18.35-29.65,14.832-14.8-3.867-20.328-14.97-18.215-29.546,1.015-7.007,2.808-13.91,4.363-20.836C374.611,1322.439,380.546,1296.219,386.929,1267.931Z" transform="translate(-268.214 -328.269)" fill="#5232c2"/>
    <path d="M1460.648,1172.844c9.179-3.172,15.535-6.029,22.207-7.538,14.267-3.227,26.207.185,31.822,14.7,5.673,14.661-.962,25.525-14.356,31.209-31.756,13.475-63.99,25.861-98.413,39.642-13.393-32.61-27.825-64.152-38.649-96.848-2.448-7.393,5.033-22.649,12.516-27.561,16.263-10.675,27.847,1.357,42.482,15.43,6.918-35.467,16.434-70.659,20.34-106.443,28.982-265.5-140.306-513.365-400.658-587.939-17.972-5.148-36.476-8.5-54.731-12.693-21.182-4.865-31.563-16.206-27.381-31.182,5.532-19.814,20.945-21.286,38-17.9,139.941,27.782,259.163,92.07,350.751,200.214,141.043,166.538,180.369,355.579,121.7,564.365C1464.434,1156.859,1462.964,1163.525,1460.648,1172.844Z" transform="translate(-268.214 -328.269)" fill="#5232c2"/>
    <path d="M778.012,383.938c-21.505-26.737-23.424-38.584-9.761-49.9,13-10.763,26.064-6.724,47.719,14.282,20.038,19.437,40.3,38.651,60.486,57.985-25.934,26.688-49.685,53.064-76.039,76.631-5.318,4.756-23.382,2.33-30.234-3.184-5.69-4.579-4.735-18.615-4.332-28.366.191-4.619,5.968-9.015,9.214-13.512l-2.846-6.487c-45.032,16.119-91.976,28.4-134.771,49.005-211.632,101.884-331.4,305.815-316.282,537.345,2.475,37.894,12.75,75.388,20.7,112.8,3.564,16.768,5.322,31.622-14.332,38.775-16.354,5.952-27.686-2.806-34.643-25.246-76.119-245.514,28.7-527.424,247.719-667.179C612.934,430.743,690.826,398.553,778.012,383.938Z" transform="translate(-268.214 -328.269)" fill="#5232c2"/>
  </g>
</svg>
