<svg xmlns="http://www.w3.org/2000/svg" viewBox="0 0 946.588 954.699">
  <g>
    <path d="M676.8,1033.011c0-7.663,0-12.958,0-18.253q0-245.087.012-490.175c.007-36.408,21.036-59.179,57.32-59.314,127.917-.474,255.836-.188,383.755-.144,2.563,0,5.125.562,9.456,1.068,0,28.338,0,56.143,0,83.947q0,17.737,0,35.473c-.069,60.239,36.425,97.157,97.117,97.746,34.9.338,69.815.061,105.992.061v97.328h-18.428c-119.319,0-238.639-.213-357.955.348a80.124,80.124,0,0,0-33.593,7.98q-58.6,28.574-115.926,59.736c-7.048,3.822-15.8,12.82-15.662,19.257.14,6.578,9.043,15.184,16.193,19.031q58.832,31.658,118.873,61.041a68.959,68.959,0,0,0,29.19,6.671c119.855.443,239.712.288,359.568.288h19.016c0,7.275,0,13.023,0,18.77q0,192.684-.008,385.368c-.007,38.581-20.917,60.29-59.3,60.328q-267.661.269-535.322.015c-39.216-.034-60.27-21.845-60.291-61.295-.016-30.579,0-61.158,0-94.607h20.861q221.705,0,443.41.107c38.191.07,70.347-11.264,88.888-46.64,6.484-12.371,9.6-27.154,11.33-41.2,1.894-15.351.381-31.12.4-46.706.058-58.847-37.082-96.039-97-96.158q-181.4-.36-362.794-.075Z" transform="translate(-526.687 -465)" fill="#5232c2"/>
    <path d="M596.319,1070.246c0,14.815.119,28.71-.035,42.6-.138,12.477,4.8,21.946,17.924,22.081,13.2.136,18.224-9.082,17.959-21.753-.29-13.887-.066-27.785-.066-42.972h31.384c0,26.309-.225,52.442.089,78.568.174,14.493,8.509,22.394,20.613,20.192,11.772-2.142,15.11-10.463,15.059-21.3-.121-25.657-.039-51.315-.039-77.857h30.962c0,14.067.168,27.835-.049,41.6-.2,12.779,3.523,23.535,18,23.48,14.373-.055,18.239-10.821,18.106-23.556-.139-13.37-.031-26.743-.031-41.266h30.576q0,23.744,0,47.521c.007,10.749-.294,21.511.149,32.242.488,11.816,6.272,19.754,18.884,19.3,11.8-.425,16.85-8.269,16.9-19.451.113-26.2.036-52.407.036-79.678h31.039c0,8.7,0,17.589,0,26.474,0,29.554,4,38.439,17.482,38.814,13.971.389,18.25-8.876,18.251-39.519,0-8.031,0-16.063,0-25.48H930.87c0,20.6,0,41.316,0,62.035,0,5.912.052,11.823.042,17.735-.02,11.529,5.556,18.855,17.133,19.071,12.447.232,18.385-7.657,18.531-19.612.25-20.42.089-40.844.1-61.267,0-5.789,0-11.579,0-18.353H997.2c0,14.278.085,28.027-.025,41.775-.1,12.822,4.065,23.4,18.432,23.212,14.463-.186,17.978-11.13,17.824-23.783-.162-13.343-.036-26.69-.036-41.1h30.545c0,21.956-.006,43.759,0,65.562,0,5.374-.372,10.792.178,16.112,1.16,11.218,7.406,18.022,18.984,17.464,10.75-.518,16.457-7.123,16.528-17.973.136-20.959.084-41.919.107-62.879.006-5.76,0-11.52,0-20.41,24.155,1.306,46.7.811,68.646,4.213,20.181,3.128,36.814,25.967,37.444,47.2.573,19.33.623,38.707-.008,58.034-.811,24.832-20.46,45.783-45.249,48.978a164.3,164.3,0,0,1-20.9,1.126q-273.286.087-546.571.1c-19.851.01-39.946-1.016-52.139-18.893-6.882-10.09-11.29-22.953-13.124-35.123-2.217-14.715-.587-30.018-.526-45.065C527.486,1088.185,552.83,1065.983,596.319,1070.246Z" transform="translate(-526.687 -465)" fill="#5232c2"/>
    <path d="M1395.973,817.4V918.32H961.046V817.4Z" transform="translate(-526.687 -465)" fill="#5232c2"/>
    <path d="M1163.381,492.928l145.144,154.431c-17.713,0-31.235.182-44.75-.044-18.775-.313-37.657.183-56.288-1.7-23.37-2.364-43.256-23.369-43.873-46.465C1162.71,565.368,1163.381,531.545,1163.381,492.928Z" transform="translate(-526.687 -465)" fill="#5232c2"/>
    <path d="M1434.434,817.193c31.208,5.555,38.84,14.387,38.841,43.384q0,8.022,0,16.043c0,27.016-9.227,37.228-38.841,41.526Z" transform="translate(-526.687 -465)" fill="#5232c2"/>
    <path d="M921.763,906.981l-76.737-39.33,76.737-39.218Z" transform="translate(-526.687 -465)" fill="#5232c2"/>
  </g>
</svg>
