<svg xmlns="http://www.w3.org/2000/svg" viewBox="0 0 1354.081 1487.801">
  <g>
    <path d="M1377.179,1139.312c32.776,24.9,66.043,50.5,63.634,95.4-1.237,23.059-8.419,48.744-21.181,67.667-33.072,49.04-83.62,50.807-159.035,10.475,28.608,58.98,27.466,102.468-7.4,135.823-57.387,54.9-113.41,32.8-168.952-8.024,20.774,32.469,26.386,65.373,13.811,100.086-23.458,64.75-97.037,87.768-156.438,48.146-87.4-58.3-174.069-117.695-261.044-176.632-72.6-49.2-144.021-100.244-218.07-147.147-96.539-61.149-115.209-175.251-77.2-263.32,8.877-20.567,20.506-40.255,33.041-58.885q140.33-208.55,281.587-416.475C744.6,460.45,816.118,435.3,891.578,463.193c71.72,26.514,132.988,71.286,188.328,123.087,33.143,31.024,44.6,74.274,47.307,118.3,1.136,18.49,8.811,27.5,22.606,36.767q154.609,103.845,308.464,208.811c54.8,37.469,68.79,92.8,36,144.343C1467.234,1137.013,1426.416,1148.189,1377.179,1139.312Z" transform="translate(-366.919 -224.902)" fill="#5232c2"/>
    <path d="M1704.024,398.867c61.533,161.736-51.688,344.8-219.174,356.8-37.263,2.671-58.9,15.4-75.23,46.058-8.469,15.9-20.124,30.1-31.835,47.264-45.236-30.6-88.876-60.1-132.5-89.631-20.861-14.119-41.752-28.194-62.528-42.439-20.4-13.985-27.935-37.491-12.015-54.854,33.613-36.656,32.251-72.859,20.363-119.765-36.738-144.956,77.534-301.205,225.954-317.015,7.574-.807,15.309-.1,27.4-.1-19.9,29.6-38.078,56.706-56.33,83.76-18.945,28.081-38.724,55.646-56.409,84.5-4.35,7.1-5.507,19.92-2.114,27.372,20.486,45.006,42.251,89.458,64.865,133.439,3.476,6.76,13.208,13.757,20.638,14.468,48.419,4.635,97.047,7.052,145.5,11.36,14.994,1.333,23.614-3.663,31.769-15.991C1628.2,509.934,1665,456.421,1704.024,398.867Z" transform="translate(-366.919 -224.902)" fill="#5232c2"/>
    <path d="M645.592,1434.951l232.786,157.712c-26.317,31.694-47.759,66.2-77.285,91.121-49.057,41.414-122.072,36.8-170.223-3.931-50.589-42.787-64.919-110.543-33.676-169.251C610.939,1484.775,628.7,1461.086,645.592,1434.951Z" transform="translate(-366.919 -224.902)" fill="#5232c2"/>
  </g>
</svg>
