<svg xmlns="http://www.w3.org/2000/svg" viewBox="0 0 1036.371 1242.92">
  <g>
    <path d="M1184.868,838.4c-142.894.327-259.079-115.026-259.612-257.753-.531-142.3,114.9-258.469,257.989-259.638,143.012-1.168,260.671,115.791,260.637,259.087C1443.849,722.595,1328.055,838.071,1184.868,838.4Zm.307-291.8-61.358-59.437-29.669,28.1,60.011,64.1-58.084,61.957,29.16,30.014,60.559-58.375,55.946,58.731,33.276-28.089-59.862-64.428,59.741-63.939-31.53-29.739Z" transform="translate(-407.511 -321)" fill="#5232c2"/>
    <path d="M1339.744,879.4v17.633q.005,293.757-.047,587.514c-.03,45.621-31.714,79.007-77.2,79.078q-389.226.606-778.453-.047c-44.327-.078-76.406-33.639-76.425-77.79Q407.4,994.789,407.6,503.8c.015-43.786,30.356-77.875,73.538-78.231,132.174-1.09,264.363-.454,396.546-.423,1.287,0,2.574.9,5.647,2.055l-19.756,49.066H740.127q-120.65,0-241.3.017c-32.181.02-39.94,7.571-39.944,39.113q-.051,479.454.007,958.907c0,30.126,8.28,38.307,38.847,38.314q375.59.083,751.179.005c31.806-.006,39.564-7.843,39.57-39.628.033-181.85.412-363.7-.526-545.546-.107-20.781,4.418-32.767,25.581-36.941C1321.471,888.94,1328.769,884.176,1339.744,879.4Z" transform="translate(-407.511 -321)" fill="#5232c2"/>
    <path d="M615.271,1161.745v-23.617h516.517v23.617Z" transform="translate(-407.511 -321)" fill="#5232c2"/>
    <path d="M615.331,954V931.006h516.4V954Z" transform="translate(-407.511 -321)" fill="#5232c2"/>
    <path d="M1132.039,1034.854v22.957H615.792v-22.957Z" transform="translate(-407.511 -321)" fill="#5232c2"/>
    <path d="M615.338,1264.082v-22.319h516.557l1.456,22.319Z" transform="translate(-407.511 -321)" fill="#5232c2"/>
    <path d="M980.939,850.557H615.332V825.615h22.7c96.508,0,193.025.682,289.518-.509C949.957,824.829,966.624,830.957,980.939,850.557Z" transform="translate(-407.511 -321)" fill="#5232c2"/>
    <path d="M615.335,747.322v-23.4c7.365-.439,14.11-1.182,20.856-1.19,74.784-.083,149.576.515,224.348-.457,18.373-.239,26.705,6.7,29.4,25.05Z" transform="translate(-407.511 -321)" fill="#5232c2"/>
  </g>
</svg>
