<svg xmlns="http://www.w3.org/2000/svg" viewBox="0 0 989.539 1119.557">
  <g>
    <path d="M1075.741,1247.526l-13.789,48.229c9.227-2.206,15.746-3.417,22.055-5.324,99.4-30.052,198.715-60.369,298.214-90.082,11.85-3.538,19.273-8.872,23.476-21.016a343.857,343.857,0,0,1,27.316-59.918V1553c-5.519-6.543-9.553-10.9-13.119-15.617-38.029-50.259-76.287-100.35-113.713-151.055-7.93-10.743-14.68-13.5-28.021-9.412q-284.322,87.091-569.013,172.973c-7.113,2.157-14.269,4.175-22.8,6.663V437h746.661c.487,4.768,1.394,9.548,1.4,14.329.094,65.569.2,131.14-.153,196.707-.035,6.475-1.259,14.437-5.081,19.16-28.5,35.224-57.789,69.806-84.719,102.059-14.234-1.773-25.714-4.432-37.2-4.449q-260.071-.4-520.142-.179c-4.413,0-8.828-.01-13.238.116-14.453.411-22.782,8.574-23.007,22.287-.225,13.757,8.2,22.039,22.3,23.271,5.635.493,11.34.218,17.014.219q247.777.012,495.554.007h24.382l-81.1,98.153,13.16,16.158c-17.053,6.858-32.2,14.586-48.251,19.022-24.342,6.726-39.076,20.677-40.358,44.424-12.7-1.745-23.588-4.513-34.486-4.544q-168.336-.478-336.673-.175c-5.038,0-11.58-1.662-14.814.831-7.683,5.923-18.148,13.288-19.218,21.191-.909,6.718,8.55,16.567,15.712,22.026,4.593,3.5,13.341,1.971,20.226,1.977q171.174.13,342.348.057h12.9c-1.088,5.913-1.512,10.681-2.861,15.17-14.125,47.013-28.938,93.83-42.263,141.067-3.487,12.36-9.211,15.277-21.066,15.226-95.2-.414-190.4-.237-285.6-.225-28.432,0-40.2,6.639-40.707,22.861-.526,16.939,11.314,23.767,41.428,23.773q131.454.026,262.908.007Zm-27.355-695.484q-134.186,0-268.372-.1c-15.915-.037-27.63,4.984-29.357,22.225-1.413,14.112,10.872,23.439,29.857,24.025,2.518.078,5.04.02,7.559.02q259.868,0,519.735-.067c6.875,0,15.654,1.437,20.183-2.1,7-5.465,15.521-14.872,15.156-22.2-.363-7.28-9.865-15.661-17.342-20.485-5-3.227-13.47-1.307-20.387-1.311Q1176.9,551.975,1048.386,552.042Z" transform="translate(-686.351 -437)" fill="#5232c2"/>
    <path d="M1449.764,1066.328,1291.635,909.09l186.515-225.6L1675.89,878.6Z" transform="translate(-686.351 -437)" fill="#5232c2"/>
    <path d="M1146.285,1175.56c1.161-4.718,2.112-9.5,3.516-14.144,15.459-51.138,30.549-102.4,46.973-153.225,2.452-7.588,10.082-15.447,17.365-19.132,16.192-8.192,33.985-13.157,50.529-20.739,10.062-4.611,16.694-3.782,24.706,4.4q47.566,48.589,96.532,95.8c7.506,7.266,7.222,13.174,4.966,22.974-11.194,48.632-38.187,76.749-89.5,85.652-40.407,7.011-79.269,22.925-120.567,31.975,30.981-31.062,61.8-62.289,93.166-92.959,3.566-3.488,10.075-4.353,15.417-5.57,21.1-4.809,32.992-18.741,31.867-37.894-1-17.107-14.774-32.3-31.76-35.034-18.723-3.018-38.177,7.541-41.426,27.219-2.777,16.821-13.042,26.206-23.428,36.7q-37.664,38.053-75.5,75.937Z" transform="translate(-686.351 -437)" fill="#5232c2"/>
  </g>
</svg>
