<svg xmlns="http://www.w3.org/2000/svg" viewBox="0 0 923.25 921.747">
  <path d="M1341.09,690.329c.15,21.085,16.41,49.032,48.1,70.25,15.4,10.31,30.048,24.432,39.637,40.127,16.822,27.532,15.761,58.05-.415,86.04-21.226,36.73-20.942,71.717-.411,108.936,25.091,45.486,11.566,96.256-32.816,123.228-37.386,22.721-54.809,53.722-54.356,97.553.452,43.787-38.516,83.072-82.853,86.267-27.68,1.995-55.334,3.439-76.692,24.271-7.706,7.516-15.472,15.659-20.676,24.937-26.5,47.259-82.854,64.408-129.8,37.82-35.276-19.979-69.343-19.462-104.577.419-46.233,26.088-102.589,8.573-128.577-37.736-15.669-27.92-39.806-44.454-72.3-47.443-11.366-1.045-22.895-1.071-34.1-3.019-40.935-7.121-75.574-47.914-74.751-89.536.807-40.8-15.74-70.652-50.8-91.228-33.458-19.634-49.963-49.555-46.923-88.165,1.1-13.974,6.189-28.579,12.967-40.979,18.569-33.971,18.728-66.511.079-100.545-27.454-50.1-14.159-99.991,34.765-130.214,34.049-21.034,50.6-50.079,49.877-90.224-.858-47.906,39.658-89.692,88.149-91.329,28.879-.975,55.769-6.206,76.694-27.923,6.053-6.282,11.87-13.2,16.074-20.786,26.293-47.424,82.7-64.541,129.683-37.929,35.307,20,69.363,19.471,104.609-.379,46.262-26.054,102.716-8.545,128.543,37.748,19.679,35.273,51.719,48.262,90.87,49.2C1302.744,580.937,1341.61,622.207,1341.09,690.329Zm-428.7,329.365c-29.16-29.135-57.576-57.759-86.269-86.1-15.27-15.085-29.152-14.937-44.6.118-13,12.668-25.892,25.449-38.485,38.516-14.695,15.248-15.117,28.536-.469,43.31Q816.5,1090.1,891.059,1164.056c13.932,13.835,28.417,13.9,42.274.072q153.086-152.726,305.788-305.836c14.534-14.578,14.249-27.259.117-42.028-12.186-12.736-24.835-25.031-37.367-37.432-18.056-17.867-30.888-17.848-49,.216q-58.376,58.229-116.619,116.59C995.222,936.7,954.218,977.8,912.388,1019.694Z" transform="translate(-517.75 -480.567)" fill="#5232c2"/>
</svg>
