<svg xmlns="http://www.w3.org/2000/svg" viewBox="0 0 782.041 969.928">
  <g>
    <path d="M1164.089,646.645l48.309,48.384c-10.214,12.3-20.837,25.43-31.879,38.193-3.133,3.622-2.77,6.007-.888,10.17q10.421,23.052,19.406,46.736c1.556,4.119,3.172,5.879,7.389,6.217,14.292,1.145,28.565,2.543,42.844,3.856,2.534.233,5.061.527,7.912.827v68.021c-16.167,1.543-32.378,3.41-48.641,4.472-5.911.386-7.9,2.389-9.933,8.069-5.5,15.378-12.148,30.382-19.058,45.2-2,4.289-1.91,6.74,1.046,10.194,11,12.862,21.729,25.962,32.126,38.451l-48.356,48.229-41.789-34.693-59.332,24.675-5.171,54.6H990.036l-5.276-55.264c-13.924-5.389-28.674-8.683-40.616-16.35-13.924-8.94-23.02-6.826-33.565,4.353-7.99,8.471-17.839,15.189-26.054,22.016l-48.395-48.453c9.217-11.1,19.348-23.688,29.95-35.867,3.909-4.49,4.524-7.592,1.67-13.461A479.449,479.449,0,0,1,849,879.912c-1.687-4.622-3.619-5.9-8.089-6.25-16.579-1.285-33.127-2.976-49.987-4.542V800.944c14.84-1.344,29.3-3.022,43.814-3.83,8.594-.478,13.28-2.5,16.03-12.282,4.038-14.37,11.217-27.919,17.728-41.5,2.027-4.226,2.046-6.642-1.011-10.188-10.89-12.632-21.408-25.584-31.875-38.184l48.935-47.784c10.3,8.535,22.459,17.868,33.683,28.218,6.139,5.661,10.394,5.886,17.982,2,13.574-6.959,28.175-12.014,42.6-17.147,4.389-1.561,6.125-3.159,6.482-7.841,1.266-16.624,3.053-33.208,4.7-50.405h68.066c1.6,16.678,3.41,33.211,4.652,49.787.365,4.87,1.934,6.766,6.682,8.529,15.8,5.87,31.37,12.432,46.757,19.332,3.974,1.782,6.3,1.871,9.592-.943C1138.584,667.713,1151.661,657,1164.089,646.645Zm-140.313,99.865c-49.05.225-88.676,39.87-88.586,88.628.09,48.777,39.859,88.5,88.729,88.631,49.023.13,89.215-40.144,88.984-89.165C1112.673,785.84,1072.655,746.285,1023.776,746.509Z" transform="translate(-633.03 -602)" fill="#5232c2"/>
    <path d="M849.595,1129.617c26.5,146.826,47.234,293,81.485,437.784-8.411.778-17.1,1.781-25.816,2.356-67.174,4.434-134.089,3.125-199.621-13.92-22.271-5.793-43.5-15.6-65.191-23.607-5.525-2.039-7.44-5.7-7.422-11.929q.371-124.795.016-249.591c-.016-6.132,1.747-9.154,7.429-11.632q72.674-31.7,145.051-64.07a39.126,39.126,0,0,0,11.922-8.354c16.3-16.889,32.289-34.074,48.309-51.229C847.319,1133.753,848.329,1131.565,849.595,1129.617Z" transform="translate(-633.03 -602)" fill="#5232c2"/>
    <path d="M1197.572,1130.5c16.116,17.109,32.379,33.942,48.1,51.268a63.94,63.94,0,0,0,22.534,16.083c46.548,20.238,92.882,40.97,139.415,61.245,5.618,2.448,7.492,5.38,7.453,11.57-.432,68.308-.517,136.617-.695,204.926-.007,2.566,0,5.131,0,8.6-98.765-1.612-193.316,19.835-286.228,45.2Z" transform="translate(-633.03 -602)" fill="#5232c2"/>
    <path d="M1070.846,1544.706l-92.039,17.336c2.361-24.051,4.483-46.275,6.736-68.487q7.412-73.09,14.933-146.168c1.328-12.957,2.428-25.948,4.208-38.843.772-5.59.238-9.415-5.674-11.544-2.867-1.032-5.443-3.066-7.921-4.948-11.682-8.87-12.712-14.232-5.272-26.432q13.425-22.014,26.869-44.016c5-8.14,21.722-8.081,26.728.092,10.067,16.434,19.865,33.039,30.237,49.277,2.923,4.576,2.93,8.362-.467,11.814-4.862,4.942-9.8,10.142-15.634,13.7-4.917,2.994-6.834,5.725-6.192,11.529,3.61,32.624,6.876,65.287,10.211,97.941q6.672,65.31,13.249,130.629C1071.025,1538.631,1070.846,1540.717,1070.846,1544.706Z" transform="translate(-633.03 -602)" fill="#5232c2"/>
  </g>
</svg>
