<svg xmlns="http://www.w3.org/2000/svg" viewBox="0 0 990.251 990.721">
  <g>
    <path d="M519.235,914.189c25.1,0,50.206-.116,75.307.027,25.62.145,31.416,5.892,32.132,31.212,3.9,137.852,117.25,257.985,251.05,269.243,162.338,13.66,282.09-100.221,304.4-228.208,29.341-168.359-89.6-318.433-261.351-330.048-32.7-2.211-35.8-5.5-35.8-38.108q-.009-71.96.008-143.921c.02-27.89,5.871-33.772,32.941-33.367,238.847,3.569,444.028,184.449,478.82,422.109,39.045,266.714-140.875,515.178-406.48,561.335-268.547,46.668-526.959-136.714-571.65-406.173-4.087-24.643-5.478-49.824-6.7-74.824-1.068-21.8,6.492-28.91,28.679-29.194C466.8,913.937,493.017,914.193,519.235,914.189Z" transform="translate(-411.804 -441)" fill="#5232c2"/>
    <path d="M907.61,785.569c83.338.392,150.79,68.507,150.16,151.634-.622,82.081-68.651,149.485-150.946,149.562-83.29.078-150.646-67.585-150.5-151.188C756.461,851.727,823.584,785.173,907.61,785.569Z" transform="translate(-411.804 -441)" fill="#5232c2"/>
  </g>
</svg>
