<svg xmlns="http://www.w3.org/2000/svg" viewBox="0 0 1161.114 1161.071">
  <g>
    <path d="M989.794,1550.318c-322.881,4.879-585.321-250.179-590.278-573.674-4.877-318.283,251.666-582.474,570.259-587.26C1292.217,384.54,1555.9,640.617,1560.5,963.079,1565.046,1281.175,1308.154,1545.508,989.794,1550.318Zm-.389-58.076c287.908-5.222,518.051-243.538,512.987-531.206-5.081-288.665-243.682-518.9-532.242-513.588C681.912,452.757,452.5,690.55,457.633,978.682,462.79,1268.038,700.373,1497.485,989.405,1492.242Z" transform="translate(-399.448 -389.316)" fill="#30bcc5"/>
    <path d="M972.621,615.456c194.407-4.518,357.019,151.414,361.3,346.458,4.3,196.092-150.617,357.859-347,362.335-193.984,4.421-356.852-151.1-361.119-344.821C621.448,781.709,775.5,620.038,972.621,615.456ZM886.159,1040.19c-34.092-32.93-64.4-61.867-94.271-91.254-9.735-9.579-17.846-9.966-27.141.345-11.154,12.372-23.024,24.1-34.5,36.18-13.329,14.035-13.327,16.515.658,30.02q69.031,66.666,138.178,133.212c15.97,15.389,18.694,15.384,33.678-.156q68.288-70.823,136.55-141.672,86.742-90,173.466-180.012c13.288-13.806,13.152-16.389-.787-29.962q-16.177-15.752-32.51-31.345c-15.737-15.1-18.51-15.071-33.717.7q-124.255,128.883-248.387,257.883C893.316,1028.356,890.548,1033.823,886.159,1040.19Z" transform="translate(-399.448 -389.316)" fill="#5232c2"/>
  </g>
</svg>
