<svg xmlns="http://www.w3.org/2000/svg" viewBox="0 0 1258.176 884.418">
  <g>
    <path d="M1046.546,668.711c39.939-.023,79.879-.255,119.816.029,68.942.49,114.878,55.3,101.9,122.678q-40.026,207.87-81.242,415.511c-7.992,40.494-47.5,75.161-88.974,76.877-34.235,1.417-68.621,1.414-102.856,0-41.493-1.71-80.832-36.085-88.95-76.85Q864.6,997.842,823.836,788.551c-12.029-61.943,34.467-118.416,98.289-119.664C963.583,668.077,1005.071,668.734,1046.546,668.711Z" transform="translate(-416.349 -400.636)" fill="#fff"/>
    <path d="M606.59,954.368c31.248-.022,62.5-.342,93.744.044,67.97.839,110.375,59.215,91.121,124.578-12.715,43.165-24.841,86.5-37.226,129.765-13.974,48.809-48.561,75.6-98.776,76-34.319.269-68.655.584-102.961-.154-43.7-.94-78-25.831-90.953-67.449-15.042-48.323-29.323-96.938-42.011-145.924-15.566-60.1,27.864-115.564,90.247-116.728C542.036,953.894,574.318,954.39,606.59,954.368Z" transform="translate(-416.349 -400.636)" fill="#fff"/>
    <path d="M1484.024,954.353c31.756,0,63.518-.374,95.267.078,66.3.943,109.328,59.1,90.985,122.469-13.078,45.181-25.918,90.432-39.216,135.549-13.365,45.342-47.938,71.644-95.24,72.256q-51.467.666-102.949-.01c-47.184-.665-81.461-26.987-94.89-72.677-13.552-46.109-26.971-92.264-39.813-138.574-16.46-59.354,26.158-117.311,87.52-118.824,32.76-.808,65.556-.143,98.336-.143Z" transform="translate(-416.349 -400.636)" fill="#fff"/>
    <path d="M1046.833,400.636c59.2.111,112.044,53.18,111.7,112.189-.336,58.349-52.723,110.669-111.33,111.188-58.806.52-112.3-52.583-112.366-111.551C934.772,453.29,987.616,400.525,1046.833,400.636Z" transform="translate(-416.349 -400.636)" fill="#fff"/>
    <path d="M606.51,912.338c-55.112.045-104.329-49.036-104.285-104C502.27,753.551,551.97,704.453,607,704.836c54.327.379,103.548,49.323,103.811,103.231C711.079,862.562,661.334,912.293,606.51,912.338Z" transform="translate(-416.349 -400.636)" fill="#fff"/>
    <path d="M1484.719,912.369c-55.154.044-104.2-49-104.073-104.071.123-55.011,49.571-103.906,104.655-103.483,54.634.419,103.123,48.917,103.273,103.292C1588.725,863.255,1539.847,912.325,1484.719,912.369Z" transform="translate(-416.349 -400.636)" fill="#fff"/>
  </g>
</svg>
