<svg xmlns="http://www.w3.org/2000/svg" viewBox="0 0 1314.824 1050.634">
  <g>
    <path d="M863.049,360.383q223.846-.292,447.693-.539c30.778-.019,33.883,2.754,34.056,34.045.448,80.765.321,161.532.43,242.3q.255,190.149.519,380.3c.058,41.752-.957,43.058-43.116,43.125q-438.867.7-877.735,1.133c-41.075.04-41.838-1.07-41.891-42.395q-.39-307.287-.8-614.575c-.057-42.268.253-42.793,42.778-42.873q219.032-.415,438.064-.6Z" transform="translate(-382.204 -359.844)" fill="#fff"/>
    <path d="M1433.683,536.392c24.96-.033,47.36-.48,69.733.093,10.489.268,16.5,6.612,16.722,17.62.15,7.483.645,14.963.657,22.445q.456,308.837.83,617.674c.05,39.449-1.087,41.169-39.929,41.242q-441.195.824-882.39,1.144c-39.925.028-41.454-2.251-40.641-42,.3-14.8.013-29.616-.008-46.16l875.824-1.143Z" transform="translate(-382.204 -359.844)" fill="#fff"/>
    <path d="M1609.062,710.222c23.917-.031,44.728-.3,65.53,0,13.359.191,20.736,7.2,21.087,20.911.178,6.949.511,13.9.521,20.846q.444,308.079.827,616.157c.051,39.537-1.153,41.247-39.809,41.309q-445.268.716-890.538,1.033c-29.325.023-32.162-3.135-32.454-32.027-.162-16.043-.026-32.09.08-48.134.01-1.487.781-2.968,1.6-5.862l873.96-1.141Z" transform="translate(-382.204 -359.844)" fill="#fff"/>
  </g>
</svg>
