<svg xmlns="http://www.w3.org/2000/svg" viewBox="0 0 1295.836 1315.82">
  <g>
    <path d="M479.133,1482.951c-14.874,5.489-29.683,10.8-44.377,16.408-32,12.22-40.6,10.171-55.79-19.925-12.785-25.326-23.462-51.812-33.587-78.351-6.613-17.333-1.552-27.775,14.773-36.746q18.723-10.288,37.975-19.606c16.654-8.083,24.21-21.043,23.115-39.5q-1.362-22.938-1.84-45.927c-.34-15.414-7.653-25.961-21.418-32.245-13.435-6.134-27.034-11.914-40.425-18.141-19.375-9.01-23.974-19.788-16.612-39.385q16.136-42.955,32.766-85.724c7.268-18.719,18.189-24.065,37.281-18.351,13.641,4.083,27.143,8.627,40.727,12.9,16.084,5.063,30.005,2.149,41.663-10.7,10.294-11.344,21.128-22.2,31.592-33.389,11.528-12.33,14.885-26.1,8.024-42.205-5.784-13.578-10.525-27.6-16.008-41.307-6.044-15.115-2.472-28.506,11.432-35.413,30.6-15.2,61.81-29.376,93.554-42,15.542-6.181,26.71.5,35.1,16.039,7.018,13,13.859,26.1,20.413,39.34,6.808,13.749,17.836,20.574,32.913,20.555,16.9-.021,33.826-.238,50.709-1.033,16.169-.762,27.8-8.5,34.148-23.93q8.428-20.482,17.872-40.542c7.538-16.052,19.577-21.039,36.442-14.822q44.539,16.418,88.789,33.614c17.885,6.994,22.942,18.062,17.429,36.391-4.253,14.14-8.37,28.354-13.469,42.2-5.683,15.427-1.5,28.042,9.454,38.947,11.23,11.179,23.126,21.687,34.389,32.835,12.287,12.162,26.38,14.56,42.164,8.726,13.851-5.119,27.481-10.85,41.394-15.788,16.962-6.02,29.515-2.544,37.489,13.459,14.308,28.71,27.711,57.961,39.682,87.714,7.449,18.512,1.712,29.682-15.943,39.175-12.545,6.746-25.257,13.188-37.986,19.585-14.717,7.4-21.975,18.912-21.239,35.643.673,15.3.764,30.635.933,45.957.188,17.045,7.589,29.155,23.485,36,13.566,5.839,27.1,11.785,40.428,18.137,17.688,8.427,22.091,19.006,15.36,37.245q-16.159,43.791-32.949,87.349c-7.052,18.307-18.417,23.791-37.646,18.2-14.175-4.125-28.162-8.9-42.218-13.427-15.128-4.876-28.1-1.274-38.968,10.058q-16.459,17.157-32.646,34.575c-11.427,12.321-15.124,25.915-7.918,42.117,5.779,12.994,10.469,26.487,15.318,39.876,6.367,17.584,3.682,29.78-12.338,37.72-30.141,14.939-61.031,28.5-92.213,41.145-13.743,5.573-26.082-.122-33.468-13.421-7.427-13.373-14.615-26.915-21.13-40.749-7.456-15.832-20.071-22.6-36.78-22.335-16.9.267-33.793,1.182-50.679,2.025-14.014.7-23.779,8.035-29.575,20.5-6.671,14.348-12.667,29.011-19.4,43.326-7.684,16.328-19.359,21.4-36.276,15.162q-45.276-16.7-90.162-34.446c-16.174-6.4-21.393-17.413-16.627-34.161,4.328-15.212,9.24-30.268,14.275-45.265,4.27-12.717,2.454-24.55-6.626-33.929-13.944-14.4-28.525-28.278-43.757-41.3C494.918,1487.336,486.926,1486.1,479.133,1482.951Zm268.186-101.53c59.047-.538,106.592-48.805,106.038-107.651-.55-58.522-49.575-106.53-108.09-105.848-58.927.687-107.081,49.667-106.081,107.9C640.206,1335.269,688.019,1381.962,747.318,1381.422Z" transform="translate(-337.626 -367.669)" fill="#5232c2"/>
    <path d="M1019.953,590.69c-4.241-7.47-7.528-15.263-12.569-21.678-7.819-9.95-16.9-18.9-25.323-28.386-10.011-11.28-10.473-22.664.365-33.683,19.644-19.974,39.215-40.027,59.191-59.665,11.1-10.907,21.814-11.154,33.756-1.257,9.76,8.089,19.188,16.6,28.457,25.254,10.869,10.146,23.342,12.38,36.576,6.7,62.032-26.621,57.67-15.972,60.275-78.2,1.015-24.239,7.821-30.848,31.926-31.6,24.744-.771,49.549-.606,74.3.144,18.429.558,25.412,7.7,27.193,26.116,1.169,12.087,1.366,24.268,1.987,36.408.748,14.621,7.593,24.745,21.386,30.375,64.7,26.409,53,27.423,99.223-14.076,15.58-13.988,25.792-13.5,40.9,1.325,18.11,17.771,36.235,35.529,54.1,53.54,13,13.1,13.2,23.364,1.429,37.35-.679.808-1.452,1.536-2.156,2.324-43.719,48.972-38.191,36.45-10.379,101.993,3.285,7.74,15.422,13.872,24.649,16.407,11.978,3.291,25.147,2.29,37.811,3.025,19.686,1.144,28.15,7.059,29.228,26,1.556,27.353,1.482,54.89.314,82.272-.712,16.686-9.823,23.674-27.071,25.024-13.169,1.03-26.37,1.644-39.541,2.656-12.891.99-21.522,8.058-26.419,19.729-5.512,13.138-10.621,26.445-16.116,39.59-5.283,12.635-2.717,23.811,6.018,33.782,8.707,9.939,17.949,19.416,26.477,29.5,11.253,13.309,11.173,22.535-.643,34.777q-28.632,29.663-57.985,58.626c-11.467,11.307-22.469,11.475-35.029,1.021-9.339-7.773-18.492-15.807-27.289-24.185-11.3-10.761-23.912-12.49-37.925-6.731-12.689,5.215-25.311,10.595-37.947,15.937-13.108,5.541-19.354,15.736-19.934,29.686-.505,12.146-.557,24.326-1.5,36.437-1.406,18.1-8.954,26.713-26.5,27.3-27.388.923-54.847.852-82.241.043-14.44-.426-23.357-8.694-24.245-24.023-.733-12.661-1.89-25.3-2.361-37.972-.547-14.709-6.941-25.129-20.755-30.717-1.467-.593-2.865-1.358-4.332-1.95-59.558-24.035-50.176-25.271-94.982,15.266-16.591,15.01-25.865,14.523-41.993-1.381-18.066-17.815-36.193-35.571-54.021-53.623-12.641-12.8-12.965-22.486-1.533-36.045,7.833-9.29,15.928-18.372,24.2-27.277,10.495-11.3,12.881-23.68,6.463-37.863-4.35-9.613-9.128-19.169-12.139-29.222-6.08-20.294-19.588-28.937-40.093-28.726-7.913.082-15.833-.794-23.755-1.092-24.513-.92-32.175-6.275-33.627-30.14-1.6-26.268-.691-52.744.245-79.09.559-15.728,10.726-23.222,26.061-24.181,12.659-.792,25.3-1.868,37.965-2.541,14.165-.753,23.825-7.581,29.053-20.706C1005.908,626.193,1012.666,609.077,1019.953,590.69Zm143.406,140.8a106.318,106.318,0,0,0,105.586,105.941c57.567.353,106.384-47.953,106.465-105.349.083-58.867-48.03-106.965-106.665-106.631C1210.412,625.78,1163.165,673.319,1163.359,731.487Z" transform="translate(-337.626 -367.669)" fill="#5232c2"/>
  </g>
</svg>
