<svg xmlns="http://www.w3.org/2000/svg" viewBox="0 0 1006.254 1006.545">
  <path d="M1006.107,1065.051c0,4.46,0,7.916,0,11.372,0,33.608.18,67.219-.227,100.822a20.358,20.358,0,0,1-5.074,12.53c-9.914,10.582-19.02,24.12-31.47,29.491-11.743,5.065-27.321,1.291-41.212,1.312-25.462.04-50.924.011-77.58.011,0,7.747,0,14.746,0,21.745,0,30.053.23,60.111-.249,90.157a21.234,21.234,0,0,1-5.494,13.294q-47.9,48.754-96.6,96.714c-2.9,2.868-7.551,5.6-11.4,5.627-59.782.348-119.566.241-179.35.209-1.578,0-3.157-.342-6.217-.695,1.841-17.449,3.58-34.638,5.48-51.809,5.5-49.75,11.237-99.476,16.468-149.254.953-9.069,3.6-16.117,10.337-22.835q201.851-201.232,403.347-402.82c5.353-5.342,7.047-9.816,5.035-17.528-43.1-165.27,63.546-330.805,231.9-357.761,166.885-26.721,310.181,90.838,331.079,244.8,20.718,152.64-84.1,296.789-235.041,322.233-42.589,7.179-84.993,5.591-126.774-5.749-5.576-1.514-8.8-.473-12.6,3.415-16.041,16.4-32.137,32.769-48.771,48.561a22.985,22.985,0,0,1-14.138,5.891c-33.277.5-66.566.266-99.851.266Zm179.937-336.182a83.794,83.794,0,0,0,83.366,84.325c46.063.53,83.969-36.935,84.339-83.359.369-46.214-36.756-83.734-83.376-84.262C1224.317,645.051,1186.213,682.687,1186.044,728.869Z" transform="translate(-551.233 -441.83)" fill="#fff"/>
</svg>
