<svg xmlns="http://www.w3.org/2000/svg" viewBox="0 0 600.757 600.697">
  <g>
    <path d="M1022.583,763.311c165.133.111,300.391,134.993,300.295,299.46-.1,165.49-134.855,301-299.561,301.237-167.124.238-301.45-134.572-301.2-302.281C722.369,897.575,857.667,763.2,1022.583,763.311Zm.278,533.477c129.6-.5,233.722-105.821,233.264-235.96-.447-127.067-106.234-231.328-234.139-230.761-130.054.577-233.575,105.227-233.088,235.63C789.373,1192.7,895.256,1297.281,1022.861,1296.788Z" transform="translate(-722.12 -763.311)" fill="#5232c2"/>
    <path d="M1022.405,1229.536c-92.419-.209-166.55-75.022-166.278-167.807.267-91.017,75.394-165.59,166.5-165.27,92.612.325,166.574,74.961,166.26,167.776C1188.577,1155.3,1113.6,1229.742,1022.405,1229.536Zm.379-265.669a99.5,99.5,0,0,0-100.111,99.319c-.308,55.241,43.425,99.418,99.193,100.2,54.849.772,99.923-43.56,100.561-98.906C1123.064,1009.231,1078.506,964.238,1022.785,963.867Z" transform="translate(-722.12 -763.311)" fill="#5232c2"/>
  </g>
</svg>
