<svg xmlns="http://www.w3.org/2000/svg" viewBox="0 0 722.554 1080.411">
  <path d="M1303.964,1000.041c0,63.688,3.715,127.636-.717,191.014-11.908,170.284-133.046,313.952-292.838,342.6-138.987,24.922-253.208-21.849-341.65-131.168-54.78-67.712-82.287-146.5-83.44-232.913-1.6-120-4.664-240.312,1.832-360.006,9.328-171.874,134.021-316.31,295.641-343.864,136.986-23.354,249.816,22.952,337.252,130.235,58.045,71.221,84.032,154.355,85.32,245.49.747,52.859.136,105.737.136,158.606ZM968.807,950.3c5.227,4.779,8.371,7.441,11.276,10.342,33.73,33.677,67.095,67.731,101.449,100.757,5.753,5.53,16.193,9.865,23.662,8.846,6.841-.933,14.77-8.719,18.308-15.521,5.165-9.927-.9-18.981-8.422-26.491Q1040.55,953.85,966.124,879.366c-15.07-15.044-27.173-15.032-42.266.011q-46.955,46.8-93.77,93.743c-18.689,18.691-37.508,37.254-56.013,56.125-10.477,10.685-11.909,21.249-5.138,31.515,9.112,13.817,25.768,14.841,38.889,1.825,34.145-33.873,68.057-67.981,102.093-101.964,2.908-2.9,6.052-5.569,11.26-10.334,0,7.422,0,11.993,0,16.563q0,147.541,0,295.082c0,32.065.085,64.13-.034,96.194-.043,11.624,4.4,20.207,15.616,24.29,17.761,6.465,32.007-5.422,32.016-26.847q.084-194.338.03-388.677C968.807,962.322,968.807,957.751,968.807,950.3Zm36.158-262.762c-.032-33.6-26.727-60.005-60.439-59.785A59.48,59.48,0,0,0,885,687.174c-.12,33.865,26.069,60.3,59.815,60.364C978.651,747.607,1005,721.324,1004.965,687.534Z" transform="translate(-583.182 -459.794)" fill="#5232c2"/>
</svg>
