<svg xmlns="http://www.w3.org/2000/svg" viewBox="0 0 595.341 595.51">
  <path d="M1039.6,1140.869h-8.427c-95.174,0-190.349-.245-285.523.058-131.689.42-235.444-79.414-278.432-183.573C402.264,799.957,480.374,621.1,640.939,563.42c172.648-62.022,356.068,42.133,392.947,221.788a281.118,281.118,0,0,1,5.473,54.7c.523,97.689.245,195.383.244,293.075C1039.6,1135.23,1039.6,1137.48,1039.6,1140.869ZM502.8,803.4H656.271c0-20.141.058-39.741-.024-59.341-.042-9.936,4.854-16.671,13.334-21.05,10.684-5.517,23.352-3.305,33.392,5.722q52.518,47.215,104.989,94.484c15.255,13.744,15.217,26.3-.08,40.083q-30.3,27.3-60.642,54.56-22.741,20.46-45.492,40.909c-9.172,8.2-19.788,9.715-30.9,5.154-11.147-4.575-15.159-13.569-14.718-25.466.522-14.081.118-28.2.116-42.3q0-6.629,0-13.236H502.7c13.587,101.3,107.485,204.755,240.938,203.348,136.423-1.437,242.775-110.368,241.643-245.8C984.173,707.445,875.479,599.8,741.938,600.025,607.221,600.255,515.408,705.159,502.8,803.4Z" transform="translate(-444.337 -545.419)" fill="#5232c2"/>
</svg>
