<svg xmlns="http://www.w3.org/2000/svg" viewBox="0 0 1224.871 1288.537">
  <g>
    <path d="M661.519,688.706c38.131,42.413,75.469,85.58,114.784,126.865,15.586,16.367,21.087,32.85,20.971,55.227-.9,174.771-.5,349.549-.5,524.324v14.618h790.3V619.281h-14q-239.726,0-479.452.186c-8.645.014-14.363-2.4-20.114-8.994-33.9-38.852-68.312-77.252-102.541-115.815-3.364-3.79-6.652-7.646-11.258-12.948,4.477-.506,7.277-1.1,10.077-1.1q330.657-.063,661.313.043c57.134.051,95.573,38.983,95.578,95.785q.039,438.12,0,876.24c0,57.219-37.93,95.78-95.227,95.811q-438.709.237-877.419.012c-57.609-.026-95.3-38.038-95.311-95.424q-.062-376.122-.019-752.244,0-5.7,0-11.407Z" transform="translate(-501.825 -260.067)" fill="#fff"/>
    <path d="M625.448,564.575,808.619,400.888l450.152,500.8-181.212,163.7Z" transform="translate(-501.825 -260.067)" fill="#fff"/>
    <path d="M590.255,525.674c-25.992-29.64-52.109-57.966-76.484-87.718-17.018-20.773-15.886-47.793,3.606-66.534,35.714-34.34,72.554-67.568,109.982-100.041,18.291-15.87,47.981-14.987,65.078,2.288,27.854,28.144,53.806,58.171,81.211,88.113Z" transform="translate(-501.825 -260.067)" fill="#fff"/>
    <path d="M1321.12,1153.083l-208.431-46.772,181.163-165.577Z" transform="translate(-501.825 -260.067)" fill="#fff"/>
  </g>
</svg>
