<svg xmlns="http://www.w3.org/2000/svg" viewBox="0 0 1047.297 1056.136">
  <g>
    <path d="M1098.01,1316.859c-8.586,62.094,12.891,103.8,65.741,130.9,20.215,10.367,40.657,20.32,60.571,31.236,17.588,9.641,24.155,22.864,19.632,37.771-5.1,16.8-17.451,22.975-34.294,22.963q-218.9-.164-437.8-.059c-16.714,0-29.114-6.207-33.916-23.341-4.273-15.247,1.053-26.719,18.6-36.529,18.85-10.538,38.272-20.062,57.518-29.884,57.957-29.574,77.265-65.322,70.273-133.056H865.166q-165.633,0-331.266-.118c-9.916-.017-20.212-.254-29.667-2.828-22.266-6.061-36.616-27.4-36.628-53.559q-.165-360.4.018-720.8c.022-31.993,18.388-51.648,50.178-55.37a100.2,100.2,0,0,1,11.623-.521q460.276-.034,920.553-.077c22.888-.006,43.7,4.849,55.206,26.581,5.229,9.877,9.19,21.83,9.214,32.851q.775,358.731.358,717.465c-.01,32.111-19.7,53.263-51.546,55.891-6.069.5-12.192.459-18.291.46q-163.136.038-326.272.018ZM1405,591.512H575.349v537.8H1405Zm-378.738,630.531a36.683,36.683,0,0,0-36.054-35.886c-19.652-.14-37.352,17.633-36.952,37.105.4,19.223,17.053,35.484,36.491,35.624A36.242,36.242,0,0,0,1026.265,1222.042Z" transform="translate(-467.512 -483.592)" fill="#fff"/>
    <path d="M1201.928,856.033c-34.252-33.995-65.077-64.362-95.608-95.022-9.718-9.759-16.581-20.981-12.05-35.789,4.06-13.272,12.36-24.108,26.27-24.328,10.651-.168,24.373,2.608,31.609,9.472C1192.8,748.927,1232.2,788.837,1271.4,828.9c16.248,16.607,16,34.808-.487,51.622q-58.277,59.439-117.7,117.755c-14.811,14.586-36.132,14.754-49.366,1.79-14.783-14.481-15.145-33.867.768-50.37,26.576-27.561,53.926-54.381,81.151-81.309C1190.077,864.125,1195.448,860.931,1201.928,856.033Z" transform="translate(-467.512 -483.592)" fill="#fff"/>
    <path d="M780,854.4c28.487,28.384,55.949,55.719,83.371,83.093,5.1,5.091,10.477,9.991,14.974,15.583C890.4,968.07,889.47,986.831,876.5,999.8c-12.233,12.228-33.2,13.284-46.916,1.024-13.214-11.813-25.3-24.9-37.851-37.443-26.682-26.666-53.475-53.222-79.98-80.063-20-20.254-20.177-37.5-.264-57.616q56.2-56.769,112.975-112.967c16.621-16.489,37.718-17.819,51.873-3.926,15.093,14.814,14.125,35.157-3.4,52.884C842.567,792.411,811.791,822.734,780,854.4Z" transform="translate(-467.512 -483.592)" fill="#fff"/>
    <path d="M1048.246,734.713q-13.818,77.627-27.6,155.26c-5.936,33.225-11.816,66.463-18.1,99.623-4.181,22.07-21.287,35.167-41.071,32.2-19.817-2.968-30.354-19.917-26.15-44.076q21.774-125.1,44.267-250.082c3.731-20.727,19.8-32.124,39.436-29.367A33.969,33.969,0,0,1,1048.246,734.713Z" transform="translate(-467.512 -483.592)" fill="#fff"/>
  </g>
</svg>
