<svg xmlns="http://www.w3.org/2000/svg" viewBox="0 0 894.661 894.329">
  <path d="M1092.194,461.257c249.115,1.028,447.579,201.971,446.447,452.024-1.1,243.666-203.292,443.074-448.463,442.3-248.65-.787-447.4-201.625-446.188-450.872C645.183,659.6,846.673,460.243,1092.194,461.257Zm101.778,567.216q0-77.046-.017-154.092c-.046-34.956-26.532-66.636-61.145-70.015a481.074,481.074,0,0,0-74.157-1.294c-43.084,2.485-70.5,33.252-70.489,76.284q.038,149.175,0,298.349c-.01,41.417,29.758,73.206,71.064,74.766,21.461.81,43.009.873,64.462-.039,40.867-1.738,70.309-33.378,70.267-74.238Q1193.88,1103.334,1193.972,1028.473ZM1090.948,552.161a95.246,95.246,0,0,0-.061,190.49c52.4.424,96.089-43.3,95.788-95.866C1186.377,594.46,1143.385,551.964,1090.948,552.161Z" transform="translate(-643.984 -461.253)" fill="#fff"/>
</svg>
