<svg xmlns="http://www.w3.org/2000/svg" viewBox="0 0 1169.791 1170.518">
  <g>
    <path d="M1140.656,1445.114q-224.482.005-448.964-.028c-89.826-.069-135.8-46.452-135.794-136.558q0-218.575.016-437.15c.032-78.209,48.147-128.268,126.264-128.393q459.3-.737,918.6.024c77.113.136,124.811,49.616,124.845,126.24q.1,224.482,0,448.963c-.029,78.22-47.977,126.561-127.15,126.777C1445.874,1445.4,1293.264,1445.11,1140.656,1445.114Zm-464.929-349.46v229.7h930.7v-229.7Zm-1.277-120.1H1606.7v-113H674.45Z" transform="translate(-555.884 -274.693)" fill="#fff"/>
    <path d="M1469.69,410.448l-79.049,81.241c-163.5-142.808-366.863-119.357-493-3.625l-81.665-77.888C970.636,238.083,1289.312,221.084,1469.69,410.448Z" transform="translate(-555.884 -274.693)" fill="#fff"/>
    <path d="M1305.861,576.529,1224.3,657.363c-54.048-40.311-109.112-43.551-163.564.336l-78.762-80.771C1046.111,494.167,1215.049,480,1305.861,576.529Z" transform="translate(-555.884 -274.693)" fill="#fff"/>
  </g>
</svg>
