<svg xmlns="http://www.w3.org/2000/svg" viewBox="0 0 1295.46 1113.755">
  <g>
    <path d="M1269.752,440.177c176.156.514,319.009,143.713,318.8,319.574-.208,176.081-143.321,318.909-319.4,318.763-176.741-.147-319.1-143.622-318.6-321.091C951.043,582.735,1094.992,439.667,1269.752,440.177Zm.517,353.2c38.351,0,76.7.107,115.054-.036,26.926-.1,43.451-13.767,43.543-35.572.089-21.061-15.875-34.976-42.132-35.078q-116.77-.455-233.541.1a56.26,56.26,0,0,0-23.109,4.838c-14.546,6.86-21.391,23.721-17.564,39.109,3.9,15.681,17.274,26.259,35.829,26.455C1188.984,793.62,1229.628,793.324,1270.269,793.374Z" transform="translate(-293.093 -440.095)" fill="#fff"/>
    <path d="M930.9,1234.24c-.052,176.3-142.685,318.874-318.973,318.834-176.221-.04-318.857-142.777-318.832-319.059C293.118,1057.693,435.821,916.1,613,916.6,789.445,917.1,930.949,1058.488,930.9,1234.24Zm-355.324-35.511c-17.233,0-32.529-.035-47.825.009-17.17.05-34.4-.729-51.491.5-19.212,1.385-33.651,17.427-33.547,35.012.1,17.063,13.52,32.015,32.086,34.372,10.158,1.289,20.538,1.032,30.82,1.1,22.7.141,45.406.044,69.887.044,0,8.523-.006,14.678,0,20.834.027,25.758-.372,51.527.245,77.271.383,15.986,9.31,26.638,24.437,31.674,14.668,4.883,28.1,1.233,36.767-10.877,5.229-7.306,8.192-17.677,8.5-26.8,1.028-30.13.388-60.317.388-92.107,10.253,0,18.193.064,26.131-.012,24.6-.236,49.26.507,73.766-1.123a34.74,34.74,0,0,0,32.853-35.266c-.437-17.72-14.978-32.8-34.393-34.283-12.523-.958-25.171-.325-37.763-.344-19.766-.03-39.531-.008-60.587-.008,0-31.674.158-60.781-.118-89.884-.064-6.751-.385-13.948-2.713-20.14-5.983-15.917-21.634-23.9-38.789-21.093-16.219,2.658-28.233,15.961-28.511,33.586C575.212,1133.085,575.573,1164.988,575.573,1198.728Z" transform="translate(-293.093 -440.095)" fill="#fff"/>
    <path d="M717.926,709.038v150.74c-71.13-18.389-140.576-18.676-212.273.247V709.041c-20.916,0-39.632-.1-58.346.031-16.364.117-30.96-3.209-38.694-19.682-8.067-17.184-.758-30.643,10.41-43.6q80.155-92.992,159.937-186.3c21.948-25.567,42.271-25.869,64.009-.8Q723.96,552.1,804.874,645.569c11.273,12.955,18.371,26.52,10.615,43.632-7.513,16.577-22.162,19.98-38.556,19.867C758.142,708.938,739.349,709.038,717.926,709.038Z" transform="translate(-293.093 -440.095)" fill="#fff"/>
    <path d="M1375.57,1133.575v151.1c21.409,0,41.263.372,61.1-.116,16.438-.4,29.252,4.97,36.477,20.31,7.039,14.947,2.1,27.833-7.9,39.5q-83.882,97.812-167.907,195.5c-16.333,18.873-38.29,18.581-54.917-.514q-85.18-97.824-169.761-196.17c-9.37-10.836-12.843-22.99-7.129-36.574,6.035-14.348,18.075-20.389,32.831-20.728,21.018-.483,42.056-.123,64.939-.123V1133.523C1234.744,1152.335,1304.322,1152.263,1375.57,1133.575Z" transform="translate(-293.093 -440.095)" fill="#fff"/>
  </g>
</svg>
