<svg xmlns="http://www.w3.org/2000/svg" viewBox="0 0 917.17 928.654">
  <g>
    <path d="M573.5,1243.206c43.728-41.953,87.68-83.675,131.127-125.917,55.631-54.087,122.146-78.713,199.376-75.213,4.667.212,9.578-.079,13.939,1.273,75.158,23.305,152.528,15.939,229.311,16.942,31.86.416,55.832,18.355,62.625,45.88,9.6,38.917-16.223,75.112-56.645,76.712-38.138,1.509-76.375.472-114.566.762-6.953.053-15.372-1.134-20.483,2.24-6.745,4.452-15.316,13.1-14.939,19.464.393,6.641,10.374,18.075,16.342,18.19,54.5,1.052,109.2,2.332,163.463-1.672,15.913-1.174,33.361-16.5,45.361-29.661,49.872-54.709,97.889-111.108,146.68-166.8,17.277-19.722,38.945-28.173,64.833-22.557,26.073,5.657,42.24,22.455,48.757,48.064,5.4,21.237-.459,40.369-14.4,56.624-65.444,76.326-130.75,152.779-196.971,228.428-32.29,36.887-75.031,51.373-123.322,51.335-85.746-.067-171.508.912-257.229-.561-26.788-.46-48.6,3.978-64.759,26.761-6.728,9.487-15.126,17.791-24.06,28.132-54.92-44.966-106.971-87.878-159.374-130.356-24.673-20-50.024-39.164-75.068-58.707Q573.5,1247.885,573.5,1243.206Z" transform="translate(-573.499 -512.974)" fill="#fff"/>
    <path d="M1041,765.7c-2.974-65.154-6.087-126.524-8.477-187.921-1.886-48.432,14.271-64.621,62.987-64.681,22.582-.028,45.17-.309,67.745.076,36.216.618,55.82,21.8,54.173,57.952-2.9,63.727-5.826,127.453-8.9,194.766,19.285,0,36.855.233,54.417-.06,21.193-.353,38.961,6.2,47.6,26.694,8.247,19.557-2.585,34.01-15.646,47.608-43.151,44.928-85.8,90.342-128.975,135.243-26.955,28.031-56.592,28.073-83.153.23-43.536-45.637-86.572-91.751-130.157-137.34-12.819-13.408-20.5-28.18-13.334-46.308,7.477-18.907,23.913-25.71,43.1-26.164C1000.913,765.358,1019.458,765.7,1041,765.7Z" transform="translate(-573.499 -512.974)" fill="#fff"/>
  </g>
</svg>
