<svg xmlns="http://www.w3.org/2000/svg" viewBox="0 0 1111.993 865.456">
  <g>
    <path d="M937.394,1397.584q-236.35,0-472.7.05c-30,.021-56.329-8.28-71.184-36-6.735-12.569-11.487-27.964-11.528-42.093q-1.037-353.244-.5-706.492c0-48.39,29.564-79.037,77.94-80.676,2.552-.086,5.11-.029,7.665-.029q470.783,0,941.565-.123c32.627-.021,59.909,9.4,75.645,39.716,5.1,9.825,8.736,21.72,8.758,32.677q.735,360.273.313,720.548c-.023,41.69-33.409,72.047-79.446,72.341-53.23.339-106.463.082-159.7.082ZM938.421,594.4q-229.957,0-459.915.01c-28.074,0-35.2,7.278-35.2,35.686q-.007,335.993.005,671.986c0,25.389,8.094,33.6,33.646,33.6q460.553.06,921.107,0c25.995,0,33.67-7.734,33.67-33.314q.009-251.037,0-502.073,0-88.789-.033-177.578c-.026-18.528-8.572-27.339-26.981-28.233-4.249-.206-8.515-.084-12.773-.084Q1165.184,594.393,938.421,594.4Z" transform="translate(-381.465 -532.222)" fill="#fff"/>
    <path d="M1320.078,780.458V853.08H555.832V780.458Z" transform="translate(-381.465 -532.222)" fill="#fff"/>
    <path d="M555.594,977.95H1159.54v72.468H555.594Z" transform="translate(-381.465 -532.222)" fill="#fff"/>
  </g>
</svg>
