<svg xmlns="http://www.w3.org/2000/svg" viewBox="0 0 733.49 865.968">
  <g>
    <path d="M772.947,1332.326c0-14.54-.469-28.66.081-42.741,2.389-61.128,7.178-122,22.06-181.609,13.238-53.024,33.927-102.5,70.188-144.3,40.423-46.6,92.66-73.164,151.376-88.6,7.332-1.928,14.61-4.06,23.729-6.6-3.83-2.985-6.482-5.176-9.258-7.2-19.7-14.336-39.068-28.978-54.688-48.031-103.636-126.412-33.148-316,127.891-343.8,119.565-20.645,233.512,64.708,246.209,185.622,8.212,78.209-20.387,141.734-81.422,190.854-9.23,7.428-18.976,14.216-29.537,22.084l71.037,21.815c-8.977,6.347-14.223,13.6-24.857,13.769-17.373.271-28.142,11.215-36.192,25.621a20.15,20.15,0,0,1-7.8,7.888c-16.364,8.31-25.123,21.172-26.12,39.627a17.848,17.848,0,0,1-4.367,10.147c-13.12,14.571-16.433,30.407-8.008,48.5a10.23,10.23,0,0,1-.069,7.653c-8.394,18.124-4.861,33.921,8.1,48.54a19.734,19.734,0,0,1,4.386,10.97c1.266,17.336,9.507,29.639,24.651,37.987a27.036,27.036,0,0,1,9.6,9.444c7.952,13.263,18.026,23.14,34.23,24.857,3.034.321,6.047.839,9.612,1.344l-11.364,109.158,31.243-19.259,23.108,25.851,9.955-92.976,1.468.057,10.193,90.311,23.089-23.2,31.363,19.094c-1.237-12.187-2.239-22.919-3.432-33.63-2.378-21.364-4.875-42.715-7.292-64.075-.688-6.079,3.69-11.869,9.886-11.927,21.056-.2,35.146-10.382,43.687-29.192a8.215,8.215,0,0,1,3.872-4.016c11.275-4.482,19.5-12.239,26.071-24.634,16.4,71.6,19.37,142.641,20.619,214.6Z" transform="translate(-772.761 -466.358)" fill="#fff"/>
    <path d="M1228.219,1097.26c-2.05-3.539-3.442-7.752-6.26-10.5-14.048-13.712-15.84-24.966-7-42.544,1.432-2.847,1.228-7.747-.27-10.634-8.5-16.367-7.006-28.51,6.654-41.052,4.142-3.8,5.762-7.347,5.33-13.109-1.158-15.427,7.268-27.808,22.246-33.346,4.855-1.8,7.747-4.2,9.614-9.319,5.864-16.094,17.4-23.07,34.718-23.066a16.2,16.2,0,0,0,10.6-4.449c12.033-12.56,27.782-17.1,43.569-7.048,2.352,1.5,7.174,1.135,9.872-.262,16.28-8.428,29.6-6.762,41.981,6.781,3.591,3.927,6.835,5.6,12.241,5.327,16.88-.864,27.932,7.144,34.7,23.141a16.783,16.783,0,0,0,8.17,8.166c16.352,6.819,23.866,18.392,23.305,36.4a13.012,13.012,0,0,0,3.292,8.677c15.9,15.977,17.263,24.134,7.711,44.352-1.255,2.655-.66,7.188.791,9.953,8.526,16.258,6.976,28.564-6.687,41.025-4.2,3.83-5.732,7.357-5.281,13.115,1.194,15.266-7.374,27.9-22.306,33.327-4.964,1.8-7.707,4.319-9.58,9.372-5.942,16.036-18.174,23.419-34.771,22.815a14.316,14.316,0,0,0-9.967,3.99c-12.8,14.15-30.365,17.134-44.152,7.668-2.244-1.541-7.418-1.317-9.8.261-12.933,8.571-29.87,6.918-42.031-6.714-3.747-4.2-7.179-5.966-13.012-5.427-14.79,1.368-27.249-6.786-32.958-21.53-2.114-5.459-4.815-8.649-10.471-10.693C1233.653,1126.578,1225.8,1113.927,1228.219,1097.26Zm123.965,9.173a67.512,67.512,0,0,0,67.556-67.206c.075-37.342-30.671-67.782-68.191-67.513-37.133.266-67.319,30.722-67.126,67.727A67.512,67.512,0,0,0,1352.185,1106.433Z" transform="translate(-772.761 -466.358)" fill="#fff"/>
  </g>
</svg>
