<svg xmlns="http://www.w3.org/2000/svg" viewBox="0 0 713.446 1308.101">
  <g>
    <path d="M929.807,425.428V543.934c44.079,0,87.164-.009,130.249,0,32.547.009,35.71,3.217,35.723,36.083.019,47.956.019,47.956-48.943,47.956H930.3V749.148c25.858,0,51.469-.1,77.08.031,23.832.126,28.433,4.763,28.575,28.24.065,10.806-.368,21.629.085,32.416.676,16.1-7.224,23.166-22.725,23.147-21.613-.027-43.227-.04-64.84.076-5.828.031-11.654.554-18.548.905V954.379c27.459,0,53.808-.2,80.151.064,20.671.206,25.583,5.228,25.857,25.428.155,11.4-.422,22.835.127,34.216.816,16.912-7.139,24.2-23.644,24.051-26.931-.242-53.866-.065-82.209-.065v118.472c24.945,0,49.866-.058,74.787.016,26.9.079,30.915,4.2,30.969,31.4.019,9.606-.437,19.236.089,28.813.943,17.169-7.909,24-23.915,24-26.906,0-53.811,0-82.021,0v120.976c45.313,0,89.674-.043,134.035.016,26.879.036,31.531,4.691,31.63,31.157.2,52.855.2,52.855-53.039,52.855H930.125v121.194h21.9q286.378,0,572.755.007c29.579,0,33.1,3.535,33.128,32.809.056,51.091,5.525,51.212-50.693,51.141q-313.394-.4-626.789-.11c-33.518,0-35.756-2.255-35.756-35.69q0-618.684,0-1237.367c0-31.3,3.6-34.917,35.087-34.919q322.4-.02,644.8,0c29.436,0,33.434,3.894,33.326,32.743-.184,49.339,7.274,50.04-49.6,49.95q-277.371-.439-554.744-.109Z" transform="translate(-844.663 -342.829)" fill="#fff"/>
    <path d="M1239.741,1240.833v-490.3c-18.557,0-36.829.178-55.1-.066-11.234-.149-24.047,1.709-29.434-11.773-5.235-13.1,2.3-22.691,10.739-31.986,36.291-39.987,72.268-80.259,108.469-120.328,17.733-19.627,28.761-19.979,45.97-1,37.079,40.893,74.386,81.6,110.35,123.461,6.34,7.379,11.583,22.215,8.285,29.527s-17.632,12.112-27.688,13.306c-17.618,2.092-35.663.584-54.517.584v486.972c19.4,0,38.517-1.23,57.35.533,9.052.847,22.735,5.47,25.019,11.76,2.8,7.705-1.368,21.34-7.334,28.272-37.172,43.195-75.578,85.332-113.815,127.6-15.329,16.946-26.277,16.784-41.9-.457-37.473-41.345-75.153-82.522-111.617-124.744-6.13-7.1-11.328-21.069-8.319-28.241,2.869-6.838,16.747-11.561,26.275-12.564C1200.77,1239.468,1219.41,1240.833,1239.741,1240.833Z" transform="translate(-844.663 -342.829)" fill="#fff"/>
  </g>
</svg>
