<svg xmlns="http://www.w3.org/2000/svg" viewBox="0 0 1348.966 1348.648">
  <g>
    <path d="M1054.394,1618.944c0-19.568.159-39.138-.119-58.7-.064-4.54,1.753-5.926,5.716-6.377,51.992-5.914,101.724-20.339,149.562-41.117a541.869,541.869,0,0,0,132.934-82.546,547.405,547.405,0,0,0,125.5-150.894c30.453-53.786,50.971-111.223,62.364-171.93,1.779-9.476,3.27-19.034,4.239-28.621.412-4.072,2.091-4.477,5.413-4.454,16.874.116,33.75.053,50.625.053,22.44,0,44.881.1,67.32-.083,4.77-.04,6.074.536,5.5,6.147-2.27,22.08-5.71,43.95-10.148,65.663a674.268,674.268,0,0,1-98.344,236.765,655.264,655.264,0,0,1-54.387,71.324,701.532,701.532,0,0,1-48.958,50.691c-35.53,33.039-73.906,62.416-115.823,86.992-46.1,27.028-94.428,49.077-145.585,64.771a679.369,679.369,0,0,1-97.152,22.28c-11.137,1.7-22.315,2.944-33.5,4.246-4.021.468-5.282-.851-5.242-4.967C1054.5,1658.44,1054.394,1638.692,1054.394,1618.944Z" transform="translate(-315.209 -334.972)" fill="#fff" stroke="#fff" stroke-miterlimit="10" stroke-width="0.5"/>
    <path d="M380.214,1074.357c19.747,0,39.5.068,59.242-.064,3.469-.023,4.792.7,5.285,4.581A541.936,541.936,0,0,0,471.289,1190.9a548.727,548.727,0,0,0,87.436,158.96,529.982,529.982,0,0,0,57.557,62.42,549.906,549.906,0,0,0,244.667,131.057,417.805,417.805,0,0,0,58.514,10.537c4.088.4,5.618,2.071,5.6,6.478-.187,38.417-.107,76.835-.108,115.252,0,8.139-.022,8.313-7.945,7.386-21.654-2.535-43.182-5.788-64.57-10.163a673.82,673.82,0,0,1-181.769-65.75c-37.487-19.9-72.48-43.46-105.652-69.911a678.44,678.44,0,0,1-70.833-65.908,638.358,638.358,0,0,1-61.057-75.618,691.4,691.4,0,0,1-54.692-93.742,678.5,678.5,0,0,1-54.362-165.367c-3.708-19.3-6.309-38.784-8.546-58.318-.482-4.208,1.744-3.864,4.37-3.861q23.7.022,47.394.007Z" transform="translate(-315.209 -334.972)" fill="#30bcc5" stroke="#fff" stroke-miterlimit="10" stroke-width="0.5"/>
    <path d="M1599.28,944.109c-19.752,0-39.5-.06-59.256.058-3.353.02-5.018-.49-5.5-4.452a491.1,491.1,0,0,0-12.651-66.86c-14.978-56.352-37.522-109.424-69-158.609a559.151,559.151,0,0,0-64.524-82.43c-38.711-41.033-82.814-74.888-131.939-102.534-52.213-29.383-108.013-48.541-166.572-60.13-10.155-2.01-20.467-3.331-30.761-4.483-3.845-.43-4.736-1.935-4.729-5.424q.116-59.795-.033-119.589c-.015-4.279,1.922-4.76,5.261-4.289,18.4,2.592,36.839,4.724,55.135,8.158a689.959,689.959,0,0,1,100.01,26.709,680.475,680.475,0,0,1,329.653,250.19,666.348,666.348,0,0,1,53.5,90.1A674.838,674.838,0,0,1,1655.655,884.9c3.4,18.474,5.723,37.074,8.2,55.669.587,4.412-2.44,3.518-4.776,3.523Q1629.177,944.145,1599.28,944.109Z" transform="translate(-315.209 -334.972)" fill="#30bcc5" stroke="#fff" stroke-miterlimit="10" stroke-width="0.5"/>
    <path d="M379.986,944.109q-28.82,0-57.64,0c-6.841,0-6.737.005-6.149-6.768,2.325-26.771,7.155-53.135,13.062-79.3A669.606,669.606,0,0,1,378.1,717.765a679.037,679.037,0,0,1,82.333-131.424,632.248,632.248,0,0,1,66.82-72.215c44.928-41.3,94.034-76.718,148.329-105.014a685.824,685.824,0,0,1,163.908-60.466,549.565,549.565,0,0,1,75.61-12.411c9.866-.858,9.854-1,9.854,8.883,0,37.349-.07,74.7.085,112.047.02,4.86-.673,6.943-6.441,7.671a538.75,538.75,0,0,0-157.378,44.975A551.51,551.51,0,0,0,531.1,707.075c-36.111,54.5-61.112,113.857-76.54,177.293a487.131,487.131,0,0,0-9.817,55.407c-.509,4.118-2.272,4.393-5.505,4.379C419.491,944.065,399.738,944.109,379.986,944.109Z" transform="translate(-315.209 -334.972)" fill="#30bcc5" stroke="#fff" stroke-miterlimit="10" stroke-width="0.5"/>
  </g>
</svg>
