<svg xmlns="http://www.w3.org/2000/svg" viewBox="0 0 917.934 965.647">
  <g>
    <path d="M606.64,763.857c28.576,31.785,56.557,64.135,86.021,95.074,11.68,12.266,15.8,24.619,15.716,41.388-.675,130.976-.374,261.956-.374,392.936v10.955h592.259V711.829h-10.491q-179.654,0-359.307.14c-6.479.01-10.764-1.8-15.074-6.741-25.4-29.116-51.194-57.894-76.846-86.793-2.521-2.84-4.985-5.73-8.437-9.7,3.355-.379,5.454-.824,7.552-.824q247.8-.047,495.6.032c42.817.038,71.624,29.214,71.628,71.783q.029,328.333,0,656.666c0,42.881-28.425,71.779-71.365,71.8q-328.775.178-657.549.009c-43.173-.02-71.42-28.506-71.427-71.512q-.047-281.871-.014-563.741,0-4.274,0-8.548Z" transform="translate(-486.963 -442.63)" fill="#8e8e8e"/>
    <path d="M579.608,670.832,716.878,548.163l337.35,375.307-135.8,122.678Z" transform="translate(-486.963 -442.63)" fill="#8e8e8e"/>
    <path d="M553.234,641.679c-19.478-22.213-39.051-43.44-57.318-65.737-12.754-15.567-11.9-35.817,2.7-49.861,26.765-25.735,54.373-50.636,82.422-74.972,13.708-11.893,35.958-11.231,48.771,1.715,20.874,21.091,40.323,43.594,60.86,66.033Z" transform="translate(-486.963 -442.63)" fill="#8e8e8e"/>
    <path d="M1100.954,1111.867l-156.2-35.052L1080.519,952.73Z" transform="translate(-486.963 -442.63)" fill="#8e8e8e"/>
  </g>
</svg>
