<svg xmlns="http://www.w3.org/2000/svg" viewBox="0 0 1516.298 1387.163">
  <g>
    <path d="M728.693,411.312c95.062-164.48,233.809-240.437,424.028-206.285,88.436,15.878,159.657,63.766,216.194,133.663,56.122,69.385,81.085,149.686,83.56,231.985,40.833,16.66,80.887,27.7,115.436,48.08a276.83,276.83,0,0,1,127.623,309.866c-32.362,123.111-135.113,207.821-261.8,212.609-69.792,2.638-139.745,1.214-209.626,1.243-245.367.1-490.736-.437-736.1.27-99.023.285-180.875-33.862-241.677-113.4C118.841,862.559,213.008,620.751,420.914,581.147c12.1-2.305,20.716-3.271,21.633-19.387,7.688-135.077,154.822-220.294,280.02-152.564A38.336,38.336,0,0,0,728.693,411.312Z" transform="translate(-188.452 -197)" fill="#5232c2"/>
    <path d="M954.072,1584.15c-55.194-.467-84.686-46.476-63.485-90.4,40.886-84.7,83.321-168.665,125.856-252.558,16.225-32,53.155-43.931,83.409-28.887,33.045,16.432,45.54,50.1,29.244,84.59-21.382,45.26-44.4,89.747-66.748,134.55-19.3,38.694-38.54,77.419-58.011,116.027C992.35,1571.245,973.158,1583.965,954.072,1584.15Z" transform="translate(-188.452 -197)" fill="#5232c2"/>
    <path d="M1199.489,1584.1c-45.377.031-77.572-44.189-58.132-85.337,41.777-88.425,85.931-175.76,130.771-262.685,14.949-28.981,53.442-37.877,81.514-23.072,30.1,15.874,44.441,48.569,29.81,78.956-42.43,88.126-86.322,175.565-130.9,262.629C1242.306,1574.606,1222.814,1584.372,1199.489,1584.1Z" transform="translate(-188.452 -197)" fill="#5232c2"/>
    <path d="M442.622,1584.161c-49.722.41-78.7-46.769-56.087-93.341,31.474-64.808,64.286-128.967,96.528-193.4,9.5-18.991,18.533-38.237,28.628-56.908,16.5-30.518,51.865-42.738,81.735-28.947,33.045,15.257,47.589,50.533,31.284,84.068-41.783,85.935-84.749,171.3-128.12,256.452C485.879,1573.114,466.733,1583.779,442.622,1584.161Z" transform="translate(-188.452 -197)" fill="#5232c2"/>
    <path d="M703.246,1584.139c-57.77-.329-86.2-46.778-64.572-92.2,23.145-48.607,47.895-96.45,71.968-144.614,16.953-33.918,33.761-67.911,50.972-101.7,17.9-35.134,53.608-48.992,85.3-33.532,34.27,16.716,46.033,52.217,27.957,88.852-40.6,82.291-81.827,164.277-123,246.287C739.993,1570.908,720.945,1584.009,703.246,1584.139Z" transform="translate(-188.452 -197)" fill="#5232c2"/>
  </g>
</svg>
