<svg xmlns="http://www.w3.org/2000/svg" viewBox="0 0 1336 901.31">
  <path d="M1504.127,928.724h14.766c41.2,0,82.4-.111,123.6.041,28.437.1,39.483,11.4,39.487,39.785q.009,69.218-.014,138.437c-.028,23.479-12.12,35.863-35.7,35.976-42.436.2-84.875.061-127.312.062h-14.845v15.584q0,121.132-.009,242.264c-.008,25.7-11.707,37.779-37.637,37.94q-63.654.395-127.312.017c-26.556-.13-38.323-12.2-38.327-38.554q-.019-121.132,0-242.264c0-4.451,0-8.9,0-14.165h-573.5v13.928q0,121.75-.01,243.5c-.008,24.662-12.105,37.318-37.028,37.512q-64.888.5-129.783-.008c-24.927-.2-36.657-12.645-36.67-37.682q-.061-121.132-.014-242.264c0-4.832,0-9.665,0-15.808H480.664c-32.549,0-65.1.1-97.647-.034-25.213-.1-36.955-11.974-36.981-37.174q-.072-69.836,0-139.673c.026-25.038,11.613-37.131,36.9-37.333,42.435-.339,84.874-.1,127.312-.1h13.577V912.762q0-167.484,0-334.967c0-28.35,11.2-39.83,39.424-39.924q62.416-.209,124.832.007c27.573.109,39.22,11.891,39.243,39.038.006,7.416,1.146,15.052-.222,22.206-3.588,18.766,6.014,28.147,21.2,36.453,47.241,25.838,97.933,40.542,150.734,48.579,107.334,16.339,213.623,12.827,317.352-21.486,25.909-8.57,49.946-22.83,74.773-34.622,7.37-3.5,10.459-9.112,9.893-17.819-.854-13.129-.381-26.357-.177-39.538.273-17.587,10.572-30.37,28.049-31.7,20.073-1.527,40.312-1.007,60.48-1.121,25.544-.144,51.091-.22,76.634.021,26.687.251,38.076,12,38.079,38.735q.018,168.1,0,336.2ZM727.716,1078.264h572.425V993.593H727.716Zm193.7-323.294V928.015h184.777V754.97Zm378.749-52.836c-39.416,12.585-78.268,25.49-117.5,37.134-8.833,2.622-11.731,5.7-11.665,14.77.393,53.886.178,107.777.228,161.666,0,3.956.488,7.911.774,12.251h128.158ZM855.265,928.1c.568-2.036,1.166-3.181,1.167-4.326.08-58.1-.005-116.2.28-174.3.037-7.616-4.569-8.2-9.933-9.7-22.167-6.189-44.489-11.978-66.267-19.351-17.748-6.009-34.8-14.064-52.5-21.348V928.1ZM410.9,993.27v85.014H522.675V993.27Zm1094.141.155V1078.2H1617.21V993.425Z" transform="translate(-346 -537.732)" fill="#5232c2"/>
</svg>
