<?xml version="1.0" encoding="utf-8"?>
<!-- Generator: Adobe Illustrator 25.3.1, SVG Export Plug-In . SVG Version: 6.00 Build 0)  -->
<svg version="1.1" id="Layer_1" xmlns="http://www.w3.org/2000/svg" xmlns:xlink="http://www.w3.org/1999/xlink" x="0px" y="0px"
	 viewBox="0 0 601.5 133" style="enable-background:new 0 0 601.5 133;" xml:space="preserve">
<style type="text/css">
	.st0{fill:#FFFFFF;}
	.st1{fill:#F16752;}
</style>
<g>
	<rect x="149" y="23.4" class="st0" width="7.4" height="34.1"/>
	<polygon class="st0" points="170,35.5 183.3,57.5 190.6,57.5 190.6,57.5 190.6,23.4 183.3,23.4 183.3,45.3 170,23.4 162.7,23.4 
		162.7,57.5 170,57.5 	"/>
	<polygon class="st0" points="201.9,23.4 196.5,23.4 196.5,57.5 203.9,57.5 203.9,43.7 217.3,43.7 217.3,37.8 203.9,37.8 
		203.9,29.3 218.9,29.3 218.9,23.4 203.9,23.4 	"/>
	<path class="st0" d="M230.1,45.1h5.3l6.3,12.3h7.9v-0.4l-7.3-13.9c0.9-0.4,1.8-0.9,2.5-1.5c1.1-0.9,2-1.9,2.6-3.3
		c0.6-1.3,0.9-2.9,0.9-4.8c0-2.2-0.5-4.1-1.5-5.7c-1-1.5-2.5-2.7-4.4-3.5c-1.9-0.8-4.2-1.2-6.8-1.2h-12.8v34.1h7.4V45.1z
		 M235.6,29.3c1.8,0,3.2,0.4,4,1.3c0.9,0.9,1.3,2.1,1.3,3.6c0,1-0.2,1.9-0.6,2.6c-0.4,0.7-1,1.3-1.8,1.7c-0.8,0.4-1.8,0.6-3,0.6
		h-5.5v-9.9H235.6z"/>
	<path class="st0" d="M260.9,50.7H273l2.2,6.8h7.8l-12.7-34.1h-1.9h-3.1h-1.8l-12.7,34.1h7.8L260.9,50.7z M266.9,32.4l4.1,12.4h-8.1
		L266.9,32.4z"/>
	<polygon class="st0" points="293.4,57.5 309.1,57.5 309.1,51.5 293.4,51.5 293.4,42.8 306.7,42.8 306.7,42.8 306.7,37.1 
		293.4,37.1 293.4,29.3 309.1,29.3 309.1,29.3 309.1,23.4 293.4,23.4 291.1,23.4 286.1,23.4 286.1,57.5 291.1,57.5 	"/>
	<path class="st0" d="M322.4,29.3c0.8-0.3,1.8-0.5,2.9-0.5c1.2,0,2.2,0.2,3,0.6c0.8,0.4,1.4,1,1.8,1.7c0.4,0.7,0.6,1.5,0.6,2.4h7.3
		c0-2.1-0.5-3.9-1.6-5.5c-1-1.6-2.5-2.8-4.4-3.7c-1.9-0.9-4.1-1.3-6.6-1.3c-2.5,0-4.7,0.4-6.6,1.2c-1.9,0.8-3.4,1.9-4.5,3.3
		c-1.1,1.4-1.6,3.1-1.6,5c0,1.5,0.3,2.8,0.9,3.9c0.6,1.1,1.4,2.1,2.5,3c1.1,0.8,2.3,1.6,3.7,2.2c1.4,0.6,2.8,1.2,4.4,1.7
		c1.8,0.6,3.2,1.1,4.1,1.6c0.9,0.5,1.6,1,1.9,1.6c0.3,0.6,0.5,1.2,0.5,2c0,0.7-0.2,1.3-0.5,1.9c-0.4,0.6-0.9,1-1.6,1.3
		c-0.7,0.3-1.7,0.5-2.9,0.5c-1,0-1.9-0.1-2.7-0.3c-0.8-0.2-1.5-0.5-2.1-0.9c-0.6-0.4-1-1-1.3-1.7c-0.3-0.7-0.5-1.5-0.5-2.6h-7.4
		c0,2,0.4,3.6,1.2,5.1c0.8,1.4,1.9,2.6,3.2,3.5c1.3,0.9,2.8,1.6,4.5,2.1c1.6,0.4,3.3,0.7,5,0.7c2.5,0,4.7-0.4,6.6-1.1
		c1.9-0.8,3.3-1.8,4.3-3.3c1-1.4,1.5-3.1,1.5-5.1c0-1.9-0.4-3.5-1.3-4.9c-0.9-1.4-2.1-2.6-3.8-3.6c-1.7-1-3.8-1.9-6.3-2.6
		c-1.4-0.4-2.6-0.9-3.6-1.3c-1-0.5-1.7-1-2.2-1.5c-0.5-0.5-0.8-1.2-0.8-1.9c0-0.7,0.2-1.3,0.6-1.9C321,30.1,321.6,29.6,322.4,29.3z"
		/>
	<polygon class="st0" points="350.8,23.4 340.6,23.4 340.6,29.3 350.8,29.3 350.8,57.5 358.2,57.5 358.2,29.3 368.5,29.3 
		368.5,23.4 358.2,23.4 	"/>
	<path class="st0" d="M394.4,41.7c1.1-0.9,2-1.9,2.6-3.3c0.6-1.3,0.9-2.9,0.9-4.8c0-2.2-0.5-4.1-1.5-5.7c-1-1.5-2.5-2.7-4.4-3.5
		c-1.9-0.8-4.2-1.2-6.8-1.2h-12.8v34.1h7.4V45.1h5.3l6.3,12.3h7.9v-0.4l-7.3-13.9C392.8,42.8,393.7,42.3,394.4,41.7z M379.8,29.3
		h5.5c1.8,0,3.2,0.4,4,1.3c0.9,0.9,1.3,2.1,1.3,3.6c0,1-0.2,1.9-0.6,2.6c-0.4,0.7-1,1.3-1.8,1.7c-0.8,0.4-1.8,0.6-3,0.6h-5.5V29.3z"
		/>
	<path class="st0" d="M421.8,45.8c0,1.5-0.2,2.7-0.7,3.6c-0.4,0.9-1.1,1.6-2,2c-0.9,0.4-1.9,0.6-3.1,0.6c-1.2,0-2.3-0.2-3.1-0.6
		c-0.9-0.4-1.5-1.1-2-2c-0.5-0.9-0.7-2.1-0.7-3.6V23.4h-7.4v22.4c0,2.6,0.6,4.9,1.7,6.7c1.1,1.8,2.7,3.2,4.7,4.1
		c2,0.9,4.3,1.4,6.8,1.4c2.6,0,4.8-0.5,6.8-1.4s3.5-2.3,4.6-4.1c1.1-1.8,1.7-4,1.7-6.7V23.4h-7.4V45.8z"/>
	<path class="st0" d="M441.9,33.4c0.5-1.5,1.2-2.7,2.2-3.4c1-0.7,2.3-1.1,3.8-1.1c2.3,0,3.9,0.5,4.8,1.6c0.9,1,1.5,2.6,1.6,4.6h7.4
		c-0.2-2.3-0.9-4.4-2-6.3c-1.1-1.8-2.6-3.3-4.6-4.3s-4.4-1.6-7.3-1.6c-2.9,0-5.4,0.7-7.5,2c-2.1,1.3-3.8,3.2-5,5.7
		c-1.2,2.5-1.8,5.4-1.8,8.8v2.1c0,3.4,0.6,6.3,1.7,8.8c1.1,2.5,2.8,4.4,4.9,5.7c2.1,1.3,4.6,2,7.6,2c2.8,0,5.2-0.5,7.2-1.5
		c2-1,3.6-2.4,4.7-4.2c1.1-1.8,1.8-3.8,1.9-6.2v0h-7.3c-0.1,1.3-0.4,2.4-0.9,3.3c-0.5,0.9-1.2,1.5-2.1,2c-0.9,0.4-2.1,0.6-3.5,0.6
		c-1.6,0-2.9-0.4-3.9-1.1c-1-0.8-1.7-1.9-2.1-3.5c-0.4-1.5-0.7-3.5-0.7-5.9v-2.1C441.2,36.9,441.4,35,441.9,33.4z"/>
	<polygon class="st0" points="473.5,23.4 463.3,23.4 463.3,29.3 473.5,29.3 473.5,57.5 480.9,57.5 480.9,29.3 491.2,29.3 
		491.2,23.4 480.9,23.4 	"/>
	<path class="st0" d="M513.8,45.8c0,1.5-0.2,2.7-0.7,3.6c-0.4,0.9-1.1,1.6-2,2c-0.9,0.4-1.9,0.6-3.1,0.6c-1.2,0-2.3-0.2-3.1-0.6
		c-0.9-0.4-1.5-1.1-2-2c-0.5-0.9-0.7-2.1-0.7-3.6V23.4h-7.4v22.4c0,2.6,0.6,4.9,1.7,6.7c1.1,1.8,2.7,3.2,4.7,4.1
		c2,0.9,4.3,1.4,6.9,1.4c2.6,0,4.8-0.5,6.8-1.4s3.5-2.3,4.6-4.1c1.1-1.8,1.7-4,1.7-6.7V23.4h-7.4V45.8z"/>
	<path class="st0" d="M548.7,41.7c1.1-0.9,2-1.9,2.6-3.3c0.6-1.3,0.9-2.9,0.9-4.8c0-2.2-0.5-4.1-1.5-5.7c-1-1.5-2.5-2.7-4.4-3.5
		c-1.9-0.8-4.2-1.2-6.8-1.2h-12.8v34.1h7.4V45.1h5.3l6.3,12.3h7.9v-0.4l-7.3-13.9C547.1,42.8,548,42.3,548.7,41.7z M534.1,29.3h5.5
		c1.8,0,3.1,0.4,4,1.3c0.9,0.9,1.3,2.1,1.3,3.6c0,1-0.2,1.9-0.6,2.6c-0.4,0.7-1,1.3-1.8,1.7c-0.8,0.4-1.8,0.6-3,0.6h-5.5V29.3z"/>
	<path class="st0" d="M579.1,57.5h7.8l-12.7-34.1h-1.9h-3.1h-1.8l-12.7,34.1h7.8l2.2-6.8h12.1L579.1,57.5z M566.8,44.7l4.1-12.4
		l4.1,12.4H566.8z"/>
	<path class="st0" d="M162.3,75L162.3,75l-3,0l-13,34.1h4.7l3.2-8.9h14.2l3.2,8.9h4.7l-13-34.1H162.3z M155.5,96.5l5.8-15.9
		l5.8,15.9H155.5z"/>
	<path class="st0" d="M199.6,92.3c-0.7-0.5-1.5-0.8-2.5-1.1c0.3-0.1,0.7-0.3,1-0.5c1.3-0.7,2.3-1.6,3-2.8c0.7-1.1,1.1-2.4,1.1-3.8
		c0-3.2-1-5.5-2.9-6.9c-2-1.4-4.7-2.2-8.2-2.2H180v34.1h1.7c0,0,1.7,0,2.8,0c3,0,7.4,0,7.4,0c3.4,0,6.1-0.8,8.2-2.5
		c2.1-1.7,3.1-4.1,3.1-7.3c0-1.5-0.3-2.8-0.9-4C201.7,94,200.8,93,199.6,92.3z M191.1,78.7c2.2,0,3.9,0.4,5,1.3
		c1.1,0.9,1.6,2.2,1.6,4.1c0,1.7-0.6,3.1-1.8,4.1c-1.2,1-2.7,1.5-4.7,1.5h-5.5v0h-1.2V78.7H191.1z M196.9,103.8
		c-1.2,1.1-2.8,1.7-5,1.7h-7.4V93.1h1.2h6.4h0c1.5,0,2.8,0.2,3.7,0.7c1,0.5,1.7,1.2,2.1,2.1c0.5,0.9,0.7,2,0.7,3.3
		C198.6,101.2,198,102.7,196.9,103.8z"/>
	<rect x="209.2" y="75" class="st0" width="4.5" height="34.1"/>
	<polygon class="st0" points="225.5,93.3 240.2,93.3 240.2,89.7 225.5,89.7 225.5,78.7 242.4,78.7 242.4,75 225.5,75 224.6,75 
		221,75 221,109.1 224.6,109.1 225.5,109.1 242.6,109.1 242.6,105.5 225.5,105.5 	"/>
	<path class="st0" d="M266.8,92.8c1.2-0.9,2.1-2,2.7-3.3c0.6-1.3,0.9-2.7,0.9-4.3c0-2.2-0.5-4.1-1.4-5.6c-0.9-1.5-2.3-2.7-4.1-3.5
		c-1.8-0.8-3.9-1.2-6.5-1.2h-11.3v34.1h4.5V95.3h7.9l7.4,13.8h4.9v-0.3l-8-14.5C265.1,93.9,266,93.4,266.8,92.8z M251.8,91.6V78.7
		h6.7c2.6,0,4.5,0.6,5.6,1.8c1.2,1.2,1.8,2.8,1.8,4.8c0,1.2-0.3,2.2-0.8,3.2c-0.5,1-1.3,1.7-2.4,2.3c-1.1,0.6-2.4,0.9-4.1,0.9H251.8
		z"/>
	<polygon class="st0" points="298.2,78.7 298.2,75 287.2,75 282.7,75 271.8,75 271.8,78.7 282.7,78.7 282.7,109.1 287.2,109.1 
		287.2,78.7 	"/>
	<path class="st0" d="M312.3,75L312.3,75l-3,0l-13,34.1h4.7l3.2-8.9h14.2l3.2,8.9h4.7l-13-34.1H312.3z M305.5,96.5l5.8-15.9
		l5.8,15.9H305.5z"/>
	<path class="st1" d="M84.1,58.8H69.5v13.5H67v-16h8.5V41.8h-2.8v-5.7h-3.2v-4.5h-2.5v4.5h-3.2v5.7h-2.9v30.5h-2.5V47.5h-11v24.8
		h-3.2v2.5h43.2v-2.5h-3.2V58.8z M69.8,44.9h2.5v2.5h-2.5V44.9z M69.8,50.6h2.5v2.5h-2.5V50.6z M54,71.3h-2.5v-2.5H54V71.3z
		 M54,65.2h-2.5v-2.5H54V65.2z M54,59.2h-2.5v-2.5H54V59.2z M54,53.1h-2.5v-2.5H54V53.1z M66.6,53.1h-2.5v-2.5h2.5V53.1z M66.6,47.5
		h-2.5v-2.5h2.5V47.5z M66.9,39.3h2.5v2.5h-2.5V39.3z M75.2,72.3h-2.5V62.1h2.5V72.3z M80.9,72.3h-2.5V62.1h2.5V72.3z"/>
	<path class="st1" d="M65.4,13.9c-23.6,0-42.9,19.2-42.9,42.9c0,10.1,3.6,19.8,10.1,27.5L7.3,110.5c-2.1,2.2-2.1,5.8,0.2,7.9
		c1,1,2.4,1.6,3.9,1.6c1.5,0,3-0.6,4-1.7l25.5-26.5c7.2,5.1,15.7,7.8,24.6,7.8c23.6,0,42.9-19.2,42.9-42.9
		C108.3,33.1,89,13.9,65.4,13.9z M65.4,88.4c-17.5,0-31.7-14.2-31.7-31.7C33.7,39.2,47.9,25,65.4,25c17.5,0,31.7,14.2,31.7,31.7
		C97.1,74.2,82.9,88.4,65.4,88.4z"/>
</g>
</svg>
